<svg width="471" height="249" viewBox="0 0 471 249" fill="none" xmlns="http://www.w3.org/2000/svg">
<path d="M443.308 247.92C416.405 247.92 24.5086 248.001 24.2825 247.402L24.2445 247.326C24.226 247.292 24.2132 247.255 24.2065 247.217C24.0563 246.922 -36.176 163.723 57.4618 105.802C63.9126 101.813 68.0192 98.0632 70.5688 94.452C82.5038 77.556 60.2979 63.7394 84.3025 42.9508C117.791 13.9592 154.328 46.0321 191.56 32.8853C198.137 30.5636 204.74 26.8298 211.347 21.0971C215.1 17.863 219.175 15.0229 223.509 12.6214C224.177 12.2486 224.853 11.8809 225.535 11.5253C228.175 10.155 230.883 8.92092 233.648 7.82778C235.523 7.08666 237.433 6.40078 239.378 5.77014C242.466 4.76665 245.631 3.90355 248.872 3.18084C253.542 2.13546 258.268 1.35683 263.027 0.848742C265.132 0.618582 267.255 0.43618 269.394 0.301537C288.883 -0.927519 309.515 1.66006 328.431 6.97849C349.903 13.0098 369.146 22.5592 381.991 34.0315C386.856 38.3798 408.975 60.8705 391.539 91.7816C380.531 111.301 426.648 129.941 443.037 152.23C484.702 208.894 443.686 247.183 443.308 247.92Z" fill="#EBF3FA"/>
<path d="M382.079 174.099C381.834 172.863 382.452 172.575 382.452 172.575C382.452 172.575 394.822 168.667 395.854 168.192C396.886 167.717 404.872 156.972 404.872 156.972C404.872 156.972 407.893 152.544 410.894 153.055C413.501 153.499 414.732 155.332 415.303 157.155C415.632 158.218 415.634 159.356 415.307 160.42C414.98 161.484 414.34 162.425 413.47 163.12C409.488 166.321 401.502 172.644 399.54 173.5C395.176 175.399 382.837 175.744 382.837 175.744C382.46 175.262 382.201 174.699 382.079 174.099Z" fill="#98BAF4"/>
<path d="M381.696 172.457C381.075 172.127 379.671 171.408 379.625 171.613C379.593 171.761 379.694 171.993 379.88 172.224C379.062 172.032 378.245 171.941 376.416 172.54C376.233 172.597 376.064 172.691 375.919 172.816C375.774 172.94 375.656 173.093 375.571 173.265C375.418 173.588 375.399 173.968 375.917 174.204C376.952 174.677 376.626 174.356 378.066 175.053C379.505 175.751 381.163 175.765 382.059 175.033L383.336 174.649L383.224 172.481C383.224 172.481 382.468 172.486 381.696 172.457Z" fill="#ED975D"/>
<path d="M349.891 246.503L300.733 226.964C299.472 226.463 298.322 225.718 297.349 224.772C296.376 223.827 295.598 222.699 295.061 221.453C294.524 220.207 294.238 218.867 294.218 217.511C294.199 216.154 294.447 214.807 294.948 213.546L326.51 134.168C327.521 131.623 329.501 129.582 332.015 128.496C334.53 127.41 337.373 127.366 339.919 128.375L349.146 132.043C348.973 134.588 350.211 137.18 352.598 138.132C355.116 139.133 358.619 139.007 360.04 136.374L388.55 147.709C388.434 148.678 388.594 149.659 389.012 150.541C389.903 152.395 392.33 153.131 394.324 152.557C395.057 153.891 395.486 155.371 395.58 156.891C395.674 158.41 395.431 159.931 394.867 161.346L363.316 240.721C362.815 241.983 362.07 243.133 361.124 244.107C360.177 245.08 359.049 245.858 357.802 246.395C356.555 246.931 355.215 247.217 353.857 247.236C352.5 247.254 351.152 247.005 349.891 246.503Z" fill="#FFA412"/>
<path d="M367.447 207.884L314.48 186.824C312.439 186.012 310.805 184.423 309.935 182.406C309.066 180.389 309.033 178.11 309.843 176.068L330.318 124.56L349.145 132.045C348.973 134.59 350.21 137.182 352.598 138.133C355.116 139.135 358.619 139.009 360.039 136.376L365.852 138.688C365.587 139.635 365.51 140.625 365.624 141.601C365.955 144.686 367.971 147.805 371.068 149.036C374.712 150.484 378.808 148.052 380.524 144.519L388.549 147.709C388.434 148.678 388.594 149.66 389.012 150.541C389.903 152.395 392.33 153.131 394.324 152.558C394.569 152.488 394.808 152.397 395.038 152.287C395.681 151.978 396.234 151.51 396.645 150.928L398.679 151.736L378.203 203.244C377.391 205.285 375.802 206.921 373.785 207.791C371.768 208.661 369.488 208.694 367.447 207.884Z" fill="#FFB93E"/>
<path d="M360.12 171.404C357.025 170.174 355.007 167.054 354.676 163.97C354.491 162.47 354.776 160.951 355.493 159.621C356.209 158.291 357.321 157.217 358.675 156.547H358.687C359.633 156.067 360.67 155.794 361.729 155.746C362.789 155.698 363.846 155.876 364.831 156.269C368.673 157.797 371.359 162.47 369.837 166.312C368.314 170.155 363.968 172.932 360.12 171.404Z" fill="#FFA412"/>
<path opacity="0.5" d="M359.28 169.701C356.837 168.729 355.169 166.397 354.676 163.97C354.491 162.47 354.776 160.951 355.493 159.621C356.209 158.291 357.321 157.217 358.675 156.547H358.687C360.196 155.978 361.863 155.994 363.36 156.592C366.687 157.914 369.014 161.964 367.691 165.29C366.369 168.617 362.606 171.023 359.28 169.701Z" fill="#FFB93E"/>
<path d="M380.658 155.877C382.336 155.069 384.385 155.421 385.778 156.452C386.465 156.944 386.982 157.637 387.259 158.436C387.535 159.235 387.556 160.099 387.32 160.911C387.159 161.482 386.879 162.012 386.498 162.466C386.116 162.92 385.643 163.288 385.108 163.545C383.025 164.548 380.083 163.89 379.081 161.8C378.078 159.709 378.575 156.88 380.658 155.877Z" fill="#FFA412"/>
<path opacity="0.5" d="M381.679 156.177C383.003 155.539 384.594 155.735 385.778 156.452C386.465 156.944 386.983 157.637 387.259 158.436C387.535 159.235 387.556 160.099 387.32 160.911C386.982 161.744 386.345 162.421 385.533 162.809C383.729 163.672 381.181 163.103 380.313 161.299C379.445 159.495 379.875 157.046 381.679 156.177Z" fill="#FFB93E"/>
<path d="M364.922 189.291C363.867 187.249 364.232 184.712 365.452 182.958C365.916 182.273 366.54 181.712 367.27 181.323C368.386 180.745 369.676 180.595 370.895 180.902C371.604 181.08 372.268 181.407 372.841 181.861C373.415 182.316 373.885 182.887 374.219 183.538C375.528 186.072 374.812 189.719 372.277 191.028C369.743 192.336 366.231 191.824 364.922 189.291Z" fill="#FFA412"/>
<path opacity="0.5" d="M365.256 188.023C364.424 186.412 364.61 184.444 365.453 182.958C365.916 182.273 366.54 181.712 367.27 181.323C368.387 180.745 369.676 180.595 370.895 180.902C371.939 181.288 372.801 182.05 373.312 183.039C374.444 185.233 373.83 188.39 371.629 189.526C369.428 190.662 366.385 190.217 365.256 188.023Z" fill="#FFB93E"/>
<path d="M338.805 181.356C336.64 179.386 335.948 176.195 336.63 173.557C336.941 172.266 337.646 171.105 338.648 170.233C339.649 169.361 340.897 168.822 342.218 168.691H342.228C343.154 168.589 344.092 168.685 344.978 168.974C345.864 169.263 346.679 169.737 347.367 170.365C350.053 172.811 350.819 177.486 348.37 180.174C345.92 182.861 341.489 183.802 338.805 181.356Z" fill="#FFA412"/>
<path opacity="0.5" d="M338.641 179.694C336.932 178.14 336.283 175.704 336.63 173.557C336.942 172.266 337.647 171.104 338.648 170.232C339.649 169.361 340.897 168.822 342.218 168.691H342.228C343.645 168.691 345.011 169.22 346.057 170.175C348.384 172.292 349.043 176.343 346.92 178.668C344.797 180.993 340.967 181.812 338.641 179.694Z" fill="#FFB93E"/>
<path d="M328.61 166.148C326.856 165.851 325.455 164.446 324.939 162.868C324.676 162.107 324.655 161.283 324.881 160.51C325.107 159.737 325.567 159.053 326.199 158.553C326.638 158.196 327.149 157.937 327.697 157.794C328.245 157.651 328.817 157.626 329.375 157.723C331.552 158.09 333.476 160.231 333.107 162.409C332.738 164.588 330.787 166.524 328.61 166.148Z" fill="#FFA412"/>
<path opacity="0.5" d="M327.982 165.352C326.601 165.118 325.467 164.085 324.939 162.873C324.676 162.112 324.655 161.288 324.881 160.515C325.107 159.742 325.567 159.058 326.199 158.558C326.923 158.093 327.795 157.915 328.643 158.059C330.528 158.378 332.194 160.234 331.876 162.117C331.559 164.001 329.865 165.67 327.982 165.352Z" fill="#FFB93E"/>
<path d="M357.659 198.274C356.225 198.87 354.536 198.485 353.423 197.565C352.873 197.125 352.474 196.524 352.281 195.847C352.088 195.17 352.11 194.45 352.344 193.786C352.503 193.318 352.761 192.89 353.098 192.529C353.436 192.168 353.847 191.884 354.303 191.694C356.083 190.955 358.5 191.64 359.239 193.42C359.977 195.2 359.437 197.535 357.659 198.274Z" fill="#FFA412"/>
<path opacity="0.5" d="M356.824 197.979C355.691 198.45 354.377 198.214 353.423 197.565C352.873 197.125 352.474 196.524 352.281 195.847C352.088 195.17 352.11 194.45 352.344 193.786C352.662 193.105 353.224 192.568 353.918 192.281C355.458 191.64 357.552 192.234 358.192 193.774C358.833 195.314 358.363 197.339 356.824 197.979Z" fill="#FFB93E"/>
<path d="M331.066 139.806C331.91 137.003 334.491 135.004 337.167 134.482C338.196 134.267 339.263 134.306 340.274 134.596C341.808 135.056 343.121 136.063 343.963 137.426V137.436C344.453 138.227 344.769 139.113 344.891 140.036C345.012 140.958 344.936 141.896 344.667 142.787C343.619 146.267 339.728 148.969 336.25 147.921C332.772 146.873 330.017 143.284 331.066 139.806Z" fill="#FFA412"/>
<path opacity="0.5" d="M332.496 138.941C333.162 136.73 335.085 135.095 337.167 134.482C338.196 134.267 339.263 134.306 340.274 134.596C341.808 135.056 343.121 136.063 343.963 137.426V137.436C344.574 138.713 344.685 140.173 344.275 141.529C343.367 144.541 339.996 146.88 336.985 145.974C333.975 145.067 331.588 141.953 332.496 138.941Z" fill="#FFB93E"/>
<path d="M414.347 151.265C414.347 151.265 411.24 154.945 407.294 153.405C407.294 153.405 406.445 151.349 406.431 149.835C406.431 149.649 406.431 149.468 406.431 149.295C406.41 147.589 406.351 146.631 406.351 146.631C406.524 146.555 412.393 144.151 412.393 144.351C412.284 148.965 414.347 151.265 414.347 151.265Z" fill="#FFB27D"/>
<path d="M411.797 145.451C411.231 146.499 409.293 148.548 406.425 149.295C406.405 147.59 406.346 146.632 406.346 146.632C406.513 146.588 411.965 145.142 411.797 145.451Z" fill="#ED975D"/>
<path d="M405.12 146.456C405.12 146.456 411.709 148.009 412.61 143.885C413.511 139.761 414.97 137.193 410.801 136.029C406.633 134.866 405.467 136.259 404.832 137.561C404.197 138.862 403.429 145.946 405.12 146.456Z" fill="#FFB27D"/>
<path d="M412.386 145.007C412.476 145.066 413.004 146.005 415.688 140.655C416.111 139.815 417.287 137.495 416.305 135.889C415.322 134.284 412.248 133.366 409.353 132.815C406.458 132.264 407.225 135.183 404.989 135.059C404.878 135.039 404.763 135.058 404.665 135.114C404.567 135.17 404.492 135.259 404.453 135.365C403.971 136.485 404.779 137.985 405.996 138.071C407.056 138.147 407.786 137.84 408.435 138.044C409.471 138.372 409.843 140.013 409.921 140.54C409.999 141.066 410.12 141.503 411.43 141.033C412.74 140.564 412.022 142.889 411.813 143.334C411.813 143.341 411.635 144.526 412.386 145.007Z" fill="#233862"/>
<path d="M419.497 247.792H423.572C424.427 247.792 425.376 246.929 425.614 245.375C425.853 243.822 427.608 242.959 427.988 241.671C428.368 240.383 426.42 238.584 426.42 238.584L426.096 238.167L425.751 237.73L422.521 238.49C422.521 238.49 422.442 239.258 422.391 240.236C422.349 240.984 422.345 241.733 422.379 242.48C422.474 244.189 421.9 246.03 420.382 246.363C418.865 246.696 419.497 247.792 419.497 247.792Z" fill="#202F54"/>
<path d="M401.584 247.792H412.16C412.238 247.78 412.313 247.759 412.385 247.728C413.091 247.375 412.87 244.671 412.785 243.836C412.77 243.68 412.758 243.589 412.758 243.589C412.758 243.589 409.038 240.615 408.527 242.898C408.509 242.969 408.492 243.038 408.472 243.107C407.826 245.237 404.94 246.206 403.272 246.475C401.998 246.679 401.669 247.421 401.584 247.792Z" fill="#202F54"/>
<path d="M403.715 186.721C403.715 186.721 404.28 193.767 404.942 202.24C405.845 213.746 406.931 227.882 407.038 230.56C407.223 235.21 407.968 242.643 407.968 242.643C407.968 242.643 409.734 244.409 413.268 243.665C413.268 243.665 416.418 233.047 417.318 221.813L417.359 221.257C418.196 209.821 419.498 185.739 419.498 185.739L403.715 186.721Z" fill="#2B478B"/>
<path d="M403.715 186.721C403.715 186.721 404.28 193.767 404.942 202.239L417.318 221.818L417.359 221.262C418.196 209.826 419.498 185.744 419.498 185.744L403.715 186.721Z" fill="#233862"/>
<path d="M407.233 185.221C407.233 185.221 412.952 208.797 417.318 221.816C421.683 234.835 421.866 241.15 421.866 241.15C421.866 241.15 426.814 240.183 427.35 239.22C427.35 239.22 429.044 216.914 425.681 210.539C423.782 206.936 424.1 198.588 424.1 194.786C424.1 187.741 421.903 180.745 421.903 180.745L407.233 185.221Z" fill="#2B478B"/>
<path d="M426.802 196.256C426.869 196.69 405.669 200.703 402.826 197.651C402.771 197.592 402.472 188.79 402.229 181.932C402.12 178.742 402.02 175.973 401.965 174.701C401.951 174.382 401.941 174.157 401.932 174.044C401.922 173.895 401.91 173.748 401.899 173.602C401.727 171.109 401.602 168.656 401.554 166.472C401.508 164.833 401.546 163.193 401.668 161.558C401.69 161.283 401.718 161.028 401.753 160.785C402.184 157.505 403.771 155.206 405.26 153.474L406.489 152.114C407.962 152.267 409.442 151.916 410.689 151.118C412.165 150.17 413.598 150.448 413.896 150.616C416.185 151.955 418.186 154.068 419.42 158.546C420.107 160.952 426.738 195.78 426.802 196.256Z" fill="#B0D0FF"/>
<path d="M408.556 131.515C408.556 131.515 407.866 128.132 410.256 125.983C412.647 123.833 415.854 124.293 417.651 126.269C418.207 126.88 421.377 126.269 423.175 128.18C424.974 130.091 424.662 133.141 424.038 134.536C423.472 135.815 425.371 138.553 422.804 140.61C419.795 143.027 415.209 140.975 415.209 140.975C415.209 140.975 412.059 131.544 408.556 131.515Z" fill="#739AF0"/>
<path d="M404.667 135.121C404.667 135.121 414.549 135.984 414.014 143.654L418.015 137.958C418.015 137.958 417.722 130.649 408.468 130.547L404.667 135.121Z" fill="#AFCDFB"/>
<path d="M415.015 164.372C415.015 164.372 411.844 179.044 402.241 181.932C402.133 178.742 402.032 175.973 401.977 174.701L415.015 164.372Z" fill="#98BAF4"/>
<path d="M385.342 179.555C384.674 179.34 383.167 178.865 383.162 179.084C383.162 179.234 383.296 179.445 383.519 179.64C382.68 179.593 381.86 179.64 380.163 180.553C379.993 180.642 379.843 180.764 379.721 180.912C379.599 181.06 379.509 181.232 379.456 181.416C379.361 181.761 379.404 182.139 379.953 182.279C381.052 182.566 380.679 182.305 382.218 182.742C383.756 183.179 385.39 182.904 386.146 182.027L387.337 181.428L386.851 179.312C386.851 179.312 386.108 179.452 385.342 179.555Z" fill="#ED975D"/>
<path d="M386.004 180.634C385.549 179.462 386.108 179.069 386.108 179.069C386.108 179.069 397.611 173.074 398.547 172.426C399.483 171.779 405.479 159.809 405.479 159.809C405.479 159.809 407.685 154.924 410.73 154.905C413.375 154.89 414.904 156.481 415.785 158.185C416.294 159.175 416.492 160.295 416.355 161.4C416.218 162.504 415.751 163.542 415.015 164.377C411.647 168.221 404.88 175.835 403.104 177.02C399.134 179.656 387.05 182.121 387.05 182.121C386.592 181.713 386.233 181.204 386.004 180.634Z" fill="#B0D0FF"/>
<path d="M412.883 148.309C412.883 148.309 414.361 149.737 413.909 150.616C413.909 150.616 410.472 153.279 405.668 152.987C405.979 152.495 406.413 152.091 406.928 151.817C407.71 151.446 411.999 149.597 412.883 148.309Z" fill="#98BAF4"/>
<path d="M266.217 155.066H264.573V208.474H266.217V155.066Z" fill="#AFCDFB"/>
<path d="M301.038 155.066H299.395V223.725H301.038V155.066Z" fill="#AFCDFB"/>
<path d="M242.871 73.3697C243.41 74.3433 245.667 72.9675 246.068 72.7517C246.61 72.5411 247.494 72.6896 247.494 72.6896C247.494 72.6896 247.93 70.3868 247.364 70.4231C246.622 70.4697 244.085 69.3753 243.465 69.6687C242.845 69.9622 242.27 72.3253 242.871 73.3697Z" fill="#ED985F"/>
<path d="M272.207 37.0594C272.286 36.7815 283.532 40.1441 283.631 40.6016C284.533 44.8221 283.648 45.7646 282.194 44.974C281.262 44.4665 278.642 48.3695 278.642 48.3695L270.898 38.1365L272.207 37.0594Z" fill="#2C3A64"/>
<path d="M246.776 70.4508L246.401 72.3755C246.401 72.3755 246.524 72.4187 246.747 72.4774C247.437 72.6672 249.079 73.1489 250.978 73.5994C253.049 74.1173 255.435 74.604 257.192 74.7024C257.744 74.7509 258.3 74.7271 258.846 74.6317C261.262 74.1138 265.813 71.5659 269.239 68.6124C269.326 68.5443 269.409 68.4711 269.488 68.3932C271.285 66.8189 272.747 65.141 273.356 63.6064C273.699 62.7889 273.908 61.9217 273.976 61.0378C274.043 60.1474 273.932 59.2524 273.65 58.4054C273.627 58.2888 273.586 58.1764 273.529 58.0722C273.302 57.4404 272.961 56.8554 272.524 56.346C272.217 56.0646 271.758 56.1078 271.197 56.4012V56.4168C270.617 56.7354 270.082 57.1302 269.607 57.5906C269.586 57.5992 269.565 57.6096 269.56 57.6251C269.438 57.7339 269.308 57.8582 269.16 57.9928C269.123 58.0155 269.089 58.044 269.061 58.0774C268.774 58.3651 268.479 58.6689 268.178 58.9888C264.884 62.3825 260.734 67.8183 258.438 69.0647C258.017 69.2942 257.081 69.4945 255.918 69.6723C254.364 69.9053 252.379 70.0918 250.665 70.2264C248.504 70.3749 246.776 70.4508 246.776 70.4508Z" fill="#ED985F"/>
<path d="M255.908 69.6672C255.806 70.7565 255.854 72.8055 257.187 74.7025C257.739 74.751 258.295 74.7272 258.841 74.6318C261.257 74.1139 265.808 71.566 269.234 68.6125C269.321 68.5444 269.404 68.4712 269.483 68.3933C271.28 66.819 272.742 65.1411 273.351 63.6065C273.694 62.7891 273.903 61.9218 273.971 61.0379C274.038 60.1475 273.927 59.2525 273.645 58.4055C273.622 58.2889 273.581 58.1765 273.524 58.0723C273.103 56.9537 274.792 55.2483 274.792 55.2483C274.483 54.9669 271.753 56.1114 271.192 56.3962V56.4117C270.612 56.7304 270.077 57.1251 269.602 57.5855C269.581 57.5942 269.56 57.6045 269.555 57.6201C269.433 57.7288 269.303 57.8531 269.155 57.9877C269.118 58.0104 269.084 58.039 269.056 58.0723C268.769 58.36 268.474 58.6638 268.172 58.9838C264.879 62.3775 260.729 67.8133 258.433 69.0596C258.003 69.2892 257.068 69.4894 255.908 69.6672Z" fill="#B0D0FF"/>
<path d="M272.795 148.931L274.915 149.718C274.915 149.718 284.115 136.956 285.249 125.724C285.451 123.718 285.384 121.776 284.946 119.983L285.194 118.56C285.267 118.137 285.356 117.626 285.458 117.043C285.757 115.329 286.169 112.983 286.639 110.311C287.723 104.165 289.125 96.3077 290.216 90.5336L289.644 90.3489L283.468 88.3568L282.191 84.302L277.592 83.0936C277.592 83.0936 276.565 85.1029 275.646 94.597C275.474 95.8434 275.322 97.2157 275.206 98.7054C274.784 104.25 274.931 109.823 275.645 115.337C275.855 116.988 276.121 118.691 276.453 120.442C276.694 121.724 276.731 123.473 276.625 125.482C276.164 134.664 272.795 148.931 272.795 148.931Z" fill="#F99746"/>
<path d="M275.206 98.7089L285.194 118.56C285.267 118.137 285.356 117.626 285.458 117.043C285.757 115.329 286.17 112.983 286.639 110.311C287.723 104.165 289.125 96.3077 290.216 90.5336L289.644 90.3489L283.468 88.3568L282.191 84.302L277.592 83.0936C277.592 83.0936 276.565 85.1029 275.647 94.597C275.476 95.8468 275.322 97.2191 275.206 98.7089Z" fill="#ED7D2B"/>
<path d="M279.599 85.645L279.831 83.6616C283.704 84.6973 294.055 80.7875 294.055 80.7875C294.055 80.7875 297.806 84.0862 297.314 91.9922C297.074 95.852 296.634 112.251 296.174 117.103C296.002 118.862 295.864 120.114 295.805 120.614C295.794 120.766 295.833 120.917 295.917 121.044C296.584 122.18 297.151 123.371 297.611 124.605C302.114 136.604 296.92 151.382 296.92 151.382L295.57 150.838C295.57 150.838 292.613 134.393 290.219 127.129C289.812 125.897 289.421 124.928 289.062 124.35C288.027 122.663 287.048 119.908 286.168 116.632C284.505 110.437 283.166 102.377 282.275 96.1576C282.146 96.1662 279.599 85.645 279.599 85.645Z" fill="#F99746"/>
<path d="M272.201 61.5973C273.608 62.2277 275.122 62.5822 276.662 62.6416C283.322 63.0076 284.832 57.1696 285.108 53.2943C284.375 53.0408 283.596 52.9426 282.823 53.006C282.35 53.0319 281.858 53.0802 281.442 53.1303C280.627 52.7039 279.165 50.6376 278.319 47.1801L278.031 47.313L273.227 49.5726C273.227 49.5726 273.736 51.1365 274.114 52.6314C274.407 53.8035 274.618 54.9342 274.442 55.25C274.064 55.4054 273.836 55.5021 273.836 55.5021C273.097 57.4768 272.55 59.5179 272.201 61.5973Z" fill="#FFB27D"/>
<path d="M270.535 65.9664C270.585 66.0993 270.641 66.2288 270.708 66.3617C272.394 69.9867 273.242 103.53 273.242 103.53C272.797 106.237 294.536 106.553 299.453 102.206C299.453 102.206 297.452 75.7954 289.772 55.8491L287.566 57.729C287.2 57.4579 286.732 57.344 286.768 57.0022C286.784 56.8417 286.805 56.6812 286.829 56.5206C287.017 55.4108 287.341 54.3284 287.794 53.2978C286.007 52.5745 281.457 53.1252 281.457 53.1252L278.039 55.7024L274.45 55.2484C271.6 56.3687 270.026 57.7842 270.026 57.7842C271.744 58.8993 269.199 62.4432 270.535 65.9664Z" fill="#B0D0FF"/>
<path d="M273.236 49.5723C273.236 49.5723 273.754 51.1345 274.123 52.6329C276.932 51.8492 277.784 48.8974 278.04 47.3145L273.236 49.5723Z" fill="#ED985F"/>
<path d="M272.134 49.973C272.134 49.973 279.038 50.0766 279.028 45.7801C279.018 41.4836 279.915 38.606 275.512 38.3574C271.108 38.1089 270.254 39.7505 269.907 41.1832C269.56 42.616 270.333 49.8332 272.134 49.973Z" fill="#FFB27D"/>
<path d="M270.101 38.7956C271.166 37.5009 271.972 37.784 272.423 38.1707C276.189 36.0993 278.623 39.1529 278.623 39.1529C278.932 41.0306 279.883 42.7428 281.314 43.9966C281.314 43.9966 280.059 44.7752 277.161 44.0346C276.275 43.8085 275.483 43.1715 274.81 42.4189C275.577 43.6653 276.51 44.8012 277.584 45.7953C274.121 44.2021 272.723 39.3894 272.578 38.8802C272.157 39.2599 271.328 40.0885 271.076 40.8878C270.731 41.9822 270.582 44.2331 269.926 44.1589C269.933 44.1589 268.509 40.7358 270.101 38.7956Z" fill="#2C3A64"/>
<path d="M289.077 152.487H299.754C299.754 152.487 300.011 150.861 299.453 149.626C298.918 148.442 298.083 147.9 298.283 146.473C297.605 147.163 296.5 147.952 294.957 147.745C294.768 148.05 293.736 149.69 293.106 150.144C292.402 150.643 289.291 150.471 289.077 152.487Z" fill="#2B478B"/>
<path d="M266.165 152.487H276.837C276.837 152.487 277.235 150.785 276.534 149.627C275.915 148.601 276.153 148.018 276.612 147.17C276.046 147.418 275.432 147.536 274.815 147.515C274.25 147.452 273.707 147.262 273.227 146.958C272.768 147.476 270.81 149.709 270.187 150.151C269.49 150.643 266.381 150.471 266.165 152.487Z" fill="#2B478B"/>
<path d="M281.75 64.6782C281.713 64.5784 281.649 64.4912 281.564 64.427C281.479 64.3628 281.377 64.3243 281.271 64.316C281.165 64.3077 281.058 64.3301 280.964 64.3803C280.87 64.4306 280.793 64.5067 280.741 64.5997C280.689 64.6926 280.665 64.7985 280.671 64.9049C280.677 65.0112 280.714 65.1135 280.776 65.1996C280.839 65.2858 280.925 65.3522 281.024 65.3911C281.123 65.4299 281.232 65.4395 281.336 65.4188C281.489 65.3746 281.618 65.2721 281.695 65.1335C281.773 64.9949 281.792 64.8314 281.75 64.6782Z" fill="#233862"/>
<path d="M275.215 65.3291C275.178 65.2291 275.114 65.1416 275.029 65.0771C274.944 65.0127 274.842 64.9739 274.736 64.9654C274.63 64.9569 274.523 64.9791 274.429 65.0292C274.335 65.0794 274.257 65.1555 274.205 65.2485C274.153 65.3415 274.129 65.4475 274.135 65.5539C274.141 65.6603 274.178 65.7627 274.241 65.8489C274.303 65.9352 274.389 66.0017 274.489 66.0405C274.588 66.0793 274.696 66.0888 274.801 66.068C274.953 66.0245 275.083 65.9224 275.16 65.784C275.238 65.6456 275.258 65.482 275.215 65.3291Z" fill="#233862"/>
<path d="M282.562 72.3271C282.525 72.2271 282.461 72.1396 282.376 72.0751C282.291 72.0106 282.19 71.9717 282.083 71.9631C281.977 71.9545 281.871 71.9765 281.777 72.0265C281.683 72.0765 281.605 72.1525 281.552 72.2453C281.5 72.3381 281.476 72.444 281.482 72.5504C281.488 72.6568 281.524 72.7592 281.586 72.8456C281.649 72.9319 281.735 72.9986 281.834 73.0376C281.933 73.0767 282.041 73.0865 282.146 73.066C282.298 73.0221 282.427 72.92 282.505 72.7818C282.583 72.6435 282.603 72.4802 282.562 72.3271Z" fill="#233862"/>
<path d="M276.027 72.9764C275.99 72.8764 275.926 72.7889 275.841 72.7244C275.756 72.6599 275.655 72.621 275.548 72.6124C275.442 72.6038 275.336 72.6258 275.242 72.6758C275.148 72.7258 275.07 72.8017 275.018 72.8946C274.965 72.9874 274.941 73.0933 274.947 73.1997C274.953 73.3061 274.989 73.4085 275.052 73.4949C275.114 73.5812 275.2 73.6478 275.299 73.6869C275.398 73.726 275.506 73.7358 275.611 73.7152C275.763 73.6714 275.892 73.5693 275.97 73.4311C276.048 73.2928 276.068 73.1295 276.027 72.9764Z" fill="#233862"/>
<path d="M289.681 62.3014C289.681 62.3014 288.911 84.3519 272.578 85.8571L272.329 81.1446L281.211 74.0793L289.681 62.3014Z" fill="#98BAF4"/>
<path d="M265.624 82.2078L266.183 84.2586C266.183 84.2586 266.888 84.1343 268.006 83.9271C268.339 83.865 268.524 83.8236 268.524 83.8236C269.435 83.6371 270.513 83.4093 271.673 83.1331H271.693C273.311 82.7395 275.113 82.2838 276.73 81.7866C277.103 81.6814 277.476 81.5571 277.828 81.4414C278.077 81.3586 278.305 81.2688 278.533 81.1928L275.134 76.7047C274.885 76.8911 274.616 77.05 274.347 77.2226C272.966 78.115 271.383 79.0265 269.953 79.8343C269.063 80.3522 268.212 80.8079 267.507 81.2015C266.37 81.8143 265.624 82.2078 265.624 82.2078Z" fill="#FFB27D"/>
<path d="M274.352 77.2054C274.974 79.3908 275.858 80.8304 276.738 81.7988C277.113 81.6831 277.48 81.5658 277.832 81.4536C279.161 80.9892 280.318 80.4921 281.112 79.9932C281.191 79.9461 281.266 79.893 281.337 79.8344C283.211 78.4724 285.44 74.4642 287.171 70.1677C287.413 69.5756 287.637 68.9818 287.862 68.4035C288.617 66.4197 289.228 64.3838 289.69 62.3117C289.916 61.3586 290.061 60.3878 290.123 59.41C290.144 59.1378 290.149 58.8646 290.138 58.5918C290.106 53.9431 287.798 53.3009 287.798 53.3009C287.749 53.2854 287.701 53.2681 287.637 53.2526C287.237 53.1887 286.821 53.4598 286.387 53.9914C285.84 54.6474 285.265 55.7176 284.672 57.0192C283.757 59.0906 282.795 61.7662 281.898 64.428C281.4 65.8867 280.919 67.347 280.439 68.6935C280.166 69.51 279.893 70.2799 279.636 70.9859C279.139 72.3323 278.69 73.4233 278.29 74.112C278.033 74.5608 277.295 75.1857 276.318 75.8917C275.732 76.3009 275.069 76.7479 274.352 77.2054Z" fill="#B0D0FF"/>
<path d="M276.813 34.4424C276.813 34.4424 276.986 31.0522 279.808 29.54C282.631 28.0279 285.634 29.2448 286.903 31.589C287.295 32.314 290.511 32.4745 291.797 34.7635C293.083 37.0524 292.049 39.9248 291.106 41.128C290.243 42.2293 291.434 45.3365 288.457 46.7157C284.965 48.3314 281.008 45.2467 281.008 45.2467C281.008 45.2467 280.199 35.309 276.813 34.4424Z" fill="#739AF0"/>
<path d="M272.207 37.0593C272.207 37.0593 281.57 40.2683 279.217 47.5615L284.454 43.0113C284.454 43.0113 285.92 35.8613 276.981 33.5465L272.207 37.0593Z" fill="#B0D0FF"/>
<path d="M282.069 53.0661C282.069 53.0661 281.033 52.1028 280.127 51.6678C280.127 51.6678 277.731 54.3987 277.731 54.9183C277.731 55.4379 278.281 56.3786 278.281 56.3786C278.281 56.3786 280.125 56.0351 282.069 53.0661Z" fill="#8CB8ED"/>
<path d="M274.328 53.5184C274.328 53.5184 273.27 54.5145 273.723 55.3914C273.723 55.3914 277.275 58.1533 282.069 57.8685C281.757 57.3767 281.324 56.974 280.81 56.6998C280.03 56.3304 275.211 54.8027 274.328 53.5184Z" fill="#739AF0"/>
<path d="M262.4 5.90635L236.92 56.7085L236.692 57.1607L236.321 57.903L234.874 60.7892L231.605 67.3073L225.391 79.7118L224.072 82.3426L222.736 85.0095L218.444 93.5646L214.55 101.332L210.925 108.546L209.442 111.505L207.543 111.662L209.023 108.712L216.963 92.8896L221.022 84.7955L222.361 82.1233L224.888 77.0863L230.127 66.641L233.849 59.2184L235.549 55.8264L236.304 54.3263L260.954 5.17444L262.4 5.90635Z" fill="#FFD6A1"/>
<path d="M264.523 8.22138C263.833 9.2571 252.324 31.8099 239.217 57.6235C238.336 59.367 237.446 61.1226 236.547 62.8902C233.215 69.4498 229.815 76.1491 226.512 82.6811C226.064 83.5707 225.615 84.4556 225.168 85.336L224.864 85.9384C222.761 90.0813 220.704 94.1517 218.733 98.0529C216.923 101.623 215.187 105.058 213.554 108.296C213.042 109.305 212.541 110.296 212.05 111.269L210.131 111.441L211.629 108.477C212.556 106.648 213.742 104.303 215.132 101.557C215.396 101.039 215.663 100.508 215.941 99.9586L223.364 85.298L223.462 85.1047L224.809 82.4429C226.302 79.4911 227.855 76.4271 229.442 73.294C231.401 69.4308 233.412 65.4674 235.418 61.504C235.61 61.1277 235.799 60.7549 235.989 60.3786C236.571 59.2306 237.142 58.1121 237.698 57.0125C262.752 7.66037 263.103 7.32721 263.315 7.12524L264.435 8.31287C264.487 8.26972 264.518 8.23174 264.523 8.22138Z" fill="#FFD6A1"/>
<path d="M239.638 35.7903L238.863 36.7829L204.738 80.3971L202.646 83.071L181.474 110.133L179.23 112.993L177.134 113.026L179.363 110.174L200.669 82.9398L202.766 80.2555L238.352 34.7856L239.341 35.5573L239.638 35.7903Z" fill="#FFD6A1"/>
<path d="M231.461 40.5479L193.283 79.7171L190.645 82.4221L163.565 110.204L160.861 112.979L158.628 112.933L161.319 110.171L188.45 82.3375L191.096 79.6205L230.293 39.4069L231.461 40.5479Z" fill="#FFD6A1"/>
<path d="M274.968 68.9507L274.193 69.9433L240.069 113.556L237.976 116.23L216.804 143.291L214.56 146.153C213.869 146.164 213.163 146.176 212.464 146.184L214.693 143.334L236.002 116.1L238.1 113.416L273.687 67.9443L274.678 68.7177L274.968 68.9507Z" fill="#FFD6A1"/>
<path d="M263.389 80.4991L225.967 120.393L223.377 123.155L196.834 151.453L194.189 154.268C193.442 154.268 192.698 154.268 191.955 154.268L194.591 151.455L221.185 123.107L223.775 120.345L262.195 79.3892L263.389 80.4991Z" fill="#FFD6A1"/>
<path d="M246.72 16.6743L213.765 101.027L215.286 101.621L248.241 17.2685L246.72 16.6743Z" fill="#FFD6A1"/>
<path d="M220.85 111.659L217.862 114.155C233.984 80.3318 267.697 9.35386 268.363 7.2876L269.938 7.7226C269.403 9.72154 225.659 101.564 220.85 111.659Z" fill="#FFD6A1"/>
<path d="M225.278 117.096L221.268 122.059L271.551 9.67664L273.042 10.3447L225.278 117.096Z" fill="#FFD6A1"/>
<path d="M216.333 109.437L214.798 108.879C226.514 76.6651 248.784 15.1467 249.203 12.8733L250.81 13.1685C250.27 16.1099 217.719 105.627 216.333 109.437Z" fill="#FFD6A1"/>
<path d="M216.383 115.001L214.065 116.086L261.275 16.0393L262.752 16.735L216.383 115.001Z" fill="#FFD6A1"/>
<path d="M265.373 81.9405C264.607 81.6138 263.807 81.3763 262.987 81.2328C262.124 81.0774 260.983 80.9341 261.061 81.2328C261.138 81.5314 262.975 82.0872 263.029 82.2167C263.082 82.3462 265.373 81.9405 265.373 81.9405Z" fill="#FFB27D"/>
<path d="M259.144 83.9929C259.5 84.2674 262.343 85.3738 263.427 85.0372C264.031 84.8474 266.135 84.326 266.985 84.1189L268.538 83.8185L267.623 81.1567C267.585 81.1643 267.548 81.1747 267.511 81.1878C267.166 81.3086 266.494 81.6401 265.612 81.7695C264.533 81.9318 263.196 81.2517 262.486 81.6366C261.003 82.4514 258.956 81.6263 258.485 82.0595C258.131 82.3858 258.259 83.3214 259.144 83.9929Z" fill="#FFB27D"/>
<path d="M242.572 70.7429C242.795 70.225 243.263 69.3481 244.406 69.4724C245.769 69.6191 248.238 71.0346 243.436 73.6325C242.008 74.4058 242.115 71.8217 242.572 70.7429Z" fill="#FFB27D"/>
<path d="M94.5583 149.226H70.514C69.2598 149.222 68.058 148.723 67.1711 147.836C66.2843 146.949 65.7844 145.747 65.7808 144.493C65.7862 143.24 66.2869 142.04 67.1736 141.155C68.0604 140.27 69.2611 139.771 70.514 139.768H94.5583C95.8122 139.771 97.0138 140.271 97.9004 141.157C98.7871 142.044 99.2866 143.246 99.2898 144.5C99.2848 145.753 98.7845 146.953 97.8981 147.838C97.0117 148.723 95.8111 149.222 94.5583 149.226Z" fill="#6385DB"/>
<path d="M262.617 149.226H238.578C237.324 149.222 236.122 148.723 235.235 147.836C234.348 146.949 233.848 145.747 233.845 144.493C233.848 143.239 234.348 142.037 235.235 141.151C236.122 140.264 237.324 139.765 238.578 139.761H262.617C263.871 139.765 265.072 140.265 265.959 141.151C266.845 142.038 267.345 143.239 267.349 144.493C267.345 145.747 266.845 146.948 265.959 147.835C265.072 148.722 263.871 149.222 262.617 149.226Z" fill="#739AF0"/>
<path d="M246.748 109.634V227.413C246.748 232.686 244.654 237.744 240.925 241.473C237.196 245.202 232.138 247.297 226.864 247.297H109.389C106.778 247.297 104.192 246.783 101.779 245.784C99.3662 244.785 97.1737 243.321 95.327 241.474C93.4802 239.628 92.0152 237.435 91.0157 235.023C90.0163 232.61 89.5018 230.024 89.5018 227.413V109.634H246.748Z" fill="#6385DB"/>
<path d="M246.749 109.722V227.501C246.749 238.481 237.883 247.383 226.946 247.383H136.8C125.863 247.383 116.995 238.481 116.995 227.501V109.722H246.749Z" fill="#739AF0"/>
<path d="M247.384 114.654H88.87C88.1065 114.651 87.375 114.347 86.8353 113.806C86.2955 113.266 85.9913 112.535 85.989 111.771C85.9913 111.008 86.2955 110.276 86.8353 109.736C87.375 109.196 88.1065 108.891 88.87 108.888H247.384C248.147 108.891 248.879 109.196 249.418 109.736C249.958 110.276 250.262 111.008 250.265 111.771C250.262 112.535 249.958 113.266 249.418 113.806C248.879 114.347 248.147 114.651 247.384 114.654Z" fill="#4C79C9"/>
<path d="M238.561 162.777V131.724C238.561 131.724 239.514 121.381 232.021 120.564C224.527 119.748 221.805 124.103 223.165 131.724C224.525 139.345 222.078 181.542 225.616 184.808C229.155 188.074 236.233 188.074 237.593 184.808C238.953 181.542 238.561 162.777 238.561 162.777Z" fill="#88B3FF"/>
<path d="M208.667 169.136C208.667 168.922 208.27 147.631 207.69 131.733C207.056 114.434 203.259 103.967 197.243 103.017C194.654 102.608 192.368 103.525 190.45 105.745C188.928 107.505 188.524 108.869 188.517 108.888H185.833C186.981 105.676 191.051 99.6667 197.609 100.701C207.495 102.263 209.637 120.761 210.037 131.646C210.617 147.565 211.011 168.879 211.014 169.093L208.667 169.136Z" fill="#FFD6A1"/>
<path d="M179.056 245.584C179.075 246.448 179.184 247.281 179.499 247.606H192.166C192.004 247.148 191.548 246.458 190.248 246.247C188.771 246.009 186.708 244.338 185.363 242.917C184.885 242.412 184.286 242.774 184.131 242.079C183.535 239.425 179.203 242.892 179.203 242.892C179.097 243.785 179.048 244.685 179.056 245.584Z" fill="#182D4F"/>
<path d="M159.717 245.584C159.734 246.448 159.845 247.281 160.161 247.606H172.826C172.665 247.148 172.209 246.458 170.91 246.247C169.432 246.009 167.128 245.298 165.785 243.876C165.295 243.379 164.952 242.757 164.792 242.079C164.195 239.425 159.864 242.892 159.864 242.892C159.759 243.785 159.71 244.685 159.717 245.584Z" fill="#1A2F51"/>
<path d="M184.124 244.013C182.708 244.466 180.844 244.416 179.118 243.767C178.008 243.349 171.35 227.095 170.949 219.241C170.89 218.455 170.784 217.673 170.632 216.9C170.264 214.873 169.622 212.087 168.881 209.015C166.894 200.777 164.207 190.475 164.265 187.182C164.355 182.07 179.497 186.11 179.497 186.11C179.497 186.11 180.533 190.303 180.747 196.374C181.158 208.423 182.289 228.776 185.363 242.912C185.494 243.513 184.71 243.827 184.124 244.013Z" fill="#233862"/>
<path d="M176.754 189.422L166.582 244.336C166.582 244.336 162.209 245.629 159.171 244.336C159.171 244.336 157.402 214.53 157.599 207.069C157.796 199.609 155.916 187.109 158.027 185.73C160.138 184.351 176.754 189.422 176.754 189.422Z" fill="#2B478B"/>
<path d="M171.215 150.371C171.215 150.371 178.175 151.558 179.763 154.008C182.035 157.51 187.548 169.181 187.643 175.041C187.771 182.934 179.185 185.589 178.127 182.473C177.255 179.883 175.118 163.69 173.566 158.665L171.215 150.371Z" fill="#CFE5FF"/>
<path d="M182.831 205.733C182.831 205.733 179.611 208.345 173.116 208.934C172.384 209.122 159.912 209.122 154.632 207.307C154.521 207.27 154.908 196.087 155.355 184.565C155.355 184.546 155.355 184.529 155.355 184.511C155.401 183.341 155.446 182.162 155.491 180.993C155.512 180.492 155.532 179.991 155.55 179.491C155.688 176.051 155.824 172.725 155.947 169.804C156.19 164.073 156.385 159.92 156.441 159.59C156.636 158.468 156.815 157.519 157.014 156.685C157.589 154.268 158.303 152.944 159.864 151.805C160.016 151.689 161.262 151.059 162.362 150.514C163.273 150.061 164.088 149.664 164.088 149.664C164.088 149.664 176.09 150.01 177.243 153.018C178.396 156.027 182.831 205.733 182.831 205.733Z" fill="#CFE5FF"/>
<path d="M170.171 151.161C169.542 151.285 168.733 151.865 167.968 151.81C166.468 151.701 164.904 150.693 163.582 149.82C164.484 147.664 164.854 145.962 164.985 144.859C164.985 144.8 164.999 144.745 165.004 144.686C165.055 144.31 165.063 143.928 165.028 143.55H169.834C169.834 143.55 171.148 144.151 171.148 144.565C171.148 144.788 171.148 145 171.148 145.202C171.148 145.756 171.179 146.238 171.208 146.652C171.24 147.319 171.322 147.983 171.453 148.637C171.453 148.637 172.049 150.788 170.171 151.161Z" fill="#FFB27D"/>
<path d="M171.215 146.651C167.572 147.355 165.46 145.365 164.985 144.854C164.918 144.781 164.883 144.738 164.883 144.738C164.921 144.719 164.962 144.702 165.004 144.685C166.361 144.136 169.437 144.572 171.154 145.202C171.163 145.755 171.185 146.236 171.215 146.651Z" fill="#E2915A"/>
<path d="M163.796 142.758C164.447 146.26 168.966 146.145 170.918 145.926C171.469 145.863 171.814 145.794 171.814 145.794C172.434 145.622 172.779 144.652 172.94 143.378C173.259 140.847 172.857 137.132 172.422 136.183C171.778 134.754 170.568 133.207 166.016 134.322C161.464 135.437 162.961 138.272 163.796 142.758Z" fill="#FFB27D"/>
<path d="M172.598 134.225C171.976 133.362 170.658 132.313 169.46 131.664C166.886 130.272 163.591 131.709 163.58 131.714C159.862 133.348 162.123 141.493 163.259 141.115C164.145 140.819 163.56 140.388 163.95 140.041C164.416 139.623 165.072 140.131 165.281 140.523C165.321 140.59 165.375 140.647 165.439 140.693C165.502 140.738 165.575 140.77 165.651 140.786C165.728 140.802 165.807 140.802 165.884 140.787C165.96 140.771 166.033 140.74 166.097 140.695C167.254 139.963 166.503 138.501 167.607 137.607C168.712 136.713 170.956 137.464 172.613 136.744C174.776 135.948 173.067 134.874 172.598 134.225Z" fill="#233862"/>
<path d="M169.834 143.548C170.051 143.719 170.302 143.84 170.57 143.905C170.838 143.97 171.117 143.976 171.388 143.923C171.959 143.823 172.277 143.082 172.277 143.082C172.277 143.082 171.186 142.884 169.834 143.548Z" fill="#CFE5FF"/>
<path d="M164.883 159.253C164.883 159.13 164.92 159.009 164.988 158.906C165.057 158.804 165.155 158.723 165.269 158.676C165.383 158.629 165.509 158.616 165.63 158.641C165.751 158.665 165.862 158.724 165.95 158.812C166.037 158.899 166.097 159.01 166.121 159.132C166.145 159.253 166.133 159.378 166.085 159.493C166.038 159.607 165.958 159.704 165.855 159.773C165.752 159.842 165.632 159.878 165.508 159.878C165.426 159.879 165.344 159.863 165.269 159.831C165.193 159.8 165.124 159.754 165.066 159.696C165.008 159.638 164.961 159.569 164.93 159.493C164.899 159.417 164.883 159.336 164.883 159.253Z" fill="#233862"/>
<path d="M172.28 158.63C172.28 158.506 172.316 158.385 172.385 158.283C172.453 158.18 172.551 158.099 172.665 158.052C172.779 158.004 172.905 157.991 173.026 158.015C173.147 158.039 173.259 158.099 173.346 158.186C173.434 158.273 173.494 158.385 173.518 158.506C173.542 158.627 173.53 158.753 173.483 158.867C173.435 158.981 173.355 159.079 173.252 159.148C173.15 159.217 173.029 159.253 172.905 159.253C172.74 159.253 172.581 159.188 172.464 159.071C172.347 158.954 172.281 158.796 172.28 158.63Z" fill="#233862"/>
<path d="M165.678 166.678C165.677 166.554 165.714 166.433 165.782 166.33C165.851 166.227 165.948 166.147 166.062 166.099C166.176 166.052 166.302 166.039 166.423 166.063C166.545 166.087 166.656 166.146 166.744 166.234C166.831 166.321 166.891 166.432 166.915 166.554C166.939 166.675 166.927 166.801 166.88 166.915C166.833 167.029 166.753 167.127 166.65 167.196C166.547 167.264 166.426 167.301 166.302 167.301C166.137 167.301 165.978 167.236 165.861 167.119C165.744 167.002 165.678 166.843 165.678 166.678Z" fill="#233862"/>
<path d="M173.075 166.053C173.075 165.93 173.111 165.809 173.18 165.706C173.249 165.603 173.346 165.523 173.46 165.476C173.575 165.428 173.7 165.416 173.821 165.44C173.943 165.464 174.054 165.524 174.141 165.611C174.229 165.699 174.288 165.81 174.312 165.931C174.337 166.052 174.324 166.178 174.277 166.292C174.23 166.406 174.15 166.504 174.047 166.573C173.944 166.641 173.823 166.678 173.7 166.678C173.534 166.678 173.375 166.612 173.258 166.495C173.141 166.378 173.075 166.219 173.075 166.053Z" fill="#233862"/>
<path d="M166.131 173.93C166.131 173.806 166.168 173.685 166.237 173.582C166.305 173.48 166.403 173.4 166.517 173.352C166.631 173.305 166.757 173.293 166.878 173.317C166.999 173.341 167.111 173.4 167.198 173.488C167.285 173.575 167.345 173.686 167.369 173.808C167.393 173.929 167.381 174.055 167.333 174.169C167.286 174.283 167.206 174.381 167.103 174.449C167.001 174.518 166.88 174.555 166.756 174.555C166.59 174.555 166.431 174.489 166.314 174.371C166.197 174.254 166.131 174.095 166.131 173.93Z" fill="#233862"/>
<path d="M173.528 173.307C173.528 173.183 173.564 173.062 173.633 172.959C173.701 172.856 173.799 172.776 173.913 172.728C174.027 172.681 174.153 172.668 174.274 172.692C174.395 172.716 174.507 172.775 174.594 172.863C174.682 172.95 174.742 173.061 174.766 173.183C174.79 173.304 174.778 173.429 174.731 173.544C174.683 173.658 174.603 173.756 174.501 173.824C174.398 173.893 174.277 173.93 174.153 173.93C173.988 173.93 173.829 173.864 173.712 173.748C173.595 173.631 173.529 173.472 173.528 173.307Z" fill="#233862"/>
<path d="M168.023 184.066C168.023 184.066 165.198 186.11 155.357 184.511C155.403 183.341 155.448 182.162 155.493 180.993C155.514 180.492 155.533 179.991 155.552 179.492C155.69 176.051 155.826 172.725 155.949 169.804C157.513 167.268 158.819 165.43 158.819 165.43C158.819 165.43 158.695 172.394 161.626 174.555C169.385 180.27 168.023 184.066 168.023 184.066Z" fill="#AFD1F2"/>
<path d="M169.104 131.058C169.104 131.058 169.735 127.744 167.431 125.663C165.126 123.583 162.016 124.029 160.278 125.941C159.739 126.532 156.675 125.941 154.926 127.79C153.178 129.639 153.488 132.589 154.087 133.937C154.636 135.175 152.8 137.823 155.282 139.806C158.192 142.14 162.634 140.151 162.634 140.151C162.634 140.151 165.717 131.085 169.104 131.058Z" fill="#AFD1F2"/>
<path d="M172.838 134.504C172.838 134.504 163.278 135.346 163.796 142.758L159.931 137.255C159.931 137.255 160.214 130.178 169.166 130.088L172.838 134.504Z" fill="#CFE5FF"/>
<path d="M179.052 185.354C179.052 185.354 179.225 164.332 179.777 164.332C180.33 164.332 181.868 169.136 181.868 172.915C181.868 177.67 180.007 185.535 179.052 185.354Z" fill="#AFD1F2"/>
<path d="M335.896 247.461H194.109C191.997 247.46 189.927 246.872 188.129 245.764C186.331 244.656 184.875 243.071 183.925 241.184L175.584 224.637H352.935L345.34 241.367C344.517 243.182 343.189 244.722 341.514 245.803C339.839 246.883 337.889 247.459 335.896 247.461Z" fill="#E86234"/>
<path d="M264.255 232.846C335.091 232.846 392.514 228.344 392.514 222.79C392.514 217.235 335.091 212.733 264.255 212.733C193.42 212.733 135.997 217.235 135.997 222.79C135.997 228.344 193.42 232.846 264.255 232.846Z" fill="#F77D48"/>
<path d="M353.224 222.402C353.188 222.415 353.151 222.424 353.115 222.434C350.21 223.258 346.728 224.031 342.758 224.747C341.881 224.906 340.979 225.062 340.051 225.213C336.873 225.731 333.417 226.223 329.716 226.672C328.807 226.787 327.881 226.896 326.939 226.998C323.589 227.375 320.063 227.72 316.361 228.034C314.992 228.149 313.602 228.26 312.189 228.367C306.972 228.757 301.472 229.084 295.741 229.337C295.123 229.365 294.505 229.391 293.884 229.415C292.389 229.477 290.875 229.532 289.351 229.588L288.923 229.602C286.001 229.698 283.03 229.775 280.009 229.833C278.125 229.867 276.226 229.896 274.312 229.917L273.185 229.928C271.162 229.945 269.123 229.954 267.067 229.954H265.08H264.178C246.165 229.879 229.398 229.104 215.188 227.818L214.579 227.761C212.401 227.562 210.287 227.351 208.235 227.126L208.142 227.114L207.614 227.057C205.97 226.874 204.371 226.684 202.816 226.486C202.554 226.455 202.299 226.42 202.034 226.386C182.918 223.907 170.94 220.344 170.94 216.398C170.94 216.398 170.692 214.784 172.23 213.028C176.967 207.596 190.838 196.802 217.391 195.644C237.482 194.762 252.175 199.043 261.074 202.866C267.735 205.733 271.152 208.345 271.152 208.345C271.171 208.331 271.284 208.247 271.497 208.103C272.533 207.38 275.933 205.169 281.355 202.99C290.463 199.35 305.289 195.859 324.256 199.883C335.599 202.286 342.977 205.628 347.626 209.004C356.215 215.246 355.457 221.632 353.224 222.402Z" fill="#FFE6C2"/>
<path d="M307.835 202.109C307.835 202.109 322.958 200.47 334.168 205.784C345.378 211.097 348.522 215.656 347.94 218.96C347.358 222.264 330.997 221.297 330.997 221.297C330.997 221.297 320.613 219.258 319.87 218.96C319.128 218.661 307.835 202.109 307.835 202.109Z" fill="#FFE6C2"/>
<path d="M298.788 226.128C298.483 227.765 296.909 228.789 295.726 229.337C295.108 229.365 294.49 229.391 293.869 229.415C294.849 229.137 297.886 227.582 298.198 225.89C298.322 225.226 298.06 224.466 297.416 223.631C294.309 219.598 284.92 223.684 284.825 223.726L284.653 222.862C286.349 222.152 288.113 221.614 289.918 221.255C293.743 220.534 296.401 221.107 297.827 222.956C298.654 224.038 298.978 225.105 298.788 226.128Z" fill="#EA9678"/>
<path d="M335.717 220.67C335.517 222.436 334.177 224.095 331.735 225.593C331.081 225.991 330.406 226.351 329.712 226.672C328.803 226.787 327.877 226.896 326.934 226.998C329.411 225.963 334.816 223.137 335.113 220.522C335.248 219.332 334.606 218.069 333.214 216.771C329.793 213.596 321.362 211.419 311.728 211.231C300.384 211.005 289.243 213.43 280.342 218.06L280.137 217.213C289.113 212.552 300.334 210.102 311.739 210.332C321.474 210.527 330.036 212.749 333.54 216.011C335.161 217.522 335.895 219.089 335.717 220.67Z" fill="#EA9678"/>
<path d="M187.607 174.325C187.607 174.325 188.712 183.441 181.257 187.763L179.052 185.347L182.605 176.305L187.607 174.325Z" fill="#CFE5FF"/>
<path d="M139.251 168.373L140.766 166.474C141.346 165.751 142.546 165.571 143.425 166.074L199.191 198.033C199.332 198.117 199.497 198.15 199.659 198.127C199.822 198.105 199.971 198.028 200.084 197.908L200.429 197.482C201.491 196.16 203.217 195.271 205.164 195.046C207.101 194.819 209.058 195.261 210.71 196.298L231.77 209.907C231.83 209.939 231.882 209.983 231.922 210.036C231.963 210.09 231.992 210.151 232.006 210.217C232.021 210.283 232.021 210.351 232.006 210.417C231.992 210.483 231.963 210.544 231.922 210.598L231.551 211.06C231.437 211.181 231.284 211.259 231.12 211.281C230.955 211.302 230.788 211.267 230.646 211.179L208.906 198.169C207.951 197.562 206.814 197.306 205.69 197.444C205.27 197.491 204.858 197.593 204.465 197.75C204.372 197.778 204.289 197.834 204.229 197.91C204.168 197.986 204.133 198.08 204.127 198.177C204.121 198.274 204.146 198.371 204.197 198.454C204.248 198.537 204.324 198.602 204.413 198.64L229.396 212.795C229.688 212.959 229.771 213.279 229.585 213.512L229.177 214.019C229.067 214.136 228.922 214.213 228.763 214.238C228.604 214.262 228.442 214.234 228.302 214.155L202.481 200.386C202.342 200.307 202.18 200.278 202.021 200.303C201.863 200.328 201.717 200.405 201.608 200.522L201.173 201.062C200.985 201.297 201.069 201.616 201.363 201.782L226.807 216.016C227.101 216.189 227.187 216.501 226.999 216.734L226.616 217.213C226.507 217.327 226.363 217.402 226.207 217.427C226.051 217.452 225.892 217.425 225.752 217.351L200.172 203.924C199.759 203.707 199.229 203.924 199.202 204.311C199.177 204.675 199.224 205.041 199.342 205.386C199.645 206.313 200.377 207.081 201.427 207.549L224.351 219.039C224.665 219.198 224.763 219.531 224.57 219.774L224.337 220.062C224.233 220.174 224.096 220.249 223.947 220.277C223.797 220.305 223.642 220.285 223.505 220.22L200.049 209.679C198.28 208.882 196.97 207.523 196.452 205.947C196.195 205.175 196.14 204.349 196.291 203.549C196.442 202.749 196.794 202.001 197.315 201.375C197.507 201.135 197.413 200.807 197.108 200.646L139.838 170.548C138.937 170.075 138.671 169.095 139.251 168.373Z" fill="#2B478B"/>
<path d="M162.692 181.675C162.692 181.675 164.13 181.435 164.812 181.822C165.494 182.208 167.196 182.443 167.12 182.837C167.044 183.23 164.919 183.4 164.358 183.205C163.797 183.009 162.692 181.675 162.692 181.675Z" fill="#FFB27D"/>
<path d="M162.398 181.87C162.244 181.971 162.116 182.106 162.022 182.264C161.929 182.422 161.872 182.599 161.858 182.782C161.843 182.965 161.87 183.149 161.937 183.32C162.004 183.491 162.109 183.645 162.244 183.769C163.178 184.617 164.386 185.701 164.683 185.915C165.184 186.277 167.851 186.576 168.545 185.637C168.545 185.637 166.301 184.672 165.986 183.177C165.641 181.582 162.707 181.677 162.707 181.677L162.398 181.87Z" fill="#FFB27D"/>
<path d="M162.295 184.734C162.295 184.734 149.261 181.673 148.006 173.307C146.899 165.929 153.357 154.85 155.063 152.991C157.046 150.821 160.664 150.056 162.658 149.797L162.9 149.766C163.602 149.683 164.053 149.666 164.079 149.666C164.079 149.666 163.921 150.169 163.659 151.023C163.557 151.354 163.44 151.738 163.314 152.166C162.086 156.186 158.249 165.962 157.013 171.342C156.226 174.767 163.666 181.592 163.856 181.606C163.87 181.606 162.295 184.734 162.295 184.734Z" fill="#CFE5FF"/>
<path d="M162.724 149.801C162.724 149.801 163.535 148.484 164.357 147.764C164.357 147.764 167.676 149.936 167.828 150.483C167.98 151.03 167.676 152.178 167.676 152.178C167.676 152.178 165.636 152.356 162.724 149.801Z" fill="#AFD1F2"/>
<path d="M178.018 185.637C178.018 185.637 178.299 189.022 179.09 189.362C179.881 189.702 181.365 188.566 181.526 187.864C181.686 187.161 179.711 185.069 178.921 185.014C178.13 184.959 178.018 185.637 178.018 185.637Z" fill="#FFB27D"/>
<path d="M171.429 148.537C171.429 148.537 172.669 149.518 172.375 150.554C172.375 150.554 169.282 154.141 164.089 154.869C164.316 154.276 164.692 153.752 165.182 153.348C165.938 152.78 170.765 150.103 171.429 148.537Z" fill="#BDD8F4"/>
<path d="M279.993 229.829C278.11 229.864 276.211 229.892 274.297 229.914L273.17 229.924C271.147 229.942 269.107 229.95 267.052 229.95H265.065H264.162C246.15 229.876 229.383 229.101 215.173 227.815L214.564 227.758C212.386 227.559 210.272 227.347 208.22 227.123V227.136C208.189 227.136 208.159 227.119 208.132 227.111L207.629 226.969C205.779 226.43 204.325 225.861 203.314 225.269C203.086 225.137 202.866 224.992 202.656 224.834C202.004 224.337 201.664 223.826 201.664 223.303C201.664 223.303 201.491 222.248 202.56 221.102C204.256 219.272 207.636 216.512 213.043 214.164C218.118 211.958 224.981 210.114 233.909 209.747C235.91 209.664 237.834 209.652 239.681 209.695H239.694C250.707 209.968 258.944 212.322 264.232 214.463C268.858 216.336 271.228 218.043 271.228 218.043C271.228 218.043 284.079 225.821 279.993 229.829Z" fill="#FFE6C2"/>
<path d="M265.057 229.947H264.154C261.616 227.073 258.845 224.414 255.868 221.998C249.704 217.031 240.136 211.368 229.575 212.607C223.766 213.287 215.829 215.433 211.002 221.804C209.782 223.407 208.839 225.204 208.213 227.119V227.133C208.182 227.133 208.153 227.116 208.125 227.107L207.597 227.05L207.623 226.966C208.27 224.923 209.262 223.006 210.557 221.298C213.286 217.673 218.795 213.083 229.528 211.828C240.262 210.574 249.947 216.317 256.191 221.342C259.393 223.945 262.359 226.824 265.057 229.947Z" fill="#EA9678"/>
<path d="M274.294 229.914L273.167 229.924C269.95 226.645 266.47 223.636 262.761 220.926C254.993 215.279 242.932 208.842 229.618 210.246C222.297 211.019 212.292 213.462 206.211 220.705C205.042 222.087 204.063 223.619 203.302 225.262C203.104 225.693 202.934 226.101 202.784 226.47C202.522 226.439 202.266 226.405 202.002 226.37C202.175 225.901 202.38 225.381 202.636 224.816C203.426 223.128 204.434 221.549 205.633 220.121C207.234 218.202 209.592 216.046 213.022 214.147C216.96 211.961 222.311 210.116 229.546 209.351C232.917 209.006 236.319 209.116 239.661 209.678H239.673C249.065 211.231 257.308 215.916 263.15 220.166C267.14 223.086 270.869 226.347 274.294 229.914Z" fill="#EA9678"/>
<path d="M245.504 224.87C244.501 226.581 241.188 227.506 237.974 227.863C237.436 227.924 236.899 227.965 236.376 227.996C232.716 228.196 227.745 227.76 224.736 225.925L224.953 225.222C227.38 226.701 231.734 227.466 236.315 227.212C240.74 226.969 244.157 225.85 245.027 224.364C245.528 223.511 245.497 222.365 244.941 221.219C243.244 217.718 237.463 215.136 228.37 217.266C224.489 218.174 219.298 220.137 216.597 224.323C215.904 225.382 215.42 226.564 215.169 227.804L214.56 227.747C214.811 226.365 215.334 225.046 216.1 223.867C218.344 220.34 222.425 217.865 228.235 216.503C238.247 214.159 243.755 217.366 245.433 220.836C246.122 222.262 246.149 223.77 245.504 224.87Z" fill="#EA9678"/>
<path d="M327.109 221.203C326.672 224.621 320.161 226.953 316.356 228.032C314.988 228.147 313.597 228.258 312.184 228.365C315.619 227.613 326.082 224.376 326.512 221.037C326.622 220.19 326.095 219.275 324.948 218.314C317.698 212.244 282.114 219.796 281.755 219.867L281.667 218.978C281.756 218.957 290.783 217.031 300.599 215.89C313.826 214.352 322.12 214.901 325.251 217.526C326.644 218.704 327.271 219.94 327.109 221.203Z" fill="#EA9678"/>
<path d="M289.724 229.57L289.335 229.584L288.907 229.598C287.367 227.402 277.799 213.95 270.989 208.733L271.129 208.335L271.269 207.939L271.467 208.093C278.932 213.933 289.62 229.418 289.724 229.57Z" fill="#EA9678"/>
<path d="M347.614 218.074C347.215 221.217 344.284 223.669 342.753 224.748C341.876 224.906 340.974 225.062 340.046 225.214C341.237 224.523 346.595 221.212 347.011 217.908C347.165 216.7 346.803 215.483 345.931 214.309C342.054 209.084 323.243 196.799 300.093 205.594C284.074 211.678 278.364 215.606 278.307 215.644L278.045 214.832C278.102 214.793 283.846 210.836 299.94 204.724C312.353 200.006 323.129 201.565 329.986 203.703C338.058 206.222 344.018 210.513 346.345 213.648C347.383 215.045 347.809 216.533 347.614 218.074Z" fill="#EA9678"/>
<path d="M223.937 195.017C223.937 195.017 219.917 197.109 223.828 201.784C227.74 206.458 239.109 201.92 243.999 204.492C248.889 207.064 244.924 210.867 250.533 214.192C256.141 217.516 261.544 206.348 267.047 209.522C272.55 212.697 291.321 217.173 291.635 210.769C291.949 204.364 300.888 201.913 304.268 199.994C307.648 198.074 295.428 195.017 289.336 194.23C285.115 193.684 264.812 182.837 252.604 186.004C240.396 189.172 229.606 191.823 223.937 195.017Z" fill="#C65447"/>
<path d="M260.408 187.216C260.753 184.475 260.062 176.36 259.522 175.865C258.982 175.369 254.105 180.206 253.418 182.74C252.731 185.274 253.686 188.737 255.553 190.474C257.421 192.21 260.059 190.001 260.408 187.216Z" fill="#8FC482"/>
<path d="M278.585 204.875C278.255 204.301 276.324 203.059 276.143 203.149C275.961 203.239 275.97 205.393 276.3 205.961C276.477 206.244 276.752 206.451 277.072 206.543C277.393 206.635 277.736 206.606 278.036 206.46C278.182 206.399 278.314 206.308 278.422 206.193C278.531 206.077 278.614 205.94 278.666 205.791C278.717 205.641 278.737 205.482 278.723 205.324C278.709 205.167 278.662 205.014 278.585 204.875Z" fill="#FFE6C2"/>
<path d="M238.059 196.849C238.577 196.403 239.359 194.371 239.219 194.239C239.079 194.106 236.802 194.699 236.285 195.143C236.163 195.243 236.064 195.367 235.995 195.508C235.925 195.649 235.887 195.803 235.882 195.96C235.877 196.117 235.906 196.273 235.966 196.418C236.027 196.563 236.118 196.693 236.233 196.8C236.479 197.029 236.8 197.161 237.137 197.17C237.473 197.178 237.801 197.064 238.059 196.849Z" fill="#FFE6C2"/>
<path d="M256.701 202.968C255.997 202.888 253.777 203.631 253.751 203.814C253.725 203.997 255.676 205.214 256.382 205.295C257.088 205.376 257.732 204.92 257.82 204.278C257.908 203.636 257.407 203.049 256.701 202.968Z" fill="#FFE6C2"/>
<path d="M252.133 182.428C249.426 180.857 240.493 180.86 240.314 181.468C240.134 182.076 247.084 191.335 249.791 192.907C252.497 194.48 255.294 192.664 255.919 190.534C256.543 188.404 254.838 184 252.133 182.428Z" fill="#A8D29F"/>
<path d="M278.998 196.823C279.688 196.65 281.426 195.195 281.373 195.017C281.319 194.839 279.006 194.39 278.319 194.561C277.632 194.732 277.23 195.376 277.416 196.001C277.603 196.626 278.312 196.993 278.998 196.823Z" fill="#FFE6C2"/>
<path d="M269.151 198.873C268.585 198.48 266.257 198.109 266.132 198.255C266.008 198.402 267.025 200.346 267.591 200.739C267.868 200.927 268.204 201.008 268.536 200.967C268.868 200.925 269.174 200.765 269.397 200.515C269.498 200.395 269.573 200.255 269.615 200.104C269.658 199.952 269.669 199.794 269.645 199.639C269.622 199.483 269.566 199.335 269.481 199.203C269.396 199.071 269.283 198.958 269.151 198.873Z" fill="#FFE6C2"/>
<path d="M332.787 247.295H356.592L352.656 239.282H328.852L332.787 247.295Z" fill="#FFE6C2"/>
<path d="M352.983 243.289C353.988 245.331 355.439 247.014 356.368 247.259C356.441 247.28 356.516 247.291 356.592 247.292C357.497 247.292 357.352 245.498 356.264 243.285C355.177 241.072 353.561 239.28 352.655 239.28C352.589 239.279 352.523 239.29 352.462 239.313C351.778 239.567 351.982 241.252 352.983 243.289Z" fill="#FFE6C2"/>
<path d="M332.788 247.295C332.372 247.295 331.806 246.915 331.208 246.29C331.089 246.166 330.967 246.03 330.848 245.885C330.514 245.486 330.208 245.066 329.931 244.626C329.846 244.495 329.758 244.359 329.682 244.22C329.51 243.922 329.337 243.611 329.18 243.29C329.18 243.275 329.165 243.257 329.158 243.243C329.09 243.105 329.026 242.971 328.968 242.836C328.845 242.56 328.736 242.289 328.645 242.032C328.595 241.894 328.551 241.759 328.51 241.628C328.404 241.29 328.328 240.943 328.282 240.592C328.266 240.457 328.257 240.322 328.258 240.186C328.258 239.622 328.46 239.285 328.852 239.285C329.244 239.285 329.772 239.631 330.33 240.186C330.454 240.311 330.58 240.445 330.706 240.592C330.989 240.922 331.252 241.268 331.495 241.628C331.586 241.759 331.667 241.894 331.761 242.032C331.921 242.289 332.078 242.56 332.228 242.836C332.299 242.971 332.37 243.105 332.437 243.243C332.446 243.258 332.453 243.274 332.46 243.29C332.619 243.609 332.755 243.922 332.872 244.22C332.928 244.359 332.978 244.495 333.024 244.626C333.17 245.035 333.277 245.456 333.344 245.885C333.364 246.019 333.376 246.154 333.38 246.29C333.399 246.915 333.204 247.295 332.788 247.295Z" fill="#FFE6C2"/>
<path d="M353.699 242.836V243.244H329.158C329.09 243.106 329.027 242.971 328.968 242.836H353.699Z" fill="#F2B499"/>
<path d="M328.51 241.628H331.494H353.191V242.032H331.76H328.644L328.51 241.628Z" fill="#F2B499"/>
<path d="M352.793 240.185V240.591H328.281C328.264 240.456 328.256 240.32 328.256 240.185H352.793Z" fill="#F2B499"/>
<path d="M354.45 244.221V244.626H329.938C329.853 244.495 329.765 244.359 329.689 244.221H354.45Z" fill="#F2B499"/>
<path d="M355.423 245.885V246.29H331.208C331.089 246.166 330.967 246.03 330.847 245.885H355.423Z" fill="#F2B499"/>
<path d="M352.983 243.288C353.987 245.331 355.439 247.014 356.368 247.259C357.058 247.008 356.846 245.324 355.85 243.288C354.854 241.253 353.395 239.565 352.466 239.318C351.778 239.567 351.981 241.252 352.983 243.288Z" fill="#EA9678"/>
<path d="M107.627 247.271C107.543 247.271 107.46 247.258 107.381 247.231C107.189 247.166 107.032 247.027 106.942 246.846C106.853 246.664 106.839 246.455 106.904 246.263L139.676 150.055C139.744 149.867 139.882 149.712 140.063 149.625C140.243 149.538 140.45 149.526 140.639 149.59C140.829 149.654 140.985 149.79 141.076 149.969C141.166 150.148 141.182 150.355 141.121 150.545L108.34 246.755C108.29 246.904 108.194 247.034 108.066 247.127C107.938 247.219 107.785 247.27 107.627 247.271Z" fill="#163560"/>
<path d="M62.3146 247.271C62.1933 247.271 62.0737 247.243 61.9658 247.187C61.8578 247.132 61.7647 247.052 61.6941 246.953C61.6235 246.854 61.5775 246.74 61.5599 246.62C61.5423 246.5 61.5537 246.378 61.593 246.263L94.3632 150.055C94.4308 149.867 94.5696 149.712 94.7498 149.625C94.93 149.538 95.1371 149.526 95.3266 149.59C95.5161 149.654 95.6727 149.79 95.7627 149.969C95.8528 150.148 95.8691 150.355 95.8081 150.545L63.0378 246.755C62.9861 246.906 62.8885 247.036 62.7589 247.129C62.6292 247.221 62.4739 247.271 62.3146 247.271Z" fill="#163560"/>
<path d="M126.615 190.753H82.0794C81.877 190.753 81.683 190.673 81.5399 190.53C81.3968 190.387 81.3164 190.193 81.3164 189.99C81.3164 189.788 81.3968 189.594 81.5399 189.451C81.683 189.308 81.877 189.227 82.0794 189.227H126.615C126.818 189.227 127.012 189.308 127.155 189.451C127.298 189.594 127.378 189.788 127.378 189.99C127.378 190.193 127.298 190.387 127.155 190.53C127.012 190.673 126.818 190.753 126.615 190.753Z" fill="#163560"/>
<path d="M118.27 214.685H73.4142C73.2119 214.685 73.0178 214.605 72.8747 214.462C72.7316 214.319 72.6512 214.125 72.6512 213.922C72.6512 213.72 72.7316 213.526 72.8747 213.383C73.0178 213.24 73.2119 213.159 73.4142 213.159H118.27C118.37 213.159 118.469 213.179 118.562 213.217C118.654 213.256 118.738 213.312 118.809 213.383C118.88 213.454 118.936 213.538 118.974 213.63C119.013 213.723 119.033 213.822 119.033 213.922C119.033 214.023 119.013 214.122 118.974 214.214C118.936 214.307 118.88 214.391 118.809 214.462C118.738 214.533 118.654 214.589 118.562 214.627C118.469 214.666 118.37 214.685 118.27 214.685Z" fill="#163560"/>
<path d="M166.052 73.3319C162.397 72.0355 157.733 71.9198 156.589 74.0396C155.586 75.8953 143.355 103.889 141.175 108.888H139.204L155.679 70.8565C155.679 70.8565 158.979 66.377 166.877 69.3236C174.774 72.2703 169.706 74.6283 166.052 73.3319Z" fill="#163560"/>
<path d="M114.121 90.1399C112.353 93.5112 101.471 103.899 102.06 105.132C102.597 106.251 101.955 117.127 101.685 121.305V121.313C101.62 122.313 101.577 122.924 101.577 122.924C101.221 123.775 100.249 124.144 99.5275 124.305C99.2477 124.368 98.963 124.409 98.6765 124.426C98.6765 124.426 98.5263 123.872 98.2847 122.927C97.8341 121.174 97.0763 118.072 96.3738 114.712C95.288 109.472 94.3748 103.601 95.1033 101.227C104.143 71.7732 113.417 81.3605 113.417 81.3605C113.417 81.3605 115.887 86.7739 114.121 90.1399Z" fill="#CFE5FF"/>
<path d="M101.686 121.298V121.306C101.62 122.306 101.577 122.917 101.577 122.917C101.221 123.768 100.249 124.137 99.5279 124.298C99.0821 123.867 98.6668 123.405 98.2851 122.917C97.8345 121.163 97.0767 118.061 96.3741 114.702C97.3305 108.66 101.106 99.6632 101.106 99.6632L101.686 121.298Z" fill="#AFD1F2"/>
<path d="M97.1575 183.826C97.1575 183.826 96.5292 189.151 97.5528 189.227C97.6892 189.238 103.629 189.227 103.629 189.227H110.29C110.29 189.227 110.118 187.61 108.233 187.28C106.348 186.95 103.185 185.625 102.043 183.137C100.839 180.506 97.1575 183.826 97.1575 183.826Z" fill="#C65447"/>
<path d="M96.7863 184.194C96.7863 184.194 98.749 184.85 100.282 184.85C101.385 184.836 102.481 184.679 103.544 184.384C103.544 184.384 103.914 180.811 105.949 172.936C107.014 168.808 108.538 163.5 110.703 156.906C116.693 138.679 118.516 128.018 118.681 127.008C118.69 126.955 118.694 126.929 118.694 126.929L118.675 126.919L100.259 118.833C100.259 118.833 102.535 143.953 99.6311 153.595C99.1903 155.113 98.8382 156.656 98.5764 158.215C96.7518 168.687 96.7863 184.194 96.7863 184.194Z" fill="#F99746"/>
<path d="M98.5764 158.215L105.949 172.936C107.014 168.808 108.538 163.5 110.703 156.906C116.693 138.679 118.516 128.018 118.681 127.008C118.681 126.977 118.681 126.95 118.681 126.919L100.259 118.833C100.259 118.833 102.535 143.953 99.6311 153.595C99.1904 155.113 98.8382 156.656 98.5764 158.215Z" fill="#ED7D2B"/>
<path d="M111.542 183.826C111.542 183.826 111.785 189.151 112.811 189.227C112.947 189.238 118.088 189.207 118.088 189.207L124.647 189.227C124.647 189.227 124.511 187.613 122.622 187.284C120.734 186.954 117.577 185.628 116.432 183.141C115.222 180.507 111.542 183.826 111.542 183.826Z" fill="#C65447"/>
<path d="M121.982 119.425C121.982 119.425 122.222 135.703 119.405 155.689C116.588 175.675 117.544 184.159 117.544 184.159C117.544 184.159 115.609 184.786 114.827 184.85C112.839 185.012 110.798 184.384 110.798 184.384C110.798 184.384 106.764 164.391 107.922 154.386C109.081 144.381 102.399 120.06 102.399 120.06L121.982 119.425Z" fill="#F99746"/>
<path d="M108.569 80.6908L111.799 83.5269L117.076 83.2939C117.064 82.8693 116.967 81.0999 116.879 79.4963C116.879 79.4013 116.867 79.3081 116.862 79.2149C116.784 77.8512 116.717 76.6808 116.717 76.6808L112.211 73.8826L110.534 72.8469C110.534 72.8745 110.465 74.3384 110.452 74.5507C110.261 78.3362 108.569 80.6908 108.569 80.6908Z" fill="#FFB27D"/>
<path d="M123.056 120.129C122.981 128.722 122.408 148.82 121.987 149.229C117.513 153.545 97.8203 148.045 96.7846 143.286C95.7488 138.527 100.755 82.2667 108.395 80.0209C109.98 79.5548 117.076 84.0602 117.076 84.0602C117.076 84.0602 119.79 85.7743 120.661 90.2072C120.986 91.8505 122.042 103.568 122.657 111.4C122.819 113.487 122.952 115.298 123.031 116.566C123.063 117.091 123.069 118.363 123.056 120.129Z" fill="#CFE5FF"/>
<path d="M110.805 74.663C111.607 76.5981 115.319 78.6988 116.879 79.4964C116.879 79.4014 116.867 79.3082 116.862 79.215C116.784 77.8513 116.717 76.6809 116.717 76.6809L112.212 73.8827C111.153 73.7205 110.473 73.8655 110.805 74.663Z" fill="#FCA56B"/>
<path d="M118.383 76.8724C118.383 76.8724 110.232 77.6302 109.838 72.5466C109.444 67.4629 108.127 64.1382 113.323 63.4408C118.519 62.7435 119.672 64.6026 120.216 66.2666C120.76 67.9307 120.492 76.5444 118.383 76.8724Z" fill="#FFB27D"/>
<path d="M119.298 66.1715L116.757 70.1004C115.658 69.6136 115.129 69.8294 114.941 71.5435C114.753 73.2576 111.943 75.0908 110.624 73.3094C110.624 73.3094 105.564 64.3815 106.907 62.8572C109.029 60.4405 114.158 61.0861 117.772 61.4107C121.542 61.7525 122.053 65.8556 119.298 66.1715Z" fill="#163560"/>
<path d="M123.056 120.129C109.396 106.385 108.63 92.6431 108.63 92.6431C115.916 96.7549 120.249 96.8239 122.494 104.293C122.657 106.38 122.952 115.299 123.031 116.568C123.062 117.091 123.069 118.363 123.056 120.129Z" fill="#AFD1F2"/>
<path d="M144.926 93.463C144.926 93.463 145.626 92.6172 145.883 92.272C146.228 91.7748 147.759 91.2362 149.68 90.9877C149.68 90.9877 151.137 91.1706 150.253 92.4877C149.665 93.3681 149.736 92.8485 148.873 94.0776C148.009 95.3066 146.673 96.0368 145.593 95.8038L144.367 96.0282L143.442 94.1104L144.926 93.463Z" fill="#FFB27D"/>
<path d="M107.67 84.944C107.67 84.944 97.7891 94.0531 127.349 107.039C131.859 109.023 145.883 96.4405 145.883 96.4405C145.883 96.4405 145.698 94.1153 144.559 93.0865C144.559 93.0865 130.508 98.2651 128.976 98.4221C127.62 98.5706 119.669 86.0867 117.076 83.2972C114.483 80.5076 107.67 84.944 107.67 84.944Z" fill="#CFE5FF"/>
<path d="M120.242 61.9596C120.242 61.9596 118.772 74.8388 110.403 75.1357L106.591 69.8414C106.591 69.8414 115.11 66.7843 114.287 59.7811L120.242 61.9596Z" fill="#CFE5FF"/>
<path d="M108.663 55.7542C108.663 55.7542 112.267 54.7478 114.796 56.7899C117.325 58.832 117.386 62.1152 115.691 64.2281C115.173 64.8806 116.29 67.9498 114.655 70.0558C113.02 72.1617 109.934 72.3344 108.441 71.9373C107.072 71.5748 104.643 73.9104 102.171 71.6732C99.2796 69.0511 100.595 64.1332 100.595 64.1332C100.595 64.1332 101.903 56.291 108.663 55.7542Z" fill="#739AF0"/>
<path d="M116.399 80.6336C116.299 80.5905 110.565 77.5368 109.895 77.7578C109.225 77.9787 108.393 80.0208 108.393 80.0208L117.616 83.9186C117.616 83.9186 117.685 81.1739 116.399 80.6336Z" fill="#AFD1F2"/>
<path d="M47.541 247.333H81.0846L75.5383 236.04H41.9948L47.541 247.333Z" fill="#FFE6C2"/>
<path d="M75.9993 241.685C77.4131 244.562 79.4603 246.936 80.7688 247.285C80.8715 247.314 80.9778 247.33 81.0847 247.331C82.3604 247.331 82.1549 244.804 80.6238 241.685C79.0927 238.565 76.8141 236.042 75.5384 236.042C75.4448 236.04 75.3518 236.056 75.264 236.088C74.3111 236.435 74.589 238.816 75.9993 241.685Z" fill="#FFE6C2"/>
<path d="M47.5417 247.331C46.9548 247.331 46.1607 246.796 45.3149 245.916C45.1422 245.743 44.9696 245.548 44.8056 245.342C44.337 244.781 43.9063 244.19 43.5162 243.571C43.3971 243.385 43.2797 243.193 43.1709 242.998C42.9223 242.577 42.6841 242.135 42.4614 241.686L42.4304 241.621C42.3354 241.427 42.2474 241.238 42.1645 241.049C41.9919 240.658 41.8366 240.278 41.7088 239.915C41.6398 239.719 41.5759 239.529 41.5189 239.344C41.3692 238.868 41.2623 238.379 41.1996 237.884C41.1739 237.694 41.1618 237.502 41.1633 237.31C41.172 236.516 41.4482 236.042 42.0006 236.042C42.5529 236.042 43.2969 236.516 44.0841 237.31C44.2567 237.483 44.4293 237.678 44.6123 237.884C45.0123 238.348 45.3841 238.835 45.7257 239.344C45.8534 239.529 45.976 239.719 46.0986 239.915C46.3264 240.278 46.5474 240.658 46.758 241.049C46.8581 241.238 46.9565 241.427 47.0514 241.621C47.0652 241.643 47.0756 241.666 47.0859 241.686C47.3069 242.137 47.502 242.577 47.6677 242.998C47.7436 243.193 47.8144 243.385 47.88 243.571C48.0852 244.146 48.236 244.739 48.3305 245.342C48.3597 245.532 48.3765 245.724 48.3806 245.916C48.403 246.792 48.1286 247.331 47.5417 247.331Z" fill="#FFE6C2"/>
<path d="M77.0092 241.05V241.614H42.4248C42.3298 241.421 42.2418 241.231 42.1589 241.043L77.0092 241.05Z" fill="#F2B499"/>
<path d="M41.5132 239.344H45.7199H76.2927V239.914H46.0928H41.7031L41.5132 239.344Z" fill="#F2B499"/>
<path d="M75.7321 237.311V237.884H41.1942C41.1685 237.694 41.1564 237.502 41.158 237.311H75.7321Z" fill="#F2B499"/>
<path d="M78.0659 242.995V243.568H43.516C43.3969 243.382 43.2795 243.19 43.1708 242.995H78.0659Z" fill="#F2B499"/>
<path d="M79.4403 245.343V245.916H45.3116C45.139 245.743 44.9664 245.548 44.8024 245.343H79.4403Z" fill="#F2B499"/>
<path d="M75.9993 241.685C77.4131 244.562 79.4603 246.936 80.7688 247.285C81.7303 246.939 81.4438 244.557 80.0334 241.685C78.6231 238.813 76.581 236.437 75.264 236.089C74.3111 236.436 74.589 238.816 75.9993 241.685Z" fill="#EA9678"/>
<path d="M123.446 246.568C113.701 249.137 105.759 244.542 103.208 234.865L112.477 232.422C114.05 238.393 118.096 238.065 121.003 237.3C127.115 235.69 126.547 230.856 126.019 228.854L135.287 226.411C137.317 234.084 134.466 243.665 123.446 246.568Z" fill="#FFE6C2"/>
<path d="M118.355 245.805C113.427 245.805 109.973 243.216 107.846 240.865C106.193 239.022 104.877 236.903 103.957 234.604L104.527 234.39C105.43 236.615 106.708 238.669 108.307 240.461C111.759 244.286 115.971 245.812 120.819 244.972C125.975 244.086 129.734 241.385 131.991 236.943C133.865 233.254 134.235 229.118 133.967 226.477L134.571 226.411C134.854 229.142 134.466 233.416 132.531 237.226C130.214 241.787 126.199 244.676 120.919 245.584C120.072 245.731 119.214 245.805 118.355 245.805Z" fill="#F2B499"/>
<path d="M118.685 243.596C115.723 243.596 112.868 242.304 110.285 239.769C108.606 238.097 107.207 236.165 106.142 234.048L106.691 233.78C107.734 235.833 109.094 237.707 110.722 239.335C114.162 242.707 117.932 243.751 121.925 242.443C126.339 240.993 129.296 237.984 130.717 233.503C131.362 231.442 131.638 229.284 131.53 227.128L132.135 227.071C132.258 229.303 131.975 231.539 131.302 233.67C130.283 236.898 127.863 241.143 122.113 243.031C121.008 243.401 119.85 243.591 118.685 243.596Z" fill="#F2B499"/>
<path d="M118.937 240.299C112.55 240.299 109.389 233.777 109.355 233.703L109.902 233.434C110.633 234.841 111.607 236.108 112.778 237.178C115.302 239.458 118.207 240.188 121.409 239.346C129.289 237.274 128.364 228.63 128.353 228.542L128.957 228.467C128.968 228.561 129.952 237.74 121.561 239.945C120.705 240.175 119.823 240.294 118.937 240.299Z" fill="#F2B499"/>
<path d="M112.536 232.406C112.626 232.741 110.608 233.565 108.033 234.243C105.457 234.921 103.298 235.199 103.199 234.865C103.101 234.53 105.127 233.706 107.705 233.028C110.282 232.349 112.448 232.07 112.536 232.406Z" fill="#EA9678"/>
<path d="M135.288 226.412C135.377 226.757 133.36 227.57 130.784 228.248C128.209 228.927 126.049 229.205 125.959 228.87C125.87 228.535 127.887 227.711 130.465 227.033C133.042 226.355 135.2 226.078 135.288 226.412Z" fill="#EA9678"/>
<path d="M369.147 246.071C359.703 242.559 355.855 234.228 359.344 224.839L368.32 228.181C366.167 233.969 369.663 236.03 372.48 237.078C378.404 239.282 380.723 235.006 381.446 233.063L390.422 236.405C387.665 243.858 379.822 250.045 369.147 246.071Z" fill="#FFE6C2"/>
<path d="M365.418 242.515C361.389 239.677 360.053 235.578 359.671 232.424C359.381 229.965 359.526 227.474 360.099 225.065L360.69 225.219C360.144 227.558 360.006 229.974 360.281 232.36C360.904 237.475 363.471 241.141 367.912 243.252C372.637 245.496 377.267 245.455 381.67 243.123C385.326 241.186 388.016 238.022 389.312 235.7L389.845 235.995C388.502 238.39 385.725 241.661 381.948 243.661C377.429 246.056 372.482 246.104 367.643 243.803C366.866 243.439 366.121 243.008 365.418 242.515Z" fill="#F2B499"/>
<path d="M366.961 240.898C364.544 239.192 362.947 236.492 362.3 232.933C361.891 230.598 361.86 228.213 362.207 225.868L362.809 225.966C362.481 228.244 362.514 230.56 362.906 232.828C363.769 237.566 366.257 240.596 370.277 241.819C374.72 243.176 378.87 242.42 382.612 239.575C384.326 238.263 385.794 236.658 386.949 234.834L387.477 235.136C386.288 237.03 384.768 238.695 382.989 240.05C380.298 242.103 375.875 244.179 370.085 242.412C368.97 242.076 367.916 241.565 366.961 240.898Z" fill="#F2B499"/>
<path d="M369.066 238.348C363.848 234.671 365.018 227.518 365.032 227.437L365.634 227.534C365.422 229.105 365.488 230.701 365.828 232.25C366.578 235.569 368.533 237.837 371.638 238.996C379.275 241.84 383.497 234.24 383.538 234.162L384.074 234.45C384.03 234.532 379.547 242.602 371.417 239.572C370.584 239.267 369.794 238.855 369.066 238.348Z" fill="#F2B499"/>
<path d="M368.379 228.21C368.258 228.536 366.134 228.046 363.638 227.117C361.142 226.189 359.216 225.172 359.337 224.847C359.458 224.523 361.581 225.02 364.077 225.94C366.573 226.86 368.499 227.886 368.379 228.21Z" fill="#EA9678"/>
<path d="M390.43 236.413C390.309 236.738 388.186 236.249 385.69 235.32C383.194 234.392 381.267 233.375 381.388 233.05C381.509 232.726 383.632 233.214 386.128 234.141C388.625 235.068 390.551 236.09 390.43 236.413Z" fill="#EA9678"/>
<path d="M470.147 247.297H0.533398C0.238812 247.297 0 247.535 0 247.83V248.011C0 248.306 0.238812 248.545 0.533398 248.545H470.147C470.441 248.545 470.68 248.306 470.68 248.011V247.83C470.68 247.535 470.441 247.297 470.147 247.297Z" fill="#233862"/>
<path d="M303.732 155.734H261.776C261.562 155.734 261.35 155.692 261.153 155.611C260.955 155.529 260.775 155.409 260.624 155.257C260.472 155.106 260.352 154.926 260.271 154.728C260.189 154.531 260.147 154.319 260.147 154.105C260.147 153.672 260.319 153.258 260.624 152.952C260.93 152.647 261.344 152.475 261.776 152.475H303.723C303.937 152.475 304.149 152.517 304.347 152.599C304.544 152.681 304.724 152.801 304.875 152.952C305.027 153.104 305.147 153.283 305.229 153.481C305.311 153.679 305.353 153.891 305.353 154.105C305.353 154.535 305.182 154.949 304.878 155.254C304.575 155.559 304.163 155.732 303.732 155.734Z" fill="#AFCDFB"/>
</svg>
