<svg width="58" height="255" viewBox="0 0 58 255" fill="none" xmlns="http://www.w3.org/2000/svg">
<g clip-path="url(#clip0_534_1678)">
<path d="M16.0218 157.466C16.1431 157.284 16.2741 157.11 16.4143 156.943C20.7185 152.505 25.0281 148.072 29.3429 143.642C29.6193 143.361 29.9586 143.154 30.3308 143.039C30.8898 142.873 31.5011 143.219 31.7976 143.737C31.9456 143.994 32.0154 144.291 31.9981 144.589C31.9807 144.887 31.877 145.173 31.7004 145.409C31.5939 145.541 31.4798 145.667 31.3589 145.785C26.6544 150.629 21.9508 155.473 17.2479 160.317C16.3681 161.222 15.622 161.223 14.7482 160.323C10.0114 155.447 5.27572 150.57 0.541277 145.691C-0.366482 144.756 -0.0906296 143.379 1.06503 143.063C1.62889 142.903 2.10646 143.074 2.5172 143.498L4.99258 146.046C8.52882 149.687 12.063 153.327 15.5952 156.967C15.7168 157.087 15.8176 157.224 16.0218 157.466Z" fill="black"/>
</g>
<path d="M40.7952 3H36C24.9543 3 16 11.9543 16 23V232C16 243.046 24.9543 252 36 252H58" stroke="black" stroke-width="5" stroke-dasharray="10 10"/>
<defs>
<clipPath id="clip0_534_1678">
<rect width="18" height="32" fill="white" transform="translate(32 143) rotate(90)"/>
</clipPath>
</defs>
</svg>
