<svg width="53" height="262" viewBox="0 0 53 262" fill="none" xmlns="http://www.w3.org/2000/svg">
<path d="M0 3H17C28.0457 3 37 11.9543 37 23V239C37 250.046 28.0457 259 17 259H0.986667" stroke="black" stroke-width="5" stroke-linejoin="round" stroke-dasharray="10 10"/>
<g clip-path="url(#clip0_528_1596)">
<path d="M36.5225 141.466C36.6476 141.284 36.7827 141.11 36.9273 140.943C41.366 136.505 45.8102 132.072 50.2599 127.642C50.545 127.361 50.8948 127.154 51.2787 127.039C51.8552 126.872 52.4855 127.219 52.7913 127.737C52.9439 127.994 53.0159 128.291 52.9981 128.589C52.9802 128.887 52.8732 129.173 52.691 129.409C52.5812 129.541 52.4636 129.667 52.3389 129.785C47.4874 134.629 42.6368 139.473 37.787 144.317C36.8797 145.222 36.1102 145.223 35.2092 144.323C30.3243 139.447 25.4406 134.57 20.5582 129.691C19.6221 128.756 19.9066 127.379 21.0984 127.063C21.6798 126.903 22.1723 127.074 22.5959 127.498L25.1486 130.046C28.7954 133.687 32.4401 137.327 36.0826 140.967C36.208 141.087 36.312 141.224 36.5225 141.466Z" fill="black"/>
</g>
<defs>
<clipPath id="clip0_528_1596">
<rect width="18" height="33" fill="white" transform="translate(53 127) rotate(90)"/>
</clipPath>
</defs>
</svg>
