<svg width="28" height="28" viewBox="0 0 28 28" fill="none" xmlns="http://www.w3.org/2000/svg">
<circle cx="14" cy="14" r="14" fill="#828282" fill-opacity="0.7"/>
<path d="M16.8298 8.4854C16.8298 8.7519 16.5894 8.96129 16.2834 8.96129H9.63919C9.33321 8.96129 9.09279 9.17068 9.09279 9.43717V18.0031C9.09279 18.2696 9.33321 18.479 9.63919 18.479H17.245C17.551 18.479 17.7914 18.2696 17.7914 18.0031V12.0069C17.7914 11.7405 18.0318 11.5311 18.3378 11.5311C18.6438 11.5311 18.8842 11.7405 18.8842 12.0069V18.0031C18.8842 18.7835 18.1411 19.4307 17.245 19.4307H9.63919C8.7431 19.4307 8 18.7835 8 18.0031V9.43717C8 8.65672 8.7431 8.00952 9.63919 8.00952H16.2834C16.5894 8.00952 16.8298 8.21891 16.8298 8.4854ZM10.273 11.3407H13.0924C13.3984 11.3407 13.6388 11.1313 13.6388 10.8648C13.6388 10.5983 13.3984 10.3889 13.0924 10.3889H10.273C9.96703 10.3889 9.72661 10.5983 9.72661 10.8648C9.72661 11.1313 9.96703 11.3407 10.273 11.3407ZM10.273 13.3965H13.0924C13.3984 13.3965 13.6388 13.1871 13.6388 12.9206C13.6388 12.6542 13.3984 12.4448 13.0924 12.4448H10.273C9.96703 12.4448 9.72661 12.6542 9.72661 12.9206C9.72661 13.1871 9.96703 13.3965 10.273 13.3965ZM16.6986 14.3673H10.1856C9.8796 14.3673 9.63919 14.5767 9.63919 14.8432C9.63919 15.1097 9.8796 15.3191 10.1856 15.3191H16.6986C17.0046 15.3191 17.245 15.1097 17.245 14.8432C17.245 14.5767 17.0046 14.3673 16.6986 14.3673ZM16.6986 16.2518H10.1856C9.8796 16.2518 9.63919 16.4612 9.63919 16.7277C9.63919 16.9942 9.8796 17.2036 10.1856 17.2036H16.6986C17.0046 17.2036 17.245 16.9942 17.245 16.7277C17.245 16.4612 17.0046 16.2518 16.6986 16.2518ZM19.824 8.14277C19.6055 7.95241 19.2558 7.95241 19.0591 8.14277L15.1469 11.5311C14.9283 11.7214 14.9283 12.026 15.1469 12.1973C15.2561 12.2925 15.3873 12.3305 15.5403 12.3305C15.6714 12.3305 15.8244 12.2925 15.9337 12.1973L19.824 8.82804C20.0426 8.63769 20.0426 8.33312 19.824 8.14277Z" fill="white"/>
</svg>
