<svg width="24" height="24" viewBox="0 0 24 24" fill="none" xmlns="http://www.w3.org/2000/svg">
<path d="M8.59888 6.22065C8.73418 6.22065 8.84697 6.32292 8.84697 6.44559C8.84697 6.56827 8.73418 6.67054 8.59888 6.67054H7.16901C7.03372 6.67054 6.92092 6.56827 6.92092 6.44559C6.92092 6.32292 7.03372 6.22065 7.16901 6.22065H8.59888ZM12.2526 6.71146V7.40271C12.4601 7.36591 12.7669 7.23496 12.7669 7.04696C12.7667 6.84641 12.5367 6.76467 12.2526 6.71146ZM11.7564 6.17982V5.48459C11.5489 5.52139 11.2421 5.65234 11.2421 5.84034C11.2421 6.04489 11.4721 6.12662 11.7564 6.17982ZM12.2526 8.05299C12.2526 8.07339 12.248 8.09393 12.2436 8.11433H13.4433C13.705 7.93032 13.9214 7.69311 14.0748 7.42308C14.8732 6.02849 13.7591 4.33118 12.0045 4.33118C10.2544 4.33118 9.14025 6.00808 9.92071 7.40266C10.0741 7.68082 10.2951 7.92203 10.5611 8.11017H11.761C11.7475 8.0611 11.752 7.91789 11.752 7.85655C11.2604 7.79108 10.7416 7.5048 10.7416 7.04677C10.7416 6.9241 10.8544 6.82182 10.9897 6.82182C11.125 6.82182 11.2378 6.9241 11.2378 7.04677C11.2378 7.23491 11.54 7.36571 11.7521 7.40252V6.63367C11.2198 6.55193 10.7416 6.41685 10.7416 5.84028C10.7416 5.37813 11.2559 5.09185 11.7521 5.0305V4.83822C11.7521 4.71555 11.8648 4.61327 12.0001 4.61327C12.1354 4.61327 12.2482 4.71555 12.2482 4.83822V5.0305C12.7399 5.09597 13.2587 5.38225 13.2587 5.84028C13.2587 5.96709 13.1459 6.06523 13.0106 6.06523C12.8753 6.06523 12.7625 5.96709 12.7625 5.84028C12.7625 5.65214 12.4603 5.52133 12.2482 5.48453V6.25338C12.7804 6.33511 13.2587 6.4702 13.2587 7.04677C13.2587 7.50892 12.7444 7.7952 12.2482 7.85655L12.2481 8.05297L12.2526 8.05299ZM21.3822 4.89562C20.3853 4.5316 18.7705 4.55214 17.8233 4.89562C16.9979 5.19417 16.9979 5.54594 17.8233 5.84446C18.7976 6.20021 20.4079 6.20021 21.3822 5.84446C22.2031 5.54591 22.2031 5.19414 21.3822 4.89562ZM19.6004 4.17983H19.7719V2H4.23722V8.11025H5.32428V4.503C5.32428 4.41713 5.3784 4.33525 5.4731 4.29845C6.11353 4.04084 6.64136 3.57868 6.93898 3.00198C6.97956 2.92424 7.06074 2.87517 7.16457 2.87517H16.831C16.9303 2.87104 17.025 2.91611 17.0701 3.00198C17.2957 3.43148 17.6429 3.79537 18.0806 4.06537C18.2023 4.14311 18.3332 4.20858 18.4685 4.26992C18.8157 4.20858 19.1993 4.17991 19.6006 4.17991L19.6004 4.17983ZM13.7366 9.19387C14.6973 9.03439 15.8612 9.09159 16.7046 9.36561V6.67038H15.41C15.2747 6.67038 15.1619 6.56811 15.1619 6.44544C15.1619 6.32277 15.2747 6.22049 15.41 6.22049H16.7046V5.36579C16.7091 4.93629 17.1918 4.61736 17.7871 4.42923C17.3315 4.14708 16.9526 3.76664 16.6955 3.32505H7.31778C6.98395 3.89346 6.46072 4.35565 5.82485 4.64606V8.11426H9.85743C8.90125 7.09995 8.95977 5.58266 10.0062 4.63383C11.1114 3.63179 12.902 3.63179 14.0072 4.63383C15.216 5.7299 15.0853 7.53343 13.7366 8.47825L13.7366 9.19387ZM19.5191 14.6947C18.5583 14.3429 16.9435 14.3348 15.9602 14.6947C15.1348 14.9932 15.1348 15.345 15.9602 15.6435C16.9345 15.9992 18.5494 15.9992 19.5191 15.6435C20.3445 15.3408 20.3445 14.9932 19.5191 14.6947ZM20.1416 15.8562C19.032 16.5269 16.4518 16.5269 15.3422 15.8562V21.2588C15.3422 21.4265 15.5767 21.5941 15.9601 21.7332C16.9344 22.0889 18.5493 22.0889 19.519 21.7332C19.9024 21.5941 20.1369 21.4224 20.1369 21.2588V15.8562H20.1416ZM17.7554 13.9749C18.5132 13.9749 19.2033 14.0894 19.7039 14.2734C20.2813 14.482 20.633 14.7928 20.6376 15.1649V18.8827C21.0345 18.8172 21.3684 18.719 21.6165 18.5964C21.86 18.4778 21.9998 18.3469 21.9998 18.2201L22 6.05691C20.8904 6.7276 18.3103 6.7276 17.2006 6.05691V9.57831C17.5524 9.77458 17.7509 10.0201 17.7555 10.2981L17.7554 13.9749ZM2 21.8927H13.2407V8.55991H2V21.8927ZM13.7369 11.4023V20.1301C14.0932 20.1955 14.4676 20.2241 14.8465 20.2241V15.1691C14.851 14.797 15.2028 14.4862 15.7756 14.2776C16.1725 14.1304 16.6868 14.0281 17.2596 13.9913V10.9853C16.4162 11.4964 14.8419 11.5823 13.7369 11.4024V11.4023ZM13.7369 9.65182V10.9442C14.6616 11.1119 15.8523 11.0587 16.6418 10.7724C17.5438 10.4452 17.386 10.0934 16.6418 9.82358C15.8523 9.53331 14.6614 9.48421 13.7369 9.65182ZM11.3733 10.1468H3.86756V11.8031H11.3733V10.1468ZM3.61948 9.69691H11.6214C11.7567 9.69691 11.8695 9.79919 11.8695 9.92186V12.0281C11.8695 12.1549 11.7567 12.2531 11.6214 12.2531H3.61948C3.48418 12.2531 3.37138 12.1508 3.37138 12.0281V9.92186C3.37138 9.79505 3.48418 9.69691 3.61948 9.69691ZM4.80126 16.7394H3.86756V17.6801H4.80126V16.7394ZM3.61948 16.2895H5.04934C5.18464 16.2895 5.29744 16.3918 5.29744 16.5145V17.9049C5.29744 18.0276 5.18464 18.1299 5.04934 18.1299H3.61948C3.48418 18.1299 3.37138 18.0276 3.37138 17.9049V16.5145C3.37138 16.3877 3.48418 16.2895 3.61948 16.2895ZM4.80126 19.316H3.86756V20.2567H4.80126V19.316ZM3.61948 18.8661H5.04934C5.18464 18.8661 5.29744 18.9684 5.29744 19.091V20.4815C5.29744 20.6042 5.18464 20.7064 5.04934 20.7064L3.61948 20.7066C3.48418 20.7066 3.37138 20.6043 3.37138 20.4816V19.0912C3.37138 18.9642 3.48418 18.8661 3.61948 18.8661ZM8.08942 14.1588H7.15572V15.0995H8.08942V14.1588ZM6.90325 13.7089H8.33312C8.46841 13.7089 8.58121 13.8112 8.58121 13.9339V15.3243C8.58121 15.447 8.46841 15.5493 8.33312 15.5493H6.90325C6.76795 15.5493 6.65516 15.447 6.65516 15.3243V13.9339C6.65516 13.8112 6.7678 13.7089 6.90325 13.7089ZM8.08942 16.7395H7.15572V17.6802H8.08942V16.7395ZM6.90325 16.2896H8.33312C8.46841 16.2896 8.58121 16.3919 8.58121 16.5145V17.905C8.58121 18.0277 8.46841 18.1299 8.33312 18.1299H6.90325C6.76795 18.1299 6.65516 18.0277 6.65516 17.905V16.5145C6.65516 16.3877 6.7678 16.2896 6.90325 16.2896ZM8.08942 19.316H7.15572V20.2567H8.08942V19.316ZM6.90325 18.8661H8.33312C8.46841 18.8661 8.58121 18.9684 8.58121 19.0911V20.4815C8.58121 20.6042 8.46841 20.7065 8.33312 20.7065L6.90325 20.7066C6.76795 20.7066 6.65516 20.6043 6.65516 20.4817V19.0912C6.65516 18.9643 6.7678 18.8661 6.90325 18.8661ZM4.80118 14.1588H3.86748V15.0996H4.80118V14.1588ZM3.61939 13.7089H5.04926C5.18456 13.7089 5.29735 13.8112 5.29735 13.9339V15.3244C5.29735 15.447 5.18456 15.5493 5.04926 15.5493H3.61939C3.4841 15.5493 3.3713 15.447 3.3713 15.3244V13.9339C3.3713 13.8112 3.4841 13.7089 3.61939 13.7089ZM11.3732 16.7395H10.4395V20.2567H11.3732V16.7395ZM10.1915 16.2896H11.6213C11.7566 16.2896 11.8694 16.3919 11.8694 16.5146V20.4817C11.8694 20.6043 11.7566 20.7066 11.6213 20.7066H10.1915C10.0562 20.7066 9.94336 20.6043 9.94336 20.4817V16.5146C9.94336 16.3878 10.0516 16.2896 10.1915 16.2896ZM11.3732 14.1588H10.4395V15.0996H11.3732V14.1588ZM10.1915 13.7089H11.6213C11.7566 13.7089 11.8694 13.8112 11.8694 13.9339V15.3244C11.8694 15.447 11.7566 15.5493 11.6213 15.5493H10.1915C10.0562 15.5493 9.94336 15.447 9.94336 15.3244V13.9339C9.94336 13.8112 10.0516 13.7089 10.1915 13.7089Z" fill="white"/>
</svg>
