<svg width="24" height="24" viewBox="0 0 24 24" fill="none" xmlns="http://www.w3.org/2000/svg">
<path d="M15.726 5.41783V7.75954H15.705C15.3674 7.78058 15.0298 7.84386 14.7134 7.94937C14.3548 8.07593 14.0172 8.24472 13.6797 8.45573C13.3421 8.66674 13.0257 8.94091 12.7514 9.23626C12.5193 9.46833 12.3083 9.74262 12.1396 9.99574H8.82742V3.77226C7.01311 4.99586 5.34656 5.67087 3.59548 5.83968V7.08434V10.0168H8.82742V16.0293C8.95397 15.987 9.05949 15.9238 9.16499 15.9027C9.52362 15.7339 9.88224 15.5651 10.2409 15.4175C10.705 15.1855 11.1059 14.9112 11.4855 14.637C11.5699 14.9323 11.7386 15.4175 12.034 15.8184C12.0762 15.9449 12.0973 16.0715 12.1606 16.198C12.0973 16.2403 12.034 16.2823 11.9707 16.3246C11.7597 16.4511 11.5488 16.5777 11.3168 16.7255C11.2113 16.7887 11.1269 16.852 11.0214 16.8942C10.6206 17.1263 10.2409 17.2951 9.84006 17.4427L9.35488 17.6326C9.22833 17.6958 9.05954 17.7381 8.8697 17.7381C8.74314 17.7381 8.61659 17.6958 8.46883 17.6748C6.57022 16.9786 5.11452 16.0715 3.93307 14.89C2.96256 13.8984 2.39307 12.9069 2.13979 11.7888C2.03428 11.3036 1.971 10.8395 2.01324 10.4176V7.10535V5.45982C2.01324 4.44723 2.73048 4.27845 3.15238 4.23622C4.75567 4.13071 6.33791 3.51898 8.11006 2.29534C8.29989 2.16879 8.53195 2 8.86953 2C9.20711 2 9.41801 2.16879 9.65007 2.33758C10.958 3.26586 12.1394 3.8143 13.363 4.08859C13.7006 4.15187 14.0592 4.21515 14.4178 4.25738L14.671 4.29962C15.3463 4.36289 15.7259 4.7848 15.7259 5.41773L15.726 5.41783ZM18.0255 10.3755C18.0255 10.3755 17.8356 9.99585 17.3082 9.70034C16.9707 9.48932 16.4855 9.34172 15.8315 9.38396C15.6205 9.38396 15.4306 9.42619 15.2408 9.48947C15.0087 9.57379 14.7977 9.6793 14.5869 9.82705C14.3548 9.9748 14.1227 10.1646 13.9329 10.3755C13.6165 10.6919 13.3422 11.114 13.2157 11.6414C13.1102 12.0845 13.1102 12.5485 13.2789 13.0338C13.0469 13.0128 12.7726 13.1393 13.0258 14.0676C13.2157 14.7427 13.3845 14.9326 13.5322 14.9326C13.5955 15.3122 13.722 15.7553 13.9331 16.1351V17.0212C13.9331 17.0634 13.912 17.1055 13.8698 17.1267C13.5534 17.2744 12.1188 18.0128 10.6842 19.1098C10.1991 19.4895 9.90371 20.0803 9.90371 20.6921V21.6203C9.90371 21.8314 10.0725 22 10.2834 22H21.5489C21.7599 22 21.9286 21.8312 21.9286 21.6203V20.6921C21.9286 20.0803 21.6543 19.4895 21.148 19.1098C19.7343 18.0126 18.2998 17.2742 17.9834 17.1264C17.9412 17.1054 17.9201 17.0632 17.9201 17.0209V16.0083C18.0679 15.6919 18.1732 15.3544 18.2155 15.059C18.342 15.1433 18.5741 15.1013 18.8272 14.2152C19.0382 13.498 18.9115 13.2447 18.7217 13.2026C19.3124 10.4601 18.0255 10.3756 18.0255 10.3756L18.0255 10.3755Z" fill="white"/>
</svg>
