<svg width="24" height="24" viewBox="0 0 24 24" fill="none" xmlns="http://www.w3.org/2000/svg">
<g clip-path="url(#clip0_279_6739)">
<path d="M19.3984 12.5904C19.4455 12.4515 19.4924 12.2894 19.5161 12.1504C19.6571 11.5948 19.7276 11.0159 19.7276 10.4371C19.7276 9.2564 19.469 8.14499 18.9281 7.08006C18.787 6.80228 18.4342 6.6634 18.1521 6.82538C17.8699 6.96427 17.7523 7.31166 17.8933 7.58939C18.3402 8.46924 18.5518 9.44164 18.5518 10.4371C18.5518 10.9234 18.5047 11.4095 18.3871 11.8957C18.3637 12.0347 18.3166 12.1504 18.2931 12.2662C18.1991 12.5673 18.3871 12.8914 18.6929 12.9839C18.74 13.007 18.8105 13.007 18.8576 13.007C19.0927 12.9839 19.3043 12.8218 19.3985 12.5904L19.3984 12.5904Z" fill="white"/>
<path d="M4.58269 12.5904C4.65323 12.8451 4.88847 13.007 5.14714 13.007C5.19424 13.007 5.26476 13.007 5.31184 12.984C5.61761 12.8914 5.8058 12.5673 5.71162 12.2663C5.66454 12.1505 5.64107 12.0116 5.61761 11.8958C5.5 11.4095 5.45291 10.9234 5.45291 10.4371C5.45291 9.44167 5.68816 8.49237 6.1114 7.58943C6.25247 7.31166 6.13487 6.96428 5.85269 6.8254C5.57055 6.68653 5.2177 6.80231 5.07664 7.08009C4.55926 8.12192 4.2771 9.25647 4.2771 10.4371C4.2771 11.016 4.34764 11.5948 4.48871 12.1505C4.51217 12.2894 4.53561 12.4282 4.58269 12.5904Z" fill="white"/>
<path d="M11.9906 19.976C12.9077 19.976 13.6367 19.2583 13.6367 18.3554L10.3444 18.3552C10.3444 19.2582 11.0734 19.976 11.9906 19.976Z" fill="white"/>
<path d="M6.6522 10.2057V14.8825L5.49983 16.8273C5.38222 17.0125 5.38222 17.2208 5.49983 17.4061C5.59384 17.5913 5.80559 17.7071 6.01721 17.7071H18.0109C18.2225 17.7071 18.4107 17.5913 18.5283 17.4061C18.6223 17.2208 18.6223 17.0125 18.5283 16.8273L17.3759 14.8825V10.2057C17.3759 7.49685 15.2829 5.27423 12.6255 4.97325V4.60277C12.6255 4.27864 12.3668 4.02396 12.0375 4.02396C11.7083 4.02396 11.4496 4.27864 11.4496 4.60277V4.97325C8.72159 5.27411 6.6522 7.49666 6.6522 10.2057ZM13.0018 7.58944C13.19 7.33474 13.5427 7.26531 13.825 7.4273C14.7187 8.02922 15.2595 9.02485 15.2595 10.0897C15.2595 10.4139 15.0008 10.6685 14.6716 10.6685C14.3424 10.6685 14.0837 10.4139 14.0837 10.0897C14.0837 9.39511 13.731 8.76997 13.1665 8.37642C12.8842 8.21459 12.8137 7.8441 13.0018 7.58944Z" fill="white"/>
<path d="M3.17167 10.414C3.17167 8.81649 3.61854 7.26533 4.46515 5.89932C4.62985 5.62154 4.53569 5.27417 4.27699 5.11218C3.99484 4.95004 3.64199 5.04274 3.47746 5.29742C2.51321 6.82553 2.01944 8.60815 2.01944 10.4141C2.01944 11.5254 2.2076 12.6135 2.58389 13.6554C2.67789 13.887 2.88966 14.049 3.14834 14.049C3.21888 14.049 3.28942 14.049 3.3365 14.0259C3.64227 13.9101 3.8068 13.5859 3.68919 13.2849C3.33634 12.3587 3.17164 11.3863 3.17164 10.4139L3.17167 10.414Z" fill="white"/>
<path d="M19.8218 5.2742C19.5396 5.43635 19.4455 5.78356 19.6102 6.06134C20.3862 7.38111 20.8095 8.88594 20.8095 10.414C20.8095 11.3864 20.6448 12.3588 20.3155 13.285C20.1979 13.586 20.3626 13.9101 20.6682 14.0259C20.7387 14.049 20.8093 14.049 20.8564 14.049C21.0916 14.049 21.3267 13.9101 21.4208 13.6554C21.7971 12.6136 21.9853 11.5254 21.9853 10.4142C21.9853 8.67773 21.515 6.96442 20.6213 5.4827C20.4568 5.20476 20.1041 5.11206 19.8218 5.2742Z" fill="white"/>
</g>
<defs>
<clipPath id="clip0_279_6739">
<rect width="20" height="16" fill="white" transform="translate(2 4)"/>
</clipPath>
</defs>
</svg>
