<svg width="24" height="24" viewBox="0 0 24 24" fill="none" xmlns="http://www.w3.org/2000/svg">
<rect width="24" height="24" rx="12" fill="#E3E4EE"/>
<path fill-rule="evenodd" clip-rule="evenodd" d="M14.2745 4L14.3579 4.00459C14.4539 4.01658 14.5424 4.05255 14.6173 4.10574C14.6922 4.15944 14.7551 4.23151 14.7979 4.31773L14.8293 4.3949L19.9653 19.2314L19.9927 19.3348C20.0019 19.3908 20.0024 19.4463 19.9955 19.5005C19.9835 19.5966 19.9475 19.6851 19.8944 19.76C19.8407 19.8348 19.7686 19.8977 19.6824 19.9406C19.6333 19.9652 19.5801 19.9823 19.5247 19.992L19.4178 20H4.58232L4.47543 19.992C4.41995 19.9823 4.36689 19.9651 4.31778 19.9406C4.23156 19.8977 4.15949 19.8348 4.10579 19.76C4.05261 19.6851 4.01664 19.5966 4.00465 19.5005C3.99776 19.4462 3.9984 19.3908 4.00745 19.3348L4.03488 19.2314L9.17085 4.3949L9.20222 4.31773C9.24508 4.23151 9.30796 4.15944 9.38283 4.10574C9.45771 4.05255 9.54622 4.01658 9.64227 4.00459L9.72569 4H14.2745ZM13.8791 5.14285H10.1214L5.37397 18.8571H18.6265L13.8791 5.14285ZM11.4288 13.7142V16.5714C11.4288 16.8868 11.6848 17.1428 12.0003 17.1428C12.3157 17.1428 12.5717 16.8868 12.5717 16.5714V13.7142C12.5717 13.3988 12.3157 13.1428 12.0003 13.1428C11.6848 13.1428 11.4288 13.3988 11.4288 13.7142ZM11.4288 7.42855V10.2857C11.4288 10.6011 11.6848 10.8571 12.0003 10.8571C12.3157 10.8571 12.5717 10.6011 12.5717 10.2857V7.42855C12.5717 7.11312 12.3157 6.85713 12.0003 6.85713C11.6848 6.85713 11.4288 7.11312 11.4288 7.42855Z" fill="black"/>
</svg>
