<svg width="24" height="24" viewBox="0 0 24 24" fill="none" xmlns="http://www.w3.org/2000/svg">
<path d="M20.3335 9.3334C20.3335 10.6221 19.2888 11.6668 18.0001 11.6668C16.7114 11.6668 15.6667 10.6221 15.6667 9.3334C15.6667 8.0447 16.7114 7.00003 18.0001 7.00003C19.2888 7.00003 20.3335 8.0447 20.3335 9.3334Z" fill="white"/>
<path d="M21.06 11.3532C20.4424 12.2912 19.4315 12.8972 18.3133 13C18.5453 13.6414 18.665 14.3181 18.6666 15V17.0001H20C20.5305 17.0001 21.0391 16.7894 21.4143 16.4144C21.7893 16.0392 22 15.5306 22 15V13.6667C21.9982 12.8028 21.6612 11.9735 21.06 11.3532Z" fill="white"/>
<path d="M8.33328 9.3334C8.33328 10.6221 7.28861 11.6668 5.99991 11.6668C4.7112 11.6668 3.66653 10.6221 3.66653 9.3334C3.66653 8.0447 4.7112 7.00003 5.99991 7.00003C7.28861 7.00003 8.33328 8.0447 8.33328 9.3334Z" fill="white"/>
<path d="M2.94005 11.3532C2.33886 11.9735 2.00179 12.8028 2 13.6667V15C2 15.5306 2.21072 16.0392 2.58572 16.4144C2.96088 16.7894 3.46951 17.0001 4.00003 17.0001H5.33339V15C5.33502 14.3181 5.45467 13.6414 5.68667 13C4.56848 12.8972 3.55763 12.2912 2.94005 11.3532Z" fill="white"/>
<path d="M15.5601 11.3468C14.6735 12.3929 13.3715 12.9961 12 12.9961C10.6286 12.9961 9.32663 12.3929 8.44003 11.3468C7.32214 12.23 6.66918 13.5755 6.66663 15.0001V17.6668C6.66663 18.1973 6.87734 18.7059 7.25235 19.0811C7.62751 19.4561 8.13614 19.6668 8.66666 19.6668H15.3334C15.864 19.6668 16.3726 19.4561 16.7477 19.0811C17.1228 18.7059 17.3335 18.1973 17.3335 17.6668V15.0001C17.3309 13.5755 16.678 12.2299 15.5601 11.3468Z" fill="white"/>
<path d="M15.3334 8.33339C15.3334 10.1743 13.841 11.6668 12 11.6668C10.1591 11.6668 8.66663 10.1743 8.66663 8.33339C8.66663 6.49244 10.1591 5 12 5C13.841 5 15.3334 6.49244 15.3334 8.33339Z" fill="white"/>
</svg>
