<svg width="24" height="24" viewBox="0 0 24 24" fill="none" xmlns="http://www.w3.org/2000/svg">
<path d="M21.9999 16.8947V19.8947C21.9983 20.4525 21.7758 20.987 21.3815 21.3815C20.987 21.7758 20.4525 21.9983 19.8946 22H13.7367C13.1789 21.9983 12.6444 21.7758 12.2499 21.3815C11.8554 20.9871 11.6331 20.4525 11.6314 19.8947V16.8947C11.6331 16.3368 11.8554 15.8023 12.2499 15.4078C12.6443 15.0133 13.1789 14.791 13.7367 14.7894H19.8946C20.4525 14.791 20.987 15.0133 21.3815 15.4078C21.7758 15.8023 21.9983 16.3368 21.9999 16.8947ZM19.8946 2H13.7367C13.1789 2.00165 12.6444 2.22413 12.2499 2.61842C11.8554 3.0129 11.6331 3.54746 11.6314 4.1053V11.3158C11.6331 11.8736 11.8554 12.408 12.2499 12.8025C12.6443 13.197 13.1789 13.4193 13.7367 13.4209H19.8946C20.4525 13.4193 20.987 13.197 21.3815 12.8025C21.7758 12.408 21.9983 11.8736 21.9999 11.3158V4.1053C21.9983 3.54746 21.7758 3.01292 21.3815 2.61842C20.987 2.22413 20.4525 2.00164 19.8946 2ZM8.15782 2H4.1053C3.54746 2.00165 3.01292 2.22413 2.61842 2.61842C2.22413 3.0129 2.00164 3.54746 2 4.1053V7.10529C2.00165 7.66313 2.22413 8.19767 2.61842 8.59217C3.0129 8.98665 3.54746 9.20894 4.1053 9.21059H8.15782C8.71567 9.20894 9.2502 8.98664 9.6447 8.59217C10.0392 8.19769 10.2615 7.66313 10.2631 7.10529V4.1053C10.2615 3.54746 10.0392 3.01292 9.6447 2.61842C9.25023 2.22413 8.71567 2.00164 8.15782 2ZM8.15782 10.5789L4.1053 10.5791C3.54746 10.5807 3.01292 10.803 2.61842 11.1975C2.22413 11.592 2.00164 12.1264 2 12.6842V19.8947C2.00165 20.4525 2.22413 20.9871 2.61842 21.3816C3.0129 21.7759 3.54746 21.9984 4.1053 22H8.15782C8.71567 21.9983 9.2502 21.7759 9.6447 21.3816C10.0392 20.9871 10.2615 20.4525 10.2631 19.8947V12.6842C10.2615 12.1264 10.0392 11.592 9.6447 11.1975C9.25023 10.803 8.71567 10.5807 8.15782 10.5791V10.5789Z" fill="white"/>
</svg>
