<svg width="24" height="24" viewBox="0 0 24 24" fill="none" xmlns="http://www.w3.org/2000/svg">
<rect width="24" height="24" rx="12" fill="#E3E4EE"/>
<path d="M18.7095 9.93582V9.41969C18.7095 9.14308 18.5619 8.88755 18.3224 8.74919C18.0829 8.61095 17.7877 8.61095 17.5482 8.74919C17.3087 8.88756 17.1611 9.14307 17.1611 9.41969V9.93582C17.1611 10.2124 17.3087 10.468 17.5482 10.6063C17.7877 10.7446 18.0829 10.7446 18.3224 10.6063C18.5619 10.468 18.7095 10.2124 18.7095 9.93582ZM18.1934 9.93582C18.1934 10.0783 18.0778 10.1939 17.9353 10.1939C17.7928 10.1939 17.6773 10.0783 17.6773 9.93582V9.41969C17.6773 9.27718 17.7928 9.16163 17.9353 9.16163C18.0778 9.16163 18.1934 9.27718 18.1934 9.41969V9.93582Z" fill="black"/>
<path d="M19.7419 14.5806C19.8104 14.5806 19.876 14.5535 19.9244 14.5051C19.9728 14.4567 20 14.391 20 14.3226V12C20 11.6578 19.8641 11.3296 19.6221 11.0875C19.3801 10.8456 19.0519 10.7097 18.7097 10.7097H14.5806C14.4381 10.7097 14.3226 10.8252 14.3226 10.9677V12C14.3226 12.0684 14.3498 12.1341 14.3982 12.1825C14.4465 12.2309 14.5122 12.2581 14.5806 12.2581H16.3871V18.4516H15.6129V14.0645C15.6129 13.9961 15.5857 13.9304 15.5373 13.882C15.4889 13.8336 15.4233 13.8065 15.3548 13.8065H13.8065V4.25806C13.8065 4.18963 13.7793 4.12396 13.7309 4.07558C13.6825 4.02719 13.6168 4 13.5484 4H4.77419C4.63168 4 4.51613 4.11555 4.51613 4.25806V18.4516H4.25806C4.11555 18.4516 4 18.5672 4 18.7097V19.7419C4 19.8104 4.02719 19.876 4.07558 19.9244C4.12396 19.9728 4.18963 20 4.25806 20H19.7419C19.8104 20 19.876 19.9728 19.9244 19.9244C19.9728 19.876 20 19.8104 20 19.7419V18.7097C20 18.6412 19.9728 18.5756 19.9244 18.5272C19.876 18.4788 19.8104 18.4516 19.7419 18.4516H18.9677V14.5806H19.7419ZM14.8387 11.7419V11.2258H18.7097C18.915 11.2258 19.112 11.3074 19.2571 11.4525C19.4023 11.5977 19.4839 11.7947 19.4839 12V14.0645H18.9677V12.7742H18.4516V13.5484H16.9032V12C16.9032 11.9316 16.876 11.8659 16.8276 11.8175C16.7792 11.7691 16.7136 11.7419 16.6451 11.7419L14.8387 11.7419ZM14.5806 18.4516V17.6774C14.5806 17.609 14.5535 17.5433 14.5051 17.4949C14.4567 17.4465 14.391 17.4194 14.3226 17.4194H14.0645C14.0645 16.8661 13.7693 16.3549 13.2903 16.0785C12.8113 15.8018 12.221 15.8018 11.7419 16.0785C11.2629 16.3549 10.9677 16.8661 10.9677 17.4194H10.7097C10.5672 17.4194 10.4516 17.5349 10.4516 17.6774V18.4516H9.93548V15.3548H15.0968V18.4516H14.5806ZM11.4839 17.4194C11.4839 17.0506 11.6806 16.7098 12 16.5254C12.3194 16.341 12.7129 16.341 13.0323 16.5254C13.3516 16.7098 13.5484 17.0506 13.5484 17.4194H11.4839ZM14.0645 17.9355V18.4516H10.9677V17.9355H14.0645ZM12.2581 13.8065H9.67742C9.53491 13.8065 9.41935 13.922 9.41935 14.0645V18.4516H6.06452V5.54839H12.2581V13.8065ZM15.0968 14.8387H9.93548V14.3226H15.0968V14.8387ZM5.03226 4.51613H13.2903V13.8065H12.7742V5.29032C12.7742 5.22189 12.747 5.15622 12.6986 5.10783C12.6502 5.05945 12.5846 5.03226 12.5161 5.03226H5.80645C5.66394 5.03226 5.54839 5.14781 5.54839 5.29032V18.4516H5.03226V4.51613ZM19.4839 19.4839H4.51613V18.9677H19.4839V19.4839ZM17.9355 18.4516V14.5806H17.4194V18.4516H16.9032V14.0645H18.4516V18.4516H17.9355Z" fill="black"/>
<path d="M6.83863 12.774H7.87089C7.93932 12.774 8.00499 12.7468 8.05338 12.6984C8.10176 12.65 8.12895 12.5844 8.12895 12.5159V10.4514C8.12895 10.383 8.10176 10.3173 8.05338 10.2689C8.00499 10.2205 7.93932 10.1934 7.87089 10.1934H6.83863C6.69612 10.1934 6.58057 10.3089 6.58057 10.4514V12.5159C6.58057 12.5844 6.60776 12.65 6.65614 12.6984C6.70453 12.7468 6.7702 12.774 6.83863 12.774ZM7.0967 10.7095H7.61282V12.2579H7.0967V10.7095Z" fill="black"/>
</svg>
