<svg width="24" height="24" viewBox="0 0 24 24" fill="none" xmlns="http://www.w3.org/2000/svg">
<path d="M19.6 17.2L14.2857 12.4M9.71429 12.4L4.40003 17.2M4 8.4L10.5319 12.9724C11.0609 13.3426 11.3253 13.5277 11.613 13.5994C11.8671 13.6628 12.1329 13.6628 12.387 13.5994C12.6747 13.5277 12.9391 13.3426 13.4681 12.9724L20 8.4M7.84 18.8H16.16C17.5041 18.8 18.1762 18.8 18.6896 18.5384C19.1412 18.3083 19.5083 17.9412 19.7384 17.4896C20 16.9762 20 16.3041 20 14.96V9.84C20 8.49587 20 7.82381 19.7384 7.31042C19.5083 6.85883 19.1412 6.49168 18.6896 6.26158C18.1762 6 17.5041 6 16.16 6H7.84C6.49587 6 5.82381 6 5.31042 6.26158C4.85883 6.49168 4.49168 6.85883 4.26158 7.31042C4 7.82381 4 8.49587 4 9.84V14.96C4 16.3041 4 16.9762 4.26158 17.4896C4.49168 17.9412 4.85883 18.3083 5.31042 18.5384C5.82381 18.8 6.49587 18.8 7.84 18.8Z" stroke="white" stroke-width="2" stroke-linecap="round" stroke-linejoin="round"/>
</svg>
