<svg width="24" height="24" viewBox="0 0 24 24" fill="none" xmlns="http://www.w3.org/2000/svg">
<path d="M10.7636 5.09538C10.8404 5.29294 10.9508 5.47523 11.0897 5.63364C11.3043 5.9024 11.6228 6.06316 11.9627 6.07429C12.3027 6.08526 12.6307 5.94569 12.8617 5.69132C12.8777 5.67471 12.8928 5.65735 12.9071 5.63911C13.0477 5.47908 13.1592 5.29501 13.2367 5.09538C13.3564 5.05548 13.4607 4.97806 13.5347 4.87423C13.6087 4.77041 13.6488 4.64538 13.6489 4.51708V4.16986C13.6493 4.02569 13.5697 3.89384 13.4431 3.82917V3.2608C13.4447 2.89207 13.2744 2.54441 12.9843 2.32354C12.7025 2.10803 12.3577 1.99516 12.0054 2.00287C11.9872 2.00065 11.969 1.99976 11.9508 2.00006C11.6139 2.00792 11.2876 2.12094 11.0159 2.32369C10.7263 2.54469 10.5568 2.89237 10.5587 3.26079V3.82916C10.4317 3.89339 10.3513 4.02539 10.3514 4.16986V4.51708C10.3516 4.64537 10.3915 4.77041 10.4656 4.87423C10.5396 4.97806 10.6439 5.05548 10.7636 5.09538Z" fill="white"/>
<path d="M15.1335 9.72864L14.7576 7.34959C14.7282 7.16345 14.6128 7.00282 14.4477 6.91783L13.1887 6.2679L12.3856 8.43739L12.1804 7.1215L12.3158 6.82501H12.3159C12.3184 6.81937 12.3178 6.813 12.3146 6.8078C12.3113 6.80276 12.3056 6.79965 12.2996 6.7998H11.7007C11.6948 6.79965 11.6891 6.80276 11.6857 6.8078C11.6825 6.813 11.682 6.81937 11.6844 6.82501L11.8199 7.1215L11.6148 8.43739L10.8117 6.26775L9.55271 6.91768V6.91783C9.38754 7.00282 9.27219 7.16345 9.24277 7.34959L8.86685 9.72864L15.1335 9.72864Z" fill="white"/>
<path d="M5.09018 14.0132C5.27952 14.0139 5.46129 13.9372 5.59454 13.8003L7.05291 12.2769L7.26323 12.0641H11.289V13.2624C11.2887 13.4546 11.3636 13.639 11.497 13.7751C11.6303 13.9112 11.8113 13.9875 12.0001 13.9875C12.1888 13.9875 12.3699 13.9112 12.5033 13.7751C12.6365 13.639 12.7114 13.4546 12.7111 13.2624V12.0641H16.7369L16.9472 12.2769L18.4056 13.8003C18.539 13.9366 18.72 14.0135 18.9091 14.0136C19.0981 14.0139 19.2795 13.9377 19.4132 13.8017C19.547 13.6655 19.6222 13.481 19.6222 13.2885C19.6222 13.096 19.547 12.9114 19.4132 12.7754L17.3303 10.6122H6.66982L4.58691 12.7754C4.45349 12.9114 4.37863 13.0958 4.37863 13.288C4.37878 13.4801 4.45364 13.6645 4.58705 13.8005C4.72047 13.9365 4.90136 14.013 5.09012 14.0132L5.09018 14.0132Z" fill="white"/>
<path d="M7.47051 19.5826C7.22334 19.461 6.65227 19.1845 6.26949 19.0463V19.0464C6.21327 19.0263 6.16069 18.9971 6.1135 18.9598L5.67203 18.6175V18.4297C5.88351 18.2528 6.04549 18.0223 6.14191 17.7614C6.25202 17.7276 6.34844 17.6584 6.41689 17.5646C6.48549 17.4705 6.52263 17.3566 6.52263 17.2396V16.9117C6.52292 16.7807 6.44646 16.6623 6.32834 16.6106V16.0557C6.33067 15.7174 6.17512 15.3981 5.90902 15.1956C5.64612 14.9963 5.32542 14.8917 4.99756 14.8987C4.98212 14.897 4.96654 14.8963 4.95096 14.8966C4.63927 14.903 4.33719 15.0075 4.08611 15.1956C3.82015 15.3981 3.66444 15.7174 3.66694 16.0557V16.6106C3.54881 16.6623 3.47235 16.7807 3.4725 16.9117V17.2396C3.47264 17.3566 3.50964 17.4705 3.57824 17.5646C3.64684 17.6584 3.74326 17.7276 3.85322 17.7614C3.94964 18.0223 4.11175 18.2528 4.3231 18.4297V18.6175L3.88163 18.9598C3.83459 18.9971 3.78186 19.0263 3.72564 19.0464C3.34286 19.1847 2.77164 19.461 2.52462 19.5828V19.5826C2.4483 19.6207 2.39412 19.6934 2.37883 19.7786L2 21.7813C2.0083 21.8374 2.03131 21.8902 2.06685 21.9339C2.1155 21.9776 2.17828 22.0011 2.24309 21.9999H7.7521C7.81692 22.0011 7.87984 21.9776 7.92834 21.9339C7.96417 21.8902 7.98791 21.8375 7.99723 21.7813L7.61636 19.7786H7.6165C7.60106 19.6934 7.54703 19.6207 7.47056 19.5826H7.47051Z" fill="white"/>
<path d="M14.4721 19.5826C14.2251 19.461 13.6538 19.1845 13.2711 19.0463V19.0464C13.2148 19.0263 13.1623 18.9971 13.1151 18.9598L12.6736 18.6175V18.4297C12.8851 18.2528 13.0471 18.0223 13.1435 17.7614C13.2536 17.7276 13.3499 17.6584 13.4185 17.5646C13.4871 17.4705 13.5241 17.3566 13.5242 17.2396V16.9117C13.5244 16.7807 13.4479 16.6623 13.3298 16.6106V16.0557C13.3323 15.7174 13.1767 15.3981 12.9106 15.1956C12.6476 14.9963 12.327 14.8917 11.9992 14.8987C11.9837 14.897 11.9681 14.8963 11.9525 14.8966C11.6409 14.903 11.3388 15.0075 11.0877 15.1956C10.8216 15.3981 10.666 15.7174 10.6685 16.0557V16.6106C10.5504 16.6623 10.4739 16.7807 10.4741 16.9117V17.2396C10.4742 17.3566 10.5112 17.4705 10.5798 17.5646C10.6484 17.6584 10.7448 17.7276 10.8548 17.7614C10.9512 18.0223 11.1133 18.2528 11.3247 18.4297V18.6175L10.8832 18.9598C10.8362 18.9971 10.7835 19.0263 10.7272 19.0464C10.3445 19.1847 9.77323 19.461 9.52621 19.5828V19.5826C9.44989 19.6207 9.39571 19.6934 9.38041 19.7786L9.00159 21.7813C9.00989 21.8375 9.0329 21.8902 9.06844 21.9339C9.11709 21.9777 9.17986 22.0011 9.24468 21.9999H14.7537C14.8185 22.0011 14.8814 21.9777 14.9299 21.9339C14.9658 21.8902 14.9895 21.8375 14.9988 21.7813L14.6179 19.7786C14.6026 19.6934 14.5486 19.6207 14.4721 19.5826H14.4721Z" fill="white"/>
<path d="M21.619 19.7786C21.6038 19.6934 21.5497 19.6207 21.4733 19.5826C21.2262 19.461 20.655 19.1845 20.2722 19.0463V19.0464C20.216 19.0263 20.1633 18.9971 20.1162 18.9598L19.6748 18.6175V18.4297C19.8861 18.2528 20.0482 18.0223 20.1447 17.7614C20.2546 17.7276 20.351 17.6584 20.4196 17.5646C20.4882 17.4705 20.5252 17.3566 20.5254 17.2396V16.9117C20.5255 16.7807 20.4491 16.6623 20.3309 16.6106V16.0557C20.3334 15.7174 20.1779 15.3981 19.9118 15.1956C19.6487 14.9963 19.328 14.8917 19.0003 14.8987C18.9849 14.897 18.9693 14.8963 18.9537 14.8966C18.642 14.903 18.3399 15.0075 18.0889 15.1956C17.8228 15.3981 17.6672 15.7174 17.6697 16.0557V16.6106C17.5516 16.6623 17.4751 16.7807 17.4752 16.9117V17.2396C17.4752 17.3566 17.5124 17.4705 17.581 17.5646C17.6496 17.6585 17.746 17.7276 17.856 17.7614C17.9524 18.0223 18.1143 18.2528 18.3258 18.4297V18.6175L17.8844 18.9598C17.8372 18.9971 17.7846 19.0263 17.7284 19.0464C17.3456 19.1847 16.7744 19.461 16.5274 19.5828V19.5826C16.451 19.6207 16.3969 19.6934 16.3816 19.7786L16.0027 21.7813C16.0109 21.8375 16.0341 21.8902 16.0696 21.9339C16.1181 21.9777 16.181 22.0011 16.2458 22H21.7548C21.8197 22.0011 21.8824 21.9777 21.9311 21.9339C21.9669 21.8902 21.9907 21.8375 22 21.7813L21.619 19.7786Z" fill="white"/>
</svg>
