<svg width="24" height="24" viewBox="0 0 24 24" fill="none" xmlns="http://www.w3.org/2000/svg">
<path d="M14.1083 2.95653C14.7641 2.95653 15.2794 2.71181 15.2794 2.48927C15.2794 2.26689 14.7641 2 14.1083 2C13.4526 2 12.9373 2.24472 12.9373 2.46726C12.9373 2.68964 13.4291 2.95653 14.1083 2.95653Z" fill="white"/>
<path d="M12.9139 8.65179C13.1949 8.78525 13.5228 8.91871 14.1785 8.91871C14.764 8.91871 15.2324 8.80744 15.4431 8.71852C15.6071 8.6296 15.7008 8.4738 15.6774 8.29579L15.4198 5.13675C15.045 5.27021 14.6 5.35928 14.0614 5.35928C13.593 5.35928 13.1949 5.29255 12.867 5.18129L12.6562 8.22906C12.6562 8.40705 12.75 8.5627 12.9139 8.65179Z" fill="white"/>
<path d="M17.9024 5.13679C18.3475 5.13679 18.652 4.9588 18.652 4.82535C18.652 4.71408 18.3475 4.5139 17.9024 4.5139C17.4574 4.5139 17.1529 4.69189 17.1529 4.82535C17.1295 4.9588 17.4341 5.13679 17.9024 5.13679Z" fill="white"/>
<path d="M17.1998 9.43042C17.4341 9.51934 17.7151 9.56388 18.043 9.56388C18.3006 9.56388 18.5113 9.54169 18.6754 9.47496C18.8394 9.40823 18.9564 9.25243 18.9564 9.0746L18.769 6.93883C18.5113 7.02775 18.2068 7.07228 17.8556 7.07228C17.5511 7.07228 17.2934 7.02775 17.0827 6.96102L16.9422 9.02989C16.9422 9.20804 17.036 9.3637 17.1998 9.43042Z" fill="white"/>
<path d="M16.5207 11.7886V18.6406L21.9542 15.9487V9.49709L16.5207 11.7886ZM18.1601 13.4349L17.2935 13.8131V12.7229L18.1601 12.3448V13.4349ZM19.6823 12.7674L18.8158 13.1456V12.0555L19.6823 11.6773V12.7674ZM21.1812 12.1224L20.3147 12.5005V11.4327L21.1812 11.0546V12.1224Z" fill="white"/>
<path d="M14.3191 17.8175L13.4526 18.1956V17.1278L12.4455 17.6617V18.7518L11.5789 19.2412V18.1289L10.4079 18.774V19.7974L9.54139 20.2868V19.219L9.30712 19.3525C9.23687 19.3747 9.18999 19.397 9.11974 19.397C9.07285 19.397 9.0026 19.3748 8.95571 19.3525L8.55759 19.1745V21.9331L15.1622 18.5294V16.1934L14.3424 16.6383V17.8174L14.3191 17.8175Z" fill="white"/>
<path d="M9.30715 11.1434C9.35403 11.1434 9.40076 11.1434 9.44764 11.1656L14.7407 12.7229H14.764C14.7874 12.7229 14.7874 12.745 14.8109 12.745H14.8343C14.8576 12.7672 14.8812 12.7672 14.8812 12.7896L14.9281 12.8341V12.8563C14.9281 12.8785 14.9514 12.8785 14.9514 12.9008L16.0522 15.259C16.1224 15.437 16.0522 15.6371 15.8882 15.7262L15.49 15.9488V18.3736L16.0755 18.5738L16.0757 11.7218L9.26035 9.49712V11.1434L9.30715 11.1434Z" fill="white"/>
<path d="M7.97218 18.7518L7.62094 16.683L3.82686 15.237L2.74943 16.4161C2.67918 16.505 2.56205 16.5495 2.44492 16.5495V19.7086L3.56906 20.1535V18.0401L6.96499 19.2859V21.5327L8.13601 22L8.13618 19.0188C8.04257 18.9521 7.97215 18.8632 7.97215 18.7519L7.97218 18.7518Z" fill="white"/>
<path d="M14.6236 13.0789L9.33057 11.5217L3.56912 14.1023L8.60453 15.9932L14.6236 13.0789Z" fill="white"/>
<path d="M15.7243 15.4371L14.7876 13.4126L8.79195 16.327C8.74507 16.3492 8.67482 16.3716 8.60457 16.3716C8.55768 16.3716 8.51096 16.3716 8.46407 16.3494L3.42866 14.4583C3.38178 14.4361 3.35841 14.4361 3.33505 14.4138L2 16.0155L2.44503 16.2157L3.68632 14.8365L7.92543 16.4604L8.32356 18.7296L9.0731 19.0633L15.7243 15.4371Z" fill="white"/>
<path d="M17.1998 5.38151L17.153 6.07112C17.317 6.16004 17.5744 6.20458 17.8789 6.20458C18.2537 6.20458 18.5113 6.11566 18.7221 6.02659L18.6752 5.33698C18.4645 5.44824 18.2068 5.49278 17.9257 5.49278C17.6215 5.51497 17.3872 5.47043 17.1998 5.38151Z" fill="white"/>
<path d="M19.3077 8.71854L19.331 9.05217C19.3544 9.40816 19.1437 9.71962 18.7924 9.83089C18.5817 9.89762 18.324 9.94216 18.0429 9.94216C17.6681 9.94216 17.3402 9.87543 17.0592 9.76416C16.7547 9.63071 16.544 9.34143 16.5673 9.00781L16.6375 7.91768L16.052 7.73969L16.0989 8.25132C16.1223 8.58496 15.9349 8.8964 15.6306 9.03004C15.326 9.1635 14.764 9.27476 14.2019 9.27476C13.4524 9.27476 13.0778 9.11896 12.7499 8.96331C12.5391 8.87439 12.3986 8.6964 12.3284 8.49605L9.93945 9.29694L16.4269 11.4327L21.3921 9.34147L19.3077 8.71854Z" fill="white"/>
<path d="M14.1083 3.31252C13.6868 3.31252 13.3121 3.2236 13.0309 3.08999L12.9373 4.26907C13.2183 4.38033 13.5931 4.46925 14.0614 4.46925C14.6236 4.46925 15.0451 4.33579 15.3496 4.20234L15.2558 3.04562C14.9748 3.22362 14.5767 3.31252 14.1083 3.31252Z" fill="white"/>
</svg>
