<svg width="24" height="24" viewBox="0 0 24 24" fill="none" xmlns="http://www.w3.org/2000/svg">
<path d="M9.10139 9.73954C9.62511 10.8303 10.339 11.8527 11.2432 12.7568C12.1473 13.661 13.1697 14.3749 14.2605 14.8986C14.3543 14.9437 14.4012 14.9662 14.4606 14.9835C14.6715 15.045 14.9306 15.0008 15.1092 14.8729C15.1595 14.8369 15.2025 14.7939 15.2885 14.7079C15.5516 14.4448 15.6831 14.3133 15.8154 14.2273C16.3142 13.903 16.9572 13.903 17.456 14.2273C17.5883 14.3133 17.7198 14.4448 17.9829 14.7079L18.1295 14.8545C18.5294 15.2544 18.7294 15.4543 18.838 15.6691C19.054 16.0961 19.054 16.6005 18.838 17.0276C18.7294 17.2423 18.5294 17.4423 18.1295 17.8421L18.0109 17.9608C17.6124 18.3593 17.4131 18.5585 17.1422 18.7107C16.8416 18.8796 16.3747 19.001 16.0299 19C15.7192 18.9991 15.5068 18.9388 15.0821 18.8182C12.7996 18.1704 10.6457 16.948 8.84885 15.1511C7.05197 13.3543 5.82961 11.2004 5.18176 8.91791C5.06121 8.49318 5.00093 8.28082 5.00001 7.97009C4.99898 7.62529 5.1204 7.15839 5.28927 6.85778C5.44145 6.58686 5.64072 6.3876 6.03924 5.98908L6.15785 5.87046C6.55775 5.47057 6.75769 5.27062 6.97243 5.16201C7.39951 4.946 7.90386 4.946 8.33093 5.16201C8.54567 5.27062 8.74562 5.47057 9.14551 5.87046L9.29214 6.0171C9.55521 6.28016 9.68674 6.4117 9.77274 6.54396C10.097 7.04277 10.097 7.68581 9.77274 8.18461C9.68674 8.31688 9.55521 8.44842 9.29214 8.71148C9.20613 8.7975 9.16312 8.84051 9.12712 8.89078C8.99919 9.06944 8.95502 9.32848 9.01651 9.53944C9.03382 9.5988 9.05634 9.64571 9.10139 9.73954Z" stroke="white" stroke-width="2" stroke-linecap="round" stroke-linejoin="round"/>
</svg>
