<svg width="24" height="24" viewBox="0 0 24 24" fill="none" xmlns="http://www.w3.org/2000/svg">
<path d="M2.71414 21.9997H13.4284C13.6179 21.9997 13.7995 21.9245 13.9334 21.7906C14.0675 21.6567 14.1427 21.4749 14.1427 21.2856V19.7612C13.791 19.8807 13.4107 19.8877 13.0548 19.7813L5.78024 17.4541C5.71238 17.4347 5.64183 17.426 5.57128 17.4284V18.7855C5.57128 18.9828 5.41134 19.1427 5.21419 19.1427C5.01689 19.1427 4.85695 18.9828 4.85695 18.7855V17.1323L4.85336 12.661C4.85336 12.6528 4.8562 12.6453 4.85695 12.6371V10.9285C4.85695 10.7312 5.01689 10.5714 5.21419 10.5714C5.41134 10.5714 5.57128 10.7312 5.57128 10.9285V12.1161L7.00488 11.4971C7.57603 11.2898 8.19034 11.2307 8.79049 11.3256L9.49988 11.4467V6.99992C9.49988 6.71577 9.61274 6.44328 9.81363 6.24239C10.0145 6.0415 10.2872 5.92849 10.5713 5.92849H14.1427V4.85707H2V21.2858C2 21.4752 2.07518 21.657 2.20911 21.7909C2.34304 21.9248 2.5248 22 2.71417 22L2.71414 21.9997ZM5.21408 20.5712H10.9286C11.1259 20.5712 11.2857 20.7312 11.2857 20.9283C11.2857 21.1256 11.1259 21.2855 10.9286 21.2855H5.21446C5.01716 21.2855 4.85722 21.1256 4.85722 20.9283C4.85722 20.7312 5.01716 20.5712 5.21446 20.5712H5.21408Z" fill="white"/>
<path d="M13.9086 15.5272L15.0942 14.8572H12.4835L13.5714 15.5325C13.6776 15.5873 13.8041 15.5853 13.9086 15.5272Z" fill="white"/>
<path d="M21.3845 12.1223L14.2576 16.1501C13.9314 16.3323 13.5337 16.3314 13.2084 16.1477L11.1299 14.8571H9.80345C9.60615 14.8571 9.44621 14.6971 9.44621 14.4998C9.44621 14.3027 9.60615 14.1427 9.80345 14.1427H16.1746C16.286 14.1421 16.3925 14.0977 16.4714 14.0191C16.5477 13.9417 16.59 13.8371 16.5889 13.7284C16.5865 13.5254 16.4389 13.3534 16.2386 13.3202L15.6447 13.2194C15.6354 13.2194 15.6257 13.2173 15.6182 13.2158L8.67541 12.0301V12.0302C8.20234 11.9551 7.71802 12 7.26691 12.161L5.57115 12.8927V16.7105H5.58087C5.72137 16.7105 5.86113 16.7316 5.99551 16.7734L13.2659 19.0991H13.2657C13.5967 19.1958 13.9539 19.1284 14.2268 18.9176L21.8405 12.8136C21.9408 12.7342 21.9993 12.6133 21.9996 12.4853C21.9994 12.414 21.9813 12.3438 21.9472 12.2812C21.8351 12.0825 21.5838 12.0115 21.3844 12.1223L21.3845 12.1223Z" fill="white"/>
<path d="M10.5715 6.64278C10.3742 6.64278 10.2143 6.80272 10.2143 6.99987V11.5683L15.7199 12.5087L15.7456 12.512L16.3563 12.6155V12.6154C16.601 12.6546 16.8261 12.7734 16.9964 12.9537C17.1666 13.1338 17.2726 13.3652 17.2977 13.6118L18.7859 12.7708V6.99967C18.7859 6.90505 18.7484 6.81417 18.6814 6.74721C18.6143 6.68025 18.5236 6.64258 18.4288 6.64258H16.2859V9.49976C16.2859 9.68914 16.2108 9.8709 16.0767 10.0048C15.9427 10.1387 15.7611 10.2139 15.5716 10.2139H13.4288C13.2394 10.2139 13.0576 10.1387 12.9237 10.0048C12.7898 9.87089 12.7146 9.68913 12.7146 9.49976V6.64258L10.5715 6.64278Z" fill="white"/>
<path d="M13.4284 6.64278H15.5715V9.49996H13.4284V6.64278Z" fill="white"/>
<path d="M14.1428 2.71417C14.1428 2.52479 14.0676 2.34303 13.9335 2.20911C13.7996 2.07518 13.618 2 13.4285 2H2.71422C2.52484 2 2.34308 2.07518 2.20916 2.20911C2.07524 2.34304 2.00005 2.5248 2.00005 2.71417V4.14284H14.1427L14.1428 2.71417ZM8.07125 3.42851H6.28565C6.08835 3.42851 5.92841 3.26857 5.92841 3.07142C5.92841 2.87411 6.08835 2.71418 6.28565 2.71418H8.07141H8.07126C8.26856 2.71418 8.4285 2.87411 8.4285 3.07142C8.4285 3.26857 8.26856 3.42851 8.07125 3.42851ZM9.85701 3.42851H9.49992C9.30262 3.42851 9.14268 3.26857 9.14268 3.07142C9.14268 2.87411 9.30262 2.71418 9.49992 2.71418H9.85701C10.0543 2.71418 10.2141 2.87411 10.2141 3.07142C10.2141 3.26857 10.0543 3.42851 9.85701 3.42851Z" fill="white"/>
</svg>
