<svg width="24" height="24" viewBox="0 0 24 24" fill="none" xmlns="http://www.w3.org/2000/svg">
<path d="M12.9692 4.18521C12.4937 4.82468 12.0056 5.47791 11.5648 6.08621C13.3942 6.62136 13.9011 6.72568 16.433 7.02103C17.513 5.704 18.127 4.8282 19.0433 3.52493C19.1945 3.30943 19.3582 3.07665 19.5314 2.83681C19.3708 2.79857 19.2134 2.76737 19.0653 2.73601C18.9362 2.70818 18.8134 2.68386 18.697 2.65954C17.6611 2.42675 16.5999 2.26692 15.5734 2.11398C15.2397 2.06183 14.9027 2.02359 14.5752 2.00279C14.0841 2.6874 13.5173 3.44847 12.9693 4.18521L12.9692 4.18521ZM16.5526 2.57619C16.5714 2.65267 15.9259 2.87857 15.2679 3.41726C14.6035 3.94553 14.213 4.55719 14.1533 4.51193C14.0998 4.48409 14.4209 3.7683 15.1263 3.2053C15.8315 2.63525 16.5464 2.51013 16.5526 2.57623L16.5526 2.57619Z" fill="white"/>
<path d="M10.554 18.2112C8.68052 17.8045 6.41951 17.3179 4.65006 16.7967C3.97932 17.6482 3.49135 18.2216 2.75771 19.0591L2.64753 19.1842C2.39254 19.4692 1.96737 19.9418 2.00199 20.2406C2.01141 20.3344 2.08694 20.4283 2.21929 20.5187C3.07254 21.0921 4.08337 21.3388 5.05957 21.5786C5.34616 21.6481 5.6326 21.7212 5.91601 21.7975C7.36449 22.1972 8.36577 22.006 8.97346 21.2172C9.42054 20.6403 9.81105 20.0879 10.192 19.5527C10.4754 19.153 10.7651 18.7465 11.0831 18.3225C10.9099 18.2876 10.7335 18.2494 10.554 18.2112ZM8.93566 20.0912C8.83491 20.2649 8.69632 20.463 8.50105 20.6438C8.31217 20.8279 8.05079 20.9809 7.75798 21.0503C7.16291 21.1754 6.64959 20.9774 6.3127 20.8348C5.96943 20.6819 5.77734 20.5534 5.78692 20.5185C5.79953 20.4838 6.01987 20.5532 6.36633 20.6575C6.7096 20.7548 7.20073 20.9043 7.71085 20.7931C8.22417 20.6819 8.57672 20.2787 8.80039 19.9798C9.02711 19.6775 9.1499 19.4655 9.18137 19.4864C9.20645 19.5039 9.13716 19.7437 8.93566 20.0912Z" fill="white"/>
<path d="M10.6739 17.5337C11.0422 17.6137 11.3949 17.69 11.7318 17.7632C11.7444 17.7667 11.7539 17.7667 11.7665 17.77C11.9459 17.8083 12.1192 17.8465 12.286 17.8847C12.2892 17.8812 12.2923 17.8743 12.2923 17.8708C12.3427 17.7771 12.3427 17.6137 12.3427 17.4712L12.349 15.6466C12.349 15.4207 12.3489 15.3513 16.8613 9.33918C18.6308 6.98302 20.454 4.5537 21.1216 3.574C21.1122 3.5636 21.1027 3.54968 21.0901 3.53928C20.8602 3.30298 20.5391 3.14314 20.1896 3.02154C19.9534 3.35511 19.7361 3.66436 19.5347 3.94947C18.5775 5.30828 17.9477 6.20484 16.7857 7.6123C16.7258 7.68525 16.6409 7.72349 16.5558 7.72349C16.5464 7.72349 16.5338 7.72349 16.5243 7.71997C13.6149 7.38287 13.2118 7.28562 10.9414 6.61494C10.8406 6.58374 10.7587 6.50022 10.7241 6.38903C10.6894 6.27784 10.7083 6.15961 10.7745 6.06585C11.2879 5.34656 11.8955 4.52978 12.4812 3.74102C12.9158 3.15721 13.3597 2.55948 13.769 2C12.9755 2.06255 12.2576 2.3267 11.7223 2.9974L6.15531 9.96141C4.47386 12.0638 3.80631 13.2246 4.16525 15.9318C5.97265 16.5191 8.5703 17.0786 10.6737 17.5338L10.6739 17.5337ZM9.86453 13.6415C9.80785 13.93 9.32613 14.062 8.79077 13.9368C8.25541 13.8082 7.86504 13.4711 7.92171 13.1826C7.97837 12.8942 8.46011 12.7622 8.99547 12.8873C9.53083 13.0126 9.9212 13.3497 9.86453 13.6415ZM12.5095 14.267C12.4529 14.5555 11.9711 14.6875 11.4358 14.5624C10.9004 14.4337 10.51 14.0966 10.5667 13.8082C10.6234 13.5197 11.1051 13.3877 11.6405 13.5128C12.1758 13.6381 12.5662 13.9786 12.5095 14.267ZM13.5865 9.34271C13.6432 9.05425 14.1249 8.92224 14.6603 9.04737C15.1956 9.176 15.586 9.5131 15.5293 9.80156C15.4726 10.09 14.9909 10.222 14.4555 10.0969C13.917 9.97179 13.5298 9.63118 13.5865 9.34271ZM14.0336 12.036C13.9769 12.3245 13.4952 12.4565 12.9598 12.3313C12.4244 12.2027 12.0341 11.8656 12.0907 11.5771C12.1474 11.2887 12.6291 11.1567 13.1645 11.2818C13.7029 11.4071 14.0902 11.7475 14.0336 12.036ZM10.9415 8.71381C10.9982 8.42535 11.4799 8.29334 12.0153 8.41847C12.5506 8.5471 12.941 8.8842 12.8843 9.17266C12.8276 9.46112 12.3459 9.59313 11.8105 9.468C11.2752 9.34273 10.8848 9.00563 10.9415 8.71381ZM11.3918 11.4071C11.3351 11.6956 10.8533 11.8276 10.318 11.7024C9.78263 11.5738 9.39226 11.2367 9.44893 10.9482C9.50561 10.6598 9.98733 10.5278 10.5227 10.6529C11.0581 10.778 11.4484 11.1186 11.3918 11.4071ZM8.29968 8.08474C8.35636 7.79628 8.83808 7.66427 9.37344 7.7894C9.9088 7.91803 10.2992 8.25513 10.2425 8.54359C10.1858 8.83206 9.7041 8.96406 9.16874 8.83893C8.63338 8.71382 8.24301 8.37673 8.29968 8.08474ZM6.80712 10.3193C6.8638 10.0309 7.34552 9.89887 7.88088 10.024C8.41624 10.1526 8.80661 10.4897 8.74994 10.7782C8.69327 11.0667 8.21154 11.1987 7.67618 11.0735C7.14082 10.9483 6.75045 10.6078 6.80712 10.3193ZM6.35366 12.2551C6.88902 12.3837 7.27939 12.7208 7.22272 13.0093C7.16604 13.2977 6.68432 13.4297 6.14896 13.3046C5.6136 13.176 5.22323 12.8389 5.2799 12.5504C5.33977 12.262 5.81845 12.1299 6.35366 12.2551Z" fill="white"/>
<path d="M21.5214 4.14037C20.7719 5.21775 19.0338 7.53214 17.346 9.78063C15.5198 12.2133 13.262 15.2227 12.9755 15.7268L12.9693 17.4749C12.9693 17.6834 12.9661 17.9683 12.8307 18.2256C12.7267 18.4168 12.5977 18.587 12.3394 18.587C12.2921 18.587 12.2418 18.5801 12.1852 18.5696C12.056 18.5417 11.9206 18.5105 11.7822 18.4792C11.3886 18.9969 11.0327 19.494 10.6896 19.977C10.7022 19.9839 10.7148 19.9839 10.7242 19.9909C11.2029 20.2933 11.8987 20.2237 12.497 19.8171C13.0827 19.4175 13.5235 18.7886 13.9517 18.1769C15.29 16.2726 16.6975 14.5384 18.0577 12.8598C19.0339 11.6573 20.0445 10.4099 21.0176 9.11699C22.0094 7.79644 22.277 5.99624 21.6977 4.52606C21.6473 4.38687 21.5874 4.26176 21.5213 4.14017L21.5214 4.14037ZM20.9325 7.43827C20.835 7.88302 20.5956 8.47035 20.2303 9.03688C19.865 9.6034 19.4714 10.055 19.1754 10.3645C18.8794 10.6737 18.6811 10.8475 18.659 10.8232C18.6338 10.7988 18.7913 10.5765 19.0526 10.2394C19.314 9.89873 19.6823 9.4365 20.035 8.88742C20.3877 8.33835 20.6365 7.79628 20.7719 7.38273C20.9073 6.96914 20.9545 6.69812 20.9922 6.705C21.0208 6.70852 21.0332 6.99347 20.9325 7.43822L20.9325 7.43827Z" fill="white"/>
</svg>
