<svg width="24" height="24" viewBox="0 0 24 24" fill="none" xmlns="http://www.w3.org/2000/svg">
<path d="M11.9778 2C6.46667 2 2 6.48889 2 12C2 17.5111 6.46667 22 11.9778 22C17.4889 22 21.9556 17.5333 21.9556 12C21.9556 6.48889 17.4889 2 11.9778 2ZM13.2 9.44444H9.48893L10.0223 8.24452H14.089C14.089 7.44452 13.0667 7.02226 12.4445 7.0446H12.3557L9.51106 7.04445H9.48889L9.51106 6.99996L10.0221 5.84436H16.911L16.3776 7.04429H14.7776C15.0443 7.39988 15.2221 7.7998 15.311 8.24421H16.911L16.3776 9.44413L15.311 9.44444C15.0444 10.8445 13.8443 11.8666 12.3999 11.889H10.9111L15.0444 17.6667L13.5332 17.6666L9.46654 11.8888L9.51102 10.8222V10.6444H12.4444C12.9778 10.6222 14.0444 10.4221 14.0889 9.44446L13.2 9.44444ZM10.6667 20.5111C5.88893 19.6444 2.68893 15.0667 3.5556 10.2667C4.06667 7.33325 5.97778 5 8.48893 3.82222C6.42234 5.08881 4.88897 7.17774 4.42226 9.73333C3.57778 14.4667 6.73329 19 11.4445 19.8444C14 20.3112 16.4889 19.5778 18.3778 18.0666C16.4222 20.0444 13.6 21.0221 10.6667 20.5111Z" fill="white"/>
</svg>
