<svg width="24" height="24" viewBox="0 0 24 24" fill="none" xmlns="http://www.w3.org/2000/svg">
<path d="M18.4444 19C18.4444 17.9146 18.4444 17.3718 18.3105 16.9302C18.0089 15.9359 17.2308 15.1578 16.2364 14.8562C15.7948 14.7222 15.2521 14.7222 14.1667 14.7222H10.2778C9.19234 14.7222 8.64962 14.7222 8.208 14.8562C7.21369 15.1578 6.43559 15.9359 6.13396 16.9302C6 17.3718 6 17.9146 6 19M15.7222 8.5C15.7222 10.433 14.1552 12 12.2222 12C10.2892 12 8.72222 10.433 8.72222 8.5C8.72222 6.567 10.2892 5 12.2222 5C14.1552 5 15.7222 6.567 15.7222 8.5Z" stroke="white" stroke-width="2" stroke-linecap="round" stroke-linejoin="round"/>
</svg>
