<svg width="24" height="24" viewBox="0 0 24 24" fill="none" xmlns="http://www.w3.org/2000/svg">
<path d="M14.2965 5.01318C14.195 4.72241 13.9625 4.50993 13.6829 4.45166C13.4007 4.39339 13.115 4.49652 12.9221 4.72582L9.31983 9.00175L4.12055 11.1618C3.2993 11.5032 2.64899 12.1725 2.28971 13.0472C1.93022 13.9219 1.90434 14.8972 2.21737 15.793C2.70021 17.1756 3.93602 18.1046 5.29229 18.1046C5.69253 18.1046 6.08637 18.0253 6.46309 17.8691L6.67771 17.7797L9.5964 21.6712C9.75594 21.8838 9.99113 22 10.2331 22C10.331 22 10.4301 21.9808 10.5256 21.9413L12.8316 20.9831C13.0787 20.8804 13.2654 20.6547 13.3337 20.3757C13.4017 20.0971 13.3427 19.7998 13.1755 19.5763L10.6044 16.1478L11.6621 15.7086L16.9591 16.2864C17.2433 16.3175 17.5209 16.1855 17.6941 15.9392C17.8676 15.692 17.9113 15.365 17.8096 15.0742L14.2965 5.01318ZM7.89118 14.3955L6.35391 15.0343C6.2577 15.0741 6.15856 15.0936 6.06143 15.0936C5.73004 15.0936 5.41775 14.8733 5.29235 14.5154C5.13078 14.0524 5.34376 13.5339 5.76824 13.3577L7.30551 12.7189C7.73036 12.5421 8.20535 12.775 8.36689 13.238C8.52901 13.7006 8.31602 14.2186 7.89118 14.3955Z" fill="white"/>
<path d="M20.6657 8.12711C20.5036 7.6637 20.0275 7.43322 19.6043 7.60803L17.2988 8.56626C16.8744 8.74308 16.6614 9.26117 16.8229 9.72395C16.948 10.082 17.2601 10.3021 17.5917 10.3021C17.6891 10.3021 17.7883 10.2833 17.8845 10.2434L20.19 9.28519C20.6142 9.10856 20.8269 8.5905 20.6657 8.12711Z" fill="white"/>
<path d="M15.7902 6.03185C15.8996 6.08532 16.014 6.11035 16.1262 6.11035C16.4403 6.11035 16.7401 5.91289 16.8771 5.58005L17.8287 3.26444C18.0145 2.81226 17.8291 2.28156 17.4145 2.07829C17.0003 1.87643 16.5138 2.07829 16.327 2.53008L15.3755 4.84568C15.19 5.29786 15.376 5.82858 15.7902 6.03185Z" fill="white"/>
<path d="M21.514 13.8161L19.3911 12.7786C18.9769 12.5764 18.4904 12.7786 18.3036 13.2304C18.1182 13.6826 18.3033 14.2133 18.7178 14.4159L20.8408 15.4535C20.9502 15.5069 21.0646 15.5324 21.1768 15.5324C21.4909 15.5324 21.7907 15.3349 21.9277 15.0017C22.1137 14.5491 21.9286 14.0188 21.514 13.8161Z" fill="white"/>
</svg>
