<svg width="24" height="24" viewBox="0 0 24 24" fill="none" xmlns="http://www.w3.org/2000/svg">
<path d="M18.998 18.0918C18.998 19.1639 18.5501 19.9043 17.844 20.0227C16.4603 20.2597 15.0785 20.5055 13.6951 20.7424C13.1864 20.8283 12.6777 20.9023 12.1766 20.9793H11.9603V21C11.685 20.9645 11.4231 20.9438 11.1612 20.8994C10.1913 20.7335 9.2215 20.5588 8.25153 20.3871C7.49238 20.2539 6.73305 20.1264 5.98529 19.9814H5.98502C5.71308 19.913 5.46537 19.6975 5.28519 19.3726C5.10499 19.0476 5.00397 18.6341 5 18.2044V14.3753V10.3033V10.0337H5.16311H8.43732C8.77704 10.0492 9.11242 9.91223 9.4037 9.63935C9.69511 9.36646 9.93011 8.96878 10.081 8.49368C10.6846 6.74646 11.2711 4.98724 11.8652 3.23405C11.8862 3.17187 11.9108 3.10969 11.9506 3V3.03264C11.9905 3.13634 12.0114 3.19253 12.0322 3.24892C12.6358 5.00502 13.2317 6.76424 13.8448 8.51431V8.51452C14.0007 8.99047 14.2402 9.38773 14.5353 9.65934C14.8304 9.93099 15.1689 10.0659 15.5113 10.0485C16.616 10.0634 17.7188 10.0485 18.8234 10.0485H18.9999L19 10.3299C18.9987 12.9162 18.9981 15.5036 18.9981 18.0916L18.998 18.0918Z" fill="white"/>
<path d="M18.7402 8.88243H15.9406H15.9404C15.7268 8.88937 15.5162 8.82911 15.335 8.70933C15.1538 8.5894 15.0103 8.41541 14.9225 8.20909C14.1813 6.66475 13.4421 5.11908 12.7047 3.57197L12.6868 3.53387L12.6869 3.53402C12.6093 3.41733 12.5993 3.26476 12.6608 3.13802C12.7449 3.02164 12.8883 2.9726 13.0208 3.01514L15.8204 3.39412L18.6882 3.7858V3.78595C19.1259 3.83513 19.5162 4.09936 19.742 4.49947C20.4639 5.75298 21.1778 7.01287 21.8939 8.2705C21.9227 8.31879 21.9476 8.3699 21.9678 8.42292C22.012 8.5142 22.0106 8.62261 21.9642 8.71256C21.9177 8.80236 21.8322 8.86218 21.7358 8.87192C21.6693 8.87842 21.6023 8.87842 21.5358 8.87192H18.7362L18.7402 8.88243Z" fill="white"/>
<path d="M5.25955 8.88242H2.39981C2.25571 8.90827 2.11078 8.84195 2.02989 8.71301C1.97339 8.57048 1.99822 8.40638 2.09392 8.28956C2.81383 7.01904 3.53182 5.74871 4.25967 4.49525C4.4816 4.10251 4.86549 3.84362 5.29555 3.79651C6.33004 3.6553 7.36464 3.51426 8.39912 3.37306C9.25896 3.25668 10.117 3.13808 10.9768 3.02582C11.0556 3.01711 11.1353 3.02567 11.2109 3.05123C11.3292 3.08992 11.3966 3.22152 11.3628 3.34766C11.3461 3.42712 11.3198 3.50392 11.2848 3.57629C10.545 5.12847 9.79897 6.69319 9.04905 8.25349C8.96591 8.4455 8.83186 8.60767 8.6632 8.72038C8.49455 8.83322 8.29857 8.89171 8.09923 8.88875C7.15137 8.88875 6.19948 8.88242 5.25955 8.88242Z" fill="white"/>
</svg>
