<svg width="24" height="24" viewBox="0 0 24 24" fill="none" xmlns="http://www.w3.org/2000/svg">
<rect width="24" height="24" rx="12" fill="#E3E4EE"/>
<path d="M16.7353 19.9996H6.51215C5.64631 19.9996 4.94201 19.2952 4.94201 18.4294L4.94189 11.6865H5.71338V18.4294C5.71338 18.8697 6.0717 19.228 6.51203 19.228H16.7355C17.1758 19.228 17.5341 18.8698 17.5341 18.4294L17.5343 11.6865H18.3057V18.4294C18.3057 19.2952 17.6013 19.9996 16.7355 19.9996H16.7353Z" fill="black"/>
<path d="M9.81427 12.2938C8.60386 12.2938 7.61914 11.3089 7.61914 10.0986H8.39063C8.39063 10.8835 9.02925 11.5222 9.81427 11.5222C10.5993 11.5222 11.2379 10.8835 11.2379 10.0986H12.0094C12.0094 11.3089 11.0247 12.2938 9.81427 12.2938Z" fill="black"/>
<path d="M13.4329 12.294C12.2225 12.294 11.2378 11.3092 11.2378 10.0989V8.49609H12.0093V10.0989C12.0093 10.8838 12.6479 11.5224 13.4329 11.5224C14.2179 11.5224 14.8566 10.8838 14.8566 10.0989H15.628C15.628 11.3092 14.6433 12.294 13.4329 12.294Z" fill="black"/>
<path d="M17.0518 12.2937C15.8414 12.2937 14.8567 11.3088 14.8567 10.0985V8.49573H15.6282V10.0985C15.6282 10.8834 16.2668 11.522 17.0518 11.522C17.8368 11.522 18.4756 10.8834 18.4756 10.0985V8.61215L17.2113 6.71119H6.0357L4.77149 8.61203V10.0984C4.77149 10.8833 5.41023 11.5219 6.19525 11.5219C6.98027 11.5219 7.61889 10.8833 7.61889 10.0984V8.49561H8.39038V10.0984C8.39038 11.3088 7.40565 12.2935 6.19525 12.2935C4.98472 12.2935 4 11.3087 4 10.0984V8.49561C4 8.4196 4.02244 8.34523 4.0645 8.28191L5.50762 6.11168C5.57905 6.00407 5.69971 5.93945 5.82883 5.93945H17.418C17.5471 5.93945 17.6678 6.00407 17.7392 6.11168L19.1826 8.28203C19.2247 8.34535 19.2471 8.41972 19.2471 8.49573V10.0985C19.2471 11.3088 18.2623 12.2937 17.0518 12.2937H17.0518Z" fill="black"/>
<path d="M17.8041 6.32553H17.0326V5.57026C17.0326 5.12993 16.6743 4.77161 16.2339 4.77161H7.0135C6.57316 4.77161 6.21485 5.1298 6.21485 5.57026V6.32553H5.44336V5.57026C5.44336 4.70442 6.14766 4 7.0135 4H16.2339C17.0998 4 17.8041 4.70442 17.8041 5.57026V6.32553Z" fill="black"/>
<path d="M11.1843 19.6142H10.4129V14.7279C10.4129 14.4741 10.2064 14.2677 9.95256 14.2677H8.14146C7.8877 14.2677 7.68116 14.4741 7.68116 14.7279V19.6142H6.90967V14.7279C6.90967 14.0486 7.46218 13.4961 8.14146 13.4961H9.95256C10.6317 13.4961 11.1843 14.0486 11.1843 14.7279V19.6142Z" fill="black"/>
<path d="M15.106 16.8153H13.1791C12.4999 16.8153 11.9473 16.2628 11.9473 15.5835V14.7279C11.9473 14.0486 12.4998 13.4961 13.1791 13.4961H15.106C15.7851 13.4961 16.3378 14.0486 16.3378 14.7279V15.5835C16.3378 16.2628 15.7851 16.8153 15.106 16.8153ZM13.1791 14.2677C12.9253 14.2677 12.7188 14.4741 12.7188 14.7279V15.5835C12.7188 15.8373 12.9252 16.0437 13.1791 16.0437H15.106C15.3597 16.0437 15.5663 15.8373 15.5663 15.5835V14.7279C15.5663 14.4741 15.3599 14.2677 15.106 14.2677H13.1791Z" fill="black"/>
<path d="M4.38574 8.11035H18.8615V8.88196H4.38574V8.11035Z" fill="black"/>
</svg>
