<svg width="635" height="516" viewBox="0 0 635 516" fill="none" xmlns="http://www.w3.org/2000/svg">
<path d="M552.4 277.04C553.895 272.561 555.385 267.332 556.135 262.852C560.614 244.931 562.853 226.264 562.853 207.597C562.853 169.519 554.64 133.676 537.468 99.332C532.989 90.3736 521.785 85.8947 512.828 91.1185C503.87 95.5977 500.135 106.801 504.614 115.758C518.802 144.133 525.521 175.493 525.521 207.597C525.521 223.28 524.026 238.957 520.292 254.638C519.547 259.118 518.052 262.852 517.307 266.586C514.323 276.295 520.292 286.748 530 289.732C531.495 290.476 533.735 290.476 535.229 290.476C542.693 289.732 549.412 284.502 552.401 277.039L552.4 277.04Z" fill="white"/>
<path d="M82.0005 277.04C84.2401 285.254 91.7088 290.477 99.9218 290.477C101.417 290.477 103.656 290.477 105.151 289.733C114.859 286.748 120.834 276.295 117.844 266.587C116.349 262.853 115.604 258.374 114.859 254.639C111.125 238.957 109.63 223.279 109.63 207.598C109.63 175.494 117.099 144.879 130.537 115.759C135.016 106.801 131.282 95.598 122.323 91.1193C113.365 86.6407 102.162 90.3745 97.6832 99.3329C81.2565 132.932 72.2979 169.521 72.2979 207.598C72.2979 226.265 74.5374 244.932 79.0166 262.853C79.7614 267.332 80.5057 271.81 82.0005 277.04Z" fill="white"/>
<path d="M317.2 515.227C346.32 515.227 369.465 492.081 369.465 462.961L264.935 462.956C264.935 492.076 288.08 515.227 317.2 515.227Z" fill="white"/>
<path d="M147.707 200.133V350.96L111.119 413.679C107.385 419.653 107.385 426.371 111.119 432.345C114.104 438.319 120.827 442.054 127.546 442.054H508.346C515.065 442.054 521.039 438.319 524.773 432.345C527.757 426.371 527.757 419.653 524.773 413.679L488.185 350.96V200.133C488.185 112.773 421.731 41.0934 337.358 31.3868V19.4389C337.358 8.98582 329.144 0.772217 318.691 0.772217C308.238 0.772217 300.025 8.98582 300.025 19.4389V31.3868C213.41 41.0898 147.704 112.767 147.704 200.133H147.707ZM349.307 115.759C355.281 107.545 366.479 105.306 375.443 110.53C403.818 129.942 420.99 162.051 420.99 196.394C420.99 206.847 412.776 215.06 402.323 215.06C391.87 215.06 383.657 206.847 383.657 196.394C383.657 173.992 372.459 153.831 354.537 141.139C345.573 135.92 343.333 123.972 349.307 115.759Z" fill="white"/>
<path d="M37.2005 206.853C37.2005 155.332 51.3885 105.307 78.2685 61.2534C83.4977 52.295 80.5081 41.0921 72.2945 35.8681C63.3361 30.6389 52.1332 33.6285 46.9092 41.8421C16.2945 91.1234 0.617188 148.613 0.617188 206.855C0.617188 242.694 6.59119 277.787 18.5385 311.386C21.5229 318.855 28.2468 324.079 36.4599 324.079C38.6995 324.079 40.939 324.079 42.4338 323.334C52.1421 319.6 57.3659 309.146 53.6317 299.438C42.4287 269.569 37.1997 238.209 37.1997 206.85L37.2005 206.853Z" fill="white"/>
<path d="M565.841 41.0933C556.882 46.3225 553.893 57.52 559.122 66.4786C583.762 109.041 597.2 157.572 597.2 206.852C597.2 238.212 591.971 269.571 581.518 299.44C577.783 309.148 583.013 319.601 592.716 323.336C594.955 324.081 597.195 324.081 598.69 324.081C606.158 324.081 613.622 319.602 616.611 311.388C628.559 277.789 634.532 242.695 634.532 206.857C634.532 150.857 619.6 95.6028 591.226 47.8174C586.002 38.8538 574.805 35.8642 565.841 41.0933Z" fill="white"/>
</svg>
