<svg width="212" height="49" viewBox="0 0 212 49" fill="none" xmlns="http://www.w3.org/2000/svg">
<g clip-path="url(#clip0_894_3119)">
<path d="M0 18.454C0 15.064 1.76405 13.995 4.45905 13.995H14.582C20.156 13.995 26.798 15.249 26.798 22.635C26.8153 24.1118 26.3731 25.5575 25.5327 26.7719C24.6922 27.9864 23.4952 28.9097 22.1071 29.414V29.508C25.6361 30.438 27.958 32.945 27.958 37.543C27.958 44.556 22.245 47.435 15.652 47.435H4.45905C1.75905 47.435 0 46.367 0 42.976V18.454ZM7.617 27.743H13.886C17.46 27.743 19.179 26.304 19.179 23.655C19.179 20.455 16.4881 19.569 13.6541 19.569H7.617V27.743ZM7.617 41.584H14.025C16.997 41.584 20.343 40.984 20.343 37.125C20.343 33.084 16.812 32.573 13.095 32.573H7.617V41.584Z" fill="#29303F"/>
<path d="M41.006 15.713C41.656 13.994 42.864 13.391 44.721 13.391H46.533C47.4359 13.2831 48.3473 13.5059 49.0985 14.0183C49.8498 14.5307 50.3899 15.2979 50.619 16.1779L59.819 41.768C60.2081 42.7019 60.4587 43.6876 60.563 44.694C60.5288 45.6108 60.1335 46.4769 59.4632 47.1034C58.7929 47.7298 57.902 48.0658 56.985 48.0379C56.2609 48.1238 55.529 47.9646 54.906 47.5858C54.283 47.207 53.8049 46.6303 53.548 45.948L51.597 40.3739H39.336L37.336 45.948C36.824 47.434 35.756 48.0379 33.946 48.0379C33.4881 48.0784 33.0268 48.0212 32.5927 47.87C32.1586 47.7188 31.7617 47.4771 31.428 47.1609C31.0944 46.8448 30.8317 46.4614 30.6574 46.0361C30.4831 45.6108 30.4011 45.1533 30.417 44.694C30.5216 43.6879 30.7715 42.7023 31.159 41.768L41.006 15.713ZM45.606 21.658H45.512L41.012 35.0789H49.93L45.606 21.658Z" fill="#29303F"/>
<path d="M121.321 15.7129C121.971 13.9939 123.18 13.3909 125.037 13.3909H126.849C127.752 13.2831 128.663 13.506 129.414 14.0185C130.165 14.5309 130.704 15.2981 130.933 16.1779L140.133 41.7679C140.521 42.7022 140.771 43.6878 140.875 44.6939C140.841 45.6105 140.446 46.4764 139.776 47.1029C139.106 47.7294 138.216 48.0655 137.299 48.0379C136.575 48.124 135.843 47.9648 135.22 47.586C134.597 47.2071 134.119 46.6304 133.862 45.9479L131.911 40.3739H119.649L117.649 45.9479C117.139 47.4339 116.071 48.0379 114.26 48.0379C113.802 48.0786 113.341 48.0216 112.906 47.8706C112.472 47.7195 112.075 47.478 111.741 47.1619C111.407 46.8457 111.144 46.4622 110.97 46.0367C110.795 45.6112 110.713 45.1535 110.729 44.6939C110.833 43.6876 111.084 42.7019 111.473 41.7679L121.321 15.7129ZM125.921 21.6579H125.827L121.322 35.0789H130.239L125.921 21.6579Z" fill="#29303F"/>
<path d="M157.321 15.7129C157.971 13.9939 159.18 13.3909 161.037 13.3909H162.849C163.752 13.2831 164.663 13.506 165.414 14.0185C166.165 14.5309 166.704 15.2981 166.933 16.1779L176.133 41.7679C176.521 42.7022 176.771 43.6878 176.875 44.6939C176.841 45.6105 176.446 46.4764 175.776 47.1029C175.106 47.7294 174.216 48.0655 173.299 48.0379C172.575 48.124 171.843 47.9648 171.22 47.586C170.597 47.2071 170.119 46.6304 169.862 45.9479L167.911 40.3739H155.649L153.649 45.9479C153.139 47.4339 152.071 48.0379 150.26 48.0379C149.802 48.0786 149.341 48.0216 148.906 47.8706C148.472 47.7195 148.075 47.478 147.741 47.1619C147.407 46.8457 147.144 46.4622 146.97 46.0367C146.795 45.6112 146.713 45.1535 146.729 44.6939C146.833 43.6876 147.084 42.7019 147.473 41.7679L157.321 15.7129ZM161.921 21.6579H161.827L157.322 35.0789H166.239L161.921 21.6579Z" fill="#29303F"/>
<path d="M182.82 18.454C182.82 15.064 184.584 13.995 187.277 13.995H199.956C209.012 13.995 211.426 18.965 211.426 23.284C211.426 26.907 209.291 30.484 205.668 31.319V31.413C209.568 31.97 210.268 34.803 210.268 38.192C210.268 42.047 211.289 43.492 211.289 45.067C211.289 46.832 209.479 48.04 207.713 48.04C203.534 48.04 203.207 43.999 203.207 42.652C203.207 36.801 202.141 34.432 197.961 34.432H190.436V44.232C190.468 44.7403 190.391 45.2496 190.21 45.7259C190.03 46.2021 189.75 46.6344 189.389 46.994C189.029 47.3544 188.595 47.6337 188.118 47.8134C187.641 47.9931 187.132 48.069 186.623 48.036C186.114 48.069 185.604 47.9932 185.127 47.8135C184.65 47.6338 184.217 47.3544 183.857 46.994C183.496 46.6336 183.217 46.2004 183.037 45.7234C182.858 45.2465 182.782 44.7366 182.815 44.228L182.82 18.454ZM190.435 28.854H198.052C200.933 28.854 203.811 28.11 203.811 24.354C203.811 20.776 201.628 19.847 198.284 19.847H190.435V28.854Z" fill="#29303F"/>
<path d="M74.9531 16.346H74.3741C73.5513 16.344 72.7466 16.5877 72.0632 17.046C71.4938 17.4253 71.0269 17.9395 70.7042 18.5428C70.3814 19.1461 70.2127 19.8198 70.2131 20.504V24.571C70.2132 24.8515 70.2963 25.1257 70.452 25.359C70.6078 25.5923 70.8291 25.7743 71.0881 25.882C71.3468 25.9903 71.6318 26.0196 71.9071 25.9662C72.1824 25.9129 72.4357 25.7791 72.6351 25.582L74.9952 23.23L79.4672 18.771C79.6656 18.5728 79.8008 18.3203 79.8558 18.0453C79.9108 17.7703 79.883 17.4852 79.7761 17.226C79.6692 16.9666 79.4878 16.7448 79.2548 16.5885C79.0218 16.4322 78.7477 16.3485 78.4672 16.348L74.9531 16.346Z" fill="#E71D33"/>
<path d="M101.893 41.933V42.512C101.895 43.3348 101.652 44.1396 101.193 44.823C100.814 45.3923 100.3 45.859 99.6963 46.1817C99.093 46.5045 98.4194 46.6732 97.7352 46.673H93.6643C93.3842 46.6721 93.1106 46.5884 92.878 46.4323C92.6454 46.2762 92.4642 46.0548 92.3573 45.796C92.2503 45.5371 92.2224 45.2523 92.277 44.9775C92.3316 44.7027 92.4664 44.4503 92.6643 44.252L95.0163 41.892L99.4752 37.42C99.6734 37.2216 99.926 37.0863 100.201 37.0313C100.476 36.9763 100.761 37.0041 101.02 37.111C101.28 37.2179 101.501 37.3994 101.658 37.6324C101.814 37.8654 101.898 38.1394 101.898 38.42L101.893 41.933Z" fill="#E71D33"/>
<path d="M99.6211 16.627C99.4943 15.5816 99.2972 14.5459 99.0311 13.527C98.9411 13.182 98.8551 12.835 98.7501 12.5C96.6431 5.755 91.6641 1 85.8671 1C78.8391 1 73.0231 7.995 72.0671 17.049C72.7506 16.5907 73.5553 16.347 74.3781 16.349H74.9572C76.0352 9.186 80.5161 3.797 85.8701 3.797C90.8121 3.797 95.0092 8.397 96.4702 14.735C96.5532 15.093 96.6201 15.46 96.6851 15.835C96.7151 16.007 96.7531 16.178 96.7791 16.354C96.9454 17.4559 97.0293 18.5686 97.0302 19.683H99.8241C99.8208 18.6628 99.754 17.6439 99.6241 16.632L99.6211 16.627Z" fill="#E71D33"/>
<path d="M75.2191 47.814C74.5977 47.8149 73.9824 47.6908 73.4099 47.4493C72.8373 47.2078 72.3191 46.8537 71.8861 46.4081C71.4588 45.9706 71.122 45.4533 70.8947 44.8856C70.6675 44.318 70.5543 43.7111 70.5616 43.0997C70.569 42.4883 70.6967 41.8843 70.9375 41.3223C71.1783 40.7602 71.5274 40.2511 71.9651 39.8241L95.3081 17.802C96.1919 16.9397 97.3821 16.4638 98.6169 16.479C99.8516 16.4942 101.03 16.9992 101.892 17.883C102.754 18.7669 103.23 19.9571 103.215 21.1918C103.2 22.4266 102.695 23.6047 101.811 24.4671L78.4701 46.489C77.6017 47.3394 76.4344 47.8151 75.2191 47.814Z" fill="#E71D33"/>
</g>
<defs>
<clipPath id="clip0_894_3119">
<rect width="212" height="49" fill="white"/>
</clipPath>
</defs>
</svg>
