<svg id="Layer_1" data-name="Layer 1" xmlns="http://www.w3.org/2000/svg" viewBox="0 0 742.98 458.34"><defs><style>.cls-1,.cls-2,.cls-3{fill:none;stroke:#a8afb6;}.cls-1,.cls-2,.cls-3,.cls-6{stroke-miterlimit:10;}.cls-2{stroke-dasharray:1.99 1.99;}.cls-3{stroke-dasharray:2 2;}.cls-4{font-size:10.09px;fill:#a8afb6;font-family:Arial-BoldMT, Arial;font-weight:700;}.cls-5{letter-spacing:-0.02em;}.cls-6{fill:#ffe9b0;stroke:#4c4b4b;stroke-width:0.25px;}.cls-7{fill:#ccdaff;}.cls-8{fill:#ffdbdb;}.cls-9{fill:#cbf3ff;}</style></defs><line class="cls-1" x1="27.55" x2="27.55" y2="1"/><line class="cls-2" x1="27.55" y1="2.99" x2="27.55" y2="456.34"/><line class="cls-1" x1="27.55" y1="457.34" x2="27.55" y2="458.34"/><line class="cls-1" x1="742.98" y1="405.78" x2="741.98" y2="405.78"/><line class="cls-3" x1="739.98" y1="405.78" x2="29.55" y2="405.78"/><line class="cls-1" x1="28.55" y1="405.78" x2="27.55" y2="405.78"/><line class="cls-1" x1="742.98" y1="367.95" x2="741.98" y2="367.95"/><line class="cls-3" x1="739.98" y1="367.95" x2="29.55" y2="367.95"/><line class="cls-1" x1="28.55" y1="367.95" x2="27.55" y2="367.95"/><line class="cls-1" x1="742.98" y1="330.12" x2="741.98" y2="330.12"/><line class="cls-3" x1="739.98" y1="330.12" x2="29.55" y2="330.12"/><line class="cls-1" x1="28.55" y1="330.12" x2="27.55" y2="330.12"/><line class="cls-1" x1="742.98" y1="292.3" x2="741.98" y2="292.3"/><line class="cls-3" x1="739.98" y1="292.3" x2="29.55" y2="292.3"/><line class="cls-1" x1="28.55" y1="292.3" x2="27.55" y2="292.3"/><line class="cls-1" x1="742.98" y1="254.47" x2="741.98" y2="254.47"/><line class="cls-3" x1="739.98" y1="254.47" x2="29.55" y2="254.47"/><line class="cls-1" x1="28.55" y1="254.47" x2="27.55" y2="254.47"/><line class="cls-1" x1="742.98" y1="216.64" x2="741.98" y2="216.64"/><line class="cls-3" x1="739.98" y1="216.64" x2="29.55" y2="216.64"/><line class="cls-1" x1="28.55" y1="216.64" x2="27.55" y2="216.64"/><line class="cls-1" x1="742.98" y1="178.81" x2="741.98" y2="178.81"/><line class="cls-3" x1="739.98" y1="178.81" x2="29.55" y2="178.81"/><line class="cls-1" x1="28.55" y1="178.81" x2="27.55" y2="178.81"/><line class="cls-1" x1="742.98" y1="140.98" x2="741.98" y2="140.98"/><line class="cls-3" x1="739.98" y1="140.98" x2="29.55" y2="140.98"/><line class="cls-1" x1="28.55" y1="140.98" x2="27.55" y2="140.98"/><line class="cls-1" x1="742.98" y1="103.15" x2="741.98" y2="103.15"/><line class="cls-3" x1="739.98" y1="103.15" x2="29.55" y2="103.15"/><line class="cls-1" x1="28.55" y1="103.15" x2="27.55" y2="103.15"/><line class="cls-1" x1="742.98" y1="65.32" x2="741.98" y2="65.32"/><line class="cls-3" x1="739.98" y1="65.32" x2="29.55" y2="65.32"/><line class="cls-1" x1="28.55" y1="65.32" x2="27.55" y2="65.32"/><line class="cls-1" x1="742.98" y1="27.5" x2="741.98" y2="27.5"/><line class="cls-3" x1="739.98" y1="27.5" x2="29.55" y2="27.5"/><line class="cls-1" x1="28.55" y1="27.5" x2="27.55" y2="27.5"/><text class="cls-4" transform="translate(106.78 457.94) rotate(-43.23)"><tspan class="cls-5">V</tspan><tspan x="6.54" y="0">isakhapatnam</tspan></text><text class="cls-4" transform="translate(144.34 446.7) rotate(-43.23)"><tspan class="cls-5">V</tspan><tspan x="6.54" y="0">ijayawada</tspan></text><text class="cls-4" transform="translate(182.21 434.97) rotate(-43.23)">Guntur</text><text class="cls-4" transform="translate(212.46 432.79) rotate(-43.23)">Nellore</text><text class="cls-4" transform="translate(241.25 437.23) rotate(-43.23)">Kurnool</text><text class="cls-4" transform="translate(269.42 441.44) rotate(-43.23)">Kakinada</text><text class="cls-4" transform="translate(323.11 454.87) rotate(-43.23)">Rajahmundry</text><text class="cls-4" transform="translate(363.6 438.69) rotate(-43.23)"><tspan class="cls-5">T</tspan><tspan x="5.98" y="0">irupati</tspan></text><text class="cls-4" transform="translate(383.8 454.96) rotate(-43.23)"><tspan class="cls-5">V</tspan><tspan x="6.54" y="0">izianagaram</tspan></text><text class="cls-4" transform="translate(428.45 430.88) rotate(-43.23)">Eluru</text><text class="cls-4" transform="translate(479.07 446.26) rotate(-43.23)">Srikakulam</text><text class="cls-4" transform="translate(546.4 435.15) rotate(-43.23)">Chitoor</text><text class="cls-4" transform="translate(456.21 433.88) rotate(-43.23)">Nadyal</text><text class="cls-4" transform="translate(302.9 434.53) rotate(-43.23)">Kadapa</text><text class="cls-4" transform="translate(507.04 451.66) rotate(-43.23)">Bhimavaram</text><text class="cls-4" transform="translate(5.73 410.14)">0%</text><text class="cls-4" transform="translate(4.93 371.75)">10%</text><text class="cls-4" transform="translate(4.68 334.8)">20%</text><text class="cls-4" transform="translate(4.3 295.47)">30%</text><text class="cls-4" transform="translate(4.11 258.65)">40%</text><text class="cls-4" transform="translate(3.66 220.62)">50%</text><text class="cls-4" transform="translate(3.24 182.9)">60%</text><text class="cls-4" transform="translate(2.82 144.53)">70%</text><text class="cls-4" transform="translate(2.4 106.47)">80%</text><text class="cls-4" transform="translate(2.08 68.51)">90%</text><text class="cls-4" transform="translate(0 30.79)">100%</text><path class="cls-6" d="M550.78,292.43h17.37a4,4,0,0,1,4,4V405.78a0,0,0,0,1,0,0H546.78a0,0,0,0,1,0,0V296.43A4,4,0,0,1,550.78,292.43Z"/><path class="cls-6" d="M460.56,65.32h17.37a4,4,0,0,1,4,4V405.78a0,0,0,0,1,0,0H456.56a0,0,0,0,1,0,0V69.32A4,4,0,0,1,460.56,65.32Z"/><path class="cls-6" d="M392.79,292.3h17.37a4,4,0,0,1,4,4V405.78a0,0,0,0,1,0,0H388.79a0,0,0,0,1,0,0V296.3A4,4,0,0,1,392.79,292.3Z"/><path class="cls-6" d="M505.67,254.47H523a4,4,0,0,1,4,4V405.78a0,0,0,0,1,0,0H501.67a0,0,0,0,1,0,0V258.47a4,4,0,0,1,4-4Z"/><path class="cls-7" d="M460.71,65.36h17.07a4,4,0,0,1,4,4v79.31a0,0,0,0,1,0,0h-25a0,0,0,0,1,0,0V69.35A4,4,0,0,1,460.71,65.36Z"/><path class="cls-7" d="M392.95,292.5H410a4,4,0,0,1,4,4v31.58a0,0,0,0,1,0,0H389a0,0,0,0,1,0,0V296.49A4,4,0,0,1,392.95,292.5Z"/><path class="cls-7" d="M505.82,254.64h17.07a4,4,0,0,1,4,4V299.1a0,0,0,0,1,0,0h-25a0,0,0,0,1,0,0V258.62A4,4,0,0,1,505.82,254.64Z"/><path class="cls-7" d="M550.93,292.43H568a4,4,0,0,1,4,4v33.71a0,0,0,0,1,0,0h-25a0,0,0,0,1,0,0V296.41A4,4,0,0,1,550.93,292.43Z"/><path class="cls-6" d="M187.8,254.47h17.37a4,4,0,0,1,4,4V405.78a0,0,0,0,1,0,0H183.8a0,0,0,0,1,0,0V258.47a4,4,0,0,1,4-4Z"/><path class="cls-7" d="M187.95,254.64H205a4,4,0,0,1,4,4v27.57a0,0,0,0,1,0,0H184a0,0,0,0,1,0,0V258.62A4,4,0,0,1,187.95,254.64Z"/><rect class="cls-8" x="183.96" y="345.71" width="25.05" height="35.84"/><rect class="cls-9" x="183.96" y="286.19" width="25.05" height="59.52"/><path class="cls-6" d="M349.09,254.47h17.37a4,4,0,0,1,4,4V405.78a0,0,0,0,1,0,0H345.09a0,0,0,0,1,0,0V258.47A4,4,0,0,1,349.09,254.47Z"/><path class="cls-7" d="M349.24,254.64h17.07a4,4,0,0,1,4,4v27.57a0,0,0,0,1,0,0h-25a0,0,0,0,1,0,0V258.62A4,4,0,0,1,349.24,254.64Z"/><rect class="cls-8" x="345.26" y="345.71" width="25.05" height="35.84"/><rect class="cls-8" x="388.96" y="359.24" width="25.05" height="35.84"/><rect class="cls-8" x="501.68" y="345.71" width="25.05" height="35.84"/><rect class="cls-9" x="546.78" y="330.12" width="25.05" height="35.84"/><rect class="cls-8" x="546.78" y="353.83" width="25.05" height="35.84"/><rect class="cls-8" x="456.73" y="252.49" width="25.05" height="93.22"/><rect class="cls-9" x="345.26" y="286.19" width="25.05" height="59.52"/><rect class="cls-9" x="388.96" y="328.07" width="25.05" height="46.31"/><rect class="cls-9" x="501.83" y="299.1" width="25.05" height="46.31"/><rect class="cls-9" x="456.73" y="148.66" width="25.05" height="105.98"/><path class="cls-6" d="M232.49,178.81h17.37a4,4,0,0,1,4,4v223a0,0,0,0,1,0,0H228.49a0,0,0,0,1,0,0v-223A4,4,0,0,1,232.49,178.81Z"/><path class="cls-7" d="M232.64,178.81h17.07a4,4,0,0,1,4,4v27.57a0,0,0,0,1,0,0h-25a0,0,0,0,1,0,0V182.8A4,4,0,0,1,232.64,178.81Z"/><rect class="cls-8" x="228.66" y="345.71" width="25.05" height="35.84"/><rect class="cls-9" x="228.66" y="210.36" width="25.05" height="135.35"/><path class="cls-6" d="M305.39,178.81h17.37a4,4,0,0,1,4,4v223a0,0,0,0,1,0,0H301.39a0,0,0,0,1,0,0v-223A4,4,0,0,1,305.39,178.81Z"/><path class="cls-7" d="M305.54,178.81h17.07a4,4,0,0,1,4,4v27.57a0,0,0,0,1,0,0h-25a0,0,0,0,1,0,0V182.8A4,4,0,0,1,305.54,178.81Z"/><rect class="cls-8" x="301.56" y="345.71" width="25.05" height="35.84"/><rect class="cls-9" x="301.56" y="210.36" width="25.05" height="135.35"/></svg>