<svg width="192" height="192" viewBox="0 0 192 192" fill="none" xmlns="http://www.w3.org/2000/svg">
<rect x="10" y="10" width="172" height="172" rx="12" fill="#E6E6E6"/>
<path d="M95.9995 91.0007C86.7166 91.0007 77.8145 94.6879 71.2515 101.252C64.6872 107.816 61 116.718 61 126V136C61 138.652 62.053 141.196 63.9289 143.071C65.8039 144.947 68.3477 146 70.9995 146H121.001C123.653 146 126.197 144.947 128.072 143.071C129.948 141.196 131.001 138.652 131.001 136V126C131.001 116.717 127.313 107.815 120.749 101.252C114.186 94.6879 105.284 91.0007 96.0012 91.0007H95.9995Z" fill="#FAFAFA"/>
<path d="M115.999 65.9998C115.999 77.0457 107.045 85.9997 95.9989 85.9997C84.953 85.9997 75.999 77.0457 75.999 65.9998C75.999 54.954 84.953 46 95.9989 46C107.045 46 115.999 54.954 115.999 65.9998Z" fill="#FAFAFA"/>
<rect opacity="0.72" x="0.5" y="0.5" width="191" height="191" rx="11.5" stroke="#808080" stroke-dasharray="5 5"/>
</svg>
