<svg id="Layer_1" data-name="Layer 1" xmlns="http://www.w3.org/2000/svg" viewBox="0 0 742.98 433.69"><defs><style>.cls-1,.cls-2,.cls-3{fill:none;stroke:#a8afb6;}.cls-1,.cls-10,.cls-2,.cls-3,.cls-8,.cls-9{stroke-miterlimit:10;}.cls-2{stroke-dasharray:2.01 2.01;}.cls-3{stroke-dasharray:2 2;}.cls-4{font-size:10.97px;}.cls-4,.cls-7{fill:#a8afb6;font-family:Arial-BoldMT, Arial;font-weight:700;}.cls-5{letter-spacing:-0.01em;}.cls-6{letter-spacing:-0.02em;}.cls-7{font-size:10.09px;}.cls-8{fill:#ffdbdb;}.cls-10,.cls-8,.cls-9{stroke:#4c4b4b;stroke-width:0.25px;}.cls-9{fill:#cbf3ff;}.cls-10{fill:#ffe9b0;}</style></defs><line class="cls-1" x1="27.55" x2="27.55" y2="1"/><line class="cls-2" x1="27.55" y1="3.01" x2="27.55" y2="431.69"/><line class="cls-1" x1="27.55" y1="432.69" x2="27.55" y2="433.69"/><line class="cls-1" x1="742.98" y1="405.78" x2="741.98" y2="405.78"/><line class="cls-3" x1="739.98" y1="405.78" x2="29.55" y2="405.78"/><line class="cls-1" x1="28.55" y1="405.78" x2="27.55" y2="405.78"/><line class="cls-1" x1="742.98" y1="367.95" x2="741.98" y2="367.95"/><line class="cls-3" x1="739.98" y1="367.95" x2="29.55" y2="367.95"/><line class="cls-1" x1="28.55" y1="367.95" x2="27.55" y2="367.95"/><line class="cls-1" x1="742.98" y1="330.12" x2="741.98" y2="330.12"/><line class="cls-3" x1="739.98" y1="330.12" x2="29.55" y2="330.12"/><line class="cls-1" x1="28.55" y1="330.12" x2="27.55" y2="330.12"/><line class="cls-1" x1="742.98" y1="292.3" x2="741.98" y2="292.3"/><line class="cls-3" x1="739.98" y1="292.3" x2="29.55" y2="292.3"/><line class="cls-1" x1="28.55" y1="292.3" x2="27.55" y2="292.3"/><line class="cls-1" x1="742.98" y1="254.47" x2="741.98" y2="254.47"/><line class="cls-3" x1="739.98" y1="254.47" x2="29.55" y2="254.47"/><line class="cls-1" x1="28.55" y1="254.47" x2="27.55" y2="254.47"/><line class="cls-1" x1="742.98" y1="216.64" x2="741.98" y2="216.64"/><line class="cls-3" x1="739.98" y1="216.64" x2="29.55" y2="216.64"/><line class="cls-1" x1="28.55" y1="216.64" x2="27.55" y2="216.64"/><line class="cls-1" x1="742.98" y1="178.81" x2="741.98" y2="178.81"/><line class="cls-3" x1="739.98" y1="178.81" x2="29.55" y2="178.81"/><line class="cls-1" x1="28.55" y1="178.81" x2="27.55" y2="178.81"/><line class="cls-1" x1="742.98" y1="140.98" x2="741.98" y2="140.98"/><line class="cls-3" x1="739.98" y1="140.98" x2="29.55" y2="140.98"/><line class="cls-1" x1="28.55" y1="140.98" x2="27.55" y2="140.98"/><line class="cls-1" x1="742.98" y1="103.15" x2="741.98" y2="103.15"/><line class="cls-3" x1="739.98" y1="103.15" x2="29.55" y2="103.15"/><line class="cls-1" x1="28.55" y1="103.15" x2="27.55" y2="103.15"/><line class="cls-1" x1="742.98" y1="65.32" x2="741.98" y2="65.32"/><line class="cls-3" x1="739.98" y1="65.32" x2="29.55" y2="65.32"/><line class="cls-1" x1="28.55" y1="65.32" x2="27.55" y2="65.32"/><line class="cls-1" x1="742.98" y1="27.5" x2="741.98" y2="27.5"/><line class="cls-3" x1="739.98" y1="27.5" x2="29.55" y2="27.5"/><line class="cls-1" x1="28.55" y1="27.5" x2="27.55" y2="27.5"/><text class="cls-4" transform="translate(180.86 421.59)">Jack</text><text class="cls-4" transform="translate(227.87 421.59)">John</text><text class="cls-4" transform="translate(297.21 421.59)">Emma</text><text class="cls-4" transform="translate(343.73 421.59)"><tspan class="cls-5">W</tspan><tspan x="10.26" y="0">ills</tspan></text><text class="cls-4" transform="translate(386.55 421.59)">Caleb</text><text class="cls-4" transform="translate(458.89 421.59)">Ben</text><text class="cls-4" transform="translate(504.71 421.59)"><tspan class="cls-6">T</tspan><tspan x="6.5" y="0">im</tspan></text><text class="cls-4" transform="translate(544.23 421.59)">Adam</text><text class="cls-7" transform="translate(5.73 410.14)">0%</text><text class="cls-7" transform="translate(4.93 371.75)">10%</text><text class="cls-7" transform="translate(4.68 334.8)">20%</text><text class="cls-7" transform="translate(4.3 295.47)">30%</text><text class="cls-7" transform="translate(4.11 258.65)">40%</text><text class="cls-7" transform="translate(3.66 220.62)">50%</text><text class="cls-7" transform="translate(3.24 182.9)">60%</text><text class="cls-7" transform="translate(2.82 144.53)">70%</text><text class="cls-7" transform="translate(2.4 106.47)">80%</text><text class="cls-7" transform="translate(2.08 68.51)">90%</text><text class="cls-7" transform="translate(0 30.79)">100%</text><path class="cls-8" d="M550.78,292.43h17.37a4,4,0,0,1,4,4V405.78a0,0,0,0,1,0,0H546.78a0,0,0,0,1,0,0V296.43A4,4,0,0,1,550.78,292.43Z"/><path class="cls-9" d="M187.28,306.38h17.37a4,4,0,0,1,4,4v95.4a0,0,0,0,1,0,0H183.28a0,0,0,0,1,0,0v-95.4A4,4,0,0,1,187.28,306.38Z"/><path class="cls-10" d="M232.28,351.55h17.37a4,4,0,0,1,4,4v50.23a0,0,0,0,1,0,0H228.28a0,0,0,0,1,0,0V355.55A4,4,0,0,1,232.28,351.55Z"/><path class="cls-8" d="M305,216.64h17.37a4,4,0,0,1,4,4V405.78a0,0,0,0,1,0,0H301a0,0,0,0,1,0,0V220.64A4,4,0,0,1,305,216.64Z"/><path class="cls-9" d="M347.8,306.38h17.37a4,4,0,0,1,4,4v95.4a0,0,0,0,1,0,0H343.8a0,0,0,0,1,0,0v-95.4A4,4,0,0,1,347.8,306.38Z"/><path class="cls-9" d="M460.56,65.32h17.37a4,4,0,0,1,4,4V405.78a0,0,0,0,1,0,0H456.56a0,0,0,0,1,0,0V69.32A4,4,0,0,1,460.56,65.32Z"/><path class="cls-10" d="M392.8,292.3h17.37a4,4,0,0,1,4,4V405.78a0,0,0,0,1,0,0H388.8a0,0,0,0,1,0,0V296.3A4,4,0,0,1,392.8,292.3Z"/><path class="cls-10" d="M505.67,254.47H523a4,4,0,0,1,4,4V405.78a0,0,0,0,1,0,0H501.67a0,0,0,0,1,0,0V258.47A4,4,0,0,1,505.67,254.47Z"/></svg>