<svg id="Layer_1" data-name="Layer 1" xmlns="http://www.w3.org/2000/svg" viewBox="0 0 742.98 433.69"><defs><style>.cls-1{font-size:10.09px;fill:#a8afb6;font-family:Arial-BoldMT, Arial;font-weight:700;}.cls-2{letter-spacing:-0.06em;}.cls-3,.cls-4,.cls-5{fill:none;stroke:#a8afb6;}.cls-13,.cls-3,.cls-4,.cls-5,.cls-9{stroke-miterlimit:10;}.cls-4{stroke-dasharray:2.01 2.01;}.cls-5{stroke-dasharray:2 2;}.cls-13,.cls-6{fill:#ffdbdb;}.cls-7,.cls-9{fill:#cbf3ff;}.cls-8{fill:#f9db98;}.cls-13,.cls-9{stroke:#4c4b4b;stroke-width:0.25px;}.cls-10{fill:#ccdaff;}.cls-11{fill:#ffe9b0;}.cls-12{fill:#f4b3ff;}</style></defs><text class="cls-1" transform="translate(35.25 422.85)">0</text><text class="cls-1" transform="translate(57.8 422.85)">1</text><text class="cls-1" transform="translate(80.35 422.85)">2</text><text class="cls-1" transform="translate(102.9 422.85)">3</text><text class="cls-1" transform="translate(125.45 422.85)">4</text><text class="cls-1" transform="translate(148 422.85)">5</text><text class="cls-1" transform="translate(170.55 422.85)">6</text><text class="cls-1" transform="translate(193.1 422.85)">7</text><text class="cls-1" transform="translate(215.65 422.85)">8</text><text class="cls-1" transform="translate(257.94 422.85)">10</text><text class="cls-1" transform="translate(280.77 422.85)"><tspan class="cls-2">1</tspan><tspan x="5.05" y="0">1</tspan></text><text class="cls-1" transform="translate(303.04 422.85)">12</text><text class="cls-1" transform="translate(325.59 422.85)">13</text><text class="cls-1" transform="translate(348.14 422.85)">14</text><text class="cls-1" transform="translate(370.69 422.85)">15</text><text class="cls-1" transform="translate(238.2 422.85)">9</text><text class="cls-1" transform="translate(393.24 422.85)">16</text><text class="cls-1" transform="translate(415.79 422.85)">17</text><text class="cls-1" transform="translate(438.34 422.85)">18</text><text class="cls-1" transform="translate(483.44 422.85)">20</text><text class="cls-1" transform="translate(505.99 422.85)">21</text><text class="cls-1" transform="translate(528.54 422.85)">22</text><text class="cls-1" transform="translate(551.09 422.85)">23</text><text class="cls-1" transform="translate(573.64 422.85)">24</text><text class="cls-1" transform="translate(596.19 422.85)">25</text><text class="cls-1" transform="translate(618.74 422.85)">26</text><text class="cls-1" transform="translate(641.29 422.85)">27</text><text class="cls-1" transform="translate(663.84 422.85)">28</text><text class="cls-1" transform="translate(686.39 422.85)">29</text><text class="cls-1" transform="translate(708.94 422.85)">30</text><text class="cls-1" transform="translate(460.89 422.85)">19</text><line class="cls-3" x1="27.55" x2="27.55" y2="1"/><line class="cls-4" x1="27.55" y1="3.01" x2="27.55" y2="431.69"/><line class="cls-3" x1="27.55" y1="432.69" x2="27.55" y2="433.69"/><line class="cls-3" x1="742.98" y1="405.78" x2="741.98" y2="405.78"/><line class="cls-5" x1="739.98" y1="405.78" x2="29.55" y2="405.78"/><line class="cls-3" x1="28.55" y1="405.78" x2="27.55" y2="405.78"/><line class="cls-3" x1="742.98" y1="367.95" x2="741.98" y2="367.95"/><line class="cls-5" x1="739.98" y1="367.95" x2="29.55" y2="367.95"/><line class="cls-3" x1="28.55" y1="367.95" x2="27.55" y2="367.95"/><line class="cls-3" x1="742.98" y1="330.12" x2="741.98" y2="330.12"/><line class="cls-5" x1="739.98" y1="330.12" x2="29.55" y2="330.12"/><line class="cls-3" x1="28.55" y1="330.12" x2="27.55" y2="330.12"/><line class="cls-3" x1="742.98" y1="292.3" x2="741.98" y2="292.3"/><line class="cls-5" x1="739.98" y1="292.3" x2="29.55" y2="292.3"/><line class="cls-3" x1="28.55" y1="292.3" x2="27.55" y2="292.3"/><line class="cls-3" x1="742.98" y1="254.47" x2="741.98" y2="254.47"/><line class="cls-5" x1="739.98" y1="254.47" x2="29.55" y2="254.47"/><line class="cls-3" x1="28.55" y1="254.47" x2="27.55" y2="254.47"/><line class="cls-3" x1="742.98" y1="216.64" x2="741.98" y2="216.64"/><line class="cls-5" x1="739.98" y1="216.64" x2="29.55" y2="216.64"/><line class="cls-3" x1="28.55" y1="216.64" x2="27.55" y2="216.64"/><line class="cls-3" x1="742.98" y1="178.81" x2="741.98" y2="178.81"/><line class="cls-5" x1="739.98" y1="178.81" x2="29.55" y2="178.81"/><line class="cls-3" x1="28.55" y1="178.81" x2="27.55" y2="178.81"/><line class="cls-3" x1="742.98" y1="140.98" x2="741.98" y2="140.98"/><line class="cls-5" x1="739.98" y1="140.98" x2="29.55" y2="140.98"/><line class="cls-3" x1="28.55" y1="140.98" x2="27.55" y2="140.98"/><line class="cls-3" x1="742.98" y1="103.15" x2="741.98" y2="103.15"/><line class="cls-5" x1="739.98" y1="103.15" x2="29.55" y2="103.15"/><line class="cls-3" x1="28.55" y1="103.15" x2="27.55" y2="103.15"/><line class="cls-3" x1="742.98" y1="65.32" x2="741.98" y2="65.32"/><line class="cls-5" x1="739.98" y1="65.32" x2="29.55" y2="65.32"/><line class="cls-3" x1="28.55" y1="65.32" x2="27.55" y2="65.32"/><line class="cls-3" x1="742.98" y1="27.5" x2="741.98" y2="27.5"/><line class="cls-5" x1="739.98" y1="27.5" x2="29.55" y2="27.5"/><line class="cls-3" x1="28.55" y1="27.5" x2="27.55" y2="27.5"/><text class="cls-1" transform="translate(5.73 410.14)">0%</text><text class="cls-1" transform="translate(4.93 371.75)">10%</text><text class="cls-1" transform="translate(4.68 334.8)">20%</text><text class="cls-1" transform="translate(4.3 295.47)">30%</text><text class="cls-1" transform="translate(4.11 258.65)">40%</text><text class="cls-1" transform="translate(3.66 220.62)">50%</text><text class="cls-1" transform="translate(3.24 182.9)">60%</text><text class="cls-1" transform="translate(2.82 144.53)">70%</text><text class="cls-1" transform="translate(2.4 106.47)">80%</text><text class="cls-1" transform="translate(2.08 68.51)">90%</text><text class="cls-1" transform="translate(0 30.79)">100%</text><path class="cls-6" d="M187.28,306.38h17.37a4,4,0,0,1,4,4v95.4a0,0,0,0,1,0,0H183.28a0,0,0,0,1,0,0v-95.4A4,4,0,0,1,187.28,306.38Z"/><path class="cls-7" d="M232.28,330.12h17.37a4,4,0,0,1,4,4v71.66a0,0,0,0,1,0,0H228.28a0,0,0,0,1,0,0V334.12A4,4,0,0,1,232.28,330.12Z"/><rect class="cls-8" x="183.37" y="366.12" width="25.05" height="18.24"/><rect class="cls-6" x="228.44" y="387.54" width="25.05" height="18.24"/><rect class="cls-8" x="228.44" y="362.93" width="25.05" height="25.05"/><path class="cls-7" d="M187.36,306.38h17.07a4,4,0,0,1,4,4V365.3a0,0,0,0,1,0,0h-25a0,0,0,0,1,0,0V310.37A4,4,0,0,1,187.36,306.38Z"/><path class="cls-9" d="M95.85,178.81h17.37a4,4,0,0,1,4,4v223a0,0,0,0,1,0,0H91.85a0,0,0,0,1,0,0v-223A4,4,0,0,1,95.85,178.81Z"/><rect class="cls-8" x="92.02" y="253.81" width="25.05" height="100.62"/><rect class="cls-6" x="92.02" y="354.39" width="25.05" height="51.39"/><path class="cls-9" d="M323.31,254.47h17.37a4,4,0,0,1,4,4V406a0,0,0,0,1,0,0H319.31a0,0,0,0,1,0,0V258.47A4,4,0,0,1,323.31,254.47Z"/><path class="cls-10" d="M323.46,254.47h17.07a4,4,0,0,1,4,4V286a0,0,0,0,1,0,0h-25a0,0,0,0,1,0,0V258.45A4,4,0,0,1,323.46,254.47Z"/><rect class="cls-11" x="319.48" y="351.58" width="25.05" height="27.13"/><rect class="cls-12" x="319.48" y="286.02" width="25.05" height="65.48"/><rect class="cls-6" x="319.48" y="378.7" width="25.05" height="27.13"/><path class="cls-6" d="M144.62,292.3H162a4,4,0,0,1,4,4V405.78a0,0,0,0,1,0,0H140.62a0,0,0,0,1,0,0V296.3A4,4,0,0,1,144.62,292.3Z"/><path class="cls-7" d="M144.77,292.5h17.07a4,4,0,0,1,4,4v55a0,0,0,0,1,0,0h-25a0,0,0,0,1,0,0v-55A4,4,0,0,1,144.77,292.5Z"/><rect class="cls-8" x="140.78" y="351.5" width="25.05" height="27.13"/><path class="cls-13" d="M277.6,216.64H295a4,4,0,0,1,4,4V405.78a0,0,0,0,1,0,0H273.6a0,0,0,0,1,0,0V220.64A4,4,0,0,1,277.6,216.64Z"/><path class="cls-7" d="M277.75,216.85h17.07a4,4,0,0,1,4,4V330.12a0,0,0,0,1,0,0h-25a0,0,0,0,1,0,0V220.83A4,4,0,0,1,277.75,216.85Z"/><rect class="cls-11" x="273.76" y="330.67" width="25.05" height="37.15"/></svg>