<svg width="3205" height="1544" viewBox="0 0 3205 1544" fill="none" xmlns="http://www.w3.org/2000/svg">
<g clip-path="url(#clip0_301_190)">
<circle cx="1852.5" cy="274.5" r="12.5" fill="#285FD3"/>
<path d="M1957.35 264.35C1956 261.503 1954.04 259.31 1951.47 257.77C1948.9 256.183 1945.92 255.39 1942.51 255.39C1939.1 255.39 1936.02 256.183 1933.27 257.77C1930.56 259.31 1928.42 261.55 1926.83 264.49C1925.29 267.383 1924.52 270.743 1924.52 274.57C1924.52 278.397 1925.29 281.757 1926.83 284.65C1928.42 287.543 1930.56 289.783 1933.27 291.37C1936.02 292.91 1939.1 293.68 1942.51 293.68C1947.27 293.68 1951.19 292.257 1954.27 289.41C1957.35 286.563 1959.15 282.713 1959.66 277.86H1940.2V272.68H1966.45V277.58C1966.08 281.593 1964.82 285.28 1962.67 288.64C1960.52 291.953 1957.7 294.59 1954.2 296.55C1950.7 298.463 1946.8 299.42 1942.51 299.42C1937.98 299.42 1933.85 298.37 1930.12 296.27C1926.39 294.123 1923.42 291.16 1921.23 287.38C1919.08 283.6 1918.01 279.33 1918.01 274.57C1918.01 269.81 1919.08 265.54 1921.23 261.76C1923.42 257.933 1926.39 254.97 1930.12 252.87C1933.85 250.723 1937.98 249.65 1942.51 249.65C1947.69 249.65 1952.26 250.933 1956.23 253.5C1960.24 256.067 1963.16 259.683 1964.98 264.35H1957.35ZM1981.24 266.87C1982.36 264.677 1983.95 262.973 1986 261.76C1988.1 260.547 1990.65 259.94 1993.63 259.94V266.52H1991.95C1984.81 266.52 1981.24 270.393 1981.24 278.14V299H1974.87V260.64H1981.24V266.87ZM2017.72 299.63C2014.12 299.63 2010.86 298.813 2007.92 297.18C2005.02 295.547 2002.74 293.237 2001.06 290.25C1999.42 287.217 1998.61 283.717 1998.61 279.75C1998.61 275.83 1999.45 272.377 2001.13 269.39C2002.85 266.357 2005.19 264.047 2008.13 262.46C2011.07 260.827 2014.36 260.01 2018 260.01C2021.64 260.01 2024.93 260.827 2027.87 262.46C2030.81 264.047 2033.12 266.333 2034.8 269.32C2036.52 272.307 2037.39 275.783 2037.39 279.75C2037.39 283.717 2036.5 287.217 2034.73 290.25C2033 293.237 2030.64 295.547 2027.66 297.18C2024.67 298.813 2021.36 299.63 2017.72 299.63ZM2017.72 294.03C2020 294.03 2022.15 293.493 2024.16 292.42C2026.16 291.347 2027.77 289.737 2028.99 287.59C2030.25 285.443 2030.88 282.83 2030.88 279.75C2030.88 276.67 2030.27 274.057 2029.06 271.91C2027.84 269.763 2026.26 268.177 2024.3 267.15C2022.34 266.077 2020.21 265.54 2017.93 265.54C2015.59 265.54 2013.45 266.077 2011.49 267.15C2009.57 268.177 2008.03 269.763 2006.87 271.91C2005.7 274.057 2005.12 276.67 2005.12 279.75C2005.12 282.877 2005.68 285.513 2006.8 287.66C2007.96 289.807 2009.5 291.417 2011.42 292.49C2013.33 293.517 2015.43 294.03 2017.72 294.03ZM2043.38 279.75C2043.38 275.783 2044.17 272.33 2045.76 269.39C2047.35 266.403 2049.54 264.093 2052.34 262.46C2055.19 260.827 2058.43 260.01 2062.07 260.01C2066.78 260.01 2070.66 261.153 2073.69 263.44C2076.77 265.727 2078.8 268.9 2079.78 272.96H2072.92C2072.27 270.627 2070.98 268.783 2069.07 267.43C2067.2 266.077 2064.87 265.4 2062.07 265.4C2058.43 265.4 2055.49 266.66 2053.25 269.18C2051.01 271.653 2049.89 275.177 2049.89 279.75C2049.89 284.37 2051.01 287.94 2053.25 290.46C2055.49 292.98 2058.43 294.24 2062.07 294.24C2064.87 294.24 2067.2 293.587 2069.07 292.28C2070.94 290.973 2072.22 289.107 2072.92 286.68H2079.78C2078.75 290.6 2076.7 293.75 2073.62 296.13C2070.54 298.463 2066.69 299.63 2062.07 299.63C2058.43 299.63 2055.19 298.813 2052.34 297.18C2049.54 295.547 2047.35 293.237 2045.76 290.25C2044.17 287.263 2043.38 283.763 2043.38 279.75ZM2123.28 278.35C2123.28 279.563 2123.21 280.847 2123.07 282.2H2092.41C2092.64 285.98 2093.93 288.943 2096.26 291.09C2098.64 293.19 2101.51 294.24 2104.87 294.24C2107.62 294.24 2109.91 293.61 2111.73 292.35C2113.6 291.043 2114.9 289.317 2115.65 287.17H2122.51C2121.48 290.857 2119.43 293.867 2116.35 296.2C2113.27 298.487 2109.44 299.63 2104.87 299.63C2101.23 299.63 2097.96 298.813 2095.07 297.18C2092.22 295.547 2089.98 293.237 2088.35 290.25C2086.72 287.217 2085.9 283.717 2085.9 279.75C2085.9 275.783 2086.69 272.307 2088.28 269.32C2089.87 266.333 2092.08 264.047 2094.93 262.46C2097.82 260.827 2101.14 260.01 2104.87 260.01C2108.51 260.01 2111.73 260.803 2114.53 262.39C2117.33 263.977 2119.48 266.17 2120.97 268.97C2122.51 271.723 2123.28 274.85 2123.28 278.35ZM2116.7 277.02C2116.7 274.593 2116.16 272.517 2115.09 270.79C2114.02 269.017 2112.55 267.687 2110.68 266.8C2108.86 265.867 2106.83 265.4 2104.59 265.4C2101.37 265.4 2098.62 266.427 2096.33 268.48C2094.09 270.533 2092.81 273.38 2092.48 277.02H2116.7ZM2138.06 266.87C2139.18 264.677 2140.77 262.973 2142.82 261.76C2144.92 260.547 2147.46 259.94 2150.45 259.94V266.52H2148.77C2141.63 266.52 2138.06 270.393 2138.06 278.14V299H2131.69V260.64H2138.06V266.87ZM2161.09 254.41C2159.88 254.41 2158.85 253.99 2158.01 253.15C2157.17 252.31 2156.75 251.283 2156.75 250.07C2156.75 248.857 2157.17 247.83 2158.01 246.99C2158.85 246.15 2159.88 245.73 2161.09 245.73C2162.26 245.73 2163.24 246.15 2164.03 246.99C2164.87 247.83 2165.29 248.857 2165.29 250.07C2165.29 251.283 2164.87 252.31 2164.03 253.15C2163.24 253.99 2162.26 254.41 2161.09 254.41ZM2164.17 260.64V299H2157.8V260.64H2164.17ZM2210.03 278.35C2210.03 279.563 2209.96 280.847 2209.82 282.2H2179.16C2179.39 285.98 2180.68 288.943 2183.01 291.09C2185.39 293.19 2188.26 294.24 2191.62 294.24C2194.37 294.24 2196.66 293.61 2198.48 292.35C2200.35 291.043 2201.65 289.317 2202.4 287.17H2209.26C2208.23 290.857 2206.18 293.867 2203.1 296.2C2200.02 298.487 2196.19 299.63 2191.62 299.63C2187.98 299.63 2184.71 298.813 2181.82 297.18C2178.97 295.547 2176.73 293.237 2175.1 290.25C2173.47 287.217 2172.65 283.717 2172.65 279.75C2172.65 275.783 2173.44 272.307 2175.03 269.32C2176.62 266.333 2178.83 264.047 2181.68 262.46C2184.57 260.827 2187.89 260.01 2191.62 260.01C2195.26 260.01 2198.48 260.803 2201.28 262.39C2204.08 263.977 2206.23 266.17 2207.72 268.97C2209.26 271.723 2210.03 274.85 2210.03 278.35ZM2203.45 277.02C2203.45 274.593 2202.91 272.517 2201.84 270.79C2200.77 269.017 2199.3 267.687 2197.43 266.8C2195.61 265.867 2193.58 265.4 2191.34 265.4C2188.12 265.4 2185.37 266.427 2183.08 268.48C2180.84 270.533 2179.56 273.38 2179.23 277.02H2203.45ZM2232.02 299.63C2229.08 299.63 2226.44 299.14 2224.11 298.16C2221.77 297.133 2219.93 295.733 2218.58 293.96C2217.22 292.14 2216.48 290.063 2216.34 287.73H2222.92C2223.1 289.643 2223.99 291.207 2225.58 292.42C2227.21 293.633 2229.33 294.24 2231.95 294.24C2234.37 294.24 2236.29 293.703 2237.69 292.63C2239.09 291.557 2239.79 290.203 2239.79 288.57C2239.79 286.89 2239.04 285.653 2237.55 284.86C2236.05 284.02 2233.74 283.203 2230.62 282.41C2227.77 281.663 2225.44 280.917 2223.62 280.17C2221.84 279.377 2220.3 278.233 2219 276.74C2217.74 275.2 2217.11 273.193 2217.11 270.72C2217.11 268.76 2217.69 266.963 2218.86 265.33C2220.02 263.697 2221.68 262.413 2223.83 261.48C2225.97 260.5 2228.42 260.01 2231.18 260.01C2235.42 260.01 2238.85 261.083 2241.47 263.23C2244.08 265.377 2245.48 268.317 2245.67 272.05H2239.3C2239.16 270.043 2238.34 268.433 2236.85 267.22C2235.4 266.007 2233.44 265.4 2230.97 265.4C2228.68 265.4 2226.86 265.89 2225.51 266.87C2224.15 267.85 2223.48 269.133 2223.48 270.72C2223.48 271.98 2223.87 273.03 2224.67 273.87C2225.51 274.663 2226.53 275.317 2227.75 275.83C2229.01 276.297 2230.73 276.833 2232.93 277.44C2235.68 278.187 2237.92 278.933 2239.65 279.68C2241.37 280.38 2242.84 281.453 2244.06 282.9C2245.32 284.347 2245.97 286.237 2246.02 288.57C2246.02 290.67 2245.43 292.56 2244.27 294.24C2243.1 295.92 2241.44 297.25 2239.3 298.23C2237.2 299.163 2234.77 299.63 2232.02 299.63Z" fill="black"/>
<path d="M2841.76 249.402L2840.19 254.803H2808.47L2810.04 249.402H2841.76ZM2827.54 287L2809.46 265.877L2809.43 261.639H2817.77C2820.18 261.639 2822.18 261.24 2823.75 260.442C2825.34 259.622 2826.54 258.517 2827.34 257.127C2828.13 255.737 2828.53 254.176 2828.53 252.444C2828.53 250.507 2828.16 248.81 2827.41 247.352C2826.65 245.87 2825.47 244.72 2823.85 243.899C2822.26 243.056 2820.16 242.635 2817.56 242.635H2808.54L2810.14 237.234H2817.56C2821.53 237.234 2824.8 237.838 2827.37 239.046C2829.97 240.231 2831.91 241.963 2833.18 244.241C2834.46 246.52 2835.1 249.277 2835.1 252.513C2835.1 255.293 2834.56 257.788 2833.49 259.998C2832.44 262.186 2830.7 263.906 2828.26 265.159C2825.84 266.412 2822.59 267.039 2818.48 267.039L2835.3 286.59V287H2827.54ZM2841.76 237.234L2840.19 242.635H2814.62L2816.19 237.234H2841.76ZM2871.63 237.166H2872.18V242.532H2871.63C2868.28 242.532 2865.48 243.079 2863.23 244.173C2860.97 245.244 2859.18 246.691 2857.86 248.514C2856.54 250.314 2855.58 252.342 2854.99 254.598C2854.42 256.854 2854.13 259.144 2854.13 261.468V268.782C2854.13 270.993 2854.4 272.952 2854.92 274.661C2855.44 276.347 2856.16 277.771 2857.07 278.934C2857.98 280.096 2859.01 280.973 2860.15 281.565C2861.31 282.158 2862.52 282.454 2863.77 282.454C2865.23 282.454 2866.53 282.181 2867.67 281.634C2868.81 281.064 2869.77 280.278 2870.54 279.275C2871.34 278.25 2871.94 277.042 2872.35 275.652C2872.76 274.262 2872.97 272.736 2872.97 271.072C2872.97 269.591 2872.78 268.167 2872.42 266.8C2872.06 265.41 2871.5 264.179 2870.75 263.108C2869.99 262.015 2869.05 261.16 2867.91 260.545C2866.79 259.907 2865.46 259.588 2863.91 259.588C2862.15 259.588 2860.51 260.021 2858.99 260.887C2857.48 261.73 2856.24 262.846 2855.26 264.236C2854.3 265.604 2853.76 267.096 2853.62 268.714L2850.27 268.68C2850.59 266.128 2851.18 263.951 2852.05 262.151C2852.94 260.328 2854.03 258.847 2855.33 257.708C2856.65 256.546 2858.12 255.703 2859.74 255.179C2861.38 254.632 2863.11 254.358 2864.93 254.358C2867.42 254.358 2869.56 254.826 2871.36 255.76C2873.16 256.694 2874.64 257.947 2875.8 259.52C2876.97 261.069 2877.82 262.824 2878.37 264.783C2878.94 266.72 2879.22 268.714 2879.22 270.765C2879.22 273.112 2878.89 275.311 2878.23 277.361C2877.57 279.412 2876.58 281.212 2875.26 282.762C2873.96 284.311 2872.35 285.519 2870.44 286.385C2868.52 287.251 2866.3 287.684 2863.77 287.684C2861.08 287.684 2858.74 287.137 2856.73 286.043C2854.73 284.926 2853.06 283.445 2851.74 281.6C2850.42 279.754 2849.43 277.703 2848.77 275.447C2848.11 273.191 2847.78 270.901 2847.78 268.577V265.604C2847.78 262.094 2848.13 258.654 2848.84 255.281C2849.54 251.909 2850.76 248.855 2852.49 246.121C2854.25 243.387 2856.67 241.211 2859.77 239.593C2862.87 237.975 2866.83 237.166 2871.63 237.166ZM2894.74 263.313L2889.68 262.015L2892.18 237.234H2917.71V243.079H2897.54L2896.04 256.614C2896.95 256.09 2898.1 255.6 2899.49 255.145C2900.9 254.689 2902.52 254.461 2904.34 254.461C2906.65 254.461 2908.71 254.86 2910.53 255.657C2912.35 256.432 2913.9 257.549 2915.18 259.007C2916.48 260.465 2917.47 262.22 2918.15 264.271C2918.84 266.321 2919.18 268.611 2919.18 271.141C2919.18 273.533 2918.85 275.732 2918.19 277.737C2917.55 279.743 2916.58 281.497 2915.28 283.001C2913.98 284.482 2912.34 285.633 2910.36 286.453C2908.4 287.273 2906.09 287.684 2903.42 287.684C2901.42 287.684 2899.51 287.41 2897.71 286.863C2895.94 286.294 2894.34 285.439 2892.93 284.3C2891.54 283.138 2890.4 281.702 2889.51 279.993C2888.64 278.261 2888.1 276.233 2887.87 273.909H2893.88C2894.16 275.778 2894.71 277.35 2895.53 278.626C2896.35 279.902 2897.42 280.87 2898.74 281.531C2900.08 282.169 2901.64 282.488 2903.42 282.488C2904.92 282.488 2906.26 282.226 2907.42 281.702C2908.58 281.178 2909.56 280.426 2910.36 279.446C2911.16 278.466 2911.76 277.282 2912.17 275.892C2912.6 274.502 2912.82 272.941 2912.82 271.209C2912.82 269.637 2912.6 268.178 2912.17 266.834C2911.74 265.49 2911.09 264.316 2910.22 263.313C2909.38 262.311 2908.34 261.536 2907.11 260.989C2905.88 260.42 2904.47 260.135 2902.87 260.135C2900.75 260.135 2899.15 260.42 2898.05 260.989C2896.98 261.559 2895.88 262.334 2894.74 263.313Z" fill="black"/>
<circle cx="1852.5" cy="416.5" r="12.5" fill="#FF8B26"/>
<path d="M2844.76 391.402L2843.19 396.803H2811.47L2813.04 391.402H2844.76ZM2830.54 429L2812.46 407.877L2812.43 403.639H2820.77C2823.18 403.639 2825.18 403.24 2826.75 402.442C2828.34 401.622 2829.54 400.517 2830.34 399.127C2831.13 397.737 2831.53 396.176 2831.53 394.444C2831.53 392.507 2831.16 390.81 2830.41 389.352C2829.65 387.87 2828.47 386.72 2826.85 385.899C2825.26 385.056 2823.16 384.635 2820.56 384.635H2811.54L2813.14 379.234H2820.56C2824.53 379.234 2827.8 379.838 2830.37 381.046C2832.97 382.231 2834.91 383.963 2836.18 386.241C2837.46 388.52 2838.1 391.277 2838.1 394.513C2838.1 397.293 2837.56 399.788 2836.49 401.998C2835.44 404.186 2833.7 405.906 2831.26 407.159C2828.84 408.412 2825.59 409.039 2821.48 409.039L2838.3 428.59V429H2830.54ZM2844.76 379.234L2843.19 384.635H2817.62L2819.19 379.234H2844.76ZM2882.53 379.234V382.789L2861.92 429H2855.25L2875.83 384.43H2848.9V379.234H2882.53ZM2897.74 405.313L2892.68 404.015L2895.18 379.234H2920.71V385.079H2900.54L2899.04 398.614C2899.95 398.09 2901.1 397.6 2902.49 397.145C2903.9 396.689 2905.52 396.461 2907.34 396.461C2909.65 396.461 2911.71 396.86 2913.53 397.657C2915.35 398.432 2916.9 399.549 2918.18 401.007C2919.48 402.465 2920.47 404.22 2921.15 406.271C2921.84 408.321 2922.18 410.611 2922.18 413.141C2922.18 415.533 2921.85 417.732 2921.19 419.737C2920.55 421.743 2919.58 423.497 2918.28 425.001C2916.98 426.482 2915.34 427.633 2913.36 428.453C2911.4 429.273 2909.09 429.684 2906.42 429.684C2904.42 429.684 2902.51 429.41 2900.71 428.863C2898.94 428.294 2897.34 427.439 2895.93 426.3C2894.54 425.138 2893.4 423.702 2892.51 421.993C2891.64 420.261 2891.1 418.233 2890.87 415.909H2896.88C2897.16 417.778 2897.71 419.35 2898.53 420.626C2899.35 421.902 2900.42 422.87 2901.74 423.531C2903.08 424.169 2904.64 424.488 2906.42 424.488C2907.92 424.488 2909.26 424.226 2910.42 423.702C2911.58 423.178 2912.56 422.426 2913.36 421.446C2914.16 420.466 2914.76 419.282 2915.17 417.892C2915.6 416.502 2915.82 414.941 2915.82 413.209C2915.82 411.637 2915.6 410.178 2915.17 408.834C2914.74 407.49 2914.09 406.316 2913.22 405.313C2912.38 404.311 2911.34 403.536 2910.11 402.989C2908.88 402.42 2907.47 402.135 2905.87 402.135C2903.75 402.135 2902.15 402.42 2901.05 402.989C2899.98 403.559 2898.88 404.334 2897.74 405.313Z" fill="black"/>
<path d="M1953.01 406.49C1953.01 410.55 1951.61 413.933 1948.81 416.64C1946.06 419.3 1941.83 420.63 1936.14 420.63H1926.76V441H1920.39V392.21H1936.14C1941.65 392.21 1945.82 393.54 1948.67 396.2C1951.56 398.86 1953.01 402.29 1953.01 406.49ZM1936.14 415.38C1939.69 415.38 1942.3 414.61 1943.98 413.07C1945.66 411.53 1946.5 409.337 1946.5 406.49C1946.5 400.47 1943.05 397.46 1936.14 397.46H1926.76V415.38H1936.14ZM1958.55 421.68C1958.55 417.76 1959.34 414.33 1960.93 411.39C1962.51 408.403 1964.68 406.093 1967.44 404.46C1970.24 402.827 1973.34 402.01 1976.75 402.01C1980.11 402.01 1983.02 402.733 1985.5 404.18C1987.97 405.627 1989.81 407.447 1991.03 409.64V402.64H1997.47V441H1991.03V433.86C1989.77 436.1 1987.88 437.967 1985.36 439.46C1982.88 440.907 1979.99 441.63 1976.68 441.63C1973.27 441.63 1970.19 440.79 1967.44 439.11C1964.68 437.43 1962.51 435.073 1960.93 432.04C1959.34 429.007 1958.55 425.553 1958.55 421.68ZM1991.03 421.75C1991.03 418.857 1990.44 416.337 1989.28 414.19C1988.11 412.043 1986.52 410.41 1984.52 409.29C1982.56 408.123 1980.39 407.54 1978.01 407.54C1975.63 407.54 1973.46 408.1 1971.5 409.22C1969.54 410.34 1967.97 411.973 1966.81 414.12C1965.64 416.267 1965.06 418.787 1965.06 421.68C1965.06 424.62 1965.64 427.187 1966.81 429.38C1967.97 431.527 1969.54 433.183 1971.5 434.35C1973.46 435.47 1975.63 436.03 1978.01 436.03C1980.39 436.03 1982.56 435.47 1984.52 434.35C1986.52 433.183 1988.11 431.527 1989.28 429.38C1990.44 427.187 1991.03 424.643 1991.03 421.75ZM2026.92 401.94C2031.59 401.94 2035.37 403.363 2038.26 406.21C2041.16 409.01 2042.6 413.07 2042.6 418.39V441H2036.3V419.3C2036.3 415.473 2035.35 412.557 2033.43 410.55C2031.52 408.497 2028.91 407.47 2025.59 407.47C2022.23 407.47 2019.55 408.52 2017.54 410.62C2015.58 412.72 2014.6 415.777 2014.6 419.79V441H2008.23V402.64H2014.6V408.1C2015.86 406.14 2017.57 404.623 2019.71 403.55C2021.91 402.477 2024.31 401.94 2026.92 401.94ZM2085.25 441.63C2082.31 441.63 2079.67 441.14 2077.34 440.16C2075.01 439.133 2073.16 437.733 2071.81 435.96C2070.46 434.14 2069.71 432.063 2069.57 429.73H2076.15C2076.34 431.643 2077.22 433.207 2078.81 434.42C2080.44 435.633 2082.57 436.24 2085.18 436.24C2087.61 436.24 2089.52 435.703 2090.92 434.63C2092.32 433.557 2093.02 432.203 2093.02 430.57C2093.02 428.89 2092.27 427.653 2090.78 426.86C2089.29 426.02 2086.98 425.203 2083.85 424.41C2081 423.663 2078.67 422.917 2076.85 422.17C2075.08 421.377 2073.54 420.233 2072.23 418.74C2070.97 417.2 2070.34 415.193 2070.34 412.72C2070.34 410.76 2070.92 408.963 2072.09 407.33C2073.26 405.697 2074.91 404.413 2077.06 403.48C2079.21 402.5 2081.66 402.01 2084.41 402.01C2088.66 402.01 2092.09 403.083 2094.7 405.23C2097.31 407.377 2098.71 410.317 2098.9 414.05H2092.53C2092.39 412.043 2091.57 410.433 2090.08 409.22C2088.63 408.007 2086.67 407.4 2084.2 407.4C2081.91 407.4 2080.09 407.89 2078.74 408.87C2077.39 409.85 2076.71 411.133 2076.71 412.72C2076.71 413.98 2077.11 415.03 2077.9 415.87C2078.74 416.663 2079.77 417.317 2080.98 417.83C2082.24 418.297 2083.97 418.833 2086.16 419.44C2088.91 420.187 2091.15 420.933 2092.88 421.68C2094.61 422.38 2096.08 423.453 2097.29 424.9C2098.55 426.347 2099.2 428.237 2099.25 430.57C2099.25 432.67 2098.67 434.56 2097.5 436.24C2096.33 437.92 2094.68 439.25 2092.53 440.23C2090.43 441.163 2088 441.63 2085.25 441.63ZM2127.28 401.94C2130.17 401.94 2132.79 402.57 2135.12 403.83C2137.45 405.043 2139.27 406.887 2140.58 409.36C2141.93 411.833 2142.61 414.843 2142.61 418.39V441H2136.31V419.3C2136.31 415.473 2135.35 412.557 2133.44 410.55C2131.53 408.497 2128.91 407.47 2125.6 407.47C2122.24 407.47 2119.56 408.52 2117.55 410.62C2115.59 412.72 2114.61 415.777 2114.61 419.79V441H2108.24V389.2H2114.61V408.1C2115.87 406.14 2117.6 404.623 2119.79 403.55C2122.03 402.477 2124.53 401.94 2127.28 401.94ZM2169.75 441.63C2166.15 441.63 2162.89 440.813 2159.95 439.18C2157.05 437.547 2154.77 435.237 2153.09 432.25C2151.45 429.217 2150.64 425.717 2150.64 421.75C2150.64 417.83 2151.48 414.377 2153.16 411.39C2154.88 408.357 2157.22 406.047 2160.16 404.46C2163.1 402.827 2166.39 402.01 2170.03 402.01C2173.67 402.01 2176.96 402.827 2179.9 404.46C2182.84 406.047 2185.15 408.333 2186.83 411.32C2188.55 414.307 2189.42 417.783 2189.42 421.75C2189.42 425.717 2188.53 429.217 2186.76 432.25C2185.03 435.237 2182.67 437.547 2179.69 439.18C2176.7 440.813 2173.39 441.63 2169.75 441.63ZM2169.75 436.03C2172.03 436.03 2174.18 435.493 2176.19 434.42C2178.19 433.347 2179.8 431.737 2181.02 429.59C2182.28 427.443 2182.91 424.83 2182.91 421.75C2182.91 418.67 2182.3 416.057 2181.09 413.91C2179.87 411.763 2178.29 410.177 2176.33 409.15C2174.37 408.077 2172.24 407.54 2169.96 407.54C2167.62 407.54 2165.48 408.077 2163.52 409.15C2161.6 410.177 2160.06 411.763 2158.9 413.91C2157.73 416.057 2157.15 418.67 2157.15 421.75C2157.15 424.877 2157.71 427.513 2158.83 429.66C2159.99 431.807 2161.53 433.417 2163.45 434.49C2165.36 435.517 2167.46 436.03 2169.75 436.03ZM2204.16 409.71C2205.42 407.517 2207.29 405.697 2209.76 404.25C2212.28 402.757 2215.2 402.01 2218.51 402.01C2221.92 402.01 2225 402.827 2227.75 404.46C2230.55 406.093 2232.75 408.403 2234.33 411.39C2235.92 414.33 2236.71 417.76 2236.71 421.68C2236.71 425.553 2235.92 429.007 2234.33 432.04C2232.75 435.073 2230.55 437.43 2227.75 439.11C2225 440.79 2221.92 441.63 2218.51 441.63C2215.25 441.63 2212.35 440.907 2209.83 439.46C2207.36 437.967 2205.47 436.123 2204.16 433.93V459.2H2197.79V402.64H2204.16V409.71ZM2230.2 421.68C2230.2 418.787 2229.62 416.267 2228.45 414.12C2227.29 411.973 2225.7 410.34 2223.69 409.22C2221.73 408.1 2219.56 407.54 2217.18 407.54C2214.85 407.54 2212.68 408.123 2210.67 409.29C2208.71 410.41 2207.13 412.067 2205.91 414.26C2204.75 416.407 2204.16 418.903 2204.16 421.75C2204.16 424.643 2204.75 427.187 2205.91 429.38C2207.13 431.527 2208.71 433.183 2210.67 434.35C2212.68 435.47 2214.85 436.03 2217.18 436.03C2219.56 436.03 2221.73 435.47 2223.69 434.35C2225.7 433.183 2227.29 431.527 2228.45 429.38C2229.62 427.187 2230.2 424.62 2230.2 421.68Z" fill="black"/>
<circle cx="1852.5" cy="558.5" r="12.5" fill="#FFC533"/>
<path d="M2844.76 533.402L2843.19 538.803H2811.47L2813.04 533.402H2844.76ZM2830.54 571L2812.46 549.877L2812.43 545.639H2820.77C2823.18 545.639 2825.18 545.24 2826.75 544.442C2828.34 543.622 2829.54 542.517 2830.34 541.127C2831.13 539.737 2831.53 538.176 2831.53 536.444C2831.53 534.507 2831.16 532.81 2830.41 531.352C2829.65 529.87 2828.47 528.72 2826.85 527.899C2825.26 527.056 2823.16 526.635 2820.56 526.635H2811.54L2813.14 521.234H2820.56C2824.53 521.234 2827.8 521.838 2830.37 523.046C2832.97 524.231 2834.91 525.963 2836.18 528.241C2837.46 530.52 2838.1 533.277 2838.1 536.513C2838.1 539.293 2837.56 541.788 2836.49 543.998C2835.44 546.186 2833.7 547.906 2831.26 549.159C2828.84 550.412 2825.59 551.039 2821.48 551.039L2838.3 570.59V571H2830.54ZM2844.76 521.234L2843.19 526.635H2817.62L2819.19 521.234H2844.76ZM2881.74 557.533C2881.74 560.564 2881.04 563.139 2879.62 565.258C2878.23 567.354 2876.34 568.949 2873.95 570.043C2871.58 571.137 2868.9 571.684 2865.92 571.684C2862.93 571.684 2860.24 571.137 2857.85 570.043C2855.46 568.949 2853.57 567.354 2852.18 565.258C2850.79 563.139 2850.09 560.564 2850.09 557.533C2850.09 555.551 2850.47 553.739 2851.22 552.099C2852 550.435 2853.08 548.988 2854.47 547.758C2855.88 546.527 2857.54 545.582 2859.46 544.921C2861.39 544.237 2863.53 543.896 2865.85 543.896C2868.9 543.896 2871.63 544.488 2874.02 545.673C2876.41 546.835 2878.29 548.441 2879.66 550.492C2881.05 552.543 2881.74 554.89 2881.74 557.533ZM2875.39 557.396C2875.39 555.551 2874.99 553.922 2874.19 552.509C2873.39 551.073 2872.28 549.957 2870.84 549.159C2869.4 548.362 2867.74 547.963 2865.85 547.963C2863.91 547.963 2862.24 548.362 2860.83 549.159C2859.44 549.957 2858.35 551.073 2857.58 552.509C2856.8 553.922 2856.42 555.551 2856.42 557.396C2856.42 559.311 2856.79 560.951 2857.54 562.318C2858.32 563.663 2859.41 564.7 2860.83 565.429C2862.26 566.135 2863.96 566.488 2865.92 566.488C2867.88 566.488 2869.56 566.135 2870.98 565.429C2872.39 564.7 2873.47 563.663 2874.22 562.318C2875 560.951 2875.39 559.311 2875.39 557.396ZM2880.58 534.188C2880.58 536.604 2879.94 538.78 2878.67 540.717C2877.39 542.654 2875.65 544.18 2873.44 545.297C2871.23 546.413 2868.72 546.972 2865.92 546.972C2863.07 546.972 2860.53 546.413 2858.3 545.297C2856.09 544.18 2854.35 542.654 2853.1 540.717C2851.85 538.78 2851.22 536.604 2851.22 534.188C2851.22 531.295 2851.85 528.834 2853.1 526.806C2854.38 524.778 2856.12 523.228 2858.33 522.157C2860.54 521.086 2863.06 520.551 2865.88 520.551C2868.73 520.551 2871.26 521.086 2873.47 522.157C2875.68 523.228 2877.41 524.778 2878.67 526.806C2879.94 528.834 2880.58 531.295 2880.58 534.188ZM2874.26 534.291C2874.26 532.628 2873.9 531.158 2873.2 529.882C2872.49 528.606 2871.51 527.603 2870.26 526.874C2869.01 526.122 2867.55 525.746 2865.88 525.746C2864.22 525.746 2862.76 526.099 2861.51 526.806C2860.28 527.489 2859.31 528.469 2858.6 529.745C2857.92 531.021 2857.58 532.536 2857.58 534.291C2857.58 536 2857.92 537.493 2858.6 538.769C2859.31 540.045 2860.29 541.036 2861.54 541.742C2862.8 542.449 2864.25 542.802 2865.92 542.802C2867.58 542.802 2869.03 542.449 2870.26 541.742C2871.51 541.036 2872.49 540.045 2873.2 538.769C2873.9 537.493 2874.26 536 2874.26 534.291ZM2920.98 542.152V549.74C2920.98 553.819 2920.62 557.26 2919.89 560.062C2919.16 562.865 2918.11 565.121 2916.74 566.83C2915.38 568.539 2913.72 569.781 2911.79 570.556C2909.87 571.308 2907.71 571.684 2905.29 571.684C2903.38 571.684 2901.61 571.444 2900 570.966C2898.38 570.487 2896.92 569.724 2895.62 568.676C2894.34 567.605 2893.25 566.215 2892.34 564.506C2891.43 562.797 2890.73 560.723 2890.25 558.285C2889.78 555.847 2889.54 552.999 2889.54 549.74V542.152C2889.54 538.074 2889.9 534.656 2890.63 531.898C2891.38 529.141 2892.44 526.931 2893.81 525.268C2895.18 523.581 2896.82 522.374 2898.73 521.645C2900.67 520.915 2902.83 520.551 2905.22 520.551C2907.16 520.551 2908.94 520.79 2910.56 521.269C2912.2 521.724 2913.66 522.465 2914.93 523.49C2916.21 524.493 2917.29 525.837 2918.18 527.523C2919.09 529.187 2919.79 531.226 2920.26 533.642C2920.74 536.057 2920.98 538.894 2920.98 542.152ZM2914.62 550.766V541.093C2914.62 538.86 2914.49 536.9 2914.21 535.214C2913.96 533.505 2913.59 532.047 2913.09 530.839C2912.58 529.631 2911.95 528.651 2911.17 527.899C2910.42 527.147 2909.54 526.601 2908.54 526.259C2907.56 525.894 2906.46 525.712 2905.22 525.712C2903.72 525.712 2902.39 525.997 2901.23 526.566C2900.06 527.113 2899.08 527.991 2898.29 529.198C2897.51 530.406 2896.92 531.99 2896.51 533.949C2896.1 535.909 2895.89 538.29 2895.89 541.093V550.766C2895.89 552.999 2896.02 554.97 2896.27 556.679C2896.54 558.388 2896.94 559.869 2897.47 561.122C2897.99 562.353 2898.63 563.367 2899.38 564.164C2900.13 564.962 2901 565.554 2901.98 565.941C2902.98 566.306 2904.09 566.488 2905.29 566.488C2906.84 566.488 2908.2 566.192 2909.36 565.6C2910.52 565.007 2911.49 564.084 2912.27 562.831C2913.06 561.555 2913.66 559.926 2914.04 557.943C2914.43 555.938 2914.62 553.546 2914.62 550.766Z" fill="black"/>
<path d="M1947.97 534.21V539.39H1926.76V555.84H1943.98V561.02H1926.76V583H1920.39V534.21H1947.97ZM1962.03 550.87C1963.15 548.677 1964.74 546.973 1966.79 545.76C1968.89 544.547 1971.44 543.94 1974.42 543.94V550.52H1972.74C1965.6 550.52 1962.03 554.393 1962.03 562.14V583H1955.66V544.64H1962.03V550.87ZM2015.8 544.64V583H2009.43V577.33C2008.21 579.29 2006.51 580.83 2004.32 581.95C2002.17 583.023 1999.79 583.56 1997.18 583.56C1994.19 583.56 1991.51 582.953 1989.13 581.74C1986.75 580.48 1984.86 578.613 1983.46 576.14C1982.1 573.667 1981.43 570.657 1981.43 567.11V544.64H1987.73V566.27C1987.73 570.05 1988.68 572.967 1990.6 575.02C1992.51 577.027 1995.12 578.03 1998.44 578.03C2001.84 578.03 2004.53 576.98 2006.49 574.88C2008.45 572.78 2009.43 569.723 2009.43 565.71V544.64H2015.8ZM2029.84 538.41C2028.63 538.41 2027.6 537.99 2026.76 537.15C2025.92 536.31 2025.5 535.283 2025.5 534.07C2025.5 532.857 2025.92 531.83 2026.76 530.99C2027.6 530.15 2028.63 529.73 2029.84 529.73C2031.01 529.73 2031.99 530.15 2032.78 530.99C2033.62 531.83 2034.04 532.857 2034.04 534.07C2034.04 535.283 2033.62 536.31 2032.78 537.15C2031.99 537.99 2031.01 538.41 2029.84 538.41ZM2032.92 544.64V583H2026.55V544.64H2032.92ZM2051.55 549.89V572.5C2051.55 574.367 2051.95 575.697 2052.74 576.49C2053.53 577.237 2054.91 577.61 2056.87 577.61H2061.56V583H2055.82C2052.27 583 2049.61 582.183 2047.84 580.55C2046.07 578.917 2045.18 576.233 2045.18 572.5V549.89H2040.21V544.64H2045.18V534.98H2051.55V544.64H2061.56V549.89H2051.55ZM2082.86 583.63C2079.92 583.63 2077.28 583.14 2074.95 582.16C2072.61 581.133 2070.77 579.733 2069.42 577.96C2068.06 576.14 2067.32 574.063 2067.18 571.73H2073.76C2073.94 573.643 2074.83 575.207 2076.42 576.42C2078.05 577.633 2080.17 578.24 2082.79 578.24C2085.21 578.24 2087.13 577.703 2088.53 576.63C2089.93 575.557 2090.63 574.203 2090.63 572.57C2090.63 570.89 2089.88 569.653 2088.39 568.86C2086.89 568.02 2084.58 567.203 2081.46 566.41C2078.61 565.663 2076.28 564.917 2074.46 564.17C2072.68 563.377 2071.14 562.233 2069.84 560.74C2068.58 559.2 2067.95 557.193 2067.95 554.72C2067.95 552.76 2068.53 550.963 2069.7 549.33C2070.86 547.697 2072.52 546.413 2074.67 545.48C2076.81 544.5 2079.26 544.01 2082.02 544.01C2086.26 544.01 2089.69 545.083 2092.31 547.23C2094.92 549.377 2096.32 552.317 2096.51 556.05H2090.14C2090 554.043 2089.18 552.433 2087.69 551.22C2086.24 550.007 2084.28 549.4 2081.81 549.4C2079.52 549.4 2077.7 549.89 2076.35 550.87C2074.99 551.85 2074.32 553.133 2074.32 554.72C2074.32 555.98 2074.71 557.03 2075.51 557.87C2076.35 558.663 2077.37 559.317 2078.59 559.83C2079.85 560.297 2081.57 560.833 2083.77 561.44C2086.52 562.187 2088.76 562.933 2090.49 563.68C2092.21 564.38 2093.68 565.453 2094.9 566.9C2096.16 568.347 2096.81 570.237 2096.86 572.57C2096.86 574.67 2096.27 576.56 2095.11 578.24C2093.94 579.92 2092.28 581.25 2090.14 582.23C2088.04 583.163 2085.61 583.63 2082.86 583.63ZM2161.96 583L2155.59 576.56C2153.21 579.033 2150.67 580.877 2147.96 582.09C2145.25 583.257 2142.2 583.84 2138.79 583.84C2135.43 583.84 2132.44 583.233 2129.83 582.02C2127.26 580.807 2125.26 579.08 2123.81 576.84C2122.41 574.6 2121.71 571.987 2121.71 569C2121.71 565.593 2122.67 562.607 2124.58 560.04C2126.54 557.427 2129.41 555.373 2133.19 553.88C2131.7 552.107 2130.62 550.473 2129.97 548.98C2129.32 547.487 2128.99 545.853 2128.99 544.08C2128.99 542.027 2129.5 540.183 2130.53 538.55C2131.6 536.87 2133.12 535.563 2135.08 534.63C2137.04 533.697 2139.3 533.23 2141.87 533.23C2144.39 533.23 2146.58 533.72 2148.45 534.7C2150.32 535.68 2151.72 537.057 2152.65 538.83C2153.58 540.557 2154 542.493 2153.91 544.64H2147.54C2147.59 542.727 2147.05 541.233 2145.93 540.16C2144.81 539.04 2143.36 538.48 2141.59 538.48C2139.72 538.48 2138.21 539.017 2137.04 540.09C2135.92 541.117 2135.36 542.447 2135.36 544.08C2135.36 545.48 2135.73 546.833 2136.48 548.14C2137.27 549.447 2138.58 551.057 2140.4 552.97L2154.96 567.6L2156.22 565.64L2160.98 557.66H2167.84L2162.1 567.6C2161.31 569 2160.37 570.47 2159.3 572.01L2170.29 583H2161.96ZM2138.79 578.38C2141.31 578.38 2143.57 577.89 2145.58 576.91C2147.63 575.93 2149.57 574.413 2151.39 572.36L2137.04 557.94C2131.07 560.227 2128.08 563.843 2128.08 568.79C2128.08 571.543 2129.06 573.83 2131.02 575.65C2133.03 577.47 2135.62 578.38 2138.79 578.38ZM2235.24 534.21L2216.83 583H2209.48L2191.07 534.21H2197.86L2213.19 576.28L2228.52 534.21H2235.24ZM2277.23 562.35C2277.23 563.563 2277.16 564.847 2277.02 566.2H2246.36C2246.59 569.98 2247.87 572.943 2250.21 575.09C2252.59 577.19 2255.46 578.24 2258.82 578.24C2261.57 578.24 2263.86 577.61 2265.68 576.35C2267.54 575.043 2268.85 573.317 2269.6 571.17H2276.46C2275.43 574.857 2273.38 577.867 2270.3 580.2C2267.22 582.487 2263.39 583.63 2258.82 583.63C2255.18 583.63 2251.91 582.813 2249.02 581.18C2246.17 579.547 2243.93 577.237 2242.3 574.25C2240.66 571.217 2239.85 567.717 2239.85 563.75C2239.85 559.783 2240.64 556.307 2242.23 553.32C2243.81 550.333 2246.03 548.047 2248.88 546.46C2251.77 544.827 2255.08 544.01 2258.82 544.01C2262.46 544.01 2265.68 544.803 2268.48 546.39C2271.28 547.977 2273.42 550.17 2274.92 552.97C2276.46 555.723 2277.23 558.85 2277.23 562.35ZM2270.65 561.02C2270.65 558.593 2270.11 556.517 2269.04 554.79C2267.96 553.017 2266.49 551.687 2264.63 550.8C2262.81 549.867 2260.78 549.4 2258.54 549.4C2255.32 549.4 2252.56 550.427 2250.28 552.48C2248.04 554.533 2246.75 557.38 2246.43 561.02H2270.65ZM2301.45 544.01C2304.77 544.01 2307.66 544.733 2310.13 546.18C2312.65 547.627 2314.52 549.447 2315.73 551.64V544.64H2322.17V583.84C2322.17 587.34 2321.43 590.443 2319.93 593.15C2318.44 595.903 2316.29 598.05 2313.49 599.59C2310.74 601.13 2307.52 601.9 2303.83 601.9C2298.79 601.9 2294.59 600.71 2291.23 598.33C2287.87 595.95 2285.89 592.707 2285.28 588.6H2291.58C2292.28 590.933 2293.73 592.8 2295.92 594.2C2298.12 595.647 2300.75 596.37 2303.83 596.37C2307.33 596.37 2310.18 595.273 2312.37 593.08C2314.61 590.887 2315.73 587.807 2315.73 583.84V575.79C2314.47 578.03 2312.61 579.897 2310.13 581.39C2307.66 582.883 2304.77 583.63 2301.45 583.63C2298.05 583.63 2294.94 582.79 2292.14 581.11C2289.39 579.43 2287.22 577.073 2285.63 574.04C2284.05 571.007 2283.25 567.553 2283.25 563.68C2283.25 559.76 2284.05 556.33 2285.63 553.39C2287.22 550.403 2289.39 548.093 2292.14 546.46C2294.94 544.827 2298.05 544.01 2301.45 544.01ZM2315.73 563.75C2315.73 560.857 2315.15 558.337 2313.98 556.19C2312.82 554.043 2311.23 552.41 2309.22 551.29C2307.26 550.123 2305.09 549.54 2302.71 549.54C2300.33 549.54 2298.16 550.1 2296.2 551.22C2294.24 552.34 2292.68 553.973 2291.51 556.12C2290.35 558.267 2289.76 560.787 2289.76 563.68C2289.76 566.62 2290.35 569.187 2291.51 571.38C2292.68 573.527 2294.24 575.183 2296.2 576.35C2298.16 577.47 2300.33 578.03 2302.71 578.03C2305.09 578.03 2307.26 577.47 2309.22 576.35C2311.23 575.183 2312.82 573.527 2313.98 571.38C2315.15 569.187 2315.73 566.643 2315.73 563.75Z" fill="black"/>
<circle cx="1852.5" cy="700.5" r="12.5" fill="#FFC533"/>
<path d="M2844.76 675.402L2843.19 680.803H2811.47L2813.04 675.402H2844.76ZM2830.54 713L2812.46 691.877L2812.43 687.639H2820.77C2823.18 687.639 2825.18 687.24 2826.75 686.442C2828.34 685.622 2829.54 684.517 2830.34 683.127C2831.13 681.737 2831.53 680.176 2831.53 678.444C2831.53 676.507 2831.16 674.81 2830.41 673.352C2829.65 671.87 2828.47 670.72 2826.85 669.899C2825.26 669.056 2823.16 668.635 2820.56 668.635H2811.54L2813.14 663.234H2820.56C2824.53 663.234 2827.8 663.838 2830.37 665.046C2832.97 666.231 2834.91 667.963 2836.18 670.241C2837.46 672.52 2838.1 675.277 2838.1 678.513C2838.1 681.293 2837.56 683.788 2836.49 685.998C2835.44 688.186 2833.7 689.906 2831.26 691.159C2828.84 692.412 2825.59 693.039 2821.48 693.039L2838.3 712.59V713H2830.54ZM2844.76 663.234L2843.19 668.635H2817.62L2819.19 663.234H2844.76ZM2884 696.252V701.447H2848.04V697.722L2870.33 663.234H2875.49L2869.95 673.215L2855.22 696.252H2884ZM2877.06 663.234V713H2870.74V663.234H2877.06ZM2897.74 689.313L2892.68 688.015L2895.18 663.234H2920.71V669.079H2900.54L2899.04 682.614C2899.95 682.09 2901.1 681.6 2902.49 681.145C2903.9 680.689 2905.52 680.461 2907.34 680.461C2909.65 680.461 2911.71 680.86 2913.53 681.657C2915.35 682.432 2916.9 683.549 2918.18 685.007C2919.48 686.465 2920.47 688.22 2921.15 690.271C2921.84 692.321 2922.18 694.611 2922.18 697.141C2922.18 699.533 2921.85 701.732 2921.19 703.737C2920.55 705.743 2919.58 707.497 2918.28 709.001C2916.98 710.482 2915.34 711.633 2913.36 712.453C2911.4 713.273 2909.09 713.684 2906.42 713.684C2904.42 713.684 2902.51 713.41 2900.71 712.863C2898.94 712.294 2897.34 711.439 2895.93 710.3C2894.54 709.138 2893.4 707.702 2892.51 705.993C2891.64 704.261 2891.1 702.233 2890.87 699.909H2896.88C2897.16 701.778 2897.71 703.35 2898.53 704.626C2899.35 705.902 2900.42 706.87 2901.74 707.531C2903.08 708.169 2904.64 708.488 2906.42 708.488C2907.92 708.488 2909.26 708.226 2910.42 707.702C2911.58 707.178 2912.56 706.426 2913.36 705.446C2914.16 704.466 2914.76 703.282 2915.17 701.892C2915.6 700.502 2915.82 698.941 2915.82 697.209C2915.82 695.637 2915.6 694.178 2915.17 692.834C2914.74 691.49 2914.09 690.316 2913.22 689.313C2912.38 688.311 2911.34 687.536 2910.11 686.989C2908.88 686.42 2907.47 686.135 2905.87 686.135C2903.75 686.135 2902.15 686.42 2901.05 686.989C2899.98 687.559 2898.88 688.334 2897.74 689.313Z" fill="black"/>
<path d="M1946.08 725L1934.46 705.05H1926.76V725H1920.39V676.21H1936.14C1939.83 676.21 1942.93 676.84 1945.45 678.1C1948.02 679.36 1949.93 681.063 1951.19 683.21C1952.45 685.357 1953.08 687.807 1953.08 690.56C1953.08 693.92 1952.1 696.883 1950.14 699.45C1948.23 702.017 1945.33 703.72 1941.46 704.56L1953.71 725H1946.08ZM1926.76 699.94H1936.14C1939.59 699.94 1942.18 699.1 1943.91 697.42C1945.64 695.693 1946.5 693.407 1946.5 690.56C1946.5 687.667 1945.64 685.427 1943.91 683.84C1942.23 682.253 1939.64 681.46 1936.14 681.46H1926.76V699.94ZM1997.98 704.35C1997.98 705.563 1997.91 706.847 1997.77 708.2H1967.11C1967.34 711.98 1968.62 714.943 1970.96 717.09C1973.34 719.19 1976.21 720.24 1979.57 720.24C1982.32 720.24 1984.61 719.61 1986.43 718.35C1988.29 717.043 1989.6 715.317 1990.35 713.17H1997.21C1996.18 716.857 1994.13 719.867 1991.05 722.2C1987.97 724.487 1984.14 725.63 1979.57 725.63C1975.93 725.63 1972.66 724.813 1969.77 723.18C1966.92 721.547 1964.68 719.237 1963.05 716.25C1961.41 713.217 1960.6 709.717 1960.6 705.75C1960.6 701.783 1961.39 698.307 1962.98 695.32C1964.56 692.333 1966.78 690.047 1969.63 688.46C1972.52 686.827 1975.83 686.01 1979.57 686.01C1983.21 686.01 1986.43 686.803 1989.23 688.39C1992.03 689.977 1994.17 692.17 1995.67 694.97C1997.21 697.723 1997.98 700.85 1997.98 704.35ZM1991.4 703.02C1991.4 700.593 1990.86 698.517 1989.79 696.79C1988.71 695.017 1987.24 693.687 1985.38 692.8C1983.56 691.867 1981.53 691.4 1979.29 691.4C1976.07 691.4 1973.31 692.427 1971.03 694.48C1968.79 696.533 1967.5 699.38 1967.18 703.02H1991.4ZM2019.97 725.63C2017.03 725.63 2014.39 725.14 2012.06 724.16C2009.72 723.133 2007.88 721.733 2006.53 719.96C2005.17 718.14 2004.43 716.063 2004.29 713.73H2010.87C2011.05 715.643 2011.94 717.207 2013.53 718.42C2015.16 719.633 2017.28 720.24 2019.9 720.24C2022.32 720.24 2024.24 719.703 2025.64 718.63C2027.04 717.557 2027.74 716.203 2027.74 714.57C2027.74 712.89 2026.99 711.653 2025.5 710.86C2024 710.02 2021.69 709.203 2018.57 708.41C2015.72 707.663 2013.39 706.917 2011.57 706.17C2009.79 705.377 2008.25 704.233 2006.95 702.74C2005.69 701.2 2005.06 699.193 2005.06 696.72C2005.06 694.76 2005.64 692.963 2006.81 691.33C2007.97 689.697 2009.63 688.413 2011.78 687.48C2013.92 686.5 2016.37 686.01 2019.13 686.01C2023.37 686.01 2026.8 687.083 2029.42 689.23C2032.03 691.377 2033.43 694.317 2033.62 698.05H2027.25C2027.11 696.043 2026.29 694.433 2024.8 693.22C2023.35 692.007 2021.39 691.4 2018.92 691.4C2016.63 691.4 2014.81 691.89 2013.46 692.87C2012.1 693.85 2011.43 695.133 2011.43 696.72C2011.43 697.98 2011.82 699.03 2012.62 699.87C2013.46 700.663 2014.48 701.317 2015.7 701.83C2016.96 702.297 2018.68 702.833 2020.88 703.44C2023.63 704.187 2025.87 704.933 2027.6 705.68C2029.32 706.38 2030.79 707.453 2032.01 708.9C2033.27 710.347 2033.92 712.237 2033.97 714.57C2033.97 716.67 2033.38 718.56 2032.22 720.24C2031.05 721.92 2029.39 723.25 2027.25 724.23C2025.15 725.163 2022.72 725.63 2019.97 725.63ZM2050.73 691.89V714.5C2050.73 716.367 2051.13 717.697 2051.92 718.49C2052.71 719.237 2054.09 719.61 2056.05 719.61H2060.74V725H2055C2051.45 725 2048.79 724.183 2047.02 722.55C2045.25 720.917 2044.36 718.233 2044.36 714.5V691.89H2039.39V686.64H2044.36V676.98H2050.73V686.64H2060.74V691.89H2050.73ZM2066.08 705.68C2066.08 701.76 2066.87 698.33 2068.46 695.39C2070.04 692.403 2072.21 690.093 2074.97 688.46C2077.77 686.827 2080.87 686.01 2084.28 686.01C2087.64 686.01 2090.55 686.733 2093.03 688.18C2095.5 689.627 2097.34 691.447 2098.56 693.64V686.64H2105V725H2098.56V717.86C2097.3 720.1 2095.41 721.967 2092.89 723.46C2090.41 724.907 2087.52 725.63 2084.21 725.63C2080.8 725.63 2077.72 724.79 2074.97 723.11C2072.21 721.43 2070.04 719.073 2068.46 716.04C2066.87 713.007 2066.08 709.553 2066.08 705.68ZM2098.56 705.75C2098.56 702.857 2097.97 700.337 2096.81 698.19C2095.64 696.043 2094.05 694.41 2092.05 693.29C2090.09 692.123 2087.92 691.54 2085.54 691.54C2083.16 691.54 2080.99 692.1 2079.03 693.22C2077.07 694.34 2075.5 695.973 2074.34 698.12C2073.17 700.267 2072.59 702.787 2072.59 705.68C2072.59 708.62 2073.17 711.187 2074.34 713.38C2075.5 715.527 2077.07 717.183 2079.03 718.35C2080.99 719.47 2083.16 720.03 2085.54 720.03C2087.92 720.03 2090.09 719.47 2092.05 718.35C2094.05 717.183 2095.64 715.527 2096.81 713.38C2097.97 711.187 2098.56 708.643 2098.56 705.75ZM2149.78 686.64V725H2143.41V719.33C2142.2 721.29 2140.49 722.83 2138.3 723.95C2136.15 725.023 2133.77 725.56 2131.16 725.56C2128.17 725.56 2125.49 724.953 2123.11 723.74C2120.73 722.48 2118.84 720.613 2117.44 718.14C2116.09 715.667 2115.41 712.657 2115.41 709.11V686.64H2121.71V708.27C2121.71 712.05 2122.67 714.967 2124.58 717.02C2126.49 719.027 2129.11 720.03 2132.42 720.03C2135.83 720.03 2138.51 718.98 2140.47 716.88C2142.43 714.78 2143.41 711.723 2143.41 707.71V686.64H2149.78ZM2166.91 692.87C2168.03 690.677 2169.61 688.973 2171.67 687.76C2173.77 686.547 2176.31 685.94 2179.3 685.94V692.52H2177.62C2170.48 692.52 2166.91 696.393 2166.91 704.14V725H2160.54V686.64H2166.91V692.87ZM2184.27 705.68C2184.27 701.76 2185.06 698.33 2186.65 695.39C2188.24 692.403 2190.41 690.093 2193.16 688.46C2195.96 686.827 2199.06 686.01 2202.47 686.01C2205.83 686.01 2208.75 686.733 2211.22 688.18C2213.69 689.627 2215.54 691.447 2216.75 693.64V686.64H2223.19V725H2216.75V717.86C2215.49 720.1 2213.6 721.967 2211.08 723.46C2208.61 724.907 2205.71 725.63 2202.4 725.63C2198.99 725.63 2195.91 724.79 2193.16 723.11C2190.41 721.43 2188.24 719.073 2186.65 716.04C2185.06 713.007 2184.27 709.553 2184.27 705.68ZM2216.75 705.75C2216.75 702.857 2216.17 700.337 2215 698.19C2213.83 696.043 2212.25 694.41 2210.24 693.29C2208.28 692.123 2206.11 691.54 2203.73 691.54C2201.35 691.54 2199.18 692.1 2197.22 693.22C2195.26 694.34 2193.7 695.973 2192.53 698.12C2191.36 700.267 2190.78 702.787 2190.78 705.68C2190.78 708.62 2191.36 711.187 2192.53 713.38C2193.7 715.527 2195.26 717.183 2197.22 718.35C2199.18 719.47 2201.35 720.03 2203.73 720.03C2206.11 720.03 2208.28 719.47 2210.24 718.35C2212.25 717.183 2213.83 715.527 2215 713.38C2216.17 711.187 2216.75 708.643 2216.75 705.75ZM2252.64 685.94C2257.31 685.94 2261.09 687.363 2263.98 690.21C2266.88 693.01 2268.32 697.07 2268.32 702.39V725H2262.02V703.3C2262.02 699.473 2261.07 696.557 2259.15 694.55C2257.24 692.497 2254.63 691.47 2251.31 691.47C2247.95 691.47 2245.27 692.52 2243.26 694.62C2241.3 696.72 2240.32 699.777 2240.32 703.79V725H2233.95V686.64H2240.32V692.1C2241.58 690.14 2243.29 688.623 2245.43 687.55C2247.63 686.477 2250.03 685.94 2252.64 685.94ZM2286.5 691.89V714.5C2286.5 716.367 2286.9 717.697 2287.69 718.49C2288.48 719.237 2289.86 719.61 2291.82 719.61H2296.51V725H2290.77C2287.22 725 2284.56 724.183 2282.79 722.55C2281.02 720.917 2280.13 718.233 2280.13 714.5V691.89H2275.16V686.64H2280.13V676.98H2286.5V686.64H2296.51V691.89H2286.5Z" fill="black"/>
<circle cx="1852.5" cy="842.5" r="12.5" fill="#FFC533"/>
<path d="M2844.76 817.402L2843.19 822.803H2811.47L2813.04 817.402H2844.76ZM2830.54 855L2812.46 833.877L2812.43 829.639H2820.77C2823.18 829.639 2825.18 829.24 2826.75 828.442C2828.34 827.622 2829.54 826.517 2830.34 825.127C2831.13 823.737 2831.53 822.176 2831.53 820.444C2831.53 818.507 2831.16 816.81 2830.41 815.352C2829.65 813.87 2828.47 812.72 2826.85 811.899C2825.26 811.056 2823.16 810.635 2820.56 810.635H2811.54L2813.14 805.234H2820.56C2824.53 805.234 2827.8 805.838 2830.37 807.046C2832.97 808.231 2834.91 809.963 2836.18 812.241C2837.46 814.52 2838.1 817.277 2838.1 820.513C2838.1 823.293 2837.56 825.788 2836.49 827.998C2835.44 830.186 2833.7 831.906 2831.26 833.159C2828.84 834.412 2825.59 835.039 2821.48 835.039L2838.3 854.59V855H2830.54ZM2844.76 805.234L2843.19 810.635H2817.62L2819.19 805.234H2844.76ZM2858.36 831.313L2853.31 830.015L2855.8 805.234H2881.33V811.079H2861.17L2859.66 824.614C2860.57 824.09 2861.73 823.6 2863.12 823.145C2864.53 822.689 2866.15 822.461 2867.97 822.461C2870.27 822.461 2872.33 822.86 2874.16 823.657C2875.98 824.432 2877.53 825.549 2878.8 827.007C2880.1 828.465 2881.09 830.22 2881.78 832.271C2882.46 834.321 2882.8 836.611 2882.8 839.141C2882.8 841.533 2882.47 843.732 2881.81 845.737C2881.17 847.743 2880.21 849.497 2878.91 851.001C2877.61 852.482 2875.97 853.633 2873.98 854.453C2872.02 855.273 2869.71 855.684 2867.05 855.684C2865.04 855.684 2863.14 855.41 2861.34 854.863C2859.56 854.294 2857.97 853.439 2856.55 852.3C2855.16 851.138 2854.02 849.702 2853.13 847.993C2852.27 846.261 2851.72 844.233 2851.49 841.909H2857.51C2857.78 843.778 2858.33 845.35 2859.15 846.626C2859.97 847.902 2861.04 848.87 2862.36 849.531C2863.71 850.169 2865.27 850.488 2867.05 850.488C2868.55 850.488 2869.88 850.226 2871.04 849.702C2872.21 849.178 2873.19 848.426 2873.98 847.446C2874.78 846.466 2875.39 845.282 2875.8 843.892C2876.23 842.502 2876.45 840.941 2876.45 839.209C2876.45 837.637 2876.23 836.178 2875.8 834.834C2875.36 833.49 2874.71 832.316 2873.85 831.313C2873 830.311 2871.97 829.536 2870.74 828.989C2869.51 828.42 2868.09 828.135 2866.5 828.135C2864.38 828.135 2862.77 828.42 2861.68 828.989C2860.61 829.559 2859.5 830.334 2858.36 831.313ZM2920.98 826.152V833.74C2920.98 837.819 2920.62 841.26 2919.89 844.062C2919.16 846.865 2918.11 849.121 2916.74 850.83C2915.38 852.539 2913.72 853.781 2911.79 854.556C2909.87 855.308 2907.71 855.684 2905.29 855.684C2903.38 855.684 2901.61 855.444 2900 854.966C2898.38 854.487 2896.92 853.724 2895.62 852.676C2894.34 851.605 2893.25 850.215 2892.34 848.506C2891.43 846.797 2890.73 844.723 2890.25 842.285C2889.78 839.847 2889.54 836.999 2889.54 833.74V826.152C2889.54 822.074 2889.9 818.656 2890.63 815.898C2891.38 813.141 2892.44 810.931 2893.81 809.268C2895.18 807.581 2896.82 806.374 2898.73 805.645C2900.67 804.915 2902.83 804.551 2905.22 804.551C2907.16 804.551 2908.94 804.79 2910.56 805.269C2912.2 805.724 2913.66 806.465 2914.93 807.49C2916.21 808.493 2917.29 809.837 2918.18 811.523C2919.09 813.187 2919.79 815.226 2920.26 817.642C2920.74 820.057 2920.98 822.894 2920.98 826.152ZM2914.62 834.766V825.093C2914.62 822.86 2914.49 820.9 2914.21 819.214C2913.96 817.505 2913.59 816.047 2913.09 814.839C2912.58 813.631 2911.95 812.651 2911.17 811.899C2910.42 811.147 2909.54 810.601 2908.54 810.259C2907.56 809.894 2906.46 809.712 2905.22 809.712C2903.72 809.712 2902.39 809.997 2901.23 810.566C2900.06 811.113 2899.08 811.991 2898.29 813.198C2897.51 814.406 2896.92 815.99 2896.51 817.949C2896.1 819.909 2895.89 822.29 2895.89 825.093V834.766C2895.89 836.999 2896.02 838.97 2896.27 840.679C2896.54 842.388 2896.94 843.869 2897.47 845.122C2897.99 846.353 2898.63 847.367 2899.38 848.164C2900.13 848.962 2901 849.554 2901.98 849.941C2902.98 850.306 2904.09 850.488 2905.29 850.488C2906.84 850.488 2908.2 850.192 2909.36 849.6C2910.52 849.007 2911.49 848.084 2912.27 846.831C2913.06 845.555 2913.66 843.926 2914.04 841.943C2914.43 839.938 2914.62 837.546 2914.62 834.766Z" fill="black"/>
<path d="M1953.01 832.49C1953.01 836.55 1951.61 839.933 1948.81 842.64C1946.06 845.3 1941.83 846.63 1936.14 846.63H1926.76V867H1920.39V818.21H1936.14C1941.65 818.21 1945.82 819.54 1948.67 822.2C1951.56 824.86 1953.01 828.29 1953.01 832.49ZM1936.14 841.38C1939.69 841.38 1942.3 840.61 1943.98 839.07C1945.66 837.53 1946.5 835.337 1946.5 832.49C1946.5 826.47 1943.05 823.46 1936.14 823.46H1926.76V841.38H1936.14ZM1979.97 827.94C1982.86 827.94 1985.47 828.57 1987.81 829.83C1990.14 831.043 1991.96 832.887 1993.27 835.36C1994.62 837.833 1995.3 840.843 1995.3 844.39V867H1989V845.3C1989 841.473 1988.04 838.557 1986.13 836.55C1984.21 834.497 1981.6 833.47 1978.29 833.47C1974.93 833.47 1972.24 834.52 1970.24 836.62C1968.28 838.72 1967.3 841.777 1967.3 845.79V867H1960.93V815.2H1967.3V834.1C1968.56 832.14 1970.28 830.623 1972.48 829.55C1974.72 828.477 1977.21 827.94 1979.97 827.94ZM2003.32 847.68C2003.32 843.76 2004.12 840.33 2005.7 837.39C2007.29 834.403 2009.46 832.093 2012.21 830.46C2015.01 828.827 2018.12 828.01 2021.52 828.01C2024.88 828.01 2027.8 828.733 2030.27 830.18C2032.75 831.627 2034.59 833.447 2035.8 835.64V828.64H2042.24V867H2035.8V859.86C2034.54 862.1 2032.65 863.967 2030.13 865.46C2027.66 866.907 2024.77 867.63 2021.45 867.63C2018.05 867.63 2014.97 866.79 2012.21 865.11C2009.46 863.43 2007.29 861.073 2005.7 858.04C2004.12 855.007 2003.32 851.553 2003.32 847.68ZM2035.8 847.75C2035.8 844.857 2035.22 842.337 2034.05 840.19C2032.89 838.043 2031.3 836.41 2029.29 835.29C2027.33 834.123 2025.16 833.54 2022.78 833.54C2020.4 833.54 2018.23 834.1 2016.27 835.22C2014.31 836.34 2012.75 837.973 2011.58 840.12C2010.42 842.267 2009.83 844.787 2009.83 847.68C2009.83 850.62 2010.42 853.187 2011.58 855.38C2012.75 857.527 2014.31 859.183 2016.27 860.35C2018.23 861.47 2020.4 862.03 2022.78 862.03C2025.16 862.03 2027.33 861.47 2029.29 860.35C2031.3 859.183 2032.89 857.527 2034.05 855.38C2035.22 853.187 2035.8 850.643 2035.8 847.75ZM2059.38 834.87C2060.5 832.677 2062.08 830.973 2064.14 829.76C2066.24 828.547 2068.78 827.94 2071.77 827.94V834.52H2070.09C2062.95 834.52 2059.38 838.393 2059.38 846.14V867H2053.01V828.64H2059.38V834.87ZM2125.25 827.94C2128.24 827.94 2130.9 828.57 2133.23 829.83C2135.56 831.043 2137.41 832.887 2138.76 835.36C2140.11 837.833 2140.79 840.843 2140.79 844.39V867H2134.49V845.3C2134.49 841.473 2133.53 838.557 2131.62 836.55C2129.75 834.497 2127.21 833.47 2123.99 833.47C2120.68 833.47 2118.04 834.543 2116.08 836.69C2114.12 838.79 2113.14 841.847 2113.14 845.86V867H2106.84V845.3C2106.84 841.473 2105.88 838.557 2103.97 836.55C2102.1 834.497 2099.56 833.47 2096.34 833.47C2093.03 833.47 2090.39 834.543 2088.43 836.69C2086.47 838.79 2085.49 841.847 2085.49 845.86V867H2079.12V828.64H2085.49V834.17C2086.75 832.163 2088.43 830.623 2090.53 829.55C2092.68 828.477 2095.03 827.94 2097.6 827.94C2100.82 827.94 2103.67 828.663 2106.14 830.11C2108.61 831.557 2110.46 833.68 2111.67 836.48C2112.74 833.773 2114.52 831.673 2116.99 830.18C2119.46 828.687 2122.22 827.94 2125.25 827.94ZM2148.86 847.68C2148.86 843.76 2149.65 840.33 2151.24 837.39C2152.83 834.403 2155 832.093 2157.75 830.46C2160.55 828.827 2163.65 828.01 2167.06 828.01C2170.42 828.01 2173.34 828.733 2175.81 830.18C2178.28 831.627 2180.13 833.447 2181.34 835.64V828.64H2187.78V867H2181.34V859.86C2180.08 862.1 2178.19 863.967 2175.67 865.46C2173.2 866.907 2170.3 867.63 2166.99 867.63C2163.58 867.63 2160.5 866.79 2157.75 865.11C2155 863.43 2152.83 861.073 2151.24 858.04C2149.65 855.007 2148.86 851.553 2148.86 847.68ZM2181.34 847.75C2181.34 844.857 2180.76 842.337 2179.59 840.19C2178.42 838.043 2176.84 836.41 2174.83 835.29C2172.87 834.123 2170.7 833.54 2168.32 833.54C2165.94 833.54 2163.77 834.1 2161.81 835.22C2159.85 836.34 2158.29 837.973 2157.12 840.12C2155.95 842.267 2155.37 844.787 2155.37 847.68C2155.37 850.62 2155.95 853.187 2157.12 855.38C2158.29 857.527 2159.85 859.183 2161.81 860.35C2163.77 861.47 2165.94 862.03 2168.32 862.03C2170.7 862.03 2172.87 861.47 2174.83 860.35C2176.84 859.183 2178.42 857.527 2179.59 855.38C2180.76 853.187 2181.34 850.643 2181.34 847.75ZM2196.16 847.75C2196.16 843.783 2196.96 840.33 2198.54 837.39C2200.13 834.403 2202.32 832.093 2205.12 830.46C2207.97 828.827 2211.21 828.01 2214.85 828.01C2219.57 828.01 2223.44 829.153 2226.47 831.44C2229.55 833.727 2231.58 836.9 2232.56 840.96H2225.7C2225.05 838.627 2223.77 836.783 2221.85 835.43C2219.99 834.077 2217.65 833.4 2214.85 833.4C2211.21 833.4 2208.27 834.66 2206.03 837.18C2203.79 839.653 2202.67 843.177 2202.67 847.75C2202.67 852.37 2203.79 855.94 2206.03 858.46C2208.27 860.98 2211.21 862.24 2214.85 862.24C2217.65 862.24 2219.99 861.587 2221.85 860.28C2223.72 858.973 2225 857.107 2225.7 854.68H2232.56C2231.54 858.6 2229.48 861.75 2226.4 864.13C2223.32 866.463 2219.47 867.63 2214.85 867.63C2211.21 867.63 2207.97 866.813 2205.12 865.18C2202.32 863.547 2200.13 861.237 2198.54 858.25C2196.96 855.263 2196.16 851.763 2196.16 847.75ZM2274.1 828.64L2251 885.06H2244.42L2251.98 866.58L2236.51 828.64H2243.58L2255.62 859.72L2267.52 828.64H2274.1Z" fill="black"/>
<circle cx="1852.5" cy="984.5" r="12.5" fill="#FFC533"/>
<path d="M2844.76 959.402L2843.19 964.803H2811.47L2813.04 959.402H2844.76ZM2830.54 997L2812.46 975.877L2812.43 971.639H2820.77C2823.18 971.639 2825.18 971.24 2826.75 970.442C2828.34 969.622 2829.54 968.517 2830.34 967.127C2831.13 965.737 2831.53 964.176 2831.53 962.444C2831.53 960.507 2831.16 958.81 2830.41 957.352C2829.65 955.87 2828.47 954.72 2826.85 953.899C2825.26 953.056 2823.16 952.635 2820.56 952.635H2811.54L2813.14 947.234H2820.56C2824.53 947.234 2827.8 947.838 2830.37 949.046C2832.97 950.231 2834.91 951.963 2836.18 954.241C2837.46 956.52 2838.1 959.277 2838.1 962.513C2838.1 965.293 2837.56 967.788 2836.49 969.998C2835.44 972.186 2833.7 973.906 2831.26 975.159C2828.84 976.412 2825.59 977.039 2821.48 977.039L2838.3 996.59V997H2830.54ZM2844.76 947.234L2843.19 952.635H2817.62L2819.19 947.234H2844.76ZM2874.63 947.166H2875.18V952.532H2874.63C2871.28 952.532 2868.48 953.079 2866.23 954.173C2863.97 955.244 2862.18 956.691 2860.86 958.514C2859.54 960.314 2858.58 962.342 2857.99 964.598C2857.42 966.854 2857.13 969.144 2857.13 971.468V978.782C2857.13 980.993 2857.4 982.952 2857.92 984.661C2858.44 986.347 2859.16 987.771 2860.07 988.934C2860.98 990.096 2862.01 990.973 2863.15 991.565C2864.31 992.158 2865.52 992.454 2866.77 992.454C2868.23 992.454 2869.53 992.181 2870.67 991.634C2871.81 991.064 2872.77 990.278 2873.54 989.275C2874.34 988.25 2874.94 987.042 2875.35 985.652C2875.76 984.262 2875.97 982.736 2875.97 981.072C2875.97 979.591 2875.78 978.167 2875.42 976.8C2875.06 975.41 2874.5 974.179 2873.75 973.108C2872.99 972.015 2872.05 971.16 2870.91 970.545C2869.79 969.907 2868.46 969.588 2866.91 969.588C2865.15 969.588 2863.51 970.021 2861.99 970.887C2860.48 971.73 2859.24 972.846 2858.26 974.236C2857.3 975.604 2856.76 977.096 2856.62 978.714L2853.27 978.68C2853.59 976.128 2854.18 973.951 2855.05 972.151C2855.94 970.328 2857.03 968.847 2858.33 967.708C2859.65 966.546 2861.12 965.703 2862.74 965.179C2864.38 964.632 2866.11 964.358 2867.93 964.358C2870.42 964.358 2872.56 964.826 2874.36 965.76C2876.16 966.694 2877.64 967.947 2878.8 969.52C2879.97 971.069 2880.82 972.824 2881.37 974.783C2881.94 976.72 2882.22 978.714 2882.22 980.765C2882.22 983.112 2881.89 985.311 2881.23 987.361C2880.57 989.412 2879.58 991.212 2878.26 992.762C2876.96 994.311 2875.35 995.519 2873.44 996.385C2871.52 997.251 2869.3 997.684 2866.77 997.684C2864.08 997.684 2861.74 997.137 2859.73 996.043C2857.73 994.926 2856.06 993.445 2854.74 991.6C2853.42 989.754 2852.43 987.703 2851.77 985.447C2851.11 983.191 2850.78 980.901 2850.78 978.577V975.604C2850.78 972.094 2851.13 968.654 2851.84 965.281C2852.54 961.909 2853.76 958.855 2855.49 956.121C2857.25 953.387 2859.67 951.211 2862.77 949.593C2865.87 947.975 2869.83 947.166 2874.63 947.166ZM2920.98 968.152V975.74C2920.98 979.819 2920.62 983.26 2919.89 986.062C2919.16 988.865 2918.11 991.121 2916.74 992.83C2915.38 994.539 2913.72 995.781 2911.79 996.556C2909.87 997.308 2907.71 997.684 2905.29 997.684C2903.38 997.684 2901.61 997.444 2900 996.966C2898.38 996.487 2896.92 995.724 2895.62 994.676C2894.34 993.605 2893.25 992.215 2892.34 990.506C2891.43 988.797 2890.73 986.723 2890.25 984.285C2889.78 981.847 2889.54 978.999 2889.54 975.74V968.152C2889.54 964.074 2889.9 960.656 2890.63 957.898C2891.38 955.141 2892.44 952.931 2893.81 951.268C2895.18 949.581 2896.82 948.374 2898.73 947.645C2900.67 946.915 2902.83 946.551 2905.22 946.551C2907.16 946.551 2908.94 946.79 2910.56 947.269C2912.2 947.724 2913.66 948.465 2914.93 949.49C2916.21 950.493 2917.29 951.837 2918.18 953.523C2919.09 955.187 2919.79 957.226 2920.26 959.642C2920.74 962.057 2920.98 964.894 2920.98 968.152ZM2914.62 976.766V967.093C2914.62 964.86 2914.49 962.9 2914.21 961.214C2913.96 959.505 2913.59 958.047 2913.09 956.839C2912.58 955.631 2911.95 954.651 2911.17 953.899C2910.42 953.147 2909.54 952.601 2908.54 952.259C2907.56 951.894 2906.46 951.712 2905.22 951.712C2903.72 951.712 2902.39 951.997 2901.23 952.566C2900.06 953.113 2899.08 953.991 2898.29 955.198C2897.51 956.406 2896.92 957.99 2896.51 959.949C2896.1 961.909 2895.89 964.29 2895.89 967.093V976.766C2895.89 978.999 2896.02 980.97 2896.27 982.679C2896.54 984.388 2896.94 985.869 2897.47 987.122C2897.99 988.353 2898.63 989.367 2899.38 990.164C2900.13 990.962 2901 991.554 2901.98 991.941C2902.98 992.306 2904.09 992.488 2905.29 992.488C2906.84 992.488 2908.2 992.192 2909.36 991.6C2910.52 991.007 2911.49 990.084 2912.27 988.831C2913.06 987.555 2913.66 985.926 2914.04 983.943C2914.43 981.938 2914.62 979.546 2914.62 976.766Z" fill="black"/>
<path d="M1969.88 960.56V1009H1963.51V972.88L1947.41 1009H1942.93L1926.76 972.81V1009H1920.39V960.56H1927.25L1945.17 1000.6L1963.09 960.56H1969.88ZM2015.68 988.35C2015.68 989.563 2015.61 990.847 2015.47 992.2H1984.81C1985.05 995.98 1986.33 998.943 1988.66 1001.09C1991.04 1003.19 1993.91 1004.24 1997.27 1004.24C2000.03 1004.24 2002.31 1003.61 2004.13 1002.35C2006 1001.04 2007.31 999.317 2008.05 997.17H2014.91C2013.89 1000.86 2011.83 1003.87 2008.75 1006.2C2005.67 1008.49 2001.85 1009.63 1997.27 1009.63C1993.63 1009.63 1990.37 1008.81 1987.47 1007.18C1984.63 1005.55 1982.39 1003.24 1980.75 1000.25C1979.12 997.217 1978.3 993.717 1978.3 989.75C1978.3 985.783 1979.1 982.307 1980.68 979.32C1982.27 976.333 1984.49 974.047 1987.33 972.46C1990.23 970.827 1993.54 970.01 1997.27 970.01C2000.91 970.01 2004.13 970.803 2006.93 972.39C2009.73 973.977 2011.88 976.17 2013.37 978.97C2014.91 981.723 2015.68 984.85 2015.68 988.35ZM2009.1 987.02C2009.1 984.593 2008.57 982.517 2007.49 980.79C2006.42 979.017 2004.95 977.687 2003.08 976.8C2001.26 975.867 1999.23 975.4 1996.99 975.4C1993.77 975.4 1991.02 976.427 1988.73 978.48C1986.49 980.533 1985.21 983.38 1984.88 987.02H2009.1ZM2021.71 989.68C2021.71 985.76 2022.5 982.33 2024.09 979.39C2025.68 976.403 2027.85 974.093 2030.6 972.46C2033.4 970.827 2036.5 970.01 2039.91 970.01C2043.27 970.01 2046.19 970.733 2048.66 972.18C2051.13 973.627 2052.98 975.447 2054.19 977.64V970.64H2060.63V1009H2054.19V1001.86C2052.93 1004.1 2051.04 1005.97 2048.52 1007.46C2046.05 1008.91 2043.15 1009.63 2039.84 1009.63C2036.43 1009.63 2033.35 1008.79 2030.6 1007.11C2027.85 1005.43 2025.68 1003.07 2024.09 1000.04C2022.5 997.007 2021.71 993.553 2021.71 989.68ZM2054.19 989.75C2054.19 986.857 2053.61 984.337 2052.44 982.19C2051.27 980.043 2049.69 978.41 2047.68 977.29C2045.72 976.123 2043.55 975.54 2041.17 975.54C2038.79 975.54 2036.62 976.1 2034.66 977.22C2032.7 978.34 2031.14 979.973 2029.97 982.12C2028.8 984.267 2028.22 986.787 2028.22 989.68C2028.22 992.62 2028.8 995.187 2029.97 997.38C2031.14 999.527 2032.7 1001.18 2034.66 1002.35C2036.62 1003.47 2038.79 1004.03 2041.17 1004.03C2043.55 1004.03 2045.72 1003.47 2047.68 1002.35C2049.69 1001.18 2051.27 999.527 2052.44 997.38C2053.61 995.187 2054.19 992.643 2054.19 989.75ZM2079.17 975.89V998.5C2079.17 1000.37 2079.56 1001.7 2080.36 1002.49C2081.15 1003.24 2082.53 1003.61 2084.49 1003.61H2089.18V1009H2083.44C2079.89 1009 2077.23 1008.18 2075.46 1006.55C2073.68 1004.92 2072.8 1002.23 2072.8 998.5V975.89H2067.83V970.64H2072.8V960.98H2079.17V970.64H2089.18V975.89H2079.17ZM2113.18 989.68C2113.18 985.76 2113.97 982.33 2115.56 979.39C2117.14 976.403 2119.31 974.093 2122.07 972.46C2124.87 970.827 2127.97 970.01 2131.38 970.01C2134.74 970.01 2137.65 970.733 2140.13 972.18C2142.6 973.627 2144.44 975.447 2145.66 977.64V970.64H2152.1V1009H2145.66V1001.86C2144.4 1004.1 2142.51 1005.97 2139.99 1007.46C2137.51 1008.91 2134.62 1009.63 2131.31 1009.63C2127.9 1009.63 2124.82 1008.79 2122.07 1007.11C2119.31 1005.43 2117.14 1003.07 2115.56 1000.04C2113.97 997.007 2113.18 993.553 2113.18 989.68ZM2145.66 989.75C2145.66 986.857 2145.07 984.337 2143.91 982.19C2142.74 980.043 2141.15 978.41 2139.15 977.29C2137.19 976.123 2135.02 975.54 2132.64 975.54C2130.26 975.54 2128.09 976.1 2126.13 977.22C2124.17 978.34 2122.6 979.973 2121.44 982.12C2120.27 984.267 2119.69 986.787 2119.69 989.68C2119.69 992.62 2120.27 995.187 2121.44 997.38C2122.6 999.527 2124.17 1001.18 2126.13 1002.35C2128.09 1003.47 2130.26 1004.03 2132.64 1004.03C2135.02 1004.03 2137.19 1003.47 2139.15 1002.35C2141.15 1001.18 2142.74 999.527 2143.91 997.38C2145.07 995.187 2145.66 992.643 2145.66 989.75ZM2181.55 969.94C2186.22 969.94 2190 971.363 2192.89 974.21C2195.78 977.01 2197.23 981.07 2197.23 986.39V1009H2190.93V987.3C2190.93 983.473 2189.97 980.557 2188.06 978.55C2186.15 976.497 2183.53 975.47 2180.22 975.47C2176.86 975.47 2174.18 976.52 2172.17 978.62C2170.21 980.72 2169.23 983.777 2169.23 987.79V1009H2162.86V970.64H2169.23V976.1C2170.49 974.14 2172.19 972.623 2174.34 971.55C2176.53 970.477 2178.94 969.94 2181.55 969.94ZM2205.26 989.68C2205.26 985.76 2206.05 982.33 2207.64 979.39C2209.22 976.403 2211.39 974.093 2214.15 972.46C2216.95 970.827 2220.07 970.01 2223.53 970.01C2226.51 970.01 2229.29 970.71 2231.86 972.11C2234.42 973.463 2236.38 975.26 2237.74 977.5V957.2H2244.18V1009H2237.74V1001.79C2236.48 1004.08 2234.61 1005.97 2232.14 1007.46C2229.66 1008.91 2226.77 1009.63 2223.46 1009.63C2220.05 1009.63 2216.95 1008.79 2214.15 1007.11C2211.39 1005.43 2209.22 1003.07 2207.64 1000.04C2206.05 997.007 2205.26 993.553 2205.26 989.68ZM2237.74 989.75C2237.74 986.857 2237.15 984.337 2235.99 982.19C2234.82 980.043 2233.23 978.41 2231.23 977.29C2229.27 976.123 2227.1 975.54 2224.72 975.54C2222.34 975.54 2220.17 976.1 2218.21 977.22C2216.25 978.34 2214.68 979.973 2213.52 982.12C2212.35 984.267 2211.77 986.787 2211.77 989.68C2211.77 992.62 2212.35 995.187 2213.52 997.38C2214.68 999.527 2216.25 1001.18 2218.21 1002.35C2220.17 1003.47 2222.34 1004.03 2224.72 1004.03C2227.1 1004.03 2229.27 1003.47 2231.23 1002.35C2233.23 1001.18 2234.82 999.527 2235.99 997.38C2237.15 995.187 2237.74 992.643 2237.74 989.75ZM2287.18 1009.63C2284.24 1009.63 2281.61 1009.14 2279.27 1008.16C2276.94 1007.13 2275.1 1005.73 2273.74 1003.96C2272.39 1002.14 2271.64 1000.06 2271.5 997.73H2278.08C2278.27 999.643 2279.16 1001.21 2280.74 1002.42C2282.38 1003.63 2284.5 1004.24 2287.11 1004.24C2289.54 1004.24 2291.45 1003.7 2292.85 1002.63C2294.25 1001.56 2294.95 1000.2 2294.95 998.57C2294.95 996.89 2294.21 995.653 2292.71 994.86C2291.22 994.02 2288.91 993.203 2285.78 992.41C2282.94 991.663 2280.6 990.917 2278.78 990.17C2277.01 989.377 2275.47 988.233 2274.16 986.74C2272.9 985.2 2272.27 983.193 2272.27 980.72C2272.27 978.76 2272.86 976.963 2274.02 975.33C2275.19 973.697 2276.85 972.413 2278.99 971.48C2281.14 970.5 2283.59 970.01 2286.34 970.01C2290.59 970.01 2294.02 971.083 2296.63 973.23C2299.25 975.377 2300.65 978.317 2300.83 982.05H2294.46C2294.32 980.043 2293.51 978.433 2292.01 977.22C2290.57 976.007 2288.61 975.4 2286.13 975.4C2283.85 975.4 2282.03 975.89 2280.67 976.87C2279.32 977.85 2278.64 979.133 2278.64 980.72C2278.64 981.98 2279.04 983.03 2279.83 983.87C2280.67 984.663 2281.7 985.317 2282.91 985.83C2284.17 986.297 2285.9 986.833 2288.09 987.44C2290.85 988.187 2293.09 988.933 2294.81 989.68C2296.54 990.38 2298.01 991.453 2299.22 992.9C2300.48 994.347 2301.14 996.237 2301.18 998.57C2301.18 1000.67 2300.6 1002.56 2299.43 1004.24C2298.27 1005.92 2296.61 1007.25 2294.46 1008.23C2292.36 1009.16 2289.94 1009.63 2287.18 1009.63ZM2345.18 988.35C2345.18 989.563 2345.11 990.847 2344.97 992.2H2314.31C2314.54 995.98 2315.82 998.943 2318.16 1001.09C2320.54 1003.19 2323.41 1004.24 2326.77 1004.24C2329.52 1004.24 2331.81 1003.61 2333.63 1002.35C2335.49 1001.04 2336.8 999.317 2337.55 997.17H2344.41C2343.38 1000.86 2341.33 1003.87 2338.25 1006.2C2335.17 1008.49 2331.34 1009.63 2326.77 1009.63C2323.13 1009.63 2319.86 1008.81 2316.97 1007.18C2314.12 1005.55 2311.88 1003.24 2310.25 1000.25C2308.61 997.217 2307.8 993.717 2307.8 989.75C2307.8 985.783 2308.59 982.307 2310.18 979.32C2311.76 976.333 2313.98 974.047 2316.83 972.46C2319.72 970.827 2323.03 970.01 2326.77 970.01C2330.41 970.01 2333.63 970.803 2336.43 972.39C2339.23 973.977 2341.37 976.17 2342.87 978.97C2344.41 981.723 2345.18 984.85 2345.18 988.35ZM2338.6 987.02C2338.6 984.593 2338.06 982.517 2336.99 980.79C2335.91 979.017 2334.44 977.687 2332.58 976.8C2330.76 975.867 2328.73 975.4 2326.49 975.4C2323.27 975.4 2320.51 976.427 2318.23 978.48C2315.99 980.533 2314.7 983.38 2314.38 987.02H2338.6ZM2351.2 989.68C2351.2 985.76 2352 982.33 2353.58 979.39C2355.17 976.403 2357.34 974.093 2360.09 972.46C2362.89 970.827 2366 970.01 2369.4 970.01C2372.76 970.01 2375.68 970.733 2378.15 972.18C2380.63 973.627 2382.47 975.447 2383.68 977.64V970.64H2390.12V1009H2383.68V1001.86C2382.42 1004.1 2380.53 1005.97 2378.01 1007.46C2375.54 1008.91 2372.65 1009.63 2369.33 1009.63C2365.93 1009.63 2362.85 1008.79 2360.09 1007.11C2357.34 1005.43 2355.17 1003.07 2353.58 1000.04C2352 997.007 2351.2 993.553 2351.2 989.68ZM2383.68 989.75C2383.68 986.857 2383.1 984.337 2381.93 982.19C2380.77 980.043 2379.18 978.41 2377.17 977.29C2375.21 976.123 2373.04 975.54 2370.66 975.54C2368.28 975.54 2366.11 976.1 2364.15 977.22C2362.19 978.34 2360.63 979.973 2359.46 982.12C2358.3 984.267 2357.71 986.787 2357.71 989.68C2357.71 992.62 2358.3 995.187 2359.46 997.38C2360.63 999.527 2362.19 1001.18 2364.15 1002.35C2366.11 1003.47 2368.28 1004.03 2370.66 1004.03C2373.04 1004.03 2375.21 1003.47 2377.17 1002.35C2379.18 1001.18 2380.77 999.527 2381.93 997.38C2383.1 995.187 2383.68 992.643 2383.68 989.75ZM2435.16 975.89H2427.11V1009H2420.74V975.89H2415.77V970.64H2420.74V967.91C2420.74 963.617 2421.84 960.49 2424.03 958.53C2426.27 956.523 2429.84 955.52 2434.74 955.52V960.84C2431.94 960.84 2429.96 961.4 2428.79 962.52C2427.67 963.593 2427.11 965.39 2427.11 967.91V970.64H2435.16V975.89ZM2459.32 1009.63C2455.72 1009.63 2452.46 1008.81 2449.52 1007.18C2446.62 1005.55 2444.34 1003.24 2442.66 1000.25C2441.02 997.217 2440.21 993.717 2440.21 989.75C2440.21 985.83 2441.05 982.377 2442.73 979.39C2444.45 976.357 2446.79 974.047 2449.73 972.46C2452.67 970.827 2455.96 970.01 2459.6 970.01C2463.24 970.01 2466.53 970.827 2469.47 972.46C2472.41 974.047 2474.72 976.333 2476.4 979.32C2478.12 982.307 2478.99 985.783 2478.99 989.75C2478.99 993.717 2478.1 997.217 2476.33 1000.25C2474.6 1003.24 2472.24 1005.55 2469.26 1007.18C2466.27 1008.81 2462.96 1009.63 2459.32 1009.63ZM2459.32 1004.03C2461.6 1004.03 2463.75 1003.49 2465.76 1002.42C2467.76 1001.35 2469.37 999.737 2470.59 997.59C2471.85 995.443 2472.48 992.83 2472.48 989.75C2472.48 986.67 2471.87 984.057 2470.66 981.91C2469.44 979.763 2467.86 978.177 2465.9 977.15C2463.94 976.077 2461.81 975.54 2459.53 975.54C2457.19 975.54 2455.05 976.077 2453.09 977.15C2451.17 978.177 2449.63 979.763 2448.47 981.91C2447.3 984.057 2446.72 986.67 2446.72 989.75C2446.72 992.877 2447.28 995.513 2448.4 997.66C2449.56 999.807 2451.1 1001.42 2453.02 1002.49C2454.93 1003.52 2457.03 1004.03 2459.32 1004.03ZM2504.09 1009.63C2500.5 1009.63 2497.23 1008.81 2494.29 1007.18C2491.4 1005.55 2489.11 1003.24 2487.43 1000.25C2485.8 997.217 2484.98 993.717 2484.98 989.75C2484.98 985.83 2485.82 982.377 2487.5 979.39C2489.23 976.357 2491.56 974.047 2494.5 972.46C2497.44 970.827 2500.73 970.01 2504.37 970.01C2508.01 970.01 2511.3 970.827 2514.24 972.46C2517.18 974.047 2519.49 976.333 2521.17 979.32C2522.9 982.307 2523.76 985.783 2523.76 989.75C2523.76 993.717 2522.88 997.217 2521.1 1000.25C2519.38 1003.24 2517.02 1005.55 2514.03 1007.18C2511.05 1008.81 2507.73 1009.63 2504.09 1009.63ZM2504.09 1004.03C2506.38 1004.03 2508.53 1003.49 2510.53 1002.42C2512.54 1001.35 2514.15 999.737 2515.36 997.59C2516.62 995.443 2517.25 992.83 2517.25 989.75C2517.25 986.67 2516.65 984.057 2515.43 981.91C2514.22 979.763 2512.63 978.177 2510.67 977.15C2508.71 976.077 2506.59 975.54 2504.3 975.54C2501.97 975.54 2499.82 976.077 2497.86 977.15C2495.95 978.177 2494.41 979.763 2493.24 981.91C2492.08 984.057 2491.49 986.67 2491.49 989.75C2491.49 992.877 2492.05 995.513 2493.17 997.66C2494.34 999.807 2495.88 1001.42 2497.79 1002.49C2499.71 1003.52 2501.81 1004.03 2504.09 1004.03ZM2529.76 989.68C2529.76 985.76 2530.55 982.33 2532.14 979.39C2533.72 976.403 2535.89 974.093 2538.65 972.46C2541.45 970.827 2544.57 970.01 2548.03 970.01C2551.01 970.01 2553.79 970.71 2556.36 972.11C2558.92 973.463 2560.88 975.26 2562.24 977.5V957.2H2568.68V1009H2562.24V1001.79C2560.98 1004.08 2559.11 1005.97 2556.64 1007.46C2554.16 1008.91 2551.27 1009.63 2547.96 1009.63C2544.55 1009.63 2541.45 1008.79 2538.65 1007.11C2535.89 1005.43 2533.72 1003.07 2532.14 1000.04C2530.55 997.007 2529.76 993.553 2529.76 989.68ZM2562.24 989.75C2562.24 986.857 2561.65 984.337 2560.49 982.19C2559.32 980.043 2557.73 978.41 2555.73 977.29C2553.77 976.123 2551.6 975.54 2549.22 975.54C2546.84 975.54 2544.67 976.1 2542.71 977.22C2540.75 978.34 2539.18 979.973 2538.02 982.12C2536.85 984.267 2536.27 986.787 2536.27 989.68C2536.27 992.62 2536.85 995.187 2538.02 997.38C2539.18 999.527 2540.75 1001.18 2542.71 1002.35C2544.67 1003.47 2546.84 1004.03 2549.22 1004.03C2551.6 1004.03 2553.77 1003.47 2555.73 1002.35C2557.73 1001.18 2559.32 999.527 2560.49 997.38C2561.65 995.187 2562.24 992.643 2562.24 989.75Z" fill="black"/>
<circle cx="1852.5" cy="1126.5" r="12.5" fill="#FFC533"/>
<path d="M2844.76 1101.4L2843.19 1106.8H2811.47L2813.04 1101.4H2844.76ZM2830.54 1139L2812.46 1117.88L2812.43 1113.64H2820.77C2823.18 1113.64 2825.18 1113.24 2826.75 1112.44C2828.34 1111.62 2829.54 1110.52 2830.34 1109.13C2831.13 1107.74 2831.53 1106.18 2831.53 1104.44C2831.53 1102.51 2831.16 1100.81 2830.41 1099.35C2829.65 1097.87 2828.47 1096.72 2826.85 1095.9C2825.26 1095.06 2823.16 1094.63 2820.56 1094.63H2811.54L2813.14 1089.23H2820.56C2824.53 1089.23 2827.8 1089.84 2830.37 1091.05C2832.97 1092.23 2834.91 1093.96 2836.18 1096.24C2837.46 1098.52 2838.1 1101.28 2838.1 1104.51C2838.1 1107.29 2837.56 1109.79 2836.49 1112C2835.44 1114.19 2833.7 1115.91 2831.26 1117.16C2828.84 1118.41 2825.59 1119.04 2821.48 1119.04L2838.3 1138.59V1139H2830.54ZM2844.76 1089.23L2843.19 1094.63H2817.62L2819.19 1089.23H2844.76ZM2882.53 1089.23V1092.79L2861.92 1139H2855.25L2875.83 1094.43H2848.9V1089.23H2882.53ZM2920.98 1110.15V1117.74C2920.98 1121.82 2920.62 1125.26 2919.89 1128.06C2919.16 1130.87 2918.11 1133.12 2916.74 1134.83C2915.38 1136.54 2913.72 1137.78 2911.79 1138.56C2909.87 1139.31 2907.71 1139.68 2905.29 1139.68C2903.38 1139.68 2901.61 1139.44 2900 1138.97C2898.38 1138.49 2896.92 1137.72 2895.62 1136.68C2894.34 1135.6 2893.25 1134.21 2892.34 1132.51C2891.43 1130.8 2890.73 1128.72 2890.25 1126.29C2889.78 1123.85 2889.54 1121 2889.54 1117.74V1110.15C2889.54 1106.07 2889.9 1102.66 2890.63 1099.9C2891.38 1097.14 2892.44 1094.93 2893.81 1093.27C2895.18 1091.58 2896.82 1090.37 2898.73 1089.64C2900.67 1088.92 2902.83 1088.55 2905.22 1088.55C2907.16 1088.55 2908.94 1088.79 2910.56 1089.27C2912.2 1089.72 2913.66 1090.46 2914.93 1091.49C2916.21 1092.49 2917.29 1093.84 2918.18 1095.52C2919.09 1097.19 2919.79 1099.23 2920.26 1101.64C2920.74 1104.06 2920.98 1106.89 2920.98 1110.15ZM2914.62 1118.77V1109.09C2914.62 1106.86 2914.49 1104.9 2914.21 1103.21C2913.96 1101.5 2913.59 1100.05 2913.09 1098.84C2912.58 1097.63 2911.95 1096.65 2911.17 1095.9C2910.42 1095.15 2909.54 1094.6 2908.54 1094.26C2907.56 1093.89 2906.46 1093.71 2905.22 1093.71C2903.72 1093.71 2902.39 1094 2901.23 1094.57C2900.06 1095.11 2899.08 1095.99 2898.29 1097.2C2897.51 1098.41 2896.92 1099.99 2896.51 1101.95C2896.1 1103.91 2895.89 1106.29 2895.89 1109.09V1118.77C2895.89 1121 2896.02 1122.97 2896.27 1124.68C2896.54 1126.39 2896.94 1127.87 2897.47 1129.12C2897.99 1130.35 2898.63 1131.37 2899.38 1132.16C2900.13 1132.96 2901 1133.55 2901.98 1133.94C2902.98 1134.31 2904.09 1134.49 2905.29 1134.49C2906.84 1134.49 2908.2 1134.19 2909.36 1133.6C2910.52 1133.01 2911.49 1132.08 2912.27 1130.83C2913.06 1129.56 2913.66 1127.93 2914.04 1125.94C2914.43 1123.94 2914.62 1121.55 2914.62 1118.77Z" fill="black"/>
<path d="M1944.82 1125.87C1946.59 1126.15 1948.2 1126.87 1949.65 1128.04C1951.14 1129.21 1952.31 1130.65 1953.15 1132.38C1954.04 1134.11 1954.48 1135.95 1954.48 1137.91C1954.48 1140.38 1953.85 1142.62 1952.59 1144.63C1951.33 1146.59 1949.49 1148.15 1947.06 1149.32C1944.68 1150.44 1941.86 1151 1938.59 1151H1920.39V1102.21H1937.89C1941.2 1102.21 1944.03 1102.77 1946.36 1103.89C1948.69 1104.96 1950.44 1106.43 1951.61 1108.3C1952.78 1110.17 1953.36 1112.27 1953.36 1114.6C1953.36 1117.49 1952.57 1119.9 1950.98 1121.81C1949.44 1123.68 1947.39 1125.03 1944.82 1125.87ZM1926.76 1123.28H1937.47C1940.46 1123.28 1942.77 1122.58 1944.4 1121.18C1946.03 1119.78 1946.85 1117.84 1946.85 1115.37C1946.85 1112.9 1946.03 1110.96 1944.4 1109.56C1942.77 1108.16 1940.41 1107.46 1937.33 1107.46H1926.76V1123.28ZM1938.03 1145.75C1941.2 1145.75 1943.68 1145 1945.45 1143.51C1947.22 1142.02 1948.11 1139.94 1948.11 1137.28C1948.11 1134.57 1947.18 1132.45 1945.31 1130.91C1943.44 1129.32 1940.95 1128.53 1937.82 1128.53H1926.76V1145.75H1938.03ZM1980.05 1151.63C1976.46 1151.63 1973.19 1150.81 1970.25 1149.18C1967.36 1147.55 1965.07 1145.24 1963.39 1142.25C1961.76 1139.22 1960.94 1135.72 1960.94 1131.75C1960.94 1127.83 1961.78 1124.38 1963.46 1121.39C1965.19 1118.36 1967.52 1116.05 1970.46 1114.46C1973.4 1112.83 1976.69 1112.01 1980.33 1112.01C1983.97 1112.01 1987.26 1112.83 1990.2 1114.46C1993.14 1116.05 1995.45 1118.33 1997.13 1121.32C1998.86 1124.31 1999.72 1127.78 1999.72 1131.75C1999.72 1135.72 1998.83 1139.22 1997.06 1142.25C1995.33 1145.24 1992.98 1147.55 1989.99 1149.18C1987 1150.81 1983.69 1151.63 1980.05 1151.63ZM1980.05 1146.03C1982.34 1146.03 1984.48 1145.49 1986.49 1144.42C1988.5 1143.35 1990.11 1141.74 1991.32 1139.59C1992.58 1137.44 1993.21 1134.83 1993.21 1131.75C1993.21 1128.67 1992.6 1126.06 1991.39 1123.91C1990.18 1121.76 1988.59 1120.18 1986.63 1119.15C1984.67 1118.08 1982.55 1117.54 1980.26 1117.54C1977.93 1117.54 1975.78 1118.08 1973.82 1119.15C1971.91 1120.18 1970.37 1121.76 1969.2 1123.91C1968.03 1126.06 1967.45 1128.67 1967.45 1131.75C1967.45 1134.88 1968.01 1137.51 1969.13 1139.66C1970.3 1141.81 1971.84 1143.42 1973.75 1144.49C1975.66 1145.52 1977.76 1146.03 1980.05 1146.03ZM2024.83 1151.63C2021.23 1151.63 2017.97 1150.81 2015.03 1149.18C2012.13 1147.55 2009.85 1145.24 2008.17 1142.25C2006.53 1139.22 2005.72 1135.72 2005.72 1131.75C2005.72 1127.83 2006.56 1124.38 2008.24 1121.39C2009.96 1118.36 2012.3 1116.05 2015.24 1114.46C2018.18 1112.83 2021.47 1112.01 2025.11 1112.01C2028.75 1112.01 2032.04 1112.83 2034.98 1114.46C2037.92 1116.05 2040.23 1118.33 2041.91 1121.32C2043.63 1124.31 2044.5 1127.78 2044.5 1131.75C2044.5 1135.72 2043.61 1139.22 2041.84 1142.25C2040.11 1145.24 2037.75 1147.55 2034.77 1149.18C2031.78 1150.81 2028.47 1151.63 2024.83 1151.63ZM2024.83 1146.03C2027.11 1146.03 2029.26 1145.49 2031.27 1144.42C2033.27 1143.35 2034.88 1141.74 2036.1 1139.59C2037.36 1137.44 2037.99 1134.83 2037.99 1131.75C2037.99 1128.67 2037.38 1126.06 2036.17 1123.91C2034.95 1121.76 2033.37 1120.18 2031.41 1119.15C2029.45 1118.08 2027.32 1117.54 2025.04 1117.54C2022.7 1117.54 2020.56 1118.08 2018.6 1119.15C2016.68 1120.18 2015.14 1121.76 2013.98 1123.91C2012.81 1126.06 2012.23 1128.67 2012.23 1131.75C2012.23 1134.88 2012.79 1137.51 2013.91 1139.66C2015.07 1141.81 2016.61 1143.42 2018.53 1144.49C2020.44 1145.52 2022.54 1146.03 2024.83 1146.03ZM2074.29 1151L2059.24 1134.06V1151H2052.87V1099.2H2059.24V1129.65L2074.01 1112.64H2082.9L2064.84 1131.75L2082.97 1151H2074.29ZM2131.36 1085.06L2112.18 1162.9H2105.88L2124.99 1085.06H2131.36ZM2188.35 1140.15H2167.07L2163.15 1151H2156.43L2174.07 1102.49H2181.42L2198.99 1151H2192.27L2188.35 1140.15ZM2186.53 1134.97L2177.71 1110.33L2168.89 1134.97H2186.53ZM2213.05 1118.87C2214.17 1116.68 2215.76 1114.97 2217.81 1113.76C2219.91 1112.55 2222.45 1111.94 2225.44 1111.94V1118.52H2223.76C2216.62 1118.52 2213.05 1122.39 2213.05 1130.14V1151H2206.68V1112.64H2213.05V1118.87ZM2240.56 1117.89V1140.5C2240.56 1142.37 2240.96 1143.7 2241.75 1144.49C2242.55 1145.24 2243.92 1145.61 2245.88 1145.61H2250.57V1151H2244.83C2241.29 1151 2238.63 1150.18 2236.85 1148.55C2235.08 1146.92 2234.19 1144.23 2234.19 1140.5V1117.89H2229.22V1112.64H2234.19V1102.98H2240.56V1112.64H2250.57V1117.89H2240.56Z" fill="black"/>
<circle cx="1852.5" cy="1268.5" r="12.5" fill="#FFC533"/>
<path d="M2844.76 1243.4L2843.19 1248.8H2811.47L2813.04 1243.4H2844.76ZM2830.54 1281L2812.46 1259.88L2812.43 1255.64H2820.77C2823.18 1255.64 2825.18 1255.24 2826.75 1254.44C2828.34 1253.62 2829.54 1252.52 2830.34 1251.13C2831.13 1249.74 2831.53 1248.18 2831.53 1246.44C2831.53 1244.51 2831.16 1242.81 2830.41 1241.35C2829.65 1239.87 2828.47 1238.72 2826.85 1237.9C2825.26 1237.06 2823.16 1236.63 2820.56 1236.63H2811.54L2813.14 1231.23H2820.56C2824.53 1231.23 2827.8 1231.84 2830.37 1233.05C2832.97 1234.23 2834.91 1235.96 2836.18 1238.24C2837.46 1240.52 2838.1 1243.28 2838.1 1246.51C2838.1 1249.29 2837.56 1251.79 2836.49 1254C2835.44 1256.19 2833.7 1257.91 2831.26 1259.16C2828.84 1260.41 2825.59 1261.04 2821.48 1261.04L2838.3 1280.59V1281H2830.54ZM2844.76 1231.23L2843.19 1236.63H2817.62L2819.19 1231.23H2844.76ZM2881.74 1267.53C2881.74 1270.56 2881.04 1273.14 2879.62 1275.26C2878.23 1277.35 2876.34 1278.95 2873.95 1280.04C2871.58 1281.14 2868.9 1281.68 2865.92 1281.68C2862.93 1281.68 2860.24 1281.14 2857.85 1280.04C2855.46 1278.95 2853.57 1277.35 2852.18 1275.26C2850.79 1273.14 2850.09 1270.56 2850.09 1267.53C2850.09 1265.55 2850.47 1263.74 2851.22 1262.1C2852 1260.44 2853.08 1258.99 2854.47 1257.76C2855.88 1256.53 2857.54 1255.58 2859.46 1254.92C2861.39 1254.24 2863.53 1253.9 2865.85 1253.9C2868.9 1253.9 2871.63 1254.49 2874.02 1255.67C2876.41 1256.83 2878.29 1258.44 2879.66 1260.49C2881.05 1262.54 2881.74 1264.89 2881.74 1267.53ZM2875.39 1267.4C2875.39 1265.55 2874.99 1263.92 2874.19 1262.51C2873.39 1261.07 2872.28 1259.96 2870.84 1259.16C2869.4 1258.36 2867.74 1257.96 2865.85 1257.96C2863.91 1257.96 2862.24 1258.36 2860.83 1259.16C2859.44 1259.96 2858.35 1261.07 2857.58 1262.51C2856.8 1263.92 2856.42 1265.55 2856.42 1267.4C2856.42 1269.31 2856.79 1270.95 2857.54 1272.32C2858.32 1273.66 2859.41 1274.7 2860.83 1275.43C2862.26 1276.14 2863.96 1276.49 2865.92 1276.49C2867.88 1276.49 2869.56 1276.14 2870.98 1275.43C2872.39 1274.7 2873.47 1273.66 2874.22 1272.32C2875 1270.95 2875.39 1269.31 2875.39 1267.4ZM2880.58 1244.19C2880.58 1246.6 2879.94 1248.78 2878.67 1250.72C2877.39 1252.65 2875.65 1254.18 2873.44 1255.3C2871.23 1256.41 2868.72 1256.97 2865.92 1256.97C2863.07 1256.97 2860.53 1256.41 2858.3 1255.3C2856.09 1254.18 2854.35 1252.65 2853.1 1250.72C2851.85 1248.78 2851.22 1246.6 2851.22 1244.19C2851.22 1241.29 2851.85 1238.83 2853.1 1236.81C2854.38 1234.78 2856.12 1233.23 2858.33 1232.16C2860.54 1231.09 2863.06 1230.55 2865.88 1230.55C2868.73 1230.55 2871.26 1231.09 2873.47 1232.16C2875.68 1233.23 2877.41 1234.78 2878.67 1236.81C2879.94 1238.83 2880.58 1241.29 2880.58 1244.19ZM2874.26 1244.29C2874.26 1242.63 2873.9 1241.16 2873.2 1239.88C2872.49 1238.61 2871.51 1237.6 2870.26 1236.87C2869.01 1236.12 2867.55 1235.75 2865.88 1235.75C2864.22 1235.75 2862.76 1236.1 2861.51 1236.81C2860.28 1237.49 2859.31 1238.47 2858.6 1239.75C2857.92 1241.02 2857.58 1242.54 2857.58 1244.29C2857.58 1246 2857.92 1247.49 2858.6 1248.77C2859.31 1250.04 2860.29 1251.04 2861.54 1251.74C2862.8 1252.45 2864.25 1252.8 2865.92 1252.8C2867.58 1252.8 2869.03 1252.45 2870.26 1251.74C2871.51 1251.04 2872.49 1250.04 2873.2 1248.77C2873.9 1247.49 2874.26 1246 2874.26 1244.29ZM2920.98 1252.15V1259.74C2920.98 1263.82 2920.62 1267.26 2919.89 1270.06C2919.16 1272.87 2918.11 1275.12 2916.74 1276.83C2915.38 1278.54 2913.72 1279.78 2911.79 1280.56C2909.87 1281.31 2907.71 1281.68 2905.29 1281.68C2903.38 1281.68 2901.61 1281.44 2900 1280.97C2898.38 1280.49 2896.92 1279.72 2895.62 1278.68C2894.34 1277.6 2893.25 1276.21 2892.34 1274.51C2891.43 1272.8 2890.73 1270.72 2890.25 1268.29C2889.78 1265.85 2889.54 1263 2889.54 1259.74V1252.15C2889.54 1248.07 2889.9 1244.66 2890.63 1241.9C2891.38 1239.14 2892.44 1236.93 2893.81 1235.27C2895.18 1233.58 2896.82 1232.37 2898.73 1231.64C2900.67 1230.92 2902.83 1230.55 2905.22 1230.55C2907.16 1230.55 2908.94 1230.79 2910.56 1231.27C2912.2 1231.72 2913.66 1232.46 2914.93 1233.49C2916.21 1234.49 2917.29 1235.84 2918.18 1237.52C2919.09 1239.19 2919.79 1241.23 2920.26 1243.64C2920.74 1246.06 2920.98 1248.89 2920.98 1252.15ZM2914.62 1260.77V1251.09C2914.62 1248.86 2914.49 1246.9 2914.21 1245.21C2913.96 1243.5 2913.59 1242.05 2913.09 1240.84C2912.58 1239.63 2911.95 1238.65 2911.17 1237.9C2910.42 1237.15 2909.54 1236.6 2908.54 1236.26C2907.56 1235.89 2906.46 1235.71 2905.22 1235.71C2903.72 1235.71 2902.39 1236 2901.23 1236.57C2900.06 1237.11 2899.08 1237.99 2898.29 1239.2C2897.51 1240.41 2896.92 1241.99 2896.51 1243.95C2896.1 1245.91 2895.89 1248.29 2895.89 1251.09V1260.77C2895.89 1263 2896.02 1264.97 2896.27 1266.68C2896.54 1268.39 2896.94 1269.87 2897.47 1271.12C2897.99 1272.35 2898.63 1273.37 2899.38 1274.16C2900.13 1274.96 2901 1275.55 2901.98 1275.94C2902.98 1276.31 2904.09 1276.49 2905.29 1276.49C2906.84 1276.49 2908.2 1276.19 2909.36 1275.6C2910.52 1275.01 2911.49 1274.08 2912.27 1272.83C2913.06 1271.56 2913.66 1269.93 2914.04 1267.94C2914.43 1265.94 2914.62 1263.55 2914.62 1260.77Z" fill="black"/>
<path d="M1953.01 1258.49C1953.01 1262.55 1951.61 1265.93 1948.81 1268.64C1946.06 1271.3 1941.83 1272.63 1936.14 1272.63H1926.76V1293H1920.39V1244.21H1936.14C1941.65 1244.21 1945.82 1245.54 1948.67 1248.2C1951.56 1250.86 1953.01 1254.29 1953.01 1258.49ZM1936.14 1267.38C1939.69 1267.38 1942.3 1266.61 1943.98 1265.07C1945.66 1263.53 1946.5 1261.34 1946.5 1258.49C1946.5 1252.47 1943.05 1249.46 1936.14 1249.46H1926.76V1267.38H1936.14ZM1964.22 1248.41C1963 1248.41 1961.98 1247.99 1961.14 1247.15C1960.3 1246.31 1959.88 1245.28 1959.88 1244.07C1959.88 1242.86 1960.3 1241.83 1961.14 1240.99C1961.98 1240.15 1963 1239.73 1964.22 1239.73C1965.38 1239.73 1966.36 1240.15 1967.16 1240.99C1968 1241.83 1968.42 1242.86 1968.42 1244.07C1968.42 1245.28 1968 1246.31 1967.16 1247.15C1966.36 1247.99 1965.38 1248.41 1964.22 1248.41ZM1967.3 1254.64V1293H1960.93V1254.64H1967.3ZM1975.77 1273.75C1975.77 1269.78 1976.57 1266.33 1978.15 1263.39C1979.74 1260.4 1981.93 1258.09 1984.73 1256.46C1987.58 1254.83 1990.82 1254.01 1994.46 1254.01C1999.18 1254.01 2003.05 1255.15 2006.08 1257.44C2009.16 1259.73 2011.19 1262.9 2012.17 1266.96H2005.31C2004.66 1264.63 2003.38 1262.78 2001.46 1261.43C1999.6 1260.08 1997.26 1259.4 1994.46 1259.4C1990.82 1259.4 1987.88 1260.66 1985.64 1263.18C1983.4 1265.65 1982.28 1269.18 1982.28 1273.75C1982.28 1278.37 1983.4 1281.94 1985.64 1284.46C1987.88 1286.98 1990.82 1288.24 1994.46 1288.24C1997.26 1288.24 1999.6 1287.59 2001.46 1286.28C2003.33 1284.97 2004.61 1283.11 2005.31 1280.68H2012.17C2011.15 1284.6 2009.09 1287.75 2006.01 1290.13C2002.93 1292.46 1999.08 1293.63 1994.46 1293.63C1990.82 1293.63 1987.58 1292.81 1984.73 1291.18C1981.93 1289.55 1979.74 1287.24 1978.15 1284.25C1976.57 1281.26 1975.77 1277.76 1975.77 1273.75ZM2042.09 1293L2027.04 1276.06V1293H2020.67V1241.2H2027.04V1271.65L2041.81 1254.64H2050.7L2032.64 1273.75L2050.77 1293H2042.09ZM2072.98 1273.68C2072.98 1269.76 2073.77 1266.33 2075.36 1263.39C2076.95 1260.4 2079.12 1258.09 2081.87 1256.46C2084.67 1254.83 2087.77 1254.01 2091.18 1254.01C2094.54 1254.01 2097.46 1254.73 2099.93 1256.18C2102.4 1257.63 2104.25 1259.45 2105.46 1261.64V1254.64H2111.9V1293H2105.46V1285.86C2104.2 1288.1 2102.31 1289.97 2099.79 1291.46C2097.32 1292.91 2094.42 1293.63 2091.11 1293.63C2087.7 1293.63 2084.62 1292.79 2081.87 1291.11C2079.12 1289.43 2076.95 1287.07 2075.36 1284.04C2073.77 1281.01 2072.98 1277.55 2072.98 1273.68ZM2105.46 1273.75C2105.46 1270.86 2104.88 1268.34 2103.71 1266.19C2102.54 1264.04 2100.96 1262.41 2098.95 1261.29C2096.99 1260.12 2094.82 1259.54 2092.44 1259.54C2090.06 1259.54 2087.89 1260.1 2085.93 1261.22C2083.97 1262.34 2082.41 1263.97 2081.24 1266.12C2080.07 1268.27 2079.49 1270.79 2079.49 1273.68C2079.49 1276.62 2080.07 1279.19 2081.24 1281.38C2082.41 1283.53 2083.97 1285.18 2085.93 1286.35C2087.89 1287.47 2090.06 1288.03 2092.44 1288.03C2094.82 1288.03 2096.99 1287.47 2098.95 1286.35C2100.96 1285.18 2102.54 1283.53 2103.71 1281.38C2104.88 1279.19 2105.46 1276.64 2105.46 1273.75ZM2141.36 1253.94C2146.02 1253.94 2149.8 1255.36 2152.7 1258.21C2155.59 1261.01 2157.04 1265.07 2157.04 1270.39V1293H2150.74V1271.3C2150.74 1267.47 2149.78 1264.56 2147.87 1262.55C2145.95 1260.5 2143.34 1259.47 2140.03 1259.47C2136.67 1259.47 2133.98 1260.52 2131.98 1262.62C2130.02 1264.72 2129.04 1267.78 2129.04 1271.79V1293H2122.67V1254.64H2129.04V1260.1C2130.3 1258.14 2132 1256.62 2134.15 1255.55C2136.34 1254.48 2138.74 1253.94 2141.36 1253.94ZM2165.06 1273.68C2165.06 1269.76 2165.85 1266.33 2167.44 1263.39C2169.03 1260.4 2171.2 1258.09 2173.95 1256.46C2176.75 1254.83 2179.88 1254.01 2183.33 1254.01C2186.32 1254.01 2189.09 1254.71 2191.66 1256.11C2194.23 1257.46 2196.19 1259.26 2197.54 1261.5V1241.2H2203.98V1293H2197.54V1285.79C2196.28 1288.08 2194.41 1289.97 2191.94 1291.46C2189.47 1292.91 2186.57 1293.63 2183.26 1293.63C2179.85 1293.63 2176.75 1292.79 2173.95 1291.11C2171.2 1289.43 2169.03 1287.07 2167.44 1284.04C2165.85 1281.01 2165.06 1277.55 2165.06 1273.68ZM2197.54 1273.75C2197.54 1270.86 2196.96 1268.34 2195.79 1266.19C2194.62 1264.04 2193.04 1262.41 2191.03 1261.29C2189.07 1260.12 2186.9 1259.54 2184.52 1259.54C2182.14 1259.54 2179.97 1260.1 2178.01 1261.22C2176.05 1262.34 2174.49 1263.97 2173.32 1266.12C2172.15 1268.27 2171.57 1270.79 2171.57 1273.68C2171.57 1276.62 2172.15 1279.19 2173.32 1281.38C2174.49 1283.53 2176.05 1285.18 2178.01 1286.35C2179.97 1287.47 2182.14 1288.03 2184.52 1288.03C2186.9 1288.03 2189.07 1287.47 2191.03 1286.35C2193.04 1285.18 2194.62 1283.53 2195.79 1281.38C2196.96 1279.19 2197.54 1276.64 2197.54 1273.75ZM2231.03 1273.68C2231.03 1269.76 2231.82 1266.33 2233.41 1263.39C2234.99 1260.4 2237.16 1258.09 2239.92 1256.46C2242.72 1254.83 2245.84 1254.01 2249.3 1254.01C2252.28 1254.01 2255.06 1254.71 2257.63 1256.11C2260.19 1257.46 2262.15 1259.26 2263.51 1261.5V1241.2H2269.95V1293H2263.51V1285.79C2262.25 1288.08 2260.38 1289.97 2257.91 1291.46C2255.43 1292.91 2252.54 1293.63 2249.23 1293.63C2245.82 1293.63 2242.72 1292.79 2239.92 1291.11C2237.16 1289.43 2234.99 1287.07 2233.41 1284.04C2231.82 1281.01 2231.03 1277.55 2231.03 1273.68ZM2263.51 1273.75C2263.51 1270.86 2262.92 1268.34 2261.76 1266.19C2260.59 1264.04 2259 1262.41 2257 1261.29C2255.04 1260.12 2252.87 1259.54 2250.49 1259.54C2248.11 1259.54 2245.94 1260.1 2243.98 1261.22C2242.02 1262.34 2240.45 1263.97 2239.29 1266.12C2238.12 1268.27 2237.54 1270.79 2237.54 1273.68C2237.54 1276.62 2238.12 1279.19 2239.29 1281.38C2240.45 1283.53 2242.02 1285.18 2243.98 1286.35C2245.94 1287.47 2248.11 1288.03 2250.49 1288.03C2252.87 1288.03 2255.04 1287.47 2257 1286.35C2259 1285.18 2260.59 1283.53 2261.76 1281.38C2262.92 1279.19 2263.51 1276.64 2263.51 1273.75ZM2287.08 1260.87C2288.2 1258.68 2289.79 1256.97 2291.84 1255.76C2293.94 1254.55 2296.49 1253.94 2299.47 1253.94V1260.52H2297.79C2290.65 1260.52 2287.08 1264.39 2287.08 1272.14V1293H2280.71V1254.64H2287.08V1260.87ZM2323.56 1293.63C2319.96 1293.63 2316.7 1292.81 2313.76 1291.18C2310.86 1289.55 2308.58 1287.24 2306.9 1284.25C2305.26 1281.22 2304.45 1277.72 2304.45 1273.75C2304.45 1269.83 2305.29 1266.38 2306.97 1263.39C2308.69 1260.36 2311.03 1258.05 2313.97 1256.46C2316.91 1254.83 2320.2 1254.01 2323.84 1254.01C2327.48 1254.01 2330.77 1254.83 2333.71 1256.46C2336.65 1258.05 2338.96 1260.33 2340.64 1263.32C2342.36 1266.31 2343.23 1269.78 2343.23 1273.75C2343.23 1277.72 2342.34 1281.22 2340.57 1284.25C2338.84 1287.24 2336.48 1289.55 2333.5 1291.18C2330.51 1292.81 2327.2 1293.63 2323.56 1293.63ZM2323.56 1288.03C2325.84 1288.03 2327.99 1287.49 2330 1286.42C2332 1285.35 2333.61 1283.74 2334.83 1281.59C2336.09 1279.44 2336.72 1276.83 2336.72 1273.75C2336.72 1270.67 2336.11 1268.06 2334.9 1265.91C2333.68 1263.76 2332.1 1262.18 2330.14 1261.15C2328.18 1260.08 2326.05 1259.54 2323.77 1259.54C2321.43 1259.54 2319.29 1260.08 2317.33 1261.15C2315.41 1262.18 2313.87 1263.76 2312.71 1265.91C2311.54 1268.06 2310.96 1270.67 2310.96 1273.75C2310.96 1276.88 2311.52 1279.51 2312.64 1281.66C2313.8 1283.81 2315.34 1285.42 2317.26 1286.49C2319.17 1287.52 2321.27 1288.03 2323.56 1288.03ZM2357.97 1261.71C2359.23 1259.52 2361.1 1257.7 2363.57 1256.25C2366.09 1254.76 2369.01 1254.01 2372.32 1254.01C2375.73 1254.01 2378.81 1254.83 2381.56 1256.46C2384.36 1258.09 2386.55 1260.4 2388.14 1263.39C2389.73 1266.33 2390.52 1269.76 2390.52 1273.68C2390.52 1277.55 2389.73 1281.01 2388.14 1284.04C2386.55 1287.07 2384.36 1289.43 2381.56 1291.11C2378.81 1292.79 2375.73 1293.63 2372.32 1293.63C2369.05 1293.63 2366.16 1292.91 2363.64 1291.46C2361.17 1289.97 2359.28 1288.12 2357.97 1285.93V1311.2H2351.6V1254.64H2357.97V1261.71ZM2384.01 1273.68C2384.01 1270.79 2383.43 1268.27 2382.26 1266.12C2381.09 1263.97 2379.51 1262.34 2377.5 1261.22C2375.54 1260.1 2373.37 1259.54 2370.99 1259.54C2368.66 1259.54 2366.49 1260.12 2364.48 1261.29C2362.52 1262.41 2360.93 1264.07 2359.72 1266.26C2358.55 1268.41 2357.97 1270.9 2357.97 1273.75C2357.97 1276.64 2358.55 1279.19 2359.72 1281.38C2360.93 1283.53 2362.52 1285.18 2364.48 1286.35C2366.49 1287.47 2368.66 1288.03 2370.99 1288.03C2373.37 1288.03 2375.54 1287.47 2377.5 1286.35C2379.51 1285.18 2381.09 1283.53 2382.26 1281.38C2383.43 1279.19 2384.01 1276.62 2384.01 1273.68Z" fill="black"/>
<path d="M1372.99 1126.84C1374.89 1127.97 1375.52 1130.42 1374.39 1132.32C1310.6 1239.01 1220.66 1327.59 1113.37 1389.31C1004.94 1451.69 882.623 1484.43 758.712 1484.25C634.801 1484.07 513.664 1450.97 407.476 1388.27C301.288 1325.58 213.791 1235.5 153.78 1127.09C93.7684 1018.68 63.3567 895.762 65.6015 770.686C67.8462 645.61 102.668 522.785 166.568 414.557C230.467 306.329 321.193 216.51 429.625 154.129C536.871 92.4304 657.701 59.7223 780.22 59.189C782.455 59.1793 784.255 61.0144 784.215 63.249L771.542 769.386C771.516 770.827 772.267 772.17 773.507 772.903L1372.99 1126.84Z" fill="#285FD3"/>
<path d="M1454.84 607.138C1456.98 606.689 1458.36 604.607 1457.93 602.466C1428.11 452.335 1348.61 317.516 1232.3 220.004C1116 122.5 969.822 68.0961 817.598 65.5866C815.412 65.5505 813.609 67.2882 813.554 69.4738L796.623 740.516C796.558 743.097 798.919 745.063 801.445 744.532L1454.84 607.138Z" fill="#FF8B26"/>
<path d="M1383.9 1108.31C1385.8 1109.43 1388.26 1108.79 1389.37 1106.89C1470.6 967.416 1498.88 803.347 1469.02 644.732C1468.61 642.561 1466.51 641.142 1464.34 641.564L819.468 766.934C815.855 767.637 815.028 772.434 818.198 774.305L1383.9 1108.31Z" fill="#FFC533"/>
</g>
<defs>
<clipPath id="clip0_301_190">
<rect width="3205" height="1544" fill="white"/>
</clipPath>
</defs>
</svg>
