<svg width="227" height="338" viewBox="0 0 227 338" fill="none" xmlns="http://www.w3.org/2000/svg">
<path d="M20.8848 260.395H18.1426V268H17.0234V260.395H14.2871V259.469H20.8848V260.395ZM21.3474 264.771C21.3474 264.15 21.4685 263.592 21.7107 263.096C21.9568 262.6 22.2966 262.217 22.7302 261.947C23.1677 261.678 23.6658 261.543 24.2244 261.543C25.0877 261.543 25.7849 261.842 26.3162 262.439C26.8513 263.037 27.1189 263.832 27.1189 264.824V264.9C27.1189 265.518 26.9998 266.072 26.7615 266.564C26.5271 267.053 26.1892 267.434 25.7478 267.707C25.3103 267.98 24.8064 268.117 24.2361 268.117C23.3767 268.117 22.6795 267.818 22.1443 267.221C21.613 266.623 21.3474 265.832 21.3474 264.848V264.771ZM22.4373 264.9C22.4373 265.604 22.5994 266.168 22.9236 266.594C23.2517 267.02 23.6892 267.232 24.2361 267.232C24.7869 267.232 25.2244 267.018 25.5486 266.588C25.8728 266.154 26.0349 265.549 26.0349 264.771C26.0349 264.076 25.8689 263.514 25.5369 263.084C25.2087 262.65 24.7712 262.434 24.2244 262.434C23.6892 262.434 23.2576 262.646 22.9295 263.072C22.6013 263.498 22.4373 264.107 22.4373 264.9ZM30.189 260.125V261.66H31.3726V262.498H30.189V266.43C30.189 266.684 30.2417 266.875 30.3472 267.004C30.4527 267.129 30.6323 267.191 30.8862 267.191C31.0112 267.191 31.1831 267.168 31.4019 267.121V268C31.1167 268.078 30.8394 268.117 30.5698 268.117C30.0855 268.117 29.7202 267.971 29.4741 267.678C29.228 267.385 29.105 266.969 29.105 266.43V262.498H27.9507V261.66H29.105V260.125H30.189ZM36.7981 268C36.7356 267.875 36.6848 267.652 36.6458 267.332C36.1419 267.855 35.5403 268.117 34.8411 268.117C34.2161 268.117 33.7024 267.941 33.3001 267.59C32.9016 267.234 32.7024 266.785 32.7024 266.242C32.7024 265.582 32.9524 265.07 33.4524 264.707C33.9563 264.34 34.6634 264.156 35.5735 264.156H36.6282V263.658C36.6282 263.279 36.5149 262.979 36.2884 262.756C36.0618 262.529 35.7278 262.416 35.2864 262.416C34.8997 262.416 34.5755 262.514 34.3137 262.709C34.052 262.904 33.9212 263.141 33.9212 263.418H32.8313C32.8313 263.102 32.9427 262.797 33.1653 262.504C33.3919 262.207 33.6966 261.973 34.0794 261.801C34.4661 261.629 34.8899 261.543 35.3509 261.543C36.0813 261.543 36.6536 261.727 37.0677 262.094C37.4817 262.457 37.6966 262.959 37.7122 263.6V266.518C37.7122 267.1 37.7864 267.562 37.9348 267.906V268H36.7981ZM34.9993 267.174C35.3391 267.174 35.6614 267.086 35.9661 266.91C36.2708 266.734 36.4915 266.506 36.6282 266.225V264.924H35.7786C34.4505 264.924 33.7864 265.312 33.7864 266.09C33.7864 266.43 33.8997 266.695 34.1262 266.887C34.3528 267.078 34.6438 267.174 34.9993 267.174ZM40.8291 268H39.7452V259H40.8291V268ZM52.4713 265.293C52.3658 266.195 52.0318 266.893 51.4693 267.385C50.9107 267.873 50.1666 268.117 49.2369 268.117C48.2291 268.117 47.4205 267.756 46.8111 267.033C46.2056 266.311 45.9029 265.344 45.9029 264.133V263.312C45.9029 262.52 46.0435 261.822 46.3248 261.221C46.6099 260.619 47.0123 260.158 47.5318 259.838C48.0513 259.514 48.6529 259.352 49.3365 259.352C50.2427 259.352 50.9693 259.605 51.5162 260.113C52.063 260.617 52.3814 261.316 52.4713 262.211H51.3404C51.2427 261.531 51.0298 261.039 50.7017 260.734C50.3775 260.43 49.9224 260.277 49.3365 260.277C48.6177 260.277 48.0533 260.543 47.6431 261.074C47.2369 261.605 47.0338 262.361 47.0338 263.342V264.168C47.0338 265.094 47.2271 265.83 47.6138 266.377C48.0005 266.924 48.5416 267.197 49.2369 267.197C49.8619 267.197 50.3404 267.057 50.6724 266.775C51.0084 266.49 51.231 265.996 51.3404 265.293H52.4713ZM57.9964 267.373C57.5745 267.869 56.9554 268.117 56.139 268.117C55.4632 268.117 54.9476 267.922 54.5921 267.531C54.2405 267.137 54.0628 266.555 54.0589 265.785V261.66H55.1429V265.756C55.1429 266.717 55.5335 267.197 56.3148 267.197C57.1429 267.197 57.6937 266.889 57.9671 266.271V261.66H59.0511V268H58.0198L57.9964 267.373ZM64.6348 266.318C64.6348 266.025 64.5235 265.799 64.3009 265.639C64.0821 265.475 63.6973 265.334 63.1466 265.217C62.5997 265.1 62.1641 264.959 61.8399 264.795C61.5196 264.631 61.2813 264.436 61.1251 264.209C60.9727 263.982 60.8966 263.713 60.8966 263.4C60.8966 262.881 61.1153 262.441 61.5528 262.082C61.9942 261.723 62.5567 261.543 63.2403 261.543C63.9591 261.543 64.5411 261.729 64.9864 262.1C65.4356 262.471 65.6602 262.945 65.6602 263.523H64.5704C64.5704 263.227 64.4434 262.971 64.1895 262.756C63.9395 262.541 63.6231 262.434 63.2403 262.434C62.8458 262.434 62.5372 262.52 62.3145 262.691C62.0919 262.863 61.9805 263.088 61.9805 263.365C61.9805 263.627 62.0841 263.824 62.2911 263.957C62.4981 264.09 62.8712 264.217 63.4102 264.338C63.9532 264.459 64.3927 264.604 64.7286 264.771C65.0645 264.939 65.3126 265.143 65.4727 265.381C65.6368 265.615 65.7188 265.902 65.7188 266.242C65.7188 266.809 65.4923 267.264 65.0391 267.607C64.586 267.947 63.9981 268.117 63.2755 268.117C62.7677 268.117 62.3184 268.027 61.9278 267.848C61.5372 267.668 61.2305 267.418 61.0079 267.098C60.7891 266.773 60.6798 266.424 60.6798 266.049H61.7637C61.7833 266.412 61.9278 266.701 62.1973 266.916C62.4708 267.127 62.8302 267.232 63.2755 267.232C63.6856 267.232 64.0137 267.15 64.2598 266.986C64.5098 266.818 64.6348 266.596 64.6348 266.318ZM68.8416 260.125V261.66H70.0252V262.498H68.8416V266.43C68.8416 266.684 68.8944 266.875 68.9998 267.004C69.1053 267.129 69.285 267.191 69.5389 267.191C69.6639 267.191 69.8358 267.168 70.0545 267.121V268C69.7694 268.078 69.492 268.117 69.2225 268.117C68.7381 268.117 68.3729 267.971 68.1268 267.678C67.8807 267.385 67.7577 266.969 67.7577 266.43V262.498H66.6034V261.66H67.7577V260.125H68.8416ZM71.1324 264.771C71.1324 264.15 71.2535 263.592 71.4957 263.096C71.7418 262.6 72.0816 262.217 72.5152 261.947C72.9527 261.678 73.4508 261.543 74.0094 261.543C74.8727 261.543 75.5699 261.842 76.1012 262.439C76.6363 263.037 76.9039 263.832 76.9039 264.824V264.9C76.9039 265.518 76.7848 266.072 76.5465 266.564C76.3121 267.053 75.9742 267.434 75.5328 267.707C75.0953 267.98 74.5914 268.117 74.0211 268.117C73.1617 268.117 72.4645 267.818 71.9293 267.221C71.398 266.623 71.1324 265.832 71.1324 264.848V264.771ZM72.2223 264.9C72.2223 265.604 72.3844 266.168 72.7086 266.594C73.0367 267.02 73.4742 267.232 74.0211 267.232C74.5719 267.232 75.0094 267.018 75.3336 266.588C75.6578 266.154 75.8199 265.549 75.8199 264.771C75.8199 264.076 75.6539 263.514 75.3219 263.084C74.9938 262.65 74.5563 262.434 74.0094 262.434C73.4742 262.434 73.0426 262.646 72.7145 263.072C72.3863 263.498 72.2223 264.107 72.2223 264.9ZM79.5228 261.66L79.5521 262.363C80.017 261.816 80.6439 261.543 81.433 261.543C82.3197 261.543 82.9232 261.883 83.2435 262.562C83.4545 262.258 83.7279 262.012 84.0638 261.824C84.4037 261.637 84.8041 261.543 85.265 261.543C86.6556 261.543 87.3627 262.279 87.3861 263.752V268H86.3021V263.816C86.3021 263.363 86.1986 263.025 85.9916 262.803C85.7845 262.576 85.4369 262.463 84.9486 262.463C84.5462 262.463 84.2123 262.584 83.9466 262.826C83.681 263.064 83.5267 263.387 83.4837 263.793V268H82.3939V263.846C82.3939 262.924 81.9427 262.463 81.0404 262.463C80.3295 262.463 79.8431 262.766 79.5814 263.371V268H78.4974V261.66H79.5228ZM91.8976 268.117C91.0382 268.117 90.339 267.836 89.7999 267.273C89.2609 266.707 88.9913 265.951 88.9913 265.006V264.807C88.9913 264.178 89.1105 263.617 89.3487 263.125C89.5909 262.629 89.9269 262.242 90.3566 261.965C90.7902 261.684 91.2589 261.543 91.7628 261.543C92.587 261.543 93.2277 261.814 93.6847 262.357C94.1417 262.9 94.3702 263.678 94.3702 264.689V265.141H90.0753C90.0909 265.766 90.2726 266.271 90.6202 266.658C90.9718 267.041 91.4171 267.232 91.9562 267.232C92.339 267.232 92.6632 267.154 92.9288 266.998C93.1945 266.842 93.4269 266.635 93.6261 266.377L94.2882 266.893C93.757 267.709 92.9601 268.117 91.8976 268.117ZM91.7628 262.434C91.3253 262.434 90.9581 262.594 90.6612 262.914C90.3644 263.23 90.1808 263.676 90.1105 264.25H93.2862V264.168C93.255 263.617 93.1066 263.191 92.8409 262.891C92.5753 262.586 92.2159 262.434 91.7628 262.434ZM98.9345 262.633C98.7704 262.605 98.5927 262.592 98.4013 262.592C97.6903 262.592 97.2079 262.895 96.954 263.5V268H95.87V261.66H96.9247L96.9423 262.393C97.2977 261.826 97.8016 261.543 98.454 261.543C98.6649 261.543 98.8251 261.57 98.9345 261.625V262.633ZM103.868 266.318C103.868 266.025 103.756 265.799 103.534 265.639C103.315 265.475 102.93 265.334 102.38 265.217C101.833 265.1 101.397 264.959 101.073 264.795C100.753 264.631 100.514 264.436 100.358 264.209C100.206 263.982 100.13 263.713 100.13 263.4C100.13 262.881 100.348 262.441 100.786 262.082C101.227 261.723 101.79 261.543 102.473 261.543C103.192 261.543 103.774 261.729 104.219 262.1C104.669 262.471 104.893 262.945 104.893 263.523H103.803C103.803 263.227 103.676 262.971 103.423 262.756C103.173 262.541 102.856 262.434 102.473 262.434C102.079 262.434 101.77 262.52 101.548 262.691C101.325 262.863 101.214 263.088 101.214 263.365C101.214 263.627 101.317 263.824 101.524 263.957C101.731 264.09 102.104 264.217 102.643 264.338C103.186 264.459 103.626 264.604 103.962 264.771C104.298 264.939 104.546 265.143 104.706 265.381C104.87 265.615 104.952 265.902 104.952 266.242C104.952 266.809 104.725 267.264 104.272 267.607C103.819 267.947 103.231 268.117 102.508 268.117C102.001 268.117 101.551 268.027 101.161 267.848C100.77 267.668 100.464 267.418 100.241 267.098C100.022 266.773 99.9127 266.424 99.9127 266.049H100.997C101.016 266.412 101.161 266.701 101.43 266.916C101.704 267.127 102.063 267.232 102.508 267.232C102.919 267.232 103.247 267.15 103.493 266.986C103.743 266.818 103.868 266.596 103.868 266.318Z" fill="#9B9B9B"/>
<path d="M16.4434 292.469L19.2324 299.43L22.0215 292.469H23.4805V301H22.3555V297.678L22.4609 294.092L19.6602 301H18.7988L16.0039 294.109L16.1152 297.678V301H14.9902V292.469H16.4434ZM25.2498 297.771C25.2498 297.15 25.3709 296.592 25.613 296.096C25.8591 295.6 26.199 295.217 26.6326 294.947C27.0701 294.678 27.5681 294.543 28.1267 294.543C28.99 294.543 29.6873 294.842 30.2185 295.439C30.7537 296.037 31.0212 296.832 31.0212 297.824V297.9C31.0212 298.518 30.9021 299.072 30.6638 299.564C30.4295 300.053 30.0916 300.434 29.6502 300.707C29.2127 300.98 28.7087 301.117 28.1384 301.117C27.2791 301.117 26.5818 300.818 26.0466 300.221C25.5154 299.623 25.2498 298.832 25.2498 297.848V297.771ZM26.3396 297.9C26.3396 298.604 26.5017 299.168 26.8259 299.594C27.1541 300.02 27.5916 300.232 28.1384 300.232C28.6892 300.232 29.1267 300.018 29.4509 299.588C29.7752 299.154 29.9373 298.549 29.9373 297.771C29.9373 297.076 29.7712 296.514 29.4392 296.084C29.1111 295.65 28.6736 295.434 28.1267 295.434C27.5916 295.434 27.1599 295.646 26.8318 296.072C26.5037 296.498 26.3396 297.107 26.3396 297.9ZM33.646 294.66L33.6812 295.457C34.1655 294.848 34.7984 294.543 35.5796 294.543C36.9195 294.543 37.5952 295.299 37.607 296.811V301H36.523V296.805C36.5191 296.348 36.4136 296.01 36.2066 295.791C36.0034 295.572 35.6851 295.463 35.2515 295.463C34.8999 295.463 34.5913 295.557 34.3257 295.744C34.0601 295.932 33.853 296.178 33.7046 296.482V301H32.6206V294.66H33.646ZM40.9524 293.125V294.66H42.136V295.498H40.9524V299.43C40.9524 299.684 41.0052 299.875 41.1106 300.004C41.2161 300.129 41.3958 300.191 41.6497 300.191C41.7747 300.191 41.9466 300.168 42.1653 300.121V301C41.8802 301.078 41.6028 301.117 41.3333 301.117C40.8489 301.117 40.4837 300.971 40.2376 300.678C39.9915 300.385 39.8684 299.969 39.8684 299.43V295.498H38.7141V294.66H39.8684V293.125H40.9524ZM44.7315 295.428C45.212 294.838 45.837 294.543 46.6065 294.543C47.9463 294.543 48.6221 295.299 48.6338 296.811V301H47.5498V296.805C47.5459 296.348 47.4405 296.01 47.2334 295.791C47.0303 295.572 46.712 295.463 46.2784 295.463C45.9268 295.463 45.6182 295.557 45.3526 295.744C45.087 295.932 44.8799 296.178 44.7315 296.482V301H43.6475V292H44.7315V295.428ZM51.6746 301H50.5906V292H51.6746V301ZM55.7291 299.412L57.2056 294.66H58.3658L55.817 301.979C55.4224 303.033 54.7955 303.561 53.9361 303.561L53.731 303.543L53.3267 303.467V302.588L53.6197 302.611C53.9869 302.611 54.272 302.537 54.4752 302.389C54.6822 302.24 54.8521 301.969 54.9849 301.574L55.2252 300.93L52.9634 294.66H54.147L55.7291 299.412ZM69.2403 298.293C69.1348 299.195 68.8009 299.893 68.2384 300.385C67.6798 300.873 66.9356 301.117 66.0059 301.117C64.9981 301.117 64.1895 300.756 63.5802 300.033C62.9747 299.311 62.672 298.344 62.672 297.133V296.312C62.672 295.52 62.8126 294.822 63.0938 294.221C63.379 293.619 63.7813 293.158 64.3009 292.838C64.8204 292.514 65.422 292.352 66.1055 292.352C67.0118 292.352 67.7384 292.605 68.2852 293.113C68.8321 293.617 69.1505 294.316 69.2403 295.211H68.1095C68.0118 294.531 67.7989 294.039 67.4708 293.734C67.1466 293.43 66.6915 293.277 66.1055 293.277C65.3868 293.277 64.8223 293.543 64.4122 294.074C64.0059 294.605 63.8028 295.361 63.8028 296.342V297.168C63.8028 298.094 63.9962 298.83 64.3829 299.377C64.7696 299.924 65.3106 300.197 66.0059 300.197C66.6309 300.197 67.1095 300.057 67.4415 299.775C67.7774 299.49 68.0001 298.996 68.1095 298.293H69.2403ZM74.7655 300.373C74.3436 300.869 73.7245 301.117 72.908 301.117C72.2323 301.117 71.7166 300.922 71.3612 300.531C71.0096 300.137 70.8319 299.555 70.828 298.785V294.66H71.912V298.756C71.912 299.717 72.3026 300.197 73.0838 300.197C73.912 300.197 74.4627 299.889 74.7362 299.271V294.66H75.8202V301H74.7889L74.7655 300.373ZM81.4039 299.318C81.4039 299.025 81.2926 298.799 81.0699 298.639C80.8512 298.475 80.4664 298.334 79.9156 298.217C79.3688 298.1 78.9332 297.959 78.609 297.795C78.2887 297.631 78.0504 297.436 77.8941 297.209C77.7418 296.982 77.6656 296.713 77.6656 296.4C77.6656 295.881 77.8844 295.441 78.3219 295.082C78.7633 294.723 79.3258 294.543 80.0094 294.543C80.7281 294.543 81.3102 294.729 81.7555 295.1C82.2047 295.471 82.4293 295.945 82.4293 296.523H81.3395C81.3395 296.227 81.2125 295.971 80.9586 295.756C80.7086 295.541 80.3922 295.434 80.0094 295.434C79.6148 295.434 79.3063 295.52 79.0836 295.691C78.8609 295.863 78.7496 296.088 78.7496 296.365C78.7496 296.627 78.8531 296.824 79.0602 296.957C79.2672 297.09 79.6402 297.217 80.1793 297.338C80.7223 297.459 81.1617 297.604 81.4977 297.771C81.8336 297.939 82.0816 298.143 82.2418 298.381C82.4059 298.615 82.4879 298.902 82.4879 299.242C82.4879 299.809 82.2613 300.264 81.8082 300.607C81.3551 300.947 80.7672 301.117 80.0445 301.117C79.5367 301.117 79.0875 301.027 78.6969 300.848C78.3063 300.668 77.9996 300.418 77.777 300.098C77.5582 299.773 77.4488 299.424 77.4488 299.049H78.5328C78.5523 299.412 78.6969 299.701 78.9664 299.916C79.2398 300.127 79.5992 300.232 80.0445 300.232C80.4547 300.232 80.7828 300.15 81.0289 299.986C81.2789 299.818 81.4039 299.596 81.4039 299.318ZM85.6107 293.125V294.66H86.7943V295.498H85.6107V299.43C85.6107 299.684 85.6634 299.875 85.7689 300.004C85.8744 300.129 86.0541 300.191 86.308 300.191C86.433 300.191 86.6048 300.168 86.8236 300.121V301C86.5384 301.078 86.2611 301.117 85.9916 301.117C85.5072 301.117 85.142 300.971 84.8959 300.678C84.6498 300.385 84.5267 299.969 84.5267 299.43V295.498H83.3724V294.66H84.5267V293.125H85.6107ZM87.9015 297.771C87.9015 297.15 88.0226 296.592 88.2648 296.096C88.5109 295.6 88.8507 295.217 89.2843 294.947C89.7218 294.678 90.2198 294.543 90.7784 294.543C91.6417 294.543 92.339 294.842 92.8702 295.439C93.4054 296.037 93.673 296.832 93.673 297.824V297.9C93.673 298.518 93.5538 299.072 93.3155 299.564C93.0812 300.053 92.7433 300.434 92.3019 300.707C91.8644 300.98 91.3605 301.117 90.7902 301.117C89.9308 301.117 89.2335 300.818 88.6984 300.221C88.1671 299.623 87.9015 298.832 87.9015 297.848V297.771ZM88.9913 297.9C88.9913 298.604 89.1534 299.168 89.4777 299.594C89.8058 300.02 90.2433 300.232 90.7902 300.232C91.3409 300.232 91.7784 300.018 92.1027 299.588C92.4269 299.154 92.589 298.549 92.589 297.771C92.589 297.076 92.423 296.514 92.0909 296.084C91.7628 295.65 91.3253 295.434 90.7784 295.434C90.2433 295.434 89.8116 295.646 89.4835 296.072C89.1554 296.498 88.9913 297.107 88.9913 297.9ZM96.2919 294.66L96.3212 295.363C96.786 294.816 97.413 294.543 98.202 294.543C99.0888 294.543 99.6923 294.883 100.013 295.562C100.224 295.258 100.497 295.012 100.833 294.824C101.173 294.637 101.573 294.543 102.034 294.543C103.425 294.543 104.132 295.279 104.155 296.752V301H103.071V296.816C103.071 296.363 102.968 296.025 102.761 295.803C102.554 295.576 102.206 295.463 101.718 295.463C101.315 295.463 100.981 295.584 100.716 295.826C100.45 296.064 100.296 296.387 100.253 296.793V301H99.163V296.846C99.163 295.924 98.7118 295.463 97.8095 295.463C97.0985 295.463 96.6122 295.766 96.3505 296.371V301H95.2665V294.66H96.2919ZM108.667 301.117C107.807 301.117 107.108 300.836 106.569 300.273C106.03 299.707 105.76 298.951 105.76 298.006V297.807C105.76 297.178 105.88 296.617 106.118 296.125C106.36 295.629 106.696 295.242 107.126 294.965C107.559 294.684 108.028 294.543 108.532 294.543C109.356 294.543 109.997 294.814 110.454 295.357C110.911 295.9 111.139 296.678 111.139 297.689V298.141H106.844C106.86 298.766 107.042 299.271 107.389 299.658C107.741 300.041 108.186 300.232 108.725 300.232C109.108 300.232 109.432 300.154 109.698 299.998C109.964 299.842 110.196 299.635 110.395 299.377L111.057 299.893C110.526 300.709 109.729 301.117 108.667 301.117ZM108.532 295.434C108.094 295.434 107.727 295.594 107.43 295.914C107.133 296.23 106.95 296.676 106.88 297.25H110.055V297.168C110.024 296.617 109.876 296.191 109.61 295.891C109.344 295.586 108.985 295.434 108.532 295.434ZM115.704 295.633C115.539 295.605 115.362 295.592 115.17 295.592C114.459 295.592 113.977 295.895 113.723 296.5V301H112.639V294.66H113.694L113.711 295.393C114.067 294.826 114.571 294.543 115.223 294.543C115.434 294.543 115.594 294.57 115.704 294.625V295.633ZM120.637 299.318C120.637 299.025 120.526 298.799 120.303 298.639C120.084 298.475 119.699 298.334 119.149 298.217C118.602 298.1 118.166 297.959 117.842 297.795C117.522 297.631 117.283 297.436 117.127 297.209C116.975 296.982 116.899 296.713 116.899 296.4C116.899 295.881 117.117 295.441 117.555 295.082C117.996 294.723 118.559 294.543 119.242 294.543C119.961 294.543 120.543 294.729 120.988 295.1C121.438 295.471 121.662 295.945 121.662 296.523H120.572C120.572 296.227 120.445 295.971 120.192 295.756C119.942 295.541 119.625 295.434 119.242 295.434C118.848 295.434 118.539 295.52 118.317 295.691C118.094 295.863 117.983 296.088 117.983 296.365C117.983 296.627 118.086 296.824 118.293 296.957C118.5 297.09 118.873 297.217 119.412 297.338C119.955 297.459 120.395 297.604 120.731 297.771C121.067 297.939 121.315 298.143 121.475 298.381C121.639 298.615 121.721 298.902 121.721 299.242C121.721 299.809 121.494 300.264 121.041 300.607C120.588 300.947 120 301.117 119.277 301.117C118.77 301.117 118.32 301.027 117.93 300.848C117.539 300.668 117.233 300.418 117.01 300.098C116.791 299.773 116.682 299.424 116.682 299.049H117.766C117.785 299.412 117.93 299.701 118.199 299.916C118.473 300.127 118.832 300.232 119.277 300.232C119.688 300.232 120.016 300.15 120.262 299.986C120.512 299.818 120.637 299.596 120.637 299.318Z" fill="#9B9B9B"/>
<path d="M20.8848 327.395H18.1426V335H17.0234V327.395H14.2871V326.469H20.8848V327.395ZM21.3474 331.771C21.3474 331.15 21.4685 330.592 21.7107 330.096C21.9568 329.6 22.2966 329.217 22.7302 328.947C23.1677 328.678 23.6658 328.543 24.2244 328.543C25.0877 328.543 25.7849 328.842 26.3162 329.439C26.8513 330.037 27.1189 330.832 27.1189 331.824V331.9C27.1189 332.518 26.9998 333.072 26.7615 333.564C26.5271 334.053 26.1892 334.434 25.7478 334.707C25.3103 334.98 24.8064 335.117 24.2361 335.117C23.3767 335.117 22.6795 334.818 22.1443 334.221C21.613 333.623 21.3474 332.832 21.3474 331.848V331.771ZM22.4373 331.9C22.4373 332.604 22.5994 333.168 22.9236 333.594C23.2517 334.02 23.6892 334.232 24.2361 334.232C24.7869 334.232 25.2244 334.018 25.5486 333.588C25.8728 333.154 26.0349 332.549 26.0349 331.771C26.0349 331.076 25.8689 330.514 25.5369 330.084C25.2087 329.65 24.7712 329.434 24.2244 329.434C23.6892 329.434 23.2576 329.646 22.9295 330.072C22.6013 330.498 22.4373 331.107 22.4373 331.9ZM28.4546 331.777C28.4546 330.805 28.6851 330.023 29.146 329.434C29.607 328.84 30.2105 328.543 30.9566 328.543C31.6987 328.543 32.2866 328.797 32.7202 329.305V326H33.8042V335H32.8081L32.7554 334.32C32.3218 334.852 31.7183 335.117 30.9448 335.117C30.2105 335.117 29.6109 334.816 29.146 334.215C28.6851 333.613 28.4546 332.828 28.4546 331.859V331.777ZM29.5386 331.9C29.5386 332.619 29.687 333.182 29.9839 333.588C30.2808 333.994 30.6909 334.197 31.2144 334.197C31.9019 334.197 32.4038 333.889 32.7202 333.271V330.359C32.396 329.762 31.898 329.463 31.2261 329.463C30.6948 329.463 30.2808 329.668 29.9839 330.078C29.687 330.488 29.5386 331.096 29.5386 331.9ZM39.6458 335C39.5833 334.875 39.5325 334.652 39.4934 334.332C38.9895 334.855 38.388 335.117 37.6887 335.117C37.0637 335.117 36.5501 334.941 36.1477 334.59C35.7493 334.234 35.5501 333.785 35.5501 333.242C35.5501 332.582 35.8001 332.07 36.3001 331.707C36.804 331.34 37.511 331.156 38.4212 331.156H39.4759V330.658C39.4759 330.279 39.3626 329.979 39.136 329.756C38.9095 329.529 38.5755 329.416 38.1341 329.416C37.7473 329.416 37.4231 329.514 37.1614 329.709C36.8997 329.904 36.7688 330.141 36.7688 330.418H35.679C35.679 330.102 35.7903 329.797 36.013 329.504C36.2395 329.207 36.5442 328.973 36.927 328.801C37.3137 328.629 37.7376 328.543 38.1985 328.543C38.929 328.543 39.5012 328.727 39.9153 329.094C40.3294 329.457 40.5442 329.959 40.5598 330.6V333.518C40.5598 334.1 40.6341 334.562 40.7825 334.906V335H39.6458ZM37.847 334.174C38.1868 334.174 38.5091 334.086 38.8137 333.91C39.1184 333.734 39.3391 333.506 39.4759 333.225V331.924H38.6262C37.2981 331.924 36.6341 332.312 36.6341 333.09C36.6341 333.43 36.7473 333.695 36.9739 333.887C37.2005 334.078 37.4915 334.174 37.847 334.174ZM44.4795 333.412L45.9561 328.66H47.1162L44.5674 335.979C44.1729 337.033 43.5459 337.561 42.6866 337.561L42.4815 337.543L42.0772 337.467V336.588L42.3702 336.611C42.7373 336.611 43.0225 336.537 43.2256 336.389C43.4327 336.24 43.6026 335.969 43.7354 335.574L43.9756 334.93L41.7139 328.66H42.8975L44.4795 333.412ZM57.9908 332.293C57.8853 333.195 57.5513 333.893 56.9888 334.385C56.4302 334.873 55.6861 335.117 54.7564 335.117C53.7486 335.117 52.94 334.756 52.3306 334.033C51.7252 333.311 51.4224 332.344 51.4224 331.133V330.312C51.4224 329.52 51.563 328.822 51.8443 328.221C52.1295 327.619 52.5318 327.158 53.0513 326.838C53.5709 326.514 54.1724 326.352 54.856 326.352C55.7623 326.352 56.4888 326.605 57.0357 327.113C57.5826 327.617 57.9009 328.316 57.9908 329.211H56.8599C56.7623 328.531 56.5494 328.039 56.2212 327.734C55.897 327.43 55.442 327.277 54.856 327.277C54.1373 327.277 53.5728 327.543 53.1627 328.074C52.7564 328.605 52.5533 329.361 52.5533 330.342V331.168C52.5533 332.094 52.7466 332.83 53.1334 333.377C53.5201 333.924 54.0611 334.197 54.7564 334.197C55.3814 334.197 55.8599 334.057 56.192 333.775C56.5279 333.49 56.7505 332.996 56.8599 332.293H57.9908ZM63.5159 334.373C63.0941 334.869 62.4749 335.117 61.6585 335.117C60.9827 335.117 60.4671 334.922 60.1116 334.531C59.7601 334.137 59.5823 333.555 59.5784 332.785V328.66H60.6624V332.756C60.6624 333.717 61.053 334.197 61.8343 334.197C62.6624 334.197 63.2132 333.889 63.4866 333.271V328.66H64.5706V335H63.5394L63.5159 334.373ZM70.1544 333.318C70.1544 333.025 70.043 332.799 69.8204 332.639C69.6016 332.475 69.2169 332.334 68.6661 332.217C68.1192 332.1 67.6837 331.959 67.3595 331.795C67.0391 331.631 66.8009 331.436 66.6446 331.209C66.4923 330.982 66.4161 330.713 66.4161 330.4C66.4161 329.881 66.6348 329.441 67.0723 329.082C67.5137 328.723 68.0762 328.543 68.7598 328.543C69.4786 328.543 70.0606 328.729 70.5059 329.1C70.9552 329.471 71.1798 329.945 71.1798 330.523H70.0899C70.0899 330.227 69.963 329.971 69.7091 329.756C69.4591 329.541 69.1427 329.434 68.7598 329.434C68.3653 329.434 68.0567 329.52 67.8341 329.691C67.6114 329.863 67.5001 330.088 67.5001 330.365C67.5001 330.627 67.6036 330.824 67.8106 330.957C68.0177 331.09 68.3907 331.217 68.9298 331.338C69.4727 331.459 69.9122 331.604 70.2481 331.771C70.5841 331.939 70.8321 332.143 70.9923 332.381C71.1563 332.615 71.2384 332.902 71.2384 333.242C71.2384 333.809 71.0118 334.264 70.5587 334.607C70.1055 334.947 69.5177 335.117 68.795 335.117C68.2872 335.117 67.838 335.027 67.4473 334.848C67.0567 334.668 66.7501 334.418 66.5274 334.098C66.3087 333.773 66.1993 333.424 66.1993 333.049H67.2833C67.3028 333.412 67.4473 333.701 67.7169 333.916C67.9903 334.127 68.3497 334.232 68.795 334.232C69.2052 334.232 69.5333 334.15 69.7794 333.986C70.0294 333.818 70.1544 333.596 70.1544 333.318ZM74.3612 327.125V328.66H75.5448V329.498H74.3612V333.43C74.3612 333.684 74.4139 333.875 74.5194 334.004C74.6248 334.129 74.8045 334.191 75.0584 334.191C75.1834 334.191 75.3553 334.168 75.5741 334.121V335C75.2889 335.078 75.0116 335.117 74.742 335.117C74.2577 335.117 73.8924 334.971 73.6463 334.678C73.4002 334.385 73.2772 333.969 73.2772 333.43V329.498H72.1229V328.66H73.2772V327.125H74.3612ZM76.652 331.771C76.652 331.15 76.773 330.592 77.0152 330.096C77.2613 329.6 77.6012 329.217 78.0348 328.947C78.4723 328.678 78.9703 328.543 79.5289 328.543C80.3922 328.543 81.0895 328.842 81.6207 329.439C82.1559 330.037 82.4234 330.832 82.4234 331.824V331.9C82.4234 332.518 82.3043 333.072 82.066 333.564C81.8316 334.053 81.4938 334.434 81.0523 334.707C80.6148 334.98 80.1109 335.117 79.5406 335.117C78.6813 335.117 77.984 334.818 77.4488 334.221C76.9176 333.623 76.652 332.832 76.652 331.848V331.771ZM77.7418 331.9C77.7418 332.604 77.9039 333.168 78.2281 333.594C78.5563 334.02 78.9938 334.232 79.5406 334.232C80.0914 334.232 80.5289 334.018 80.8531 333.588C81.1773 333.154 81.3395 332.549 81.3395 331.771C81.3395 331.076 81.1734 330.514 80.8414 330.084C80.5133 329.65 80.0758 329.434 79.5289 329.434C78.9938 329.434 78.5621 329.646 78.234 330.072C77.9059 330.498 77.7418 331.107 77.7418 331.9ZM85.0423 328.66L85.0716 329.363C85.5365 328.816 86.1634 328.543 86.9525 328.543C87.8392 328.543 88.4427 328.883 88.763 329.562C88.974 329.258 89.2474 329.012 89.5834 328.824C89.9232 328.637 90.3236 328.543 90.7845 328.543C92.1752 328.543 92.8822 329.279 92.9056 330.752V335H91.8216V330.816C91.8216 330.363 91.7181 330.025 91.5111 329.803C91.3041 329.576 90.9564 329.463 90.4681 329.463C90.0658 329.463 89.7318 329.584 89.4662 329.826C89.2005 330.064 89.0462 330.387 89.0033 330.793V335H87.9134V330.846C87.9134 329.924 87.4623 329.463 86.5599 329.463C85.849 329.463 85.3627 329.766 85.1009 330.371V335H84.017V328.66H85.0423ZM97.4171 335.117C96.5577 335.117 95.8585 334.836 95.3195 334.273C94.7804 333.707 94.5109 332.951 94.5109 332.006V331.807C94.5109 331.178 94.63 330.617 94.8683 330.125C95.1105 329.629 95.4464 329.242 95.8761 328.965C96.3097 328.684 96.7784 328.543 97.2823 328.543C98.1066 328.543 98.7472 328.814 99.2042 329.357C99.6612 329.9 99.8898 330.678 99.8898 331.689V332.141H95.5948C95.6105 332.766 95.7921 333.271 96.1398 333.658C96.4913 334.041 96.9366 334.232 97.4757 334.232C97.8585 334.232 98.1827 334.154 98.4484 333.998C98.714 333.842 98.9464 333.635 99.1456 333.377L99.8077 333.893C99.2765 334.709 98.4796 335.117 97.4171 335.117ZM97.2823 329.434C96.8448 329.434 96.4777 329.594 96.1808 329.914C95.8839 330.23 95.7003 330.676 95.63 331.25H98.8058V331.168C98.7745 330.617 98.6261 330.191 98.3605 329.891C98.0948 329.586 97.7355 329.434 97.2823 329.434ZM104.454 329.633C104.29 329.605 104.112 329.592 103.921 329.592C103.21 329.592 102.727 329.895 102.474 330.5V335H101.39V328.66H102.444L102.462 329.393C102.817 328.826 103.321 328.543 103.974 328.543C104.184 328.543 104.345 328.57 104.454 328.625V329.633ZM109.387 333.318C109.387 333.025 109.276 332.799 109.053 332.639C108.835 332.475 108.45 332.334 107.899 332.217C107.352 332.1 106.917 331.959 106.592 331.795C106.272 331.631 106.034 331.436 105.878 331.209C105.725 330.982 105.649 330.713 105.649 330.4C105.649 329.881 105.868 329.441 106.305 329.082C106.747 328.723 107.309 328.543 107.993 328.543C108.712 328.543 109.294 328.729 109.739 329.1C110.188 329.471 110.413 329.945 110.413 330.523H109.323C109.323 330.227 109.196 329.971 108.942 329.756C108.692 329.541 108.376 329.434 107.993 329.434C107.598 329.434 107.29 329.52 107.067 329.691C106.844 329.863 106.733 330.088 106.733 330.365C106.733 330.627 106.837 330.824 107.044 330.957C107.251 331.09 107.624 331.217 108.163 331.338C108.706 331.459 109.145 331.604 109.481 331.771C109.817 331.939 110.065 332.143 110.225 332.381C110.389 332.615 110.471 332.902 110.471 333.242C110.471 333.809 110.245 334.264 109.792 334.607C109.339 334.947 108.751 335.117 108.028 335.117C107.52 335.117 107.071 335.027 106.68 334.848C106.29 334.668 105.983 334.418 105.76 334.098C105.542 333.773 105.432 333.424 105.432 333.049H106.516C106.536 333.412 106.68 333.701 106.95 333.916C107.223 334.127 107.583 334.232 108.028 334.232C108.438 334.232 108.766 334.15 109.012 333.986C109.262 333.818 109.387 333.596 109.387 333.318Z" fill="#9B9B9B"/>
<path d="M188.5 271H180.852V269.695L184.641 265.562C185.188 264.953 185.576 264.445 185.805 264.039C186.039 263.628 186.156 263.216 186.156 262.805C186.156 262.263 186.003 261.826 185.695 261.492C185.393 261.159 184.984 260.992 184.469 260.992C183.854 260.992 183.378 261.18 183.039 261.555C182.701 261.93 182.531 262.443 182.531 263.094H180.633C180.633 262.401 180.789 261.779 181.102 261.227C181.419 260.669 181.87 260.237 182.453 259.93C183.042 259.622 183.719 259.469 184.484 259.469C185.589 259.469 186.458 259.747 187.094 260.305C187.734 260.857 188.055 261.622 188.055 262.602C188.055 263.169 187.893 263.766 187.57 264.391C187.253 265.01 186.729 265.716 186 266.508L183.219 269.484H188.5V271ZM195.406 271H193.515V261.867L190.726 262.82V261.219L195.164 259.586H195.406V271ZM207.249 260.68L202.702 271H200.71L205.249 261.148H199.367V259.625H207.249V260.68ZM214.999 259.57V261.141H214.765C213.702 261.156 212.853 261.448 212.218 262.016C211.582 262.583 211.205 263.388 211.085 264.43C211.694 263.789 212.473 263.469 213.421 263.469C214.426 263.469 215.218 263.823 215.796 264.531C216.379 265.24 216.671 266.154 216.671 267.273C216.671 268.43 216.33 269.367 215.647 270.086C214.97 270.799 214.08 271.156 212.976 271.156C211.84 271.156 210.918 270.737 210.21 269.898C209.507 269.06 209.155 267.961 209.155 266.602V265.953C209.155 263.958 209.64 262.396 210.608 261.266C211.582 260.135 212.981 259.57 214.804 259.57H214.999ZM212.96 265C212.543 265 212.161 265.117 211.812 265.352C211.468 265.586 211.215 265.898 211.054 266.289V266.867C211.054 267.711 211.231 268.383 211.585 268.883C211.939 269.378 212.397 269.625 212.96 269.625C213.522 269.625 213.968 269.414 214.296 268.992C214.624 268.57 214.788 268.016 214.788 267.328C214.788 266.641 214.621 266.081 214.288 265.648C213.955 265.216 213.512 265 212.96 265ZM219.014 265.359L219.632 259.625H225.741V261.266H221.21L220.897 263.984C221.423 263.682 222.017 263.531 222.678 263.531C223.762 263.531 224.603 263.878 225.202 264.57C225.806 265.263 226.108 266.195 226.108 267.367C226.108 268.523 225.775 269.445 225.108 270.133C224.441 270.815 223.527 271.156 222.366 271.156C221.324 271.156 220.46 270.862 219.772 270.273C219.09 269.68 218.72 268.898 218.663 267.93H220.499C220.572 268.482 220.77 268.906 221.092 269.203C221.415 269.495 221.837 269.641 222.358 269.641C222.941 269.641 223.395 269.432 223.717 269.016C224.046 268.599 224.21 268.031 224.21 267.312C224.21 266.62 224.03 266.073 223.671 265.672C223.311 265.266 222.816 265.062 222.186 265.062C221.842 265.062 221.551 265.109 221.311 265.203C221.072 265.292 220.811 265.469 220.53 265.734L219.014 265.359Z" fill="black"/>
<path d="M207.501 289.68L202.954 300H200.962L205.501 290.148H199.618V288.625H207.501V289.68ZM215.25 288.57V290.141H215.016C213.953 290.156 213.104 290.448 212.469 291.016C211.834 291.583 211.456 292.388 211.336 293.43C211.946 292.789 212.724 292.469 213.672 292.469C214.677 292.469 215.469 292.823 216.047 293.531C216.631 294.24 216.922 295.154 216.922 296.273C216.922 297.43 216.581 298.367 215.899 299.086C215.222 299.799 214.331 300.156 213.227 300.156C212.091 300.156 211.17 299.737 210.461 298.898C209.758 298.06 209.407 296.961 209.407 295.602V294.953C209.407 292.958 209.891 291.396 210.86 290.266C211.834 289.135 213.232 288.57 215.055 288.57H215.25ZM213.211 294C212.795 294 212.412 294.117 212.063 294.352C211.719 294.586 211.466 294.898 211.305 295.289V295.867C211.305 296.711 211.482 297.383 211.836 297.883C212.19 298.378 212.649 298.625 213.211 298.625C213.774 298.625 214.219 298.414 214.547 297.992C214.875 297.57 215.039 297.016 215.039 296.328C215.039 295.641 214.873 295.081 214.539 294.648C214.206 294.216 213.763 294 213.211 294ZM219.266 294.359L219.883 288.625H225.992V290.266H221.461L221.148 292.984C221.674 292.682 222.268 292.531 222.93 292.531C224.013 292.531 224.854 292.878 225.453 293.57C226.057 294.263 226.359 295.195 226.359 296.367C226.359 297.523 226.026 298.445 225.359 299.133C224.693 299.815 223.779 300.156 222.617 300.156C221.576 300.156 220.711 299.862 220.023 299.273C219.341 298.68 218.971 297.898 218.914 296.93H220.75C220.823 297.482 221.021 297.906 221.344 298.203C221.667 298.495 222.089 298.641 222.609 298.641C223.193 298.641 223.646 298.432 223.969 298.016C224.297 297.599 224.461 297.031 224.461 296.312C224.461 295.62 224.281 295.073 223.922 294.672C223.562 294.266 223.068 294.062 222.438 294.062C222.094 294.062 221.802 294.109 221.562 294.203C221.323 294.292 221.062 294.469 220.781 294.734L219.266 294.359Z" fill="black"/>
<path d="M224.141 329.242C223.505 329.914 222.763 330.25 221.914 330.25C220.914 330.25 220.117 329.901 219.523 329.203C218.93 328.5 218.633 327.578 218.633 326.438C218.633 325.688 218.784 325.008 219.086 324.398C219.388 323.789 219.818 323.315 220.375 322.977C220.932 322.638 221.578 322.469 222.312 322.469C223.458 322.469 224.367 322.896 225.039 323.75C225.711 324.604 226.047 325.747 226.047 327.18V327.711C226.047 329.763 225.583 331.328 224.656 332.406C223.729 333.484 222.346 334.031 220.508 334.047H220.281V332.477H220.555C221.674 332.461 222.534 332.193 223.133 331.672C223.732 331.146 224.068 330.336 224.141 329.242ZM222.312 328.766C222.693 328.766 223.049 328.656 223.383 328.438C223.716 328.219 223.974 327.917 224.156 327.531V326.789C224.156 325.951 223.984 325.276 223.641 324.766C223.297 324.255 222.852 324 222.305 324C221.758 324 221.32 324.227 220.992 324.68C220.669 325.128 220.508 325.695 220.508 326.383C220.508 327.096 220.672 327.672 221 328.109C221.328 328.547 221.766 328.766 222.312 328.766Z" fill="black"/>
<path d="M197 44.5067L119 89V0.0134554C158.642 -0.728099 187.518 29.3667 197 44.5067Z" fill="#FF8B26"/>
<path d="M114.054 93.3417V0.0764707C92.8704 -1.3087 33.3466 15.7746 23.7925 79.9521C18.8437 113.195 35.766 183.375 111.752 187.992C175.487 188.731 202.781 138.589 208 113.195C178.987 107.962 120.225 97.4047 117.278 97.0353C114.331 96.666 113.901 94.419 114.054 93.3417Z" fill="#285FD3"/>
<path d="M198.251 49L123 92.7302C157.625 99.1746 180.246 102.857 208.87 107C213.302 77.5397 203.637 56.0582 198.251 49Z" fill="#FFC533"/>
<circle cx="3.5" cy="264.5" r="3.5" fill="#285FD3"/>
<circle cx="3.5" cy="297.5" r="3.5" fill="#FF8B26"/>
<circle cx="3.5" cy="331.5" r="3.5" fill="#FFC533"/>
</svg>
