<svg width="227" height="309" viewBox="0 0 227 309" fill="none" xmlns="http://www.w3.org/2000/svg">
<path d="M59.0805 202.069H56.602V207H54.3784V194.203H58.8784C60.355 194.203 61.4946 194.534 62.2973 195.196C63.1001 195.858 63.5014 196.816 63.5014 198.07C63.5014 198.926 63.2934 199.644 62.8774 200.224C62.4673 200.798 61.893 201.24 61.1548 201.551L64.0288 206.886V207H61.647L59.0805 202.069ZM56.602 200.285H58.8872C59.6372 200.285 60.2231 200.098 60.645 199.723C61.0669 199.342 61.2778 198.823 61.2778 198.167C61.2778 197.481 61.0815 196.951 60.6889 196.576C60.3022 196.201 59.7221 196.008 58.9487 195.996H56.602V200.285ZM71.0948 204.416C71.0948 204.035 70.9366 203.745 70.6202 203.546C70.3097 203.347 69.7911 203.171 69.0646 203.019C68.338 202.866 67.7316 202.673 67.2452 202.438C66.1788 201.923 65.6456 201.176 65.6456 200.197C65.6456 199.377 65.9913 198.691 66.6827 198.141C67.3741 197.59 68.253 197.314 69.3195 197.314C70.4562 197.314 71.3732 197.596 72.0704 198.158C72.7736 198.721 73.1251 199.45 73.1251 200.347H70.9894C70.9894 199.937 70.837 199.597 70.5323 199.327C70.2277 199.052 69.8234 198.914 69.3195 198.914C68.8507 198.914 68.4669 199.022 68.1681 199.239C67.8751 199.456 67.7286 199.746 67.7286 200.109C67.7286 200.438 67.8663 200.692 68.1417 200.874C68.4171 201.056 68.9738 201.24 69.8116 201.428C70.6495 201.609 71.3058 201.829 71.7804 202.087C72.2609 202.339 72.6154 202.644 72.8439 203.001C73.0782 203.358 73.1954 203.792 73.1954 204.302C73.1954 205.157 72.8409 205.852 72.132 206.385C71.423 206.912 70.4943 207.176 69.3458 207.176C68.5665 207.176 67.8722 207.035 67.2628 206.754C66.6534 206.473 66.1788 206.086 65.839 205.594C65.4991 205.102 65.3292 204.571 65.3292 204.003H67.4034C67.4327 204.507 67.6232 204.896 67.9747 205.172C68.3263 205.441 68.7921 205.576 69.3722 205.576C69.9347 205.576 70.3624 205.471 70.6554 205.26C70.9484 205.043 71.0948 204.762 71.0948 204.416ZM76.7546 204.75C77.1531 204.75 77.4607 204.864 77.6775 205.093C77.8943 205.315 78.0027 205.597 78.0027 205.937C78.0027 206.271 77.8943 206.549 77.6775 206.771C77.4607 206.988 77.1531 207.097 76.7546 207.097C76.3738 207.097 76.072 206.988 75.8494 206.771C75.6267 206.555 75.5154 206.276 75.5154 205.937C75.5154 205.597 75.6238 205.315 75.8406 205.093C76.0574 204.864 76.3621 204.75 76.7546 204.75ZM94.1211 207H85.5166V205.532L89.7793 200.883C90.3946 200.197 90.8311 199.626 91.0889 199.169C91.3526 198.706 91.4844 198.243 91.4844 197.78C91.4844 197.171 91.3116 196.679 90.9659 196.304C90.626 195.929 90.1661 195.741 89.586 195.741C88.8946 195.741 88.3584 195.952 87.9776 196.374C87.5967 196.796 87.4063 197.373 87.4063 198.105H85.2705C85.2705 197.326 85.4463 196.626 85.7979 196.005C86.1553 195.378 86.6621 194.892 87.3184 194.546C87.9805 194.2 88.7422 194.027 89.6036 194.027C90.8457 194.027 91.8243 194.341 92.5391 194.968C93.2598 195.589 93.6202 196.45 93.6202 197.552C93.6202 198.19 93.4385 198.861 93.0752 199.564C92.7178 200.262 92.1289 201.056 91.3086 201.946L88.1797 205.295H94.1211V207ZM96.6784 200.654L97.3727 194.203H104.246V196.049H99.1481L98.7966 199.107C99.3884 198.768 100.056 198.598 100.8 198.598C102.019 198.598 102.966 198.987 103.639 199.767C104.319 200.546 104.659 201.595 104.659 202.913C104.659 204.214 104.284 205.251 103.534 206.024C102.784 206.792 101.756 207.176 100.449 207.176C99.277 207.176 98.3044 206.845 97.5309 206.183C96.7634 205.515 96.3473 204.636 96.2829 203.546H98.3483C98.4304 204.167 98.653 204.645 99.0163 204.979C99.3796 205.307 99.8542 205.471 100.44 205.471C101.096 205.471 101.606 205.236 101.969 204.768C102.339 204.299 102.523 203.66 102.523 202.852C102.523 202.072 102.321 201.457 101.917 201.006C101.512 200.549 100.956 200.32 100.247 200.32C99.86 200.32 99.5319 200.373 99.2624 200.479C98.9929 200.578 98.6999 200.777 98.3835 201.076L96.6784 200.654ZM113.922 202.438H115.513V204.152H113.922V207H111.786V204.152H106.258L106.197 202.852L111.716 194.203H113.922V202.438ZM108.438 202.438H111.786V197.095L111.628 197.376L108.438 202.438ZM125.348 197.578C125.348 198.205 125.186 198.765 124.864 199.257C124.542 199.743 124.103 200.127 123.546 200.408C124.214 200.719 124.727 201.144 125.084 201.683C125.447 202.222 125.629 202.831 125.629 203.511C125.629 204.636 125.248 205.529 124.486 206.191C123.725 206.848 122.711 207.176 121.445 207.176C120.174 207.176 119.154 206.845 118.387 206.183C117.625 205.521 117.244 204.63 117.244 203.511C117.244 202.825 117.426 202.21 117.789 201.665C118.152 201.12 118.662 200.701 119.318 200.408C118.768 200.127 118.331 199.743 118.009 199.257C117.692 198.765 117.534 198.205 117.534 197.578C117.534 196.488 117.886 195.624 118.589 194.985C119.292 194.347 120.241 194.027 121.436 194.027C122.638 194.027 123.59 194.347 124.293 194.985C124.996 195.624 125.348 196.488 125.348 197.578ZM123.493 203.405C123.493 202.772 123.303 202.263 122.922 201.876C122.547 201.483 122.049 201.287 121.428 201.287C120.807 201.287 120.309 201.48 119.934 201.867C119.564 202.254 119.38 202.767 119.38 203.405C119.38 204.032 119.561 204.533 119.925 204.908C120.294 205.283 120.801 205.471 121.445 205.471C122.09 205.471 122.591 205.289 122.948 204.926C123.311 204.562 123.493 204.056 123.493 203.405ZM123.221 197.657C123.221 197.101 123.06 196.644 122.737 196.286C122.415 195.923 121.981 195.741 121.436 195.741C120.892 195.741 120.461 195.914 120.144 196.26C119.828 196.6 119.67 197.065 119.67 197.657C119.67 198.243 119.828 198.709 120.144 199.055C120.467 199.4 120.9 199.573 121.445 199.573C121.99 199.573 122.421 199.4 122.737 199.055C123.06 198.709 123.221 198.243 123.221 197.657ZM133.934 201.647C133.219 202.403 132.384 202.781 131.429 202.781C130.304 202.781 129.408 202.389 128.74 201.604C128.072 200.812 127.738 199.775 127.738 198.492C127.738 197.648 127.908 196.884 128.248 196.198C128.587 195.513 129.071 194.979 129.698 194.599C130.325 194.218 131.051 194.027 131.878 194.027C133.167 194.027 134.189 194.508 134.945 195.469C135.701 196.43 136.079 197.716 136.079 199.327V199.925C136.079 202.233 135.557 203.994 134.514 205.207C133.471 206.42 131.916 207.035 129.847 207.053H129.592V205.286H129.9C131.16 205.269 132.127 204.967 132.8 204.381C133.474 203.789 133.852 202.878 133.934 201.647ZM131.878 201.111C132.305 201.111 132.707 200.988 133.082 200.742C133.457 200.496 133.747 200.156 133.952 199.723V198.888C133.952 197.944 133.758 197.186 133.372 196.611C132.985 196.037 132.484 195.75 131.869 195.75C131.254 195.75 130.761 196.005 130.392 196.515C130.029 197.019 129.847 197.657 129.847 198.431C129.847 199.233 130.032 199.881 130.401 200.373C130.77 200.865 131.262 201.111 131.878 201.111ZM146.986 195.39L141.87 207H139.629L144.736 195.917H138.117V194.203H146.986V195.39ZM149.631 200.654L150.325 194.203H157.198V196.049H152.1L151.749 199.107C152.341 198.768 153.009 198.598 153.753 198.598C154.972 198.598 155.918 198.987 156.592 199.767C157.271 200.546 157.611 201.595 157.611 202.913C157.611 204.214 157.236 205.251 156.486 206.024C155.736 206.792 154.708 207.176 153.401 207.176C152.229 207.176 151.257 206.845 150.483 206.183C149.716 205.515 149.3 204.636 149.235 203.546H151.301C151.383 204.167 151.605 204.645 151.969 204.979C152.332 205.307 152.807 205.471 153.392 205.471C154.049 205.471 154.558 205.236 154.922 204.768C155.291 204.299 155.475 203.66 155.475 202.852C155.475 202.072 155.273 201.457 154.869 201.006C154.465 200.549 153.908 200.32 153.199 200.32C152.812 200.32 152.484 200.373 152.215 200.479C151.945 200.578 151.652 200.777 151.336 201.076L149.631 200.654ZM166.294 194.142V195.908H166.031C164.835 195.926 163.88 196.254 163.166 196.893C162.451 197.531 162.026 198.437 161.891 199.608C162.577 198.888 163.453 198.527 164.519 198.527C165.65 198.527 166.541 198.926 167.191 199.723C167.847 200.52 168.175 201.548 168.175 202.808C168.175 204.108 167.792 205.163 167.024 205.972C166.262 206.774 165.26 207.176 164.018 207.176C162.741 207.176 161.704 206.704 160.907 205.761C160.116 204.817 159.72 203.581 159.72 202.052V201.322C159.72 199.078 160.265 197.32 161.355 196.049C162.451 194.777 164.024 194.142 166.075 194.142H166.294ZM164.001 200.25C163.532 200.25 163.101 200.382 162.709 200.646C162.322 200.909 162.038 201.261 161.856 201.7V202.351C161.856 203.3 162.055 204.056 162.454 204.618C162.852 205.175 163.368 205.453 164.001 205.453C164.633 205.453 165.134 205.216 165.503 204.741C165.873 204.267 166.057 203.643 166.057 202.869C166.057 202.096 165.87 201.466 165.495 200.979C165.12 200.493 164.622 200.25 164.001 200.25Z" fill="black"/>
<path d="M18.1191 269.549H16.1152V273H14.9844V264.469H17.8086C18.7695 264.469 19.5078 264.688 20.0234 265.125C20.543 265.562 20.8027 266.199 20.8027 267.035C20.8027 267.566 20.6582 268.029 20.3691 268.424C20.084 268.818 19.6855 269.113 19.1738 269.309L21.1777 272.93V273H19.9707L18.1191 269.549ZM16.1152 268.629H17.8438C18.4023 268.629 18.8457 268.484 19.1738 268.195C19.5059 267.906 19.6719 267.52 19.6719 267.035C19.6719 266.508 19.5137 266.104 19.1973 265.822C18.8848 265.541 18.4316 265.398 17.8379 265.395H16.1152V268.629ZM26.3689 273C26.3064 272.875 26.2556 272.652 26.2166 272.332C25.7127 272.855 25.1111 273.117 24.4119 273.117C23.7869 273.117 23.2732 272.941 22.8709 272.59C22.4724 272.234 22.2732 271.785 22.2732 271.242C22.2732 270.582 22.5232 270.07 23.0232 269.707C23.5271 269.34 24.2341 269.156 25.1443 269.156H26.199V268.658C26.199 268.279 26.0857 267.979 25.8591 267.756C25.6326 267.529 25.2986 267.416 24.8572 267.416C24.4705 267.416 24.1462 267.514 23.8845 267.709C23.6228 267.904 23.492 268.141 23.492 268.418H22.4021C22.4021 268.102 22.5134 267.797 22.7361 267.504C22.9627 267.207 23.2673 266.973 23.6502 266.801C24.0369 266.629 24.4607 266.543 24.9216 266.543C25.6521 266.543 26.2244 266.727 26.6384 267.094C27.0525 267.457 27.2673 267.959 27.283 268.6V271.518C27.283 272.1 27.3572 272.562 27.5056 272.906V273H26.3689ZM24.5701 272.174C24.9099 272.174 25.2322 272.086 25.5369 271.91C25.8416 271.734 26.0623 271.506 26.199 271.225V269.924H25.3494C24.0212 269.924 23.3572 270.312 23.3572 271.09C23.3572 271.43 23.4705 271.695 23.697 271.887C23.9236 272.078 24.2146 272.174 24.5701 272.174ZM30.2417 272.115H33.9507V273H28.9175V272.203L32.4155 267.557H28.9702V266.66H33.7749V267.428L30.2417 272.115ZM35.0345 269.771C35.0345 269.15 35.1555 268.592 35.3977 268.096C35.6438 267.6 35.9837 267.217 36.4173 266.947C36.8548 266.678 37.3528 266.543 37.9114 266.543C38.7747 266.543 39.472 266.842 40.0032 267.439C40.5384 268.037 40.8059 268.832 40.8059 269.824V269.9C40.8059 270.518 40.6868 271.072 40.4485 271.564C40.2141 272.053 39.8762 272.434 39.4348 272.707C38.9973 272.98 38.4934 273.117 37.9231 273.117C37.0637 273.117 36.3665 272.818 35.8313 272.221C35.3001 271.623 35.0345 270.832 35.0345 269.848V269.771ZM36.1243 269.9C36.1243 270.604 36.2864 271.168 36.6106 271.594C36.9387 272.02 37.3762 272.232 37.9231 272.232C38.4739 272.232 38.9114 272.018 39.2356 271.588C39.5598 271.154 39.722 270.549 39.722 269.771C39.722 269.076 39.5559 268.514 39.2239 268.084C38.8958 267.65 38.4583 267.434 37.9114 267.434C37.3762 267.434 36.9446 267.646 36.6165 268.072C36.2884 268.498 36.1243 269.107 36.1243 269.9ZM45.4698 267.633C45.3057 267.605 45.128 267.592 44.9366 267.592C44.2256 267.592 43.7432 267.895 43.4893 268.5V273H42.4053V266.66H43.46L43.4776 267.393C43.833 266.826 44.337 266.543 44.9893 266.543C45.2002 266.543 45.3604 266.57 45.4698 266.625V267.633ZM51.2232 269.66V273H50.0982V264.469H53.2447C54.1783 264.469 54.9087 264.707 55.4361 265.184C55.9673 265.66 56.233 266.291 56.233 267.076C56.233 267.904 55.9732 268.543 55.4537 268.992C54.938 269.438 54.1978 269.66 53.233 269.66H51.2232ZM51.2232 268.74H53.2447C53.8462 268.74 54.3072 268.6 54.6275 268.318C54.9478 268.033 55.108 267.623 55.108 267.088C55.108 266.58 54.9478 266.174 54.6275 265.869C54.3072 265.564 53.8677 265.406 53.3091 265.395H51.2232V268.74ZM61.5823 273C61.5198 272.875 61.4691 272.652 61.43 272.332C60.9261 272.855 60.3245 273.117 59.6253 273.117C59.0003 273.117 58.4866 272.941 58.0843 272.59C57.6859 272.234 57.4866 271.785 57.4866 271.242C57.4866 270.582 57.7366 270.07 58.2366 269.707C58.7405 269.34 59.4476 269.156 60.3577 269.156H61.4124V268.658C61.4124 268.279 61.2991 267.979 61.0726 267.756C60.846 267.529 60.512 267.416 60.0706 267.416C59.6839 267.416 59.3597 267.514 59.098 267.709C58.8363 267.904 58.7054 268.141 58.7054 268.418H57.6155C57.6155 268.102 57.7269 267.797 57.9495 267.504C58.1761 267.207 58.4808 266.973 58.8636 266.801C59.2503 266.629 59.6741 266.543 60.1351 266.543C60.8655 266.543 61.4378 266.727 61.8519 267.094C62.2659 267.457 62.4808 267.959 62.4964 268.6V271.518C62.4964 272.1 62.5706 272.562 62.7191 272.906V273H61.5823ZM59.7835 272.174C60.1234 272.174 60.4456 272.086 60.7503 271.91C61.055 271.734 61.2757 271.506 61.4124 271.225V269.924H60.5628C59.2347 269.924 58.5706 270.312 58.5706 271.09C58.5706 271.43 58.6839 271.695 58.9105 271.887C59.137 272.078 59.428 272.174 59.7835 272.174ZM66.4161 271.412L67.8927 266.66H69.0528L66.504 273.979C66.1095 275.033 65.4825 275.561 64.6231 275.561L64.418 275.543L64.0137 275.467V274.588L64.3067 274.611C64.6739 274.611 64.9591 274.537 65.1622 274.389C65.3692 274.24 65.5391 273.969 65.672 273.574L65.9122 272.93L63.6505 266.66H64.8341L66.4161 271.412Z" fill="#9B9B9B"/>
<path d="M21.2656 303.293C21.1602 304.195 20.8262 304.893 20.2637 305.385C19.7051 305.873 18.9609 306.117 18.0312 306.117C17.0234 306.117 16.2148 305.756 15.6055 305.033C15 304.311 14.6973 303.344 14.6973 302.133V301.312C14.6973 300.52 14.8379 299.822 15.1191 299.221C15.4043 298.619 15.8066 298.158 16.3262 297.838C16.8457 297.514 17.4473 297.352 18.1309 297.352C19.0371 297.352 19.7637 297.605 20.3105 298.113C20.8574 298.617 21.1758 299.316 21.2656 300.211H20.1348C20.0371 299.531 19.8242 299.039 19.4961 298.734C19.1719 298.43 18.7168 298.277 18.1309 298.277C17.4121 298.277 16.8477 298.543 16.4375 299.074C16.0312 299.605 15.8281 300.361 15.8281 301.342V302.168C15.8281 303.094 16.0215 303.83 16.4082 304.377C16.7949 304.924 17.3359 305.197 18.0312 305.197C18.6562 305.197 19.1348 305.057 19.4668 304.775C19.8027 304.49 20.0254 303.996 20.1348 303.293H21.2656ZM29.6091 302.01C29.6091 302.846 29.4685 303.576 29.1873 304.201C28.906 304.822 28.5076 305.297 27.992 305.625C27.4763 305.953 26.8748 306.117 26.1873 306.117C25.5154 306.117 24.9197 305.953 24.4002 305.625C23.8806 305.293 23.4763 304.822 23.1873 304.213C22.9021 303.6 22.7556 302.891 22.7478 302.086V301.471C22.7478 300.65 22.8904 299.926 23.1755 299.297C23.4607 298.668 23.863 298.188 24.3826 297.855C24.906 297.52 25.5037 297.352 26.1755 297.352C26.8591 297.352 27.4607 297.518 27.9802 297.85C28.5037 298.178 28.906 298.656 29.1873 299.285C29.4685 299.91 29.6091 300.639 29.6091 301.471V302.01ZM28.49 301.459C28.49 300.447 28.2869 299.672 27.8806 299.133C27.4744 298.59 26.906 298.318 26.1755 298.318C25.4646 298.318 24.9041 298.59 24.4939 299.133C24.0877 299.672 23.8787 300.422 23.867 301.383V302.01C23.867 302.99 24.072 303.762 24.4822 304.324C24.8962 304.883 25.4646 305.162 26.1873 305.162C26.9138 305.162 27.4763 304.898 27.8748 304.371C28.2732 303.84 28.4783 303.08 28.49 302.092V301.459ZM31.5366 306V297.469H33.9448C34.687 297.469 35.3433 297.633 35.9136 297.961C36.4839 298.289 36.9234 298.756 37.232 299.361C37.5445 299.967 37.7027 300.662 37.7066 301.447V301.992C37.7066 302.797 37.5503 303.502 37.2378 304.107C36.9292 304.713 36.4859 305.178 35.9077 305.502C35.3335 305.826 34.6636 305.992 33.898 306H31.5366ZM32.6616 298.395V305.08H33.8452C34.7124 305.08 35.3862 304.811 35.8667 304.271C36.3511 303.732 36.5933 302.965 36.5933 301.969V301.471C36.5933 300.502 36.3648 299.75 35.9077 299.215C35.4546 298.676 34.8101 298.402 33.9741 298.395H32.6616Z" fill="#9B9B9B"/>
<path d="M188.5 276H180.852V274.695L184.641 270.562C185.188 269.953 185.576 269.445 185.805 269.039C186.039 268.628 186.156 268.216 186.156 267.805C186.156 267.263 186.003 266.826 185.695 266.492C185.393 266.159 184.984 265.992 184.469 265.992C183.854 265.992 183.378 266.18 183.039 266.555C182.701 266.93 182.531 267.443 182.531 268.094H180.633C180.633 267.401 180.789 266.779 181.102 266.227C181.419 265.669 181.87 265.237 182.453 264.93C183.042 264.622 183.719 264.469 184.484 264.469C185.589 264.469 186.458 264.747 187.094 265.305C187.734 265.857 188.055 266.622 188.055 267.602C188.055 268.169 187.893 268.766 187.57 269.391C187.253 270.01 186.729 270.716 186 271.508L183.219 274.484H188.5V276ZM195.406 276H193.515V266.867L190.726 267.82V266.219L195.164 264.586H195.406V276ZM207.249 265.68L202.702 276H200.71L205.249 266.148H199.367V264.625H207.249V265.68ZM214.999 264.57V266.141H214.765C213.702 266.156 212.853 266.448 212.218 267.016C211.582 267.583 211.205 268.388 211.085 269.43C211.694 268.789 212.473 268.469 213.421 268.469C214.426 268.469 215.218 268.823 215.796 269.531C216.379 270.24 216.671 271.154 216.671 272.273C216.671 273.43 216.33 274.367 215.647 275.086C214.97 275.799 214.08 276.156 212.976 276.156C211.84 276.156 210.918 275.737 210.21 274.898C209.507 274.06 209.155 272.961 209.155 271.602V270.953C209.155 268.958 209.64 267.396 210.608 266.266C211.582 265.135 212.981 264.57 214.804 264.57H214.999ZM212.96 270C212.543 270 212.161 270.117 211.812 270.352C211.468 270.586 211.215 270.898 211.054 271.289V271.867C211.054 272.711 211.231 273.383 211.585 273.883C211.939 274.378 212.397 274.625 212.96 274.625C213.522 274.625 213.968 274.414 214.296 273.992C214.624 273.57 214.788 273.016 214.788 272.328C214.788 271.641 214.621 271.081 214.288 270.648C213.955 270.216 213.512 270 212.96 270ZM219.014 270.359L219.632 264.625H225.741V266.266H221.21L220.897 268.984C221.423 268.682 222.017 268.531 222.678 268.531C223.762 268.531 224.603 268.878 225.202 269.57C225.806 270.263 226.108 271.195 226.108 272.367C226.108 273.523 225.775 274.445 225.108 275.133C224.441 275.815 223.527 276.156 222.366 276.156C221.324 276.156 220.46 275.862 219.772 275.273C219.09 274.68 218.72 273.898 218.663 272.93H220.499C220.572 273.482 220.77 273.906 221.092 274.203C221.415 274.495 221.837 274.641 222.358 274.641C222.941 274.641 223.395 274.432 223.717 274.016C224.046 273.599 224.21 273.031 224.21 272.312C224.21 271.62 224.03 271.073 223.671 270.672C223.311 270.266 222.816 270.062 222.186 270.062C221.842 270.062 221.551 270.109 221.311 270.203C221.072 270.292 220.811 270.469 220.53 270.734L219.014 270.359Z" fill="black"/>
<path d="M207.501 294.68L202.954 305H200.962L205.501 295.148H199.618V293.625H207.501V294.68ZM215.25 293.57V295.141H215.016C213.953 295.156 213.104 295.448 212.469 296.016C211.834 296.583 211.456 297.388 211.336 298.43C211.946 297.789 212.724 297.469 213.672 297.469C214.677 297.469 215.469 297.823 216.047 298.531C216.631 299.24 216.922 300.154 216.922 301.273C216.922 302.43 216.581 303.367 215.899 304.086C215.222 304.799 214.331 305.156 213.227 305.156C212.091 305.156 211.17 304.737 210.461 303.898C209.758 303.06 209.407 301.961 209.407 300.602V299.953C209.407 297.958 209.891 296.396 210.86 295.266C211.834 294.135 213.232 293.57 215.055 293.57H215.25ZM213.211 299C212.795 299 212.412 299.117 212.063 299.352C211.719 299.586 211.466 299.898 211.305 300.289V300.867C211.305 301.711 211.482 302.383 211.836 302.883C212.19 303.378 212.649 303.625 213.211 303.625C213.774 303.625 214.219 303.414 214.547 302.992C214.875 302.57 215.039 302.016 215.039 301.328C215.039 300.641 214.873 300.081 214.539 299.648C214.206 299.216 213.763 299 213.211 299ZM219.266 299.359L219.883 293.625H225.992V295.266H221.461L221.148 297.984C221.674 297.682 222.268 297.531 222.93 297.531C224.013 297.531 224.854 297.878 225.453 298.57C226.057 299.263 226.359 300.195 226.359 301.367C226.359 302.523 226.026 303.445 225.359 304.133C224.693 304.815 223.779 305.156 222.617 305.156C221.576 305.156 220.711 304.862 220.023 304.273C219.341 303.68 218.971 302.898 218.914 301.93H220.75C220.823 302.482 221.021 302.906 221.344 303.203C221.667 303.495 222.089 303.641 222.609 303.641C223.193 303.641 223.646 303.432 223.969 303.016C224.297 302.599 224.461 302.031 224.461 301.312C224.461 300.62 224.281 300.073 223.922 299.672C223.562 299.266 223.068 299.062 222.438 299.062C222.094 299.062 221.802 299.109 221.562 299.203C221.323 299.292 221.062 299.469 220.781 299.734L219.266 299.359Z" fill="black"/>
<circle cx="3.5" cy="269.5" r="3.5" fill="#285FD3"/>
<circle cx="3.5" cy="302.5" r="3.5" fill="#FFC533"/>
<path fill-rule="evenodd" clip-rule="evenodd" d="M110.164 0C64.709 0.449818 28 37.4369 28 82.9979C28 128.839 65.1613 166 111.002 166C146.828 166 177.352 143.303 188.98 111.504H167.202C156.798 131.975 135.538 146 111.002 146C76.207 146 48 117.793 48 82.9979C48 48.4827 75.755 20.4501 110.164 20.0013V0Z" fill="#285FD3"/>
<path fill-rule="evenodd" clip-rule="evenodd" d="M113.174 20.0098C148.758 20.6058 176 48.2345 176 80.5C176 90.372 173.45 99.8099 168.891 108.172H190.905C194.201 99.5435 196 90.223 196 80.5C196 36.4168 159.025 0.609812 113.174 0.00769043V20.0098ZM117.394 160.837C121.874 160.565 126.258 159.956 130.519 159.037L117.394 160.837Z" fill="#FFC533"/>
</svg>
