<svg width="541" height="592" viewBox="0 0 541 592" fill="none" xmlns="http://www.w3.org/2000/svg">
<path d="M372.854 71.8667H321.594V100.705C321.594 117.549 307.891 131.257 291.047 131.257H115.087C98.2376 131.257 84.5349 117.549 84.5349 100.705V71.8667H33.2749C15.4055 71.8667 0.858887 86.408 0.858887 104.279V559.572C0.858887 577.441 15.4055 591.988 33.2749 591.988H372.848C390.718 591.988 405.264 577.441 405.264 559.572V104.279C405.264 86.4094 390.718 71.8667 372.848 71.8667H372.854ZM69.2402 448.893H137.09C139.1 448.893 140.735 450.529 140.735 452.539V520.394C140.735 522.404 139.1 524.04 137.09 524.04H69.2402C67.2194 524.04 65.5944 522.404 65.5944 520.394V452.539C65.5944 450.529 67.2194 448.893 69.2402 448.893ZM65.5944 392.107V324.252C65.5944 322.242 67.2194 320.606 69.2402 320.606H137.09C139.1 320.606 140.735 322.242 140.735 324.252V392.107C140.735 394.117 139.1 395.753 137.09 395.753H69.2402C67.2194 395.753 65.5944 394.122 65.5944 392.107ZM192.506 215.307H341.773V244.473H192.506V215.307ZM192.506 343.599H341.773V372.765H192.506V343.599ZM192.506 471.891H341.773V501.057H192.506V471.891ZM137.09 192.317C139.101 192.317 140.736 193.953 140.736 195.963V263.818C140.736 265.828 139.101 267.464 137.09 267.464H69.241C67.2202 267.464 65.5952 265.828 65.5952 263.818V195.963C65.5952 193.953 67.2202 192.317 69.241 192.317H137.09Z" fill="white"/>
<path d="M291.053 41.636H244.381C244.381 18.8293 225.881 0.329346 203.075 0.329346C180.268 0.329346 161.768 18.8293 161.768 41.636H115.096C110.299 41.636 106.419 45.5319 106.419 50.3183V100.704C106.419 101.756 106.601 102.761 106.945 103.688C107.049 103.948 107.159 104.214 107.273 104.469C107.398 104.719 107.528 104.964 107.674 105.204C107.747 105.318 107.82 105.438 107.898 105.553C108.132 105.896 108.393 106.23 108.669 106.537C108.763 106.641 108.867 106.74 108.961 106.834C110.528 108.407 112.7 109.381 115.091 109.381H291.051C295.843 109.381 299.723 105.495 299.723 100.704V50.3184C299.723 45.5266 295.842 41.6361 291.051 41.6361L291.053 41.636ZM203.075 28.1307C210.517 28.1307 216.585 34.188 216.585 41.6413C216.585 49.0944 210.518 55.152 203.075 55.152C195.622 55.152 189.564 49.0947 189.564 41.6413C189.564 34.1883 195.621 28.1307 203.075 28.1307Z" fill="white"/>
<path d="M540.48 114.453V172.699H463.226V114.453C463.226 104.339 471.46 96.1094 481.57 96.1094H522.132C532.247 96.1094 540.482 104.339 540.482 114.453H540.48Z" fill="white"/>
<path d="M540.48 194.573V530.627L501.849 569.252L463.224 530.627V194.573H540.48Z" fill="white"/>
</svg>
