<svg id="Layer_24" data-name="Layer 24" xmlns="http://www.w3.org/2000/svg" viewBox="0 0 24 24"><defs><style>.cls-1{fill:#fff;}</style></defs><title>W-marketing</title><path class="cls-1" d="M20.2,10.3,12.44,2.54a1.17,1.17,0,1,0-1.65,1.65l7.76,7.76A1.17,1.17,0,0,0,20.2,10.3Z"/><path class="cls-1" d="M10.22,5.26l-.06.29a12.53,12.53,0,0,1-2.76,5.6l4.22,4.22a12.49,12.49,0,0,1,5.57-2.79l.29-.06Z"/><path class="cls-1" d="M6.62,12,3.73,14.91a1.75,1.75,0,0,0,0,2.47L5.38,19a1.75,1.75,0,0,0,2.47,0l2.89-2.89ZM7,16.56a.58.58,0,1,1-.82-.82L7,14.91a.58.58,0,0,1,.82.82Z"/><path class="cls-1" d="M13.18,19.35l.79-.79a1.75,1.75,0,0,0,0-2.47l-.59-.59a11,11,0,0,0-.94.71l.7.7a.58.58,0,0,1,0,.82l-.81.81-1.18-1.15L9.51,19l2.65,2.56a1.17,1.17,0,0,0,1.65-1.65Z"/><path class="cls-1" d="M15.53,2a.58.58,0,0,0-.58.58V3.79a.58.58,0,0,0,1.17,0V2.62A.58.58,0,0,0,15.53,2Z"/><path class="cls-1" d="M20.2,6.7H19a.58.58,0,0,0,0,1.17H20.2a.58.58,0,0,0,0-1.17Z"/><path class="cls-1" d="M19.44,3.38a.58.58,0,0,0-.82,0L17.45,4.54a.58.58,0,1,0,.82.82L19.44,4.2A.58.58,0,0,0,19.44,3.38Z"/></svg>