<svg id="Layer_1" data-name="Layer 1" xmlns="http://www.w3.org/2000/svg" viewBox="0 0 742.98 433.69"><defs><style>.cls-1{font-size:10.09px;fill:#a8afb6;font-family:Arial-BoldMT, Arial;font-weight:700;}.cls-2{letter-spacing:-0.06em;}.cls-3,.cls-4,.cls-5{fill:none;stroke:#a8afb6;}.cls-3,.cls-4,.cls-5,.cls-6,.cls-7,.cls-8{stroke-miterlimit:10;}.cls-4{stroke-dasharray:2.01 2.01;}.cls-5{stroke-dasharray:2 2;}.cls-10,.cls-6{fill:#ffdbdb;}.cls-6,.cls-7,.cls-8{stroke:#4c4b4b;stroke-width:0.25px;}.cls-12,.cls-7{fill:#cbf3ff;}.cls-8,.cls-9{fill:#ffe9b0;}.cls-11{fill:#ccdaff;}</style></defs><text class="cls-1" transform="translate(35.25 422.85)">0</text><text class="cls-1" transform="translate(57.8 422.85)">1</text><text class="cls-1" transform="translate(80.35 422.85)">2</text><text class="cls-1" transform="translate(102.9 422.85)">3</text><text class="cls-1" transform="translate(125.45 422.85)">4</text><text class="cls-1" transform="translate(148 422.85)">5</text><text class="cls-1" transform="translate(170.55 422.85)">6</text><text class="cls-1" transform="translate(193.1 422.85)">7</text><text class="cls-1" transform="translate(215.65 422.85)">8</text><text class="cls-1" transform="translate(257.94 422.85)">10</text><text class="cls-1" transform="translate(280.77 422.85)"><tspan class="cls-2">1</tspan><tspan x="5.05" y="0">1</tspan></text><text class="cls-1" transform="translate(303.04 422.85)">12</text><text class="cls-1" transform="translate(325.59 422.85)">13</text><text class="cls-1" transform="translate(348.14 422.85)">14</text><text class="cls-1" transform="translate(370.69 422.85)">15</text><text class="cls-1" transform="translate(238.2 422.85)">9</text><text class="cls-1" transform="translate(393.24 422.85)">16</text><text class="cls-1" transform="translate(415.79 422.85)">17</text><text class="cls-1" transform="translate(438.34 422.85)">18</text><text class="cls-1" transform="translate(483.44 422.85)">20</text><text class="cls-1" transform="translate(505.99 422.85)">21</text><text class="cls-1" transform="translate(528.54 422.85)">22</text><text class="cls-1" transform="translate(551.09 422.85)">23</text><text class="cls-1" transform="translate(573.64 422.85)">24</text><text class="cls-1" transform="translate(596.19 422.85)">25</text><text class="cls-1" transform="translate(618.74 422.85)">26</text><text class="cls-1" transform="translate(641.29 422.85)">27</text><text class="cls-1" transform="translate(663.84 422.85)">28</text><text class="cls-1" transform="translate(686.39 422.85)">29</text><text class="cls-1" transform="translate(708.94 422.85)">30</text><text class="cls-1" transform="translate(460.89 422.85)">19</text><line class="cls-3" x1="27.55" x2="27.55" y2="1"/><line class="cls-4" x1="27.55" y1="3.01" x2="27.55" y2="431.69"/><line class="cls-3" x1="27.55" y1="432.69" x2="27.55" y2="433.69"/><line class="cls-3" x1="742.98" y1="405.78" x2="741.98" y2="405.78"/><line class="cls-5" x1="739.98" y1="405.78" x2="29.55" y2="405.78"/><line class="cls-3" x1="28.55" y1="405.78" x2="27.55" y2="405.78"/><line class="cls-3" x1="742.98" y1="367.95" x2="741.98" y2="367.95"/><line class="cls-5" x1="739.98" y1="367.95" x2="29.55" y2="367.95"/><line class="cls-3" x1="28.55" y1="367.95" x2="27.55" y2="367.95"/><line class="cls-3" x1="742.98" y1="330.12" x2="741.98" y2="330.12"/><line class="cls-5" x1="739.98" y1="330.12" x2="29.55" y2="330.12"/><line class="cls-3" x1="28.55" y1="330.12" x2="27.55" y2="330.12"/><line class="cls-3" x1="742.98" y1="292.3" x2="741.98" y2="292.3"/><line class="cls-5" x1="739.98" y1="292.3" x2="29.55" y2="292.3"/><line class="cls-3" x1="28.55" y1="292.3" x2="27.55" y2="292.3"/><line class="cls-3" x1="742.98" y1="254.47" x2="741.98" y2="254.47"/><line class="cls-5" x1="739.98" y1="254.47" x2="29.55" y2="254.47"/><line class="cls-3" x1="28.55" y1="254.47" x2="27.55" y2="254.47"/><line class="cls-3" x1="742.98" y1="216.64" x2="741.98" y2="216.64"/><line class="cls-5" x1="739.98" y1="216.64" x2="29.55" y2="216.64"/><line class="cls-3" x1="28.55" y1="216.64" x2="27.55" y2="216.64"/><line class="cls-3" x1="742.98" y1="178.81" x2="741.98" y2="178.81"/><line class="cls-5" x1="739.98" y1="178.81" x2="29.55" y2="178.81"/><line class="cls-3" x1="28.55" y1="178.81" x2="27.55" y2="178.81"/><line class="cls-3" x1="742.98" y1="140.98" x2="741.98" y2="140.98"/><line class="cls-5" x1="739.98" y1="140.98" x2="29.55" y2="140.98"/><line class="cls-3" x1="28.55" y1="140.98" x2="27.55" y2="140.98"/><line class="cls-3" x1="742.98" y1="103.15" x2="741.98" y2="103.15"/><line class="cls-5" x1="739.98" y1="103.15" x2="29.55" y2="103.15"/><line class="cls-3" x1="28.55" y1="103.15" x2="27.55" y2="103.15"/><line class="cls-3" x1="742.98" y1="65.32" x2="741.98" y2="65.32"/><line class="cls-5" x1="739.98" y1="65.32" x2="29.55" y2="65.32"/><line class="cls-3" x1="28.55" y1="65.32" x2="27.55" y2="65.32"/><line class="cls-3" x1="742.98" y1="27.5" x2="741.98" y2="27.5"/><line class="cls-5" x1="739.98" y1="27.5" x2="29.55" y2="27.5"/><line class="cls-3" x1="28.55" y1="27.5" x2="27.55" y2="27.5"/><text class="cls-1" transform="translate(5.73 410.14)">0%</text><text class="cls-1" transform="translate(4.93 371.75)">10%</text><text class="cls-1" transform="translate(4.68 334.8)">20%</text><text class="cls-1" transform="translate(4.3 295.47)">30%</text><text class="cls-1" transform="translate(4.11 258.65)">40%</text><text class="cls-1" transform="translate(3.66 220.62)">50%</text><text class="cls-1" transform="translate(3.24 182.9)">60%</text><text class="cls-1" transform="translate(2.82 144.53)">70%</text><text class="cls-1" transform="translate(2.4 106.47)">80%</text><text class="cls-1" transform="translate(2.08 68.51)">90%</text><text class="cls-1" transform="translate(0 30.79)">100%</text><path class="cls-6" d="M550.78,292.43h17.37a4,4,0,0,1,4,4V405.78a0,0,0,0,1,0,0H546.78a0,0,0,0,1,0,0V296.43A4,4,0,0,1,550.78,292.43Z"/><path class="cls-7" d="M187.28,306.38h17.37a4,4,0,0,1,4,4v95.4a0,0,0,0,1,0,0H183.28a0,0,0,0,1,0,0v-95.4A4,4,0,0,1,187.28,306.38Z"/><path class="cls-8" d="M232.28,351.55h17.37a4,4,0,0,1,4,4v50.23a0,0,0,0,1,0,0H228.28a0,0,0,0,1,0,0V355.55A4,4,0,0,1,232.28,351.55Z"/><rect class="cls-9" x="183.37" y="366.12" width="25.05" height="18.24"/><rect class="cls-10" x="183.37" y="348.96" width="25.05" height="18.24"/><path class="cls-11" d="M187.36,306.38h17.07a4,4,0,0,1,4,4v39a0,0,0,0,1,0,0h-25a0,0,0,0,1,0,0v-39A4,4,0,0,1,187.36,306.38Z"/><path class="cls-6" d="M305,216.64h17.37a4,4,0,0,1,4,4V405.78a0,0,0,0,1,0,0H301a0,0,0,0,1,0,0V220.64A4,4,0,0,1,305,216.64Z"/><path class="cls-7" d="M347.8,306.38h17.37a4,4,0,0,1,4,4v95.4a0,0,0,0,1,0,0H343.8a0,0,0,0,1,0,0v-95.4A4,4,0,0,1,347.8,306.38Z"/><path class="cls-7" d="M460.56,65.32h17.37a4,4,0,0,1,4,4V405.78a0,0,0,0,1,0,0H456.56a0,0,0,0,1,0,0V69.32A4,4,0,0,1,460.56,65.32Z"/><path class="cls-8" d="M392.8,292.3h17.37a4,4,0,0,1,4,4V405.78a0,0,0,0,1,0,0H388.8a0,0,0,0,1,0,0V296.3A4,4,0,0,1,392.8,292.3Z"/><path class="cls-8" d="M505.67,254.47H523a4,4,0,0,1,4,4V405.78a0,0,0,0,1,0,0H501.67a0,0,0,0,1,0,0V258.47A4,4,0,0,1,505.67,254.47Z"/><path class="cls-11" d="M305.13,216.85H322.2a4,4,0,0,1,4,4v71.59a0,0,0,0,1,0,0h-25a0,0,0,0,1,0,0V220.83A4,4,0,0,1,305.13,216.85Z"/><path class="cls-11" d="M460.71,65.36h17.07a4,4,0,0,1,4,4v147a0,0,0,0,1,0,0h-25a0,0,0,0,1,0,0v-147A4,4,0,0,1,460.71,65.36Z"/><path class="cls-11" d="M347.95,306.38H365a4,4,0,0,1,4,4v27.57a0,0,0,0,1,0,0H344a0,0,0,0,1,0,0V310.37A4,4,0,0,1,347.95,306.38Z"/><path class="cls-11" d="M392.95,292.5H410a4,4,0,0,1,4,4v27.57a0,0,0,0,1,0,0H389a0,0,0,0,1,0,0V296.49A4,4,0,0,1,392.95,292.5Z"/><path class="cls-11" d="M505.82,254.64h17.07a4,4,0,0,1,4,4v27.57a0,0,0,0,1,0,0h-25a0,0,0,0,1,0,0V258.62A4,4,0,0,1,505.82,254.64Z"/><path class="cls-11" d="M550.93,292.43H568a4,4,0,0,1,4,4v33.71a0,0,0,0,1,0,0h-25a0,0,0,0,1,0,0V296.41A4,4,0,0,1,550.93,292.43Z"/><rect class="cls-9" x="301.14" y="292.97" width="25.05" height="37.15"/><rect class="cls-9" x="456.73" y="215.98" width="25.05" height="100.62"/><rect class="cls-9" x="343.96" y="337.93" width="25.05" height="27.13"/><rect class="cls-10" x="388.89" y="324.37" width="25.05" height="27.13"/><rect class="cls-10" x="501.83" y="345.71" width="25.05" height="35.84"/><rect class="cls-10" x="456.73" y="316.56" width="25.05" height="51.39"/><rect class="cls-10" x="343.96" y="365.06" width="25.05" height="27.13"/><rect class="cls-12" x="388.96" y="351.5" width="25.05" height="27.13"/><rect class="cls-12" x="501.83" y="286.19" width="25.05" height="59.52"/><rect class="cls-9" x="546.94" y="330.12" width="25.05" height="37.83"/><rect class="cls-12" x="301.14" y="330.67" width="25.05" height="37.15"/></svg>