<svg width="179" height="43" viewBox="0 0 179 43" fill="none" xmlns="http://www.w3.org/2000/svg">
<g clip-path="url(#clip0_552_513)">
<path d="M53.5547 42.3427H38.2626L34.7155 35.6726L28.0821 23.2523C22.9531 13.6156 14.7116 6.09614 4.76343 1.97685L0.0107422 0.00537225H3.48283C11.8206 0.00349237 20.0044 2.30094 27.1713 6.65548C34.3383 11.01 40.2229 17.2603 44.2048 24.7474L45.0621 26.3574L53.5547 42.3427Z" fill="#CE4368"/>
<path d="M53.4797 42.3427H38.2626L28.0821 23.2523C22.9531 13.6156 14.7116 6.09614 4.76343 1.97685L0.0107422 0.00537109C0.626929 0.158708 34.5119 9.0139 53.4797 42.3427Z" fill="#893255"/>
<path d="M53.5547 42.3428H38.2626L35.5835 37.3265C40.4058 36.0834 44.0976 30.7549 45.8765 27.8689L53.5547 42.3428Z" fill="#893255"/>
<path d="M75.9999 0L53.4957 42.3428H38.1606L53.3671 13.7565C55.5085 9.7214 58.6465 6.32981 62.4687 3.9192C66.291 1.5086 70.6642 0.16304 75.1533 0.0164283C75.4319 0.00547564 75.7159 0 75.9999 0Z" fill="#CE4368"/>
</g>
<path d="M96.752 10.918L89.096 27H88.92L81.286 10.918H84.674L89.008 20.246L93.342 10.918H96.752ZM102.135 27H99.0555V10.918H102.135V27ZM115.926 27L109.172 19.674V27H106.092V10.896H109.172V19.08L115.574 10.918H119.358L112.736 19.234L119.996 27H115.926ZM125.328 27H122.27V10.896H129.574C130.395 10.896 131.143 11.0353 131.818 11.314C132.507 11.578 133.094 11.9593 133.578 12.458C134.062 12.942 134.436 13.5287 134.7 14.218C134.978 14.8927 135.118 15.6333 135.118 16.44C135.118 17.6573 134.81 18.7207 134.194 19.63C133.592 20.5393 132.786 21.192 131.774 21.588C133.138 23.3773 134.48 25.1813 135.8 27H132.126C131.48 26.164 130.85 25.3207 130.234 24.47C129.618 23.6193 129.002 22.754 128.386 21.874H125.328V27ZM125.328 19.146H129.574C129.852 19.146 130.138 19.0947 130.432 18.992C130.74 18.8747 131.011 18.706 131.246 18.486C131.48 18.2513 131.671 17.9653 131.818 17.628C131.979 17.2907 132.06 16.8947 132.06 16.44C132.06 16.2053 132.03 15.9267 131.972 15.604C131.913 15.2813 131.796 14.9733 131.62 14.68C131.444 14.3867 131.194 14.1373 130.872 13.932C130.549 13.7267 130.116 13.624 129.574 13.624H125.328V19.146ZM141.162 13.624V17.65H148.95V20.444H141.162V24.228H149.94V27H138.104V10.896H149.94V13.624H141.162ZM163.77 13.624H159.172V27H156.091V13.624H151.472V10.896H163.77V13.624ZM161.72 27L169.948 10.918H170.256L178.484 27H175.14L173.886 24.47H166.296L165.064 27H161.72ZM167.792 21.786H172.39L170.102 16.924L167.792 21.786Z" fill="black"/>
<defs>
<clipPath id="clip0_552_513">
<rect width="76" height="42.3429" fill="white"/>
</clipPath>
</defs>
</svg>
