<svg id="Layer_25" data-name="Layer 25" xmlns="http://www.w3.org/2000/svg" viewBox="0 0 24 24"><defs><style>.cls-1{fill:#fff;}</style></defs><title>W-accounting</title><path class="cls-1" d="M5.51,6.09,6.76,9.52a1.75,1.75,0,0,1,.11.6v10A3.1,3.1,0,0,1,6.24,22h4.61V9.5a1.76,1.76,0,0,1,1.76-1.76h5V2.59A.59.59,0,0,0,17,2H3.86a.59.59,0,0,0-.59.59V5A1.76,1.76,0,0,1,5.51,6.09ZM7.57,4.54h5.7a.59.59,0,1,1,0,1.17H7.57a.59.59,0,0,1,0-1.17Zm0,2.5H9.75a.59.59,0,1,1,0,1.17H7.57A.59.59,0,0,1,7.57,7Z"/><path class="cls-1" d="M2,10.79H5.69v-.66c0-.15.08.11-1.29-3.64a.59.59,0,0,0-1.1,0l0,.1C1.95,10.22,2,10,2,10.12Z"/><path class="cls-1" d="M3.88,22a1.87,1.87,0,0,0,1.81-1.87v-.66H2v.66A1.87,1.87,0,0,0,3.88,22Z"/><path class="cls-1" d="M21.39,8.91H12.61A.59.59,0,0,0,12,9.5V21.41a.59.59,0,0,0,.59.59h8.79a.59.59,0,0,0,.59-.59V9.5A.59.59,0,0,0,21.39,8.91ZM15.22,19.45a.59.59,0,1,1,.21-1.06A.59.59,0,0,1,15.22,19.45Zm0-2.19a.59.59,0,1,1,.21-1.06.59.59,0,0,1-.21,1.06Zm.06-2.2a.59.59,0,1,1,.4-.67.59.59,0,0,1-.4.67ZM17,19.46a.59.59,0,1,1,.52-.7.59.59,0,0,1-.52.7Zm.11-2.21a.59.59,0,1,1,.4-.67.58.58,0,0,1-.4.67ZM17,15.09a.59.59,0,1,1,.57-.7.59.59,0,0,1-.57.7Zm2.46,3.79a.59.59,0,1,1-1.17,0V16.69a.59.59,0,1,1,1.17,0Zm-.76-4.94a.59.59,0,1,1-.39.73.59.59,0,0,1,.39-.73Zm.17-1.35H15.11a.59.59,0,1,1,0-1.17h3.75a.59.59,0,1,1,0,1.17Z"/><path class="cls-1" d="M2,12H5.69v6.33H2Z"/></svg>