<svg width="21" height="21" viewBox="0 0 21 21" fill="none" xmlns="http://www.w3.org/2000/svg">
<path d="M14 12H15V17H14V12Z" fill="black"/>
<path d="M17 14L17 15L12 15L12 14L17 14Z" fill="black"/>
<path d="M14.6873 20.3747C11.5514 20.3747 9 17.8233 9 14.6873C9 11.5514 11.5514 9 14.6873 9C17.8233 9 20.3747 11.5514 20.3747 14.6873C20.3747 17.8233 17.8233 20.3747 14.6873 20.3747ZM14.6873 10.3125C12.275 10.3125 10.3125 12.275 10.3125 14.6873C10.3125 17.0996 12.275 19.0622 14.6873 19.0622C17.0996 19.0622 19.0622 17.0996 19.0622 14.6873C19.0622 12.275 17.0996 10.3125 14.6873 10.3125Z" fill="black"/>
<path d="M8.74975 7.00046C8.67626 7.00046 8.60276 6.98821 8.53189 6.96371L0.438363 4.12004C0.17587 4.02817 0 3.7788 0 3.50056C0 3.22232 0.17587 2.97295 0.438363 2.88107L8.53189 0.0374052C8.67363 -0.0124684 8.82588 -0.0124684 8.96762 0.0374052L17.0611 2.88107C17.3236 2.97295 17.4995 3.22232 17.4995 3.50056C17.4995 3.7788 17.3236 4.02817 17.0611 4.12004L8.96762 6.96371C8.89675 6.98821 8.82325 7.00046 8.74975 7.00046V7.00046ZM2.6363 3.50056L8.74975 5.64862L14.8632 3.50056L8.74975 1.35249L2.6363 3.50056Z" fill="black"/>
<path d="M16.187 3.50098H17.4995V7.21962H16.187V3.50098Z" fill="black"/>
<path d="M7.29904 17.0263L0.439237 14.6202C0.17587 14.5283 0 14.2789 0 14.0007V3.50098H1.31246V13.5361L7.73303 15.7874L7.29904 17.0263Z" fill="black"/>
<path d="M8.09326 6.34424H9.40572V10.7191H8.09326V6.34424Z" fill="black"/>
</svg>
