<svg width="24" height="24" viewBox="0 0 24 24" fill="none" xmlns="http://www.w3.org/2000/svg">
<g clip-path="url(#clip0_517_727)">
<path d="M12.1882 21.5848C12.0535 21.5547 11.9174 21.5311 11.7852 21.493C10.7057 21.1837 10.0066 20.4864 9.69882 19.4065C9.66252 19.2857 9.61678 19.2592 9.50353 19.2614C8.38675 19.265 7.26985 19.265 6.15282 19.2614C5.41343 19.2588 4.84608 18.747 4.78111 18.0112C4.74045 17.5608 4.90452 17.1764 5.24464 16.8813C5.76984 16.4327 6.20303 15.8865 6.52016 15.2729C6.91182 14.5052 7.09368 13.6888 7.09114 12.8264C7.0886 11.9977 7.05484 11.1653 7.12054 10.3417C7.27553 8.38743 8.25087 6.93694 9.9471 5.97285C10.5522 5.62874 11.2117 5.44108 11.9254 5.35288V5.13835C11.9254 4.66647 11.9384 4.19459 11.921 3.72271C11.9083 3.3688 12.0386 3.12887 12.3693 3.0011H12.6597C12.9914 3.15537 13.1018 3.42071 13.0898 3.77752C13.0724 4.29623 13.0855 4.81602 13.0855 5.33219C13.4023 5.40478 13.7109 5.4556 14.0093 5.54199C16.1403 6.15906 17.6972 8.02154 17.875 10.2354C17.9447 11.1011 17.9088 11.9755 17.9113 12.846C17.9153 14.1012 18.295 15.2239 19.0918 16.1938C19.3095 16.4584 19.5684 16.6892 19.813 16.9314C20.229 17.343 20.3549 17.9477 20.1078 18.4657C19.8606 18.9837 19.4413 19.2555 18.87 19.2603C17.7654 19.2686 16.6609 19.2628 15.5563 19.2628H15.349C15.3302 19.3325 15.3156 19.396 15.2957 19.4581C14.9232 20.6222 14.1432 21.326 12.9395 21.5518C12.9058 21.5607 12.8728 21.5721 12.8408 21.5859L12.1882 21.5848ZM12.5148 18.1002H18.7266C18.7808 18.103 18.8351 18.102 18.8892 18.0973C19.0591 18.0719 19.1233 17.9063 19.0144 17.7738C18.982 17.738 18.9469 17.7047 18.9095 17.674C17.4863 16.3876 16.7719 14.7814 16.7538 12.8638C16.7472 12.1683 16.7618 11.4728 16.7483 10.7773C16.7472 10.4692 16.7156 10.162 16.654 9.86005C16.1516 7.58015 14.0441 6.16741 11.7431 6.55508C9.88503 6.86797 8.39099 8.49814 8.27701 10.386C8.22764 11.1995 8.2516 12.0195 8.24906 12.8344C8.24325 14.6551 7.59436 16.2048 6.30237 17.4835C6.20364 17.5807 6.08966 17.6649 6.00001 17.7691C5.96008 17.8152 5.93322 17.9114 5.95463 17.9615C5.97968 18.0207 6.05845 18.0653 6.12379 18.0951C6.16916 18.1154 6.23087 18.1002 6.28495 18.1002H12.5148ZM14.112 19.2737H10.8898C11.0531 19.9249 11.795 20.4352 12.5435 20.4222C13.2561 20.4087 13.9875 19.8762 14.1131 19.2737H14.112Z" fill="white"/>
<path d="M20.9982 10.377C20.9982 10.5458 21.0029 10.6608 20.9982 10.7763C20.9925 10.9131 20.9374 11.0432 20.8431 11.1425C20.7488 11.2418 20.6217 11.3036 20.4853 11.3164C20.1793 11.3429 19.9046 11.1599 19.8646 10.8605C19.8247 10.561 19.8309 10.2456 19.8007 9.93922C19.6193 8.07856 18.89 6.46292 17.629 5.08685C17.5474 4.99755 17.4599 4.9137 17.3826 4.82114C17.2882 4.70924 17.2393 4.56602 17.2454 4.41979C17.2515 4.27355 17.3122 4.13492 17.4156 4.03129C17.4676 3.97836 17.5296 3.93623 17.5979 3.90732C17.6662 3.8784 17.7396 3.86328 17.8138 3.8628C17.888 3.86233 17.9616 3.87652 18.0303 3.90457C18.099 3.93261 18.1615 3.97395 18.2141 4.02621C18.495 4.30891 18.7597 4.60728 19.0069 4.91987C20.2665 6.53951 20.9176 8.38238 20.9982 10.377Z" fill="white"/>
<path d="M4.00107 10.479C4.1027 7.99435 5.00109 5.85201 6.74087 4.07158C6.99206 3.81458 7.34197 3.7997 7.58082 4.02584C7.82801 4.25997 7.83019 4.61533 7.56993 4.88103C6.49876 5.97616 5.76735 7.26076 5.40001 8.75081C5.24355 9.39736 5.16255 10.0599 5.15862 10.7251C5.155 11.0554 4.92523 11.3022 4.62032 11.3186C4.54196 11.3243 4.46324 11.3139 4.38904 11.2881C4.31484 11.2623 4.24673 11.2215 4.1889 11.1683C4.13108 11.1151 4.08477 11.0506 4.05284 10.9788C4.0209 10.907 4.00403 10.8294 4.00325 10.7508C3.99817 10.6605 4.00107 10.5697 4.00107 10.479Z" fill="white"/>
</g>
<defs>
<clipPath id="clip0_517_727">
<rect width="17" height="18.5848" fill="white" transform="translate(4 3)"/>
</clipPath>
</defs>
</svg>
