<svg width="24" height="24" viewBox="0 0 24 24" fill="none" xmlns="http://www.w3.org/2000/svg">
<path d="M24 12C24 18.6274 18.6274 24 12 24C5.37258 24 0 18.6274 0 12C0 5.37258 5.37258 0 12 0C18.6274 0 24 5.37258 24 12Z" fill="#E3E4EE"/>
<path d="M19.0259 11.4493H18.826H7.54122L7.78915 11.3432C8.02996 11.2359 8.24918 11.0896 8.43696 10.911L11.636 7.87788C11.831 7.69102 11.9506 7.44521 11.974 7.18331C11.9974 6.9214 11.9231 6.66003 11.764 6.44475C11.6753 6.32965 11.5636 6.23226 11.4352 6.15814C11.3068 6.08402 11.1642 6.03463 11.0156 6.0128C10.8671 5.99096 10.7154 5.99712 10.5694 6.0309C10.4233 6.06469 10.2857 6.12544 10.1645 6.20969L10.0445 6.30068L4.32614 11.7526C4.11707 11.9553 4 12.2274 4 12.5109C4 12.7944 4.11707 13.0665 4.32614 13.2692V13.2692L10.0445 18.6908C10.2582 18.889 10.5453 19 10.8443 19C11.1432 19 11.4303 18.889 11.644 18.6908L11.74 18.5846C11.8962 18.3644 11.965 18.0989 11.9343 17.8351C11.9035 17.5714 11.7752 17.3265 11.5721 17.1439L8.41297 14.1108C8.24385 13.9518 8.04957 13.8187 7.83714 13.7165L7.49324 13.5725H18.762C19.043 13.5877 19.3204 13.5075 19.5447 13.3463C19.7689 13.1851 19.9253 12.9535 19.9857 12.6929C20.0095 12.5514 20.0036 12.4068 19.9682 12.2675C19.9327 12.1282 19.8685 11.997 19.7793 11.8814C19.6901 11.7657 19.5775 11.668 19.4482 11.5938C19.3189 11.5197 19.1754 11.4706 19.0259 11.4493V11.4493Z" fill="#303030"/>
</svg>
