<svg width="24" height="24" viewBox="0 0 24 24" fill="none" xmlns="http://www.w3.org/2000/svg">
<path d="M24 12C24 18.6274 18.6274 24 12 24C5.37258 24 0 18.6274 0 12C0 5.37258 5.37258 0 12 0C18.6274 0 24 5.37258 24 12Z" fill="#E3E4EE"/>
<path d="M12.5 20C11.6025 20 10.875 19.2837 10.875 18.4H14.125C14.125 19.2837 13.3975 20 12.5 20ZM19 17.6H6V16L7.625 15.2V10.8C7.625 8.0304 8.77956 6.2344 10.875 5.744V4H13.3125C12.7827 4.69115 12.4973 5.5341 12.5 6.4C12.5 6.6011 12.5152 6.80193 12.5455 7.0008H12.5C11.5087 6.93758 10.5524 7.37412 9.96094 8.16C9.4552 8.94765 9.20705 9.8691 9.25 10.8V16H15.75V10.8C15.75 10.6312 15.7443 10.4688 15.7329 10.32C16.2704 10.4293 16.8246 10.4312 17.3628 10.3256C17.3718 10.4944 17.375 10.6552 17.375 10.8056V15.2L19 16V17.6ZM16.5625 8.8C16.0716 8.80058 15.592 8.65471 15.1869 8.3816C14.2297 7.73726 13.8659 6.51809 14.3172 5.46632C14.7684 4.41456 15.9097 3.82142 17.0463 4.04803C18.1828 4.27463 18.9998 5.25824 19 6.4C19 7.72548 17.9087 8.8 16.5625 8.8Z" fill="#303030"/>
</svg>
