<svg id="Layer_28" data-name="Layer 28" xmlns="http://www.w3.org/2000/svg" viewBox="0 0 24 24"><defs><style>.cls-1{fill:#71bf44;}</style></defs><title>C-customer</title><path class="cls-1" d="M11.95,11.81a4.73,4.73,0,0,0,4.47-4.94,4.73,4.73,0,0,0-4.47-4.94A4.73,4.73,0,0,0,7.48,6.87,4.73,4.73,0,0,0,11.95,11.81Z"/><path class="cls-1" d="M17.09,11.16a.63.63,0,0,0-.67.28A5.44,5.44,0,0,1,12,14.11,5.44,5.44,0,0,1,7.5,11.44a.63.63,0,0,0-.67-.28c-3.47.76-4.38,6-4.11,10.25a.63.63,0,0,0,.63.59H20.58a.63.63,0,0,0,.63-.59C21.48,17.16,20.56,11.92,17.09,11.16Z"/></svg>