<svg width="13" height="10" viewBox="0 0 13 10" fill="none" xmlns="http://www.w3.org/2000/svg">
<path d="M10.9947 5.35307C10.7867 5.21159 10.541 5.13593 10.2895 5.13593C10.0379 5.13593 9.79221 5.21159 9.58425 5.35307C9.37759 5.2124 9.13315 5.13763 8.88316 5.13862C8.5897 5.1867 8.32289 5.33752 8.13037 5.56416C7.93785 5.79079 7.83215 6.07847 7.83215 6.37584C7.83215 6.67321 7.93785 6.96089 8.13037 7.18752C8.32289 7.41416 8.5897 7.56498 8.88316 7.61306C9.13315 7.61405 9.37759 7.53928 9.58425 7.39861C9.72073 7.49122 9.87411 7.55604 10.0356 7.58937C10.1972 7.6227 10.3637 7.62389 10.5257 7.59288C10.6877 7.56186 10.842 7.49923 10.9797 7.40859C11.1175 7.31794 11.2361 7.20104 11.3287 7.06456C11.4213 6.92808 11.4862 6.7747 11.5195 6.61317C11.5528 6.45164 11.554 6.28512 11.523 6.12313C11.492 5.96114 11.4294 5.80685 11.3387 5.66906C11.2481 5.53127 11.1312 5.41269 10.9947 5.32008V5.35307ZM10.7142 6.75525C10.6664 6.81667 10.6064 6.86746 10.5379 6.90441C10.4694 6.94135 10.3939 6.96364 10.3164 6.96984C10.2388 6.97605 10.1608 6.96604 10.0873 6.94046C10.0138 6.91487 9.94639 6.87427 9.88943 6.82124L9.8152 6.747C9.78321 6.708 9.74291 6.67665 9.69724 6.65525C9.65157 6.63384 9.60169 6.62292 9.55126 6.62328C9.50091 6.62349 9.45122 6.63466 9.40564 6.65603C9.36006 6.6774 9.31968 6.70844 9.28732 6.747C9.23529 6.8101 9.16971 6.86066 9.09546 6.89493C9.0212 6.9292 8.94018 6.9463 8.85841 6.94496C8.71399 6.93858 8.57761 6.87669 8.47772 6.77219C8.37783 6.66769 8.32215 6.52865 8.32229 6.38409C8.32365 6.26966 8.35999 6.15839 8.42642 6.06521C8.49285 5.97202 8.58619 5.90139 8.69392 5.86279C8.80165 5.82419 8.91861 5.81946 9.0291 5.84924C9.13959 5.87903 9.23833 5.9419 9.31206 6.02942C9.37011 6.10039 9.45393 6.14545 9.54515 6.15473C9.63637 6.164 9.72755 6.13674 9.7987 6.07891L9.84819 6.02942C9.95082 5.95474 10.0758 5.91708 10.2026 5.9226C10.3294 5.92812 10.4506 5.97649 10.5463 6.0598C10.6421 6.14311 10.7067 6.25644 10.7298 6.38126C10.7528 6.50609 10.7328 6.63502 10.673 6.747L10.7142 6.75525Z" fill="#303030"/>
<path d="M12.9331 2.40023C12.9331 2.40023 12.9331 2.33425 12.9331 2.30125C12.9331 2.26826 12.9331 2.23527 12.9331 2.20228V1.4352C12.9253 1.07774 12.7881 0.735234 12.5469 0.471288C12.3057 0.207343 11.9769 0.0398917 11.6216 2.64007e-05H1.48466C1.09871 -0.00228021 0.727199 0.146639 0.449698 0.414889C0.172198 0.68314 0.0107741 1.04939 1.74123e-10 1.4352V7.54706C-6.02105e-06 7.94158 0.156149 8.32006 0.434343 8.5998C0.712536 8.87954 1.09015 9.03779 1.48466 9.03997H11.4566C11.8505 9.03565 12.2269 8.87671 12.5046 8.59744C12.7823 8.31816 12.9392 7.94092 12.9413 7.54706V4.03336C12.9413 4.03336 12.9413 3.96737 12.9413 3.93438C12.9413 3.90139 12.9413 3.8684 12.9413 3.8354L12.9331 2.40023ZM12.2402 7.5718C12.2402 7.79056 12.1533 8.00035 11.9986 8.15503C11.844 8.30972 11.6342 8.39662 11.4154 8.39662H1.48466C1.26591 8.39662 1.05611 8.30972 0.901432 8.15503C0.746749 8.00035 0.65985 7.79056 0.65985 7.5718V4.27255H12.2072L12.2402 7.5718ZM12.2402 3.57146H0.734083V2.67242H12.2815L12.2402 3.57146ZM12.2402 1.97133H0.734083V1.4352C0.746709 1.22513 0.839152 1.02784 0.992487 0.883706C1.14582 0.739571 1.34845 0.659497 1.5589 0.659876H11.4566C11.6671 0.659497 11.8697 0.739571 12.0231 0.883706C12.1764 1.02784 12.2688 1.22513 12.2815 1.4352L12.2402 1.97133Z" fill="#303030"/>
</svg>
