<svg width="24" height="24" viewBox="0 0 24 24" fill="none" xmlns="http://www.w3.org/2000/svg">
<g id="Group 45">
<g id="home-1">
<path id="Ellipse 2" d="M24 12C24 18.6274 18.6274 24 12 24C5.37258 24 0 18.6274 0 12C0 5.37258 5.37258 0 12 0C18.6274 0 24 5.37258 24 12Z" fill="#E3E4EE"/>
<path id="Vector" d="M17.5 17.3699L17.4866 17.1951L16.7911 8.0846C16.7911 8.0844 16.791 8.08419 16.791 8.08398C16.7774 7.91478 16.7055 7.76372 16.5984 7.65804C16.4923 7.55335 16.3603 7.50069 16.2298 7.5H15.4226V9.08872C15.4332 9.21046 15.4216 9.33354 15.3882 9.45149C15.3515 9.58092 15.2888 9.70275 15.2024 9.80817C15.116 9.91368 15.0074 10.0007 14.8826 10.0613C14.7576 10.1219 14.6203 10.154 14.4803 10.154C14.3402 10.154 14.2029 10.1219 14.078 10.0613C13.9531 10.0007 13.8446 9.91368 13.7582 9.80817C13.6718 9.70275 13.6091 9.58092 13.5724 9.45149C13.5389 9.33354 13.5274 9.21046 13.5379 9.08872V7.5H10.4621V9.11402V9.14449L10.4584 9.17473C10.4307 9.40112 10.3264 9.61567 10.1564 9.77545C9.98556 9.93607 9.75964 10.0298 9.51972 10.0298C9.27981 10.0298 9.05389 9.93607 8.88301 9.77545C8.71302 9.61567 8.60875 9.40112 8.58106 9.17473L8.57736 9.14449V9.11402V7.5H7.7467C7.6195 7.50479 7.49192 7.55894 7.38946 7.66228C7.2848 7.76783 7.21483 7.9171 7.20143 8.0838C7.20141 8.08402 7.20139 8.08424 7.20138 8.08446L6.50598 17.1928C6.50595 17.1932 6.50592 17.1935 6.5059 17.1939C6.48461 17.4923 6.52112 17.7918 6.61262 18.0733C6.70421 18.355 6.84846 18.6112 7.03458 18.8265C7.22063 19.0417 7.44419 19.2112 7.69001 19.3262C7.93568 19.4412 8.19936 19.5 8.46485 19.5L17.5 17.3699ZM17.5 17.3699C17.4989 17.6094 17.4609 17.8472 17.3874 18.0733C17.2958 18.355 17.1515 18.6112 16.9654 18.8265C16.7794 19.0417 16.5558 19.2112 16.31 19.3262C16.0643 19.4412 15.8006 19.5 15.5352 19.5C15.5351 19.5 15.5351 19.5 15.5351 19.5H8.46492L17.5 17.3699Z" stroke="#303030"/>
<path id="Vector_2" d="M12 4C11.2044 4 10.4413 4.30967 9.87868 4.86088C9.31607 5.4121 9 6.15971 9 6.93924V7H9.91473V6.93924C9.91473 6.39639 10.1348 5.87577 10.5266 5.49191C10.9184 5.10805 11.4498 4.89241 12.0039 4.89241C12.558 4.89241 13.0893 5.10805 13.4811 5.49191C13.8729 5.87577 14.093 6.39639 14.093 6.93924V7H15V6.93924C15 6.15971 14.6839 5.4121 14.1213 4.86088C13.5587 4.30967 12.7956 4 12 4V4Z" fill="#303030"/>
</g>
</g>
</svg>
