<svg width="20" height="21" viewBox="0 0 20 21" fill="none" xmlns="http://www.w3.org/2000/svg">
<path d="M15.9805 14.8188C15.4343 14.8189 14.905 15.0267 14.4827 15.4069C14.0605 15.7871 13.7715 16.3162 13.6649 16.904C13.5583 17.4918 13.6408 18.102 13.8982 18.6306C14.1556 19.1592 14.5721 19.5735 15.0767 19.803C15.5813 20.0324 16.1428 20.0628 16.6655 19.8889C17.1882 19.715 17.6398 19.3476 17.9433 18.8494C18.2469 18.3511 18.3836 17.7528 18.3302 17.1563C18.2768 16.5598 18.0366 16.0021 17.6504 15.5782C17.4312 15.3374 17.1708 15.1465 16.8843 15.0162C16.5978 14.8859 16.2906 14.8188 15.9805 14.8188ZM15.9805 18.4465C15.7605 18.4479 15.5469 18.3655 15.3761 18.2134C15.2053 18.0612 15.088 17.8488 15.0441 17.6122C15.0002 17.3757 15.0324 17.1298 15.1353 16.9164C15.2382 16.7031 15.4054 16.5356 15.6083 16.4424C15.8113 16.3493 16.0374 16.3363 16.2481 16.4057C16.4588 16.4751 16.641 16.6226 16.7636 16.823C16.8862 17.0234 16.9417 17.2642 16.9205 17.5045C16.8993 17.7448 16.8028 17.9695 16.6475 18.1404C16.4709 18.3354 16.231 18.4455 15.9805 18.4465V18.4465Z" fill="#903320" stroke="white" stroke-width="0.1"/>
<path d="M19.7695 4.81968C19.7033 4.72689 19.6188 4.65182 19.5223 4.60011C19.4258 4.54841 19.3199 4.52143 19.2125 4.52121H5.3685L4.7325 1.60132C4.69638 1.43046 4.60863 1.27804 4.48353 1.16886C4.35843 1.05969 4.20334 1.00017 4.0435 1H1.7085C1.52059 1 1.34038 1.08191 1.20751 1.2277C1.07465 1.3735 1 1.57124 1 1.77743C1 1.98362 1.07465 2.18136 1.20751 2.32716C1.34038 2.47296 1.52059 2.55486 1.7085 2.55486H3.4855L5.7855 13.1097C5.8226 13.2796 5.91076 13.4307 6.03577 13.5388C6.16078 13.6469 6.31534 13.7057 6.4745 13.7056H17.4925C17.6507 13.7055 17.8042 13.6473 17.9287 13.5403C18.0533 13.4333 18.1415 13.2837 18.1795 13.1152L19.9005 5.48793C19.9266 5.37303 19.9285 5.25311 19.9059 5.1373C19.8834 5.0215 19.8371 4.91286 19.7705 4.81968H19.7695ZM16.9365 12.1606H7.0365L5.7075 6.07498H18.3075L16.9365 12.1606Z" fill="#903320" stroke="white" stroke-width="0.1"/>
<path d="M7.41454 14.8188C6.86834 14.8189 6.33905 15.0267 5.91682 15.4069C5.4946 15.7871 5.20557 16.3162 5.09899 16.904C4.9924 17.4918 5.07484 18.102 5.33227 18.6306C5.5897 19.1592 6.00618 19.5735 6.51078 19.803C7.01537 20.0324 7.57685 20.0628 8.09955 19.8889C8.62225 19.715 9.07385 19.3476 9.37739 18.8494C9.68094 18.3511 9.81766 17.7528 9.76426 17.1563C9.71086 16.5598 9.47064 16.0021 9.08453 15.5782C8.86527 15.3374 8.60493 15.1465 8.31839 15.0162C8.03184 14.8859 7.72471 14.8188 7.41454 14.8188V14.8188ZM7.41454 18.4465C7.19457 18.4479 6.98097 18.3655 6.8102 18.2134C6.63942 18.0612 6.52207 17.8488 6.47815 17.6122C6.43423 17.3757 6.46648 17.1298 6.56939 16.9164C6.6723 16.7031 6.83949 16.5356 7.04243 16.4424C7.24536 16.3493 7.47147 16.3363 7.68216 16.4057C7.89285 16.4751 8.07506 16.6226 8.19769 16.823C8.32033 17.0234 8.37579 17.2642 8.3546 17.5045C8.33342 17.7448 8.23691 17.9695 8.08154 18.1404C7.90498 18.3354 7.66506 18.4455 7.41454 18.4465V18.4465Z" fill="#903320" stroke="white" stroke-width="0.1"/>
</svg>
