<svg width="15" height="18" viewBox="0 0 15 18" fill="none" xmlns="http://www.w3.org/2000/svg">
<rect x="1.7262" y="1.7262" width="5.13095" height="10.0357" rx="0.5" fill="white" stroke="#303030"/>
<path d="M4.29163 1.83923V11.6488" stroke="#303030"/>
<rect x="6.72535" y="0.606572" width="5.13095" height="10.0357" rx="0.5" transform="rotate(14.0729 6.72535 0.606572)" fill="white" stroke="#303030"/>
<path d="M9.18616 1.34015L6.80091 10.8553" stroke="#303030"/>
<rect x="0.5" y="6.63098" width="12.4881" height="10.0357" rx="0.5" fill="white" stroke="#303030"/>
<rect x="10.3094" y="9.08331" width="3.90476" height="5.13095" rx="0.5" fill="white" stroke="#303030"/>
<path d="M6.52336 11.3484C6.38451 11.3273 6.25459 11.2669 6.14895 11.1744C6.04332 11.0818 5.96638 10.961 5.92722 10.8261C5.88806 10.6912 5.88833 10.548 5.92798 10.4133C5.96764 10.2785 6.04502 10.158 6.151 10.0658C6.25698 9.97366 6.38712 9.91377 6.52604 9.8932C6.66497 9.87264 6.80688 9.89227 6.93501 9.94978C7.06314 10.0073 7.17213 10.1003 7.24911 10.2177C7.32609 10.3352 7.36784 10.4722 7.36943 10.6127C7.36943 10.7151 7.41012 10.8133 7.48256 10.8858C7.55499 10.9582 7.65324 10.9989 7.75568 10.9989C7.85812 10.9989 7.95636 10.9582 8.0288 10.8858C8.10123 10.8133 8.14193 10.7151 8.14193 10.6127C8.13174 10.2682 8.00486 9.93747 7.78208 9.67459C7.5593 9.41171 7.25383 9.2323 6.91574 9.16575V8.96956C6.91574 8.86712 6.87504 8.76888 6.80261 8.69644C6.73017 8.62401 6.63193 8.58331 6.52949 8.58331C6.42705 8.58331 6.3288 8.62401 6.25637 8.69644C6.18393 8.76888 6.14324 8.86712 6.14324 8.96956V9.16575C5.80514 9.2323 5.49967 9.41171 5.27689 9.67459C5.05411 9.93747 4.92723 10.2682 4.91705 10.6127C4.93302 11.0236 5.11089 11.4115 5.41183 11.6918C5.71276 11.972 6.11234 12.1219 6.52336 12.1086C6.66221 12.1297 6.79212 12.1901 6.89776 12.2826C7.0034 12.3752 7.08034 12.496 7.11949 12.6309C7.15865 12.7657 7.15838 12.909 7.11873 13.0437C7.07908 13.1785 7.00169 13.299 6.89571 13.3912C6.78974 13.4833 6.6596 13.5432 6.52067 13.5638C6.38174 13.5843 6.23983 13.5647 6.11171 13.5072C5.98358 13.4497 5.87459 13.3567 5.79761 13.2393C5.72063 13.1218 5.67888 12.9848 5.67729 12.8443C5.67729 12.7419 5.63659 12.6436 5.56416 12.5712C5.49172 12.4988 5.39348 12.4581 5.29104 12.4581C5.1886 12.4581 5.09035 12.4988 5.01792 12.5712C4.94548 12.6436 4.90479 12.7419 4.90479 12.8443C4.91497 13.1888 5.04185 13.5195 5.26463 13.7824C5.48741 14.0453 5.79288 14.2247 6.13098 14.2912V14.4629C6.13098 14.5653 6.17167 14.6636 6.24411 14.736C6.31654 14.8085 6.41479 14.8491 6.51723 14.8491C6.61967 14.8491 6.71791 14.8085 6.79035 14.736C6.86278 14.6636 6.90348 14.5653 6.90348 14.4629V14.2912C7.24157 14.2247 7.54704 14.0453 7.76982 13.7824C7.9926 13.5195 8.11948 13.1888 8.12967 12.8443C8.11369 12.4334 7.93583 12.0455 7.63489 11.7652C7.33395 11.485 6.93437 11.3351 6.52336 11.3484V11.3484Z" fill="#303030"/>
</svg>
