<svg width="11" height="16" viewBox="0 0 11 16" fill="none" xmlns="http://www.w3.org/2000/svg">
<path d="M1.91783 7.82248L1.52655 8.18844L1.91861 8.55356L3.47258 10.0008L1.91783 11.4549L1.52738 11.8201L1.91783 12.1852L3.21244 13.396L3.55397 13.7154L3.89551 13.396L5.5 11.8954L7.10449 13.396L7.44603 13.7154L7.78756 13.396L9.08217 12.1852L9.47262 11.8201L9.08217 11.4549L7.52659 10L9.08217 8.54512L9.47262 8.17995L9.08217 7.81477L7.78756 6.60398L7.44603 6.28455L7.10449 6.60398L5.49928 8.10528L3.89474 6.61097L3.55325 6.29294L3.21244 6.61169L1.91783 7.82248ZM0.882204 15.1331C0.634831 14.9028 0.501797 14.5976 0.5 14.2866V4.5H10.5V14.2866C10.4982 14.5967 10.366 14.901 10.1199 15.1311C9.87265 15.3624 9.53117 15.4983 9.16818 15.5H1.83883C1.47443 15.5 1.13098 15.3647 0.882204 15.1331Z" stroke="#FF0861"/>
<path d="M7.85665 1.30867L8.00679 1.5H8.25H10.5V2.5H0.5V1.5H2.75H2.99321L3.14335 1.30867L3.77792 0.5H7.22208L7.85665 1.30867Z" stroke="#FF0861"/>
</svg>
