<svg width="17" height="16" viewBox="0 0 17 16" fill="none" xmlns="http://www.w3.org/2000/svg">
<path d="M10.705 10.17C10.5918 10.1528 10.4858 10.1036 10.3997 10.0281C10.3135 9.9526 10.2508 9.85405 10.2188 9.74406C10.1869 9.63407 10.1871 9.51723 10.2195 9.40736C10.2518 9.29749 10.3149 9.19916 10.4013 9.12401C10.4878 9.04885 10.5939 9.00001 10.7072 8.98324C10.8205 8.96647 10.9362 8.98248 11.0407 9.02938C11.1452 9.07627 11.2341 9.1521 11.2969 9.24789C11.3597 9.34369 11.3937 9.45545 11.395 9.56998C11.395 9.65352 11.4282 9.73364 11.4873 9.79272C11.5463 9.85179 11.6265 9.88498 11.71 9.88498C11.7936 9.88498 11.8737 9.85179 11.9327 9.79272C11.9918 9.73364 12.025 9.65352 12.025 9.56998C12.0167 9.28908 11.9132 9.01934 11.7315 8.80495C11.5499 8.59056 11.3007 8.44425 11.025 8.38998V8.22998C11.025 8.14643 10.9918 8.06631 10.9327 8.00724C10.8737 7.94817 10.7936 7.91498 10.71 7.91498C10.6265 7.91498 10.5463 7.94817 10.4873 8.00724C10.4282 8.06631 10.395 8.14643 10.395 8.22998V8.38998C10.1193 8.44425 9.87016 8.59056 9.68848 8.80495C9.50679 9.01934 9.40332 9.28908 9.39501 9.56998C9.40804 9.9051 9.55309 10.2215 9.79852 10.45C10.0439 10.6786 10.3698 10.8008 10.705 10.79C10.8182 10.8072 10.9242 10.8564 11.0103 10.9319C11.0965 11.0074 11.1592 11.1059 11.1912 11.2159C11.2231 11.3259 11.2229 11.4427 11.1906 11.5526C11.1582 11.6625 11.0951 11.7608 11.0087 11.8359C10.9223 11.9111 10.8161 11.9599 10.7028 11.9767C10.5895 11.9935 10.4738 11.9775 10.3693 11.9306C10.2648 11.8837 10.1759 11.8079 10.1131 11.7121C10.0504 11.6163 10.0163 11.5045 10.015 11.39C10.015 11.3064 9.98182 11.2263 9.92275 11.1672C9.86367 11.1082 9.78355 11.075 9.70001 11.075C9.61647 11.075 9.53635 11.1082 9.47727 11.1672C9.4182 11.2263 9.38501 11.3064 9.38501 11.39C9.39332 11.6709 9.49679 11.9406 9.67848 12.155C9.86016 12.3694 10.1093 12.5157 10.385 12.57V12.71C10.385 12.7935 10.4182 12.8736 10.4773 12.9327C10.5363 12.9918 10.6165 13.025 10.7 13.025C10.7836 13.025 10.8637 12.9918 10.9227 12.9327C10.9818 12.8736 11.015 12.7935 11.015 12.71V12.57C11.2907 12.5157 11.5399 12.3694 11.7215 12.155C11.9032 11.9406 12.0067 11.6709 12.015 11.39C12.002 11.0549 11.8569 10.7385 11.6115 10.5099C11.3661 10.2814 11.0402 10.1592 10.705 10.17V10.17Z" fill="black"/>
<path d="M14.125 8.30999C13.7184 7.6758 13.1437 7.16691 12.465 6.83999C12.4282 6.82226 12.3883 6.81195 12.3476 6.80964C12.3068 6.80733 12.266 6.81307 12.2275 6.82654C12.1889 6.84 12.1534 6.86093 12.123 6.88811C12.0925 6.9153 12.0677 6.94822 12.05 6.98499C12.0323 7.02176 12.022 7.06166 12.0197 7.10242C12.0174 7.14317 12.0231 7.18398 12.0366 7.22252C12.05 7.26106 12.0709 7.29656 12.0981 7.32701C12.1253 7.35746 12.1582 7.38226 12.195 7.39999C12.6123 7.60056 12.9848 7.88331 13.2902 8.23129C13.5956 8.57927 13.8277 8.98532 13.9724 9.42512C14.1171 9.86491 14.1716 10.3294 14.1325 10.7907C14.0934 11.2521 13.9616 11.7008 13.745 12.11C13.726 12.1461 13.7142 12.1856 13.7105 12.2263C13.7067 12.2669 13.711 12.3079 13.723 12.3469C13.7351 12.3859 13.7547 12.4222 13.7808 12.4536C13.8069 12.485 13.8389 12.5109 13.875 12.53C13.9111 12.549 13.9506 12.5608 13.9913 12.5645C14.0319 12.5683 14.0729 12.564 14.1119 12.552C14.1509 12.5399 14.1872 12.5203 14.2186 12.4942C14.25 12.4681 14.276 12.4361 14.295 12.4C14.6324 11.7628 14.7944 11.0474 14.7645 10.327C14.7347 9.60661 14.514 8.90708 14.125 8.29999V8.30999Z" fill="black"/>
<path d="M11.195 6.44C11.1115 6.44 11.0313 6.47319 10.9723 6.53226C10.9132 6.59134 10.88 6.67146 10.88 6.755C10.88 6.83855 10.9132 6.91867 10.9723 6.97774C11.0313 7.03682 11.1115 7.07 11.195 7.07V7.07C11.2785 7.07 11.3587 7.03682 11.4177 6.97774C11.4768 6.91867 11.51 6.83855 11.51 6.755C11.51 6.67146 11.4768 6.59134 11.4177 6.53226C11.3587 6.47319 11.2785 6.44 11.195 6.44V6.44Z" fill="black"/>
<path d="M9.21507 13.6C8.80039 13.3993 8.43025 13.1173 8.1266 12.7709C7.82296 12.4244 7.592 12.0205 7.44744 11.583C7.30287 11.1456 7.24765 10.6836 7.28503 10.2244C7.32241 9.76526 7.45165 9.31827 7.66507 8.90999C7.68411 8.87387 7.69585 8.83436 7.69962 8.79371C7.7034 8.75306 7.69912 8.71206 7.68705 8.67306C7.67498 8.63406 7.65535 8.59782 7.62927 8.56641C7.60319 8.535 7.57118 8.50903 7.53507 8.48999C7.49896 8.47095 7.45944 8.4592 7.41879 8.45543C7.37814 8.45166 7.33715 8.45593 7.29814 8.468C7.25914 8.48007 7.2229 8.49971 7.19149 8.52579C7.16008 8.55186 7.13411 8.58387 7.11507 8.61999C6.85762 9.10347 6.70067 9.63404 6.65365 10.1798C6.60664 10.7255 6.67054 11.2751 6.84151 11.7955C7.01248 12.3159 7.28699 12.7963 7.6485 13.2078C8.01001 13.6193 8.45105 13.9534 8.94507 14.19C8.98184 14.2077 9.02174 14.218 9.0625 14.2203C9.10325 14.2226 9.14406 14.2169 9.1826 14.2034C9.22113 14.19 9.25664 14.169 9.28709 14.1419C9.31754 14.1147 9.34234 14.0818 9.36007 14.045C9.3778 14.0082 9.38811 13.9683 9.39042 13.9276C9.39272 13.8868 9.38698 13.846 9.37352 13.8075C9.36005 13.7689 9.33913 13.7334 9.31194 13.703C9.28476 13.6725 9.25184 13.6477 9.21507 13.63V13.6Z" fill="black"/>
<path d="M10.235 13.91C10.1515 13.91 10.0714 13.9432 10.0123 14.0022C9.95323 14.0613 9.92004 14.1414 9.92004 14.225C9.92004 14.3085 9.95323 14.3886 10.0123 14.4477C10.0714 14.5068 10.1515 14.54 10.235 14.54V14.54C10.3186 14.54 10.3987 14.5068 10.4578 14.4477C10.5169 14.3886 10.55 14.3085 10.55 14.225C10.55 14.1414 10.5169 14.0613 10.4578 14.0022C10.3987 13.9432 10.3186 13.91 10.235 13.91Z" fill="black"/>
<path d="M12.125 5.38C12.0964 5.29335 12.0596 5.20963 12.015 5.13H12.825C13.2069 5.13 13.5732 4.97829 13.8432 4.70823C14.1133 4.43818 14.265 4.07191 14.265 3.69C14.265 3.30809 14.1133 2.94182 13.8432 2.67177C13.5732 2.40171 13.2069 2.25 12.825 2.25H10.325C10.4722 2.0336 10.5577 1.78115 10.5722 1.51982C10.5867 1.25848 10.5297 0.998133 10.4073 0.766761C10.285 0.53539 10.1019 0.341746 9.87768 0.206648C9.6535 0.0715497 9.39674 0.000106878 9.135 0H1.455C1.06911 0 0.699025 0.153294 0.42616 0.426159C0.153294 0.699025 0 1.06911 0 1.455C0 1.84089 0.153294 2.21097 0.42616 2.48384C0.699025 2.75671 1.06911 2.91 1.455 2.91H3.955C3.78898 3.14936 3.70002 3.4337 3.70002 3.725C3.70002 4.0163 3.78898 4.30064 3.955 4.54H3.145C2.8485 4.54309 2.56018 4.63763 2.31943 4.81072C2.07868 4.9838 1.89722 5.22699 1.79985 5.50706C1.70248 5.78713 1.69395 6.09043 1.77541 6.37554C1.85687 6.66064 2.02436 6.91365 2.255 7.1C2.0845 7.23379 1.94663 7.40459 1.85183 7.59948C1.75703 7.79438 1.70777 8.00827 1.70777 8.225C1.70777 8.44173 1.75703 8.65562 1.85183 8.85052C1.94663 9.04541 2.0845 9.21621 2.255 9.35C2.0845 9.48379 1.94663 9.65459 1.85183 9.84948C1.75703 10.0444 1.70777 10.2583 1.70777 10.475C1.70777 10.6917 1.75703 10.9056 1.85183 11.1005C1.94663 11.2954 2.0845 11.4662 2.255 11.6C2.02436 11.7864 1.85687 12.0394 1.77541 12.3245C1.69395 12.6096 1.70248 12.9129 1.79985 13.1929C1.89722 13.473 2.07868 13.7162 2.31943 13.8893C2.56018 14.0624 2.8485 14.1569 3.145 14.16H6.825C7.38585 14.7568 8.07716 15.2158 8.84486 15.5011C9.61256 15.7864 10.4358 15.8903 11.2503 15.8045C12.0648 15.7188 12.8485 15.4458 13.54 15.007C14.2314 14.5681 14.812 13.9752 15.2363 13.2747C15.6607 12.5742 15.9172 11.7851 15.9859 10.9689C16.0545 10.1528 15.9335 9.33189 15.6322 8.57032C15.3309 7.80876 14.8576 7.1272 14.2491 6.57896C13.6407 6.03071 12.9137 5.63063 12.125 5.41V5.38ZM12.795 2.91C13.0112 2.91 13.2185 2.99587 13.3713 3.14871C13.5241 3.30155 13.61 3.50885 13.61 3.725C13.61 3.94115 13.5241 4.14845 13.3713 4.30129C13.2185 4.45413 13.0112 4.54 12.795 4.54H5.145C4.92885 4.54 4.72155 4.45413 4.56871 4.30129C4.41587 4.14845 4.33 3.94115 4.33 3.725C4.33 3.50885 4.41587 3.30155 4.56871 3.14871C4.72155 2.99587 4.92885 2.91 5.145 2.91H12.795ZM1.455 2.25C1.23885 2.25 1.03155 2.16413 0.878708 2.01129C0.725866 1.85845 0.64 1.65115 0.64 1.435C0.64 1.21885 0.725866 1.01155 0.878708 0.858708C1.03155 0.705866 1.23885 0.62 1.455 0.62H9.115C9.33115 0.62 9.53845 0.705866 9.69129 0.858708C9.84413 1.01155 9.93 1.21885 9.93 1.435C9.93 1.65115 9.84413 1.85845 9.69129 2.01129C9.53845 2.16413 9.33115 2.25 9.115 2.25H1.455ZM3.145 5.13H10.805C10.9262 5.13015 11.0458 5.15749 11.155 5.21H10.705C10.0064 5.20938 9.31454 5.34689 8.66926 5.61461C8.02397 5.88234 7.43799 6.27499 6.945 6.77H3.145C2.92885 6.77 2.72155 6.68413 2.56871 6.53129C2.41587 6.37845 2.33 6.17115 2.33 5.955C2.33 5.73885 2.41587 5.53155 2.56871 5.37871C2.72155 5.22587 2.92885 5.14 3.145 5.14V5.13ZM3.145 7.38H6.415C6.05655 7.87327 5.78592 8.42469 5.615 9.01H3.145C2.92885 9.01 2.72155 8.92413 2.56871 8.77129C2.41587 8.61845 2.33 8.41115 2.33 8.195C2.33 7.97885 2.41587 7.77155 2.56871 7.61871C2.72155 7.46587 2.92885 7.38 3.145 7.38V7.38ZM3.145 9.63H5.465C5.38127 10.1701 5.38127 10.7199 5.465 11.26H3.145C2.92885 11.26 2.72155 11.1741 2.56871 11.0213C2.41587 10.8684 2.33 10.6612 2.33 10.445C2.33 10.2288 2.41587 10.0215 2.56871 9.86871C2.72155 9.71587 2.92885 9.63 3.145 9.63V9.63ZM3.145 13.51C2.92885 13.51 2.72155 13.4241 2.56871 13.2713C2.41587 13.1184 2.33 12.9112 2.33 12.695C2.33 12.4788 2.41587 12.2715 2.56871 12.1187C2.72155 11.9659 2.92885 11.88 3.145 11.88H5.575C5.73036 12.4621 5.98401 13.0133 6.325 13.51H3.145ZM10.705 15.2C9.77741 15.2 8.87064 14.9249 8.09938 14.4096C7.32811 13.8942 6.72698 13.1618 6.37201 12.3048C6.01703 11.4478 5.92415 10.5048 6.10512 9.59503C6.28608 8.68526 6.73276 7.84958 7.38867 7.19367C8.04458 6.53776 8.88026 6.09108 9.79003 5.91012C10.6998 5.72915 11.6428 5.82203 12.4998 6.177C13.3568 6.53198 14.0892 7.13311 14.6046 7.90438C15.1199 8.67564 15.395 9.58241 15.395 10.51C15.3924 11.7521 14.8971 12.9425 14.0178 13.8199C13.1385 14.6973 11.9471 15.19 10.705 15.19V15.2Z" fill="black"/>
</svg>
