<svg xmlns="http://www.w3.org/2000/svg" width="54.039" height="34.83" viewBox="0 0 54.039 34.83"><defs><style>.a{fill:#ff9eb1;}.b{fill:#ff7d97;}.c{fill:#ffbecb;}.d{fill:#ff5d7d;}.e{fill:#ffcd69;}.f{fill:#ffee80;}.g{fill:#ffdfe5;}.h{fill:#fff;}</style></defs><path class="a" d="M45.885,124.22H12.111A2.111,2.111,0,0,1,10,122.109v-19A2.111,2.111,0,0,1,12.111,101H45.885A2.111,2.111,0,0,1,48,103.111v19A2.111,2.111,0,0,1,45.885,124.22Z" transform="translate(-8.945 -99.945)"/><path class="b" d="M10,151H48v7.388H10Z" transform="translate(-8.945 -144.667)"/><path class="c" d="M177.885,214.22H144.111A2.111,2.111,0,0,1,142,212.109v-19A2.111,2.111,0,0,1,144.111,191h33.775A2.111,2.111,0,0,1,180,193.111v19A2.111,2.111,0,0,1,177.885,214.22Z" transform="translate(-127.013 -180.445)"/><path class="d" d="M50.873,100.5H40.107V94.166A3.17,3.17,0,0,0,36.941,91H3.166A3.17,3.17,0,0,0,0,94.166v19a3.17,3.17,0,0,0,3.166,3.166H13.932v6.333A3.17,3.17,0,0,0,17.1,125.83H50.873a3.17,3.17,0,0,0,3.166-3.166v-19A3.17,3.17,0,0,0,50.873,100.5ZM3.166,114.22a1.057,1.057,0,0,1-1.055-1.055v-19a1.057,1.057,0,0,1,1.055-1.055H36.941A1.057,1.057,0,0,1,38,94.166V100.5H17.1a3.17,3.17,0,0,0-3.166,3.166V114.22Zm48.762,8.444a1.057,1.057,0,0,1-1.055,1.055H17.1a1.057,1.057,0,0,1-1.055-1.055v-19A1.057,1.057,0,0,1,17.1,102.61H50.873a1.057,1.057,0,0,1,1.055,1.055Z" transform="translate(0 -91)"/><circle class="e" cx="3" cy="3" r="3" transform="translate(38 15.174)"/><ellipse class="f" cx="2.5" cy="3" rx="2.5" ry="3" transform="translate(43 15.174)"/><g transform="translate(19.209 18.998)"><path class="g" d="M186.855,273.111h-3.8a1.055,1.055,0,0,1,0-2.111h3.8a1.055,1.055,0,0,1,0,2.111Z" transform="translate(-182 -271)"/></g><g transform="translate(19.209 27.442)"><path class="h" d="M210.5,353.111H183.055a1.055,1.055,0,0,1,0-2.111H210.5a1.055,1.055,0,1,1,0,2.111Z" transform="translate(-182 -351)"/></g><g transform="translate(19.209 14.776)"><path class="g" d="M190.444,233.111h-7.388a1.055,1.055,0,0,1,0-2.111h7.388a1.055,1.055,0,0,1,0,2.111Z" transform="translate(-182 -231)"/></g></svg>