<svg width="24" height="24" viewBox="0 0 24 24" fill="none" xmlns="http://www.w3.org/2000/svg">
<path fill-rule="evenodd" clip-rule="evenodd" d="M14.6399 9.36014C14.7799 9.50017 14.8586 9.69009 14.8586 9.88811C14.8586 10.0861 14.7799 10.2761 14.6399 10.4161L13.0559 12L14.6399 13.5839C14.7799 13.724 14.8586 13.9139 14.8586 14.1119C14.8586 14.3099 14.7799 14.4998 14.6399 14.6399C14.4998 14.7799 14.3099 14.8586 14.1119 14.8586C13.9139 14.8586 13.7239 14.7799 13.5839 14.6399L12 13.056L10.4161 14.6399C10.2761 14.7799 10.0861 14.8586 9.88811 14.8586C9.69008 14.8586 9.50016 14.7799 9.36013 14.6399C9.22011 14.4998 9.14144 14.3099 9.14144 14.1119C9.14144 13.9139 9.22011 13.724 9.36013 13.5839L10.9441 12L9.36013 10.4161C9.22011 10.2761 9.14144 10.0861 9.14144 9.88811C9.14144 9.69009 9.22011 9.50017 9.36013 9.36014C9.50016 9.22011 9.69008 9.14145 9.88811 9.14145C10.0861 9.14145 10.2761 9.22011 10.4161 9.36014L12 10.9441L13.5839 9.36014C13.7239 9.22011 13.9139 9.14145 14.1119 9.14145C14.3099 9.14145 14.4998 9.22011 14.6399 9.36014Z" fill="#303030"/>
<circle cx="12" cy="12" r="7.5" stroke="#303030"/>
</svg>
