<svg width="24" height="24" viewBox="0 0 24 24" fill="none" xmlns="http://www.w3.org/2000/svg">
<circle cx="12" cy="12" r="12" fill="#E3E4EE"/>
<path fill-rule="evenodd" clip-rule="evenodd" d="M12 11.9333C11.7273 11.9333 11.4579 11.9471 11.1923 11.9739C9.63014 11.6087 8.46665 10.2069 8.46665 8.53333C8.46665 6.58193 10.0486 5 12 5C13.9514 5 15.5333 6.58193 15.5333 8.53333C15.5333 10.2069 14.3698 11.6087 12.8076 11.9739C12.5421 11.9471 12.2726 11.9333 12 11.9333ZM7.46665 8.53333C7.46665 10.1216 8.28343 11.5191 9.51987 12.3287C6.35305 13.37 4.06665 16.3513 4.06665 19.8667C4.06665 19.9112 4.06702 19.9556 4.06775 20H5.06791C5.06707 19.9557 5.06665 19.9112 5.06665 19.8667C5.06665 16.3277 7.71817 13.408 11.143 12.9858C11.4205 13.0389 11.707 13.0667 12 13.0667C12.293 13.0667 12.5795 13.0389 12.857 12.9858C16.2818 13.408 18.9333 16.3277 18.9333 19.8667C18.9333 19.9112 18.9329 19.9557 18.9321 20H19.9322C19.933 19.9556 19.9333 19.9112 19.9333 19.8667C19.9333 16.3513 17.6469 13.37 14.4801 12.3287C15.7165 11.5191 16.5333 10.1216 16.5333 8.53333C16.5333 6.02964 14.5037 4 12 4C9.49629 4 7.46665 6.02964 7.46665 8.53333Z" fill="#303030"/>
</svg>
