<svg width="31" height="34" viewBox="0 0 31 34" fill="none" xmlns="http://www.w3.org/2000/svg">
<path d="M15.5 18.25C10.9938 18.25 2 20.4112 2 24.75V32H29V24.75C29 20.4112 20.0046 18.25 15.5 18.25ZM15.5 15C16.8352 15 18.1404 14.6188 19.2505 13.9046C20.3607 13.1903 21.226 12.1752 21.7369 10.9874C22.2479 9.79973 22.3815 8.49279 22.1211 7.23192C21.8606 5.97104 21.2176 4.81285 20.2735 3.90381C19.3294 2.99477 18.1265 2.3757 16.817 2.1249C15.5075 1.87409 14.1501 2.00282 12.9166 2.49479C11.683 2.98676 10.6287 3.81988 9.88694 4.8888C9.14515 5.95772 8.74923 7.21442 8.74923 8.5C8.74923 10.2239 9.46047 11.8772 10.7265 13.0962C11.9925 14.3152 13.7096 15 15.5 15Z" stroke="#05EAC1" stroke-width="2.5"/>
</svg>
