<svg id="Layer_27" data-name="Layer 27" xmlns="http://www.w3.org/2000/svg" viewBox="0 0 24 24"><defs><style>.cls-1{fill:#fff;}</style></defs>
<title>dashboard</title><path class="cls-1" d="M9.71,2H3.46A1.46,1.46,0,0,0,2,3.46V7.21A1.46,1.46,0,0,0,3.46,8.67H9.71a1.46,1.46,0,0,0,1.46-1.46V3.46A1.46,1.46,0,0,0,9.71,2Z"/><path class="cls-1" d="M9.71,10.33H3.46A1.46,1.46,0,0,0,2,11.79v8.75A1.46,1.46,0,0,0,3.46,22H9.71a1.46,1.46,0,0,0,1.46-1.46V11.79A1.46,1.46,0,0,0,9.71,10.33Z"/><path class="cls-1" d="M20.54,15.33H14.29a1.46,1.46,0,0,0-1.46,1.46v3.75A1.46,1.46,0,0,0,14.29,22h6.25A1.46,1.46,0,0,0,22,20.54V16.79A1.46,1.46,0,0,0,20.54,15.33Z"/><path class="cls-1" d="M20.54,2H14.29a1.46,1.46,0,0,0-1.46,1.46v8.75a1.46,1.46,0,0,0,1.46,1.46h6.25A1.46,1.46,0,0,0,22,12.21V3.46A1.46,1.46,0,0,0,20.54,2Z"/></svg>