<svg width="13" height="17" viewBox="0 0 13 17" fill="none" xmlns="http://www.w3.org/2000/svg">
<defs><style>.cls-1{fill:#fff;stroke:#ff0861;stroke-linecap:round;stroke-linejoin:round;}</style></defs>
<path class="cls-1" d="M6.87228 10.0389L9.64942 7.20392C9.78858 7.06184 9.78858 6.8315 9.64942 6.68944C9.51025 6.54737 9.28459 6.54737 9.14543 6.68944L6.36828 9.52444L3.59115 6.68944C3.45197 6.54737 3.22633 6.54737 3.08717 6.68944C2.94801 6.83152 2.94799 7.06186 3.08717 7.20392L5.86431 10.0389L3.08717 12.8739C2.94799 13.016 2.94799 13.2463 3.08717 13.3884C3.22635 13.5305 3.45198 13.5304 3.59115 13.3884L6.36828 10.5534L9.14541 13.3884C9.28458 13.5305 9.51023 13.5304 9.64939 13.3884C9.78856 13.2463 9.78856 13.016 9.64939 12.8739L6.87228 10.0389Z" fill="black"/>
<path class="cls-1" d="M11.6024 2.01603H8.88697V1.51202C8.88697 0.678298 8.22251 0 7.40581 0H5.43093C4.61422 0 3.94976 0.678298 3.94976 1.51202V2.01603H1.2343C0.553708 2.01603 0 2.58127 0 3.27604V5.04006C0 5.3184 0.221063 5.54407 0.493721 5.54407H0.763539L1.19008 14.6881C1.22776 15.4956 1.87762 16.1282 2.66955 16.1282H10.1672C10.9591 16.1282 11.609 15.4956 11.6467 14.6881L12.0732 5.54407H12.343C12.6157 5.54407 12.8367 5.3184 12.8367 5.04006V3.27604C12.8367 2.58127 12.283 2.01603 11.6024 2.01603ZM4.93721 1.51202C4.93721 1.23412 5.1587 1.00801 5.43093 1.00801H7.40581C7.67803 1.00801 7.89953 1.23412 7.89953 1.51202V2.01603H4.93721V1.51202ZM0.987441 3.27604C0.987441 3.13709 1.09819 3.02404 1.2343 3.02404H11.6024C11.7385 3.02404 11.8493 3.13709 11.8493 3.27604V4.53606C11.6971 4.53606 1.61795 4.53606 0.987441 4.53606V3.27604ZM10.6603 14.6402C10.6478 14.9093 10.4311 15.1202 10.1672 15.1202H2.66955C2.40556 15.1202 2.18894 14.9093 2.17641 14.6402L1.75209 5.54407H11.0846L10.6603 14.6402Z" fill="black"/>
</svg>
