<svg id="Layer_23" data-name="Layer 23" xmlns="http://www.w3.org/2000/svg" viewBox="0 0 24 24"><defs><style>.cls-1{fill:#fff;}</style></defs><title>W-delivery executive</title><path class="cls-1" d="M16.26,6.7c1.73.4,2.4,1.42,3.23,2.81H16.26ZM6.12,9.63a.51.51,0,0,1,.59.55.59.59,0,0,1-.58.59H2.59a.59.59,0,0,0,0,1.17H7.86a.59.59,0,1,1,0,1.17H2.59a.59.59,0,0,0,0,1.17H3.88V16a.59.59,0,0,0,.59.59H5.64a2.25,2.25,0,0,0,4.4,0H16a2.25,2.25,0,0,0,4.4,0h1A.59.59,0,0,0,22,16V12.52a1.89,1.89,0,0,0-1.82-1.84H15.67a.59.59,0,0,1-.59-.59V6.58H4.46a.59.59,0,0,0-.59.59V8.46h-.7a.59.59,0,0,0,0,1.17ZM19,15.41a1.07,1.07,0,1,1-1.83.76A1.07,1.07,0,0,1,19,15.41Zm-10.35,0a1.07,1.07,0,1,1-1.83.76A1.07,1.07,0,0,1,8.6,15.41Z"/></svg>