<svg width="16" height="12" viewBox="0 0 16 12" fill="none" xmlns="http://www.w3.org/2000/svg">
<path fill-rule="evenodd" clip-rule="evenodd" d="M14 1H2C1.44772 1 1 1.44772 1 2V4.26756C1.5978 4.61337 2 5.25972 2 6C2 6.74028 1.5978 7.38663 1 7.73244V10C1 10.5523 1.44772 11 2 11H14C14.5523 11 15 10.5523 15 10V7.73244C14.4022 7.38663 14 6.74028 14 6C14 5.25972 14.4022 4.61337 15 4.26756V2C15 1.44772 14.5523 1 14 1ZM0 8V10C0 11.1046 0.895431 12 2 12H14C15.1046 12 16 11.1046 16 10V8V7C15.4477 7 15 6.55228 15 6C15 5.44772 15.4477 5 16 5V4V2C16 0.895431 15.1046 0 14 0H2C0.895431 0 0 0.895431 0 2V4V5C0.552285 5 1 5.44772 1 6C1 6.55228 0.552285 7 0 7V8Z" fill="#FF0861"/>
<path d="M13 4.42947L9.405 4.13579L8 1L6.595 4.14053L3 4.42947L5.73 6.67L4.91 10L8 8.23316L11.09 10L10.275 6.67L13 4.42947ZM8 7.34737L6.12 8.42263L6.62 6.39526L4.96 5.03105L7.15 4.85105L8 2.94211L8.855 4.85579L11.045 5.03579L9.385 6.4L9.885 8.42737L8 7.34737Z" fill="#FF0861"/>
</svg>
