<svg width="16" height="16" viewBox="0 0 16 16" fill="none" xmlns="http://www.w3.org/2000/svg">
<defs><style>.cls-1{fill:#fff;stroke:#ff0861;stroke-linecap:round;stroke-linejoin:round;}</style></defs>
<path class="cls-1" d="M3.12679 15.4866H0.5V12.8598L9.83399 3.53344L12.4532 6.15264L3.12679 15.4866Z" stroke="#303030"/>
<path class="cls-1" d="M13.3022 0.613527L13.3023 0.613577L15.373 2.68434L15.7266 2.33079L15.3776 2.68887C15.4144 2.72468 15.4436 2.76743 15.4637 2.81465C15.4838 2.86186 15.4943 2.9126 15.4946 2.96391C15.495 3.01522 15.4851 3.06608 15.4656 3.11354C15.4461 3.16101 15.4174 3.20413 15.3811 3.2404L15.381 3.24048L14.1355 4.48598L11.5086 1.85907L12.7541 0.613577L12.7542 0.613527C12.7901 0.577534 12.8329 0.548984 12.8799 0.529505C12.9269 0.510026 12.9773 0.5 13.0282 0.5C13.0791 0.5 13.1295 0.510026 13.1765 0.529505C13.2235 0.548985 13.2662 0.577536 13.3022 0.613527Z" stroke="#303030"/>
</svg>
