<svg width="131" height="32" viewBox="0 0 131 32" fill="none" xmlns="http://www.w3.org/2000/svg">
<path d="M13.7539 17.373H5.87891V22.7051H15.1211V26H1.77734V6.09375H15.0938V9.41602H5.87891V14.1602H13.7539V17.373ZM24.7285 18.7129H21.4609V26H17.3593V6.09375H24.7558C27.1074 6.09375 28.9212 6.61784 30.1972 7.66602C31.4733 8.71419 32.1113 10.1953 32.1113 12.1094C32.1113 13.4674 31.8151 14.6022 31.2226 15.5137C30.6393 16.416 29.7506 17.1361 28.5566 17.6738L32.8632 25.8086V26H28.4609L24.7285 18.7129ZM21.4609 15.3906H24.7695C25.7994 15.3906 26.597 15.1309 27.1621 14.6113C27.7272 14.0827 28.0097 13.3581 28.0097 12.4375C28.0097 11.4987 27.7409 10.7604 27.2031 10.2227C26.6744 9.6849 25.8587 9.41602 24.7558 9.41602H21.4609V15.3906ZM42.4433 18.7129H39.1757V26H35.0742V6.09375H42.4706C44.8222 6.09375 46.636 6.61784 47.912 7.66602C49.1881 8.71419 49.8261 10.1953 49.8261 12.1094C49.8261 13.4674 49.5299 14.6022 48.9374 15.5137C48.3541 16.416 47.4654 17.1361 46.2714 17.6738L50.5781 25.8086V26H46.1757L42.4433 18.7129ZM39.1757 15.3906H42.4843C43.5143 15.3906 44.3118 15.1309 44.8769 14.6113C45.442 14.0827 45.7245 13.3581 45.7245 12.4375C45.7245 11.4987 45.4557 10.7604 44.9179 10.2227C44.3893 9.6849 43.5735 9.41602 42.4706 9.41602H39.1757V15.3906ZM69.1405 16.498C69.1405 18.4577 68.7942 20.1758 68.1015 21.6523C67.4088 23.1289 66.4153 24.2682 65.121 25.0703C63.8358 25.8724 62.3593 26.2734 60.6913 26.2734C59.0416 26.2734 57.5696 25.877 56.2753 25.084C54.981 24.291 53.9784 23.1608 53.2675 21.6934C52.5565 20.2168 52.1965 18.5215 52.1874 16.6074V15.623C52.1874 13.6634 52.5383 11.9408 53.2401 10.4551C53.9511 8.96029 54.9491 7.81641 56.2343 7.02344C57.5286 6.22135 59.0051 5.82031 60.664 5.82031C62.3228 5.82031 63.7948 6.22135 65.08 7.02344C66.3743 7.81641 67.3723 8.96029 68.0741 10.4551C68.7851 11.9408 69.1405 13.6589 69.1405 15.6094V16.498ZM64.9843 15.5957C64.9843 13.5085 64.6106 11.9225 63.8632 10.8379C63.1158 9.75326 62.0494 9.21094 60.664 9.21094C59.2877 9.21094 58.2258 9.7487 57.4784 10.8242C56.731 11.8906 56.3528 13.4583 56.3437 15.5273V16.498C56.3437 18.5306 56.7174 20.1074 57.4647 21.2285C58.2121 22.3496 59.2877 22.9102 60.6913 22.9102C62.0676 22.9102 63.1249 22.3724 63.8632 21.2969C64.6015 20.2122 64.9752 18.6354 64.9843 16.5664V15.5957ZM79.3221 18.7129H76.0546V26H71.953V6.09375H79.3495C81.701 6.09375 83.5149 6.61784 84.7909 7.66602C86.0669 8.71419 86.705 10.1953 86.705 12.1094C86.705 13.4674 86.4087 14.6022 85.8163 15.5137C85.233 16.416 84.3443 17.1361 83.1503 17.6738L87.4569 25.8086V26H83.0546L79.3221 18.7129ZM76.0546 15.3906H79.3632C80.3931 15.3906 81.1906 15.1309 81.7557 14.6113C82.3208 14.0827 82.6034 13.3581 82.6034 12.4375C82.6034 11.4987 82.3345 10.7604 81.7968 10.2227C81.2681 9.6849 80.4524 9.41602 79.3495 9.41602H76.0546V15.3906Z" fill="#E9373C"/>
<path d="M116.124 1.05866C116.294 0.681078 116.591 0.373659 116.964 0.188737C117.338 0.00381434 117.764 -0.0471812 118.171 0.0444317C118.578 0.136045 118.94 0.364603 119.196 0.691199C119.452 1.01779 119.586 1.42224 119.575 1.83568C119.572 2.17508 119.666 2.50844 119.846 2.7968C120.027 3.08517 120.287 3.31664 120.595 3.46418C120.904 3.61171 121.248 3.66922 121.588 3.62998C121.928 3.59075 122.25 3.45639 122.516 3.2426C122.834 2.96864 123.237 2.81322 123.658 2.80321C124.079 2.7932 124.49 2.92924 124.82 3.1878C125.15 3.44635 125.379 3.81116 125.467 4.21913C125.554 4.6271 125.495 5.05256 125.3 5.42194C125.147 5.72652 125.086 6.06778 125.122 6.40576C125.159 6.74373 125.292 7.06442 125.505 7.33025C125.719 7.59609 126.005 7.79607 126.329 7.90677C126.653 8.01747 127.003 8.03431 127.336 7.9553C127.736 7.865 128.154 7.91217 128.523 8.08906C128.892 8.26595 129.189 8.56202 129.366 8.92856C129.542 9.29511 129.588 9.71029 129.495 10.1058C129.401 10.5013 129.175 10.8536 128.853 11.1048C128.582 11.3139 128.378 11.5951 128.263 11.9155C128.147 12.2359 128.127 12.5822 128.203 12.9137C128.28 13.2453 128.45 13.5483 128.694 13.7874C128.938 14.0265 129.246 14.1916 129.581 14.2634C129.983 14.3507 130.343 14.5715 130.601 14.8893C130.859 15.207 131 15.6027 131 16.0106C131 16.4185 130.859 16.8141 130.601 17.1319C130.343 17.4497 129.983 17.6705 129.581 17.7577C129.246 17.8296 128.938 17.9947 128.694 18.2338C128.45 18.4728 128.28 18.7759 128.203 19.1074C128.127 19.439 128.147 19.7853 128.263 20.1057C128.378 20.426 128.582 20.7073 128.853 20.9164C129.178 21.1676 129.407 21.5216 129.5 21.9194C129.594 22.3172 129.548 22.7349 129.369 23.1029C129.19 23.471 128.889 23.7673 128.517 23.9425C128.145 24.1176 127.723 24.1612 127.322 24.0659C126.989 23.9843 126.639 23.9986 126.314 24.107C125.989 24.2154 125.702 24.4134 125.486 24.6778C125.27 24.9423 125.135 25.2622 125.096 25.6C125.058 25.9379 125.117 26.2797 125.267 26.5854C125.463 26.9548 125.522 27.3803 125.434 27.7882C125.347 28.1962 125.118 28.561 124.788 28.8196C124.457 29.0781 124.046 29.2142 123.626 29.2042C123.205 29.1942 122.801 29.0387 122.484 28.7648C122.216 28.5599 121.896 28.4335 121.56 28.3999C121.224 28.3664 120.885 28.4271 120.582 28.5752C120.279 28.7233 120.024 28.9527 119.846 29.2374C119.668 29.5221 119.574 29.8506 119.575 30.1855C119.581 30.5952 119.445 30.9946 119.189 31.3167C118.934 31.6389 118.575 31.8643 118.171 31.9553C117.768 32.0463 117.346 31.9974 116.975 31.8167C116.604 31.6359 116.307 31.3344 116.133 30.9625C115.986 30.6589 115.756 30.4026 115.469 30.2232C115.182 30.0437 114.849 29.9485 114.509 29.9485C114.17 29.9485 113.837 30.0437 113.55 30.2232C113.262 30.4026 113.032 30.6589 112.886 30.9625C112.712 31.3344 112.415 31.6359 112.044 31.8167C111.673 31.9974 111.25 32.0463 110.847 31.9553C110.444 31.8643 110.085 31.6389 109.829 31.3167C109.574 30.9946 109.437 30.5952 109.443 30.1855C109.447 29.8461 109.353 29.5127 109.172 29.2244C108.992 28.936 108.732 28.7045 108.423 28.557C108.115 28.4095 107.771 28.352 107.43 28.3912C107.09 28.4304 106.768 28.5648 106.502 28.7786C106.185 29.0619 105.777 29.2247 105.351 29.238C104.924 29.2513 104.506 29.1143 104.172 28.8512C103.838 28.5882 103.608 28.2163 103.524 27.8014C103.441 27.3866 103.508 26.9558 103.714 26.5854C103.867 26.2809 103.928 25.9396 103.892 25.6016C103.855 25.2636 103.722 24.943 103.509 24.6771C103.295 24.4113 103.009 24.2113 102.685 24.1006C102.361 23.9899 102.011 23.9731 101.678 24.0521C101.277 24.1474 100.855 24.1038 100.483 23.9287C100.111 23.7535 99.8099 23.4572 99.631 23.0892C99.4521 22.7211 99.4057 22.3034 99.4996 21.9056C99.5935 21.5078 99.8219 21.1539 100.147 20.9026C100.418 20.6935 100.622 20.4123 100.737 20.0919C100.853 19.7715 100.873 19.4252 100.797 19.0936C100.72 18.7621 100.55 18.459 100.306 18.22C100.062 17.9809 99.754 17.8158 99.4186 17.7439C99.0166 17.6567 98.6567 17.4359 98.3987 17.1181C98.1407 16.8003 98 16.4047 98 15.9968C98 15.5889 98.1407 15.1932 98.3987 14.8755C98.6567 14.5577 99.0166 14.3369 99.4186 14.2496C99.754 14.1778 100.062 14.0127 100.306 13.7736C100.55 13.5346 100.72 13.2315 100.797 12.8999C100.873 12.5684 100.853 12.2221 100.737 11.9017C100.622 11.5813 100.418 11.3001 100.147 11.091C99.8219 10.8397 99.5935 10.4858 99.4996 10.088C99.4057 9.69015 99.4521 9.27248 99.631 8.90443C99.8099 8.53637 100.111 8.24011 100.483 8.06493C100.855 7.88974 101.277 7.84619 101.678 7.94151C102.008 8.0167 102.353 7.99833 102.673 7.88849C102.993 7.77865 103.275 7.58178 103.487 7.32039C103.7 7.059 103.834 6.74364 103.874 6.41035C103.914 6.07707 103.859 5.73933 103.714 5.43573C103.53 5.06931 103.479 4.65146 103.568 4.25192C103.658 3.85239 103.883 3.49532 104.206 3.24033C104.529 2.98533 104.93 2.84782 105.343 2.85074C105.756 2.85366 106.155 2.99684 106.475 3.25639C106.741 3.47018 107.062 3.60454 107.403 3.64378C107.743 3.68301 108.087 3.62551 108.396 3.47797C108.704 3.33043 108.964 3.09896 109.144 2.8106C109.325 2.52223 109.419 2.18888 109.416 1.84948C109.41 1.43974 109.546 1.04039 109.801 0.718229C110.057 0.396065 110.416 0.170627 110.819 0.0796256C111.222 -0.0113753 111.645 0.0375809 112.016 0.218304C112.387 0.399028 112.684 0.700558 112.858 1.07245C113.004 1.38052 113.235 1.64085 113.525 1.82275C113.815 2.00465 114.152 2.10052 114.495 2.09908C114.838 2.09763 115.174 1.99891 115.463 1.81456C115.751 1.63022 115.981 1.36794 116.124 1.05866Z" fill="#E9373C"/>
<path d="M121.905 21.7789L119.777 23.9115C119.722 23.9669 119.646 23.998 119.568 23.998C119.489 23.998 119.414 23.9669 119.358 23.9115L119.329 23.8818C117.805 22.3599 116.281 20.8413 114.768 19.3095C114.55 19.0883 114.438 19.1048 114.224 19.3095C112.71 20.8413 111.183 22.3599 109.662 23.8818L109.629 23.9148C109.573 23.9694 109.498 24 109.42 24C109.342 24 109.267 23.9694 109.211 23.9148L107.087 21.7789C107.031 21.7226 107 21.6467 107 21.5676C107 21.4885 107.031 21.4125 107.087 21.3563L107.116 21.3266C108.637 19.8014 110.154 18.2762 111.684 16.761C111.895 16.553 111.915 16.4308 111.684 16.2129C110.16 14.7076 108.643 13.1956 107.12 11.6572C107.089 11.6265 107.064 11.59 107.048 11.5498C107.031 11.5096 107.022 11.4664 107.022 11.4228C107.022 11.3792 107.031 11.3361 107.048 11.2959C107.064 11.2556 107.089 11.2191 107.12 11.1884L109.221 9.08553C109.277 9.03067 109.353 9 109.432 9C109.51 9 109.586 9.03067 109.643 9.08553C111.189 10.6305 112.739 12.1755 114.276 13.7304C114.304 13.7588 114.336 13.7813 114.373 13.7967C114.409 13.8121 114.448 13.82 114.487 13.82C114.527 13.82 114.566 13.8121 114.602 13.7967C114.638 13.7813 114.671 13.7588 114.698 13.7304C116.229 12.1821 117.772 10.647 119.316 9.10864L119.339 9.08883C119.395 9.03319 119.471 9.00198 119.55 9.00198C119.629 9.00198 119.705 9.03319 119.761 9.08883L121.895 11.2148C121.95 11.2711 121.981 11.347 121.981 11.4261C121.981 11.5052 121.95 11.5812 121.895 11.6374C120.374 13.1626 118.857 14.6878 117.327 16.203C117.106 16.4209 117.083 16.5332 117.327 16.7742C118.844 18.2762 120.345 19.7981 121.868 21.3101L121.895 21.3365C121.927 21.3634 121.953 21.3968 121.971 21.4346C121.989 21.4723 121.999 21.5135 122 21.5554C122.001 21.5973 121.993 21.6389 121.976 21.6775C121.96 21.716 121.935 21.7506 121.905 21.7789Z" fill="white"/>
</svg>
