<svg width="14" height="16" viewBox="0 0 14 16" fill="none" xmlns="http://www.w3.org/2000/svg">
<defs><style>.cls-1{fill:#fff;stroke:#ff0861;stroke-linecap:round;stroke-linejoin:round;}</style></defs>
<path class="cls-1" d="M7.88208 6.25787V5.75787H7.3932C6.09606 5.53663 4.76158 5.67446 3.53851 6.15668C2.34072 6.62892 1.29582 7.41336 0.515725 8.42589C0.753079 6.79425 1.54784 5.28777 2.77307 4.15632C4.03102 2.99464 5.6634 2.30173 7.38772 2.19937L7.85809 2.17145V1.70025V0.983942C7.85809 0.750832 7.92743 0.634579 7.97801 0.580851C8.02843 0.527292 8.08988 0.503155 8.14622 0.500292C8.21859 0.506006 8.28904 0.525053 8.35386 0.556278C8.42316 0.589662 8.48438 0.636172 8.53414 0.692645L8.54586 0.705956L8.55851 0.718402L11.2125 3.33115C11.2126 3.33121 11.2126 3.33128 11.2127 3.33135C11.3976 3.51413 11.5 3.75992 11.5 4.01448C11.5 4.26897 11.3977 4.51469 11.2129 4.69746C11.2127 4.69758 11.2126 4.6977 11.2125 4.69782L8.55851 7.31056L8.54586 7.32301L8.53413 7.33632C8.48437 7.3928 8.42315 7.43931 8.35386 7.47269C8.28897 7.50395 8.21844 7.523 8.14599 7.52869C8.10994 7.52694 8.07513 7.51678 8.04453 7.4994C8.01196 7.4809 7.98562 7.45508 7.96727 7.42509C7.90613 7.31426 7.87675 7.18983 7.88169 7.06476L7.88208 7.0549V7.04503V6.25787Z" stroke="#303030"/>
<path class="cls-1" d="M13.4909 7.53622C13.2628 9.18441 12.4648 10.7078 11.2275 11.8491C9.97011 13.009 8.33833 13.7009 6.61456 13.8031L6.14415 13.831V14.3023V15.0175C6.14415 15.25 6.07496 15.3658 6.02452 15.4193C5.97419 15.4727 5.91275 15.4969 5.85632 15.4997C5.78392 15.494 5.71346 15.475 5.64865 15.4438C5.57937 15.4104 5.51821 15.364 5.46852 15.3077L5.45653 15.2941L5.44359 15.2814L2.78998 12.6798L2.78979 12.6796C2.69738 12.5891 2.62451 12.482 2.57495 12.3646C2.5254 12.2473 2.5 12.1219 2.5 11.9954C2.5 11.8688 2.5254 11.7434 2.57495 11.6261C2.62451 11.5087 2.69738 11.4016 2.78979 11.3111L2.78983 11.3112L2.79478 11.3062L5.42441 8.65737L5.43479 8.64691L5.44454 8.63586C5.49423 8.57953 5.55539 8.5331 5.62467 8.49976C5.6897 8.46847 5.76043 8.44942 5.83308 8.44378C5.9042 8.44651 5.96245 8.47332 6.00615 8.52061C6.0521 8.57036 6.12017 8.68532 6.12017 8.92604V9.75134V10.1707L6.53315 10.2437C7.84352 10.4753 9.19381 10.3401 10.4302 9.85314C11.6476 9.3737 12.707 8.57201 13.4909 7.53622Z" stroke="#303030"/>
</svg>
