<svg width="14" height="17" viewBox="0 0 14 17" fill="none" xmlns="http://www.w3.org/2000/svg">
<path d="M12.6498 2.90368C12.3832 2.63712 12.0286 2.49024 11.6515 2.49024C11.37 2.49024 11.1078 2.57337 10.8874 2.71588V2.65698C10.8874 2.2799 10.7405 1.92535 10.4739 1.65872C10.2073 1.39216 9.85278 1.24528 9.47563 1.24528C9.19415 1.24528 8.93192 1.32841 8.71149 1.47092V1.4117C8.71149 1.03501 8.56471 0.680552 8.29808 0.413443C8.03145 0.146848 7.67694 0 7.29982 0C6.52141 0 5.88812 0.633296 5.88812 1.4117V1.46979C5.66235 1.32385 5.39926 1.24528 5.12398 1.24528C4.34541 1.24528 3.71196 1.87857 3.71196 2.65698V9.69309L2.95557 8.43042C2.95139 8.42342 2.94692 8.4166 2.94223 8.40995C2.63915 7.98098 2.14424 7.72486 1.61838 7.72486C1.28296 7.72486 0.96043 7.82744 0.685573 8.02151C0.332245 8.27107 0.0972822 8.64327 0.0238906 9.06954C-0.0490831 9.49343 0.0463936 9.92025 0.2928 10.2724L2.74022 14.0809C2.74279 14.0849 2.74542 14.0888 2.74816 14.0927C3.79486 15.5745 5.50274 16.4592 7.3167 16.4592H7.46952C10.5539 16.4592 13.0632 13.9498 13.0632 10.8652V3.90194C13.0632 3.52482 12.9164 3.17027 12.6498 2.90368ZM12.4156 10.8652C12.4156 13.5927 10.1968 15.8117 7.46946 15.8117H7.31663C5.71504 15.8117 4.20696 15.0317 3.28106 13.7248L0.833899 9.91668C0.831327 9.91269 0.828691 9.90877 0.825959 9.90491C0.516801 9.46726 0.621439 8.85968 1.05909 8.55049C1.22407 8.43399 1.41743 8.37243 1.61832 8.37243C1.9304 8.37243 2.22426 8.52249 2.40672 8.77443L3.7486 11.0144C3.76606 11.0478 3.78924 11.0776 3.81679 11.1029C3.81817 11.1041 3.81958 11.1054 3.82097 11.1067C3.82672 11.1118 3.83267 11.1167 3.83878 11.1214C3.84173 11.1237 3.84472 11.1259 3.84775 11.128C3.8525 11.1314 3.85736 11.1346 3.86231 11.1378C3.86684 11.1407 3.87141 11.1434 3.87604 11.1461C3.87973 11.1482 3.88349 11.1502 3.88725 11.1521C3.89346 11.1553 3.89973 11.1584 3.90609 11.1612C3.9085 11.1622 3.91088 11.1632 3.91333 11.1642C3.92156 11.1676 3.92985 11.1706 3.9383 11.1733C3.93898 11.1735 3.93969 11.1737 3.94036 11.1739C4.02439 11.2001 4.11858 11.1925 4.20043 11.1445C4.30967 11.0804 4.36714 10.9623 4.35943 10.8439V2.65698C4.35943 2.23563 4.70234 1.89285 5.12389 1.89285C5.32805 1.89285 5.51994 1.97232 5.66421 2.11662C5.80852 2.26093 5.88802 2.45285 5.88802 2.65695V7.42535C5.88802 7.60415 6.03297 7.74913 6.2118 7.74913C6.39064 7.74913 6.53559 7.60415 6.53559 7.42535V1.4117C6.53559 0.990353 6.87837 0.647569 7.29972 0.647569C7.50386 0.647569 7.69577 0.727037 7.83989 0.871152C7.98429 1.01581 8.06386 1.20776 8.06386 1.41167V2.65695V7.42535C8.06386 7.60415 8.20881 7.74913 8.38764 7.74913C8.56648 7.74913 8.71143 7.60415 8.71143 7.42535V2.65698C8.71146 2.23563 9.05424 1.89285 9.47559 1.89285C9.67976 1.89285 9.87165 1.97232 10.016 2.11659C10.1603 2.26093 10.2397 2.45285 10.2397 2.65695V3.90191V7.42532C10.2397 7.60412 10.3847 7.7491 10.5635 7.7491C10.7423 7.7491 10.8873 7.60412 10.8873 7.42532V3.90194C10.8873 3.48059 11.2301 3.13781 11.6514 3.13781C11.8556 3.13781 12.0475 3.21727 12.1918 3.36158C12.3361 3.50589 12.4156 3.69781 12.4156 3.90191V10.8652H12.4156Z" fill="#FF0861"/>
<path d="M10.2827 12.9523C10.1496 12.8329 9.94489 12.844 9.8255 12.9771C9.22454 13.6468 8.36577 14.0309 7.46942 14.0309C7.29058 14.0309 7.14563 14.1759 7.14563 14.3547C7.14563 14.5335 7.29058 14.6785 7.46942 14.6785C8.54946 14.6785 9.58388 14.2159 10.3075 13.4095C10.4269 13.2764 10.4158 13.0717 10.2827 12.9523Z" fill="#FF0861"/>
<path d="M10.6224 11.9964C10.2057 11.9964 10.205 12.644 10.6224 12.644C11.039 12.644 11.0397 11.9964 10.6224 11.9964Z" fill="#FF0861"/>
</svg>
