<svg width="24" height="24" viewBox="0 0 24 24" fill="none" xmlns="http://www.w3.org/2000/svg">
<g id="Group 74">
<g id="home-1">
<path id="Ellipse 2" d="M24 12C24 18.6274 18.6274 24 12 24C5.37258 24 0 18.6274 0 12C0 5.37258 5.37258 0 12 0C18.6274 0 24 5.37258 24 12Z" fill="#E3E4EE"/>
<g id="Group">
<path id="Vector" d="M13.7095 17.8267C13.7095 18.8941 14.6701 19.8546 15.7374 19.8546C16.8048 19.8546 17.7653 18.8941 17.7653 17.8267C17.7653 16.7594 16.8048 15.7988 15.7374 15.7988C14.6701 15.7988 13.7095 16.7594 13.7095 17.8267Z" fill="black"/>
<path id="Vector_2" fill-rule="evenodd" clip-rule="evenodd" d="M15.7374 19.6412C14.7769 19.6412 13.923 18.8941 13.923 17.8267C13.923 16.7594 14.6701 16.0123 15.7374 16.0123C16.698 16.0123 17.5519 16.7594 17.5519 17.8267C17.5519 18.8941 16.698 19.6412 15.7374 19.6412ZM15.7374 19.8546C14.5634 19.8546 13.7095 19.0008 13.7095 17.8267C13.7095 16.6527 14.5634 15.7988 15.7374 15.7988C16.9115 15.7988 17.7653 16.6527 17.7653 17.8267C17.7653 19.0008 16.9115 19.8546 15.7374 19.8546Z" fill="black"/>
<path id="Vector_3" d="M14.4567 17.8267C14.4567 18.5739 14.9903 19.1075 15.7374 19.1075C16.4846 19.1075 17.0182 18.5739 17.0182 17.8267C17.0182 17.0796 16.4846 16.546 15.7374 16.546C15.0971 16.546 14.4567 17.1864 14.4567 17.8267Z" fill="#AAACAB"/>
<path id="Vector_4" fill-rule="evenodd" clip-rule="evenodd" d="M15.7374 19.0008C15.0971 19.0008 14.5634 18.4671 14.5634 17.8267C14.5634 17.1864 15.0971 16.6527 15.7374 16.6527C16.3778 16.6527 16.9115 17.1864 16.9115 17.8267C16.9115 18.4671 16.3778 19.0008 15.7374 19.0008ZM15.7374 19.1075C14.9903 19.1075 14.4567 18.5739 14.4567 17.8267C14.4567 17.0796 14.9903 16.546 15.7374 16.546C16.4846 16.546 17.0182 17.0796 17.0182 17.8267C17.0182 18.5739 16.4846 19.1075 15.7374 19.1075Z" fill="black"/>
<path id="Vector_5" d="M14.7769 17.8267C14.7769 18.1469 14.8836 18.3604 15.0971 18.5738C15.2038 18.4671 15.3105 18.3604 15.3105 18.2536C15.2038 18.1469 15.2038 18.0402 15.2038 17.9335C15.0971 17.9335 14.9903 17.9335 14.7769 17.8267Z" fill="white"/>
<path id="Vector_6" fill-rule="evenodd" clip-rule="evenodd" d="M14.7769 17.8267C14.7769 18.1469 14.8836 18.3604 15.0971 18.5738C15.0971 18.4671 15.3105 18.3604 15.3105 18.2536C15.3105 18.2536 15.2038 18.1469 15.2038 18.0402V17.9335C15.0971 17.9335 14.9903 17.8267 14.7769 17.8267ZM15.2038 17.9335V18.0402C15.2038 18.1469 15.2038 18.1469 15.3105 18.2536C15.2038 18.3604 15.2038 18.4671 15.0971 18.5738C14.8836 18.3604 14.8836 18.1469 14.8836 17.8267C14.9903 17.9335 15.0971 17.9335 15.2038 17.9335Z" fill="black"/>
<path id="Vector_7" d="M15.4173 18.7873C15.6308 18.894 15.951 18.894 16.2712 18.7873C16.2712 18.6806 16.0577 18.5738 16.0577 18.4671C15.951 18.4671 15.8442 18.4671 15.7375 18.4671C15.524 18.5738 15.4173 18.6806 15.4173 18.7873Z" fill="white"/>
<path id="Vector_8" fill-rule="evenodd" clip-rule="evenodd" d="M15.3105 18.7873C15.6307 18.894 15.8441 18.894 16.1643 18.7873C16.1643 18.6806 15.9509 18.5738 15.9509 18.4671C15.8441 18.4671 15.8441 18.4671 15.7374 18.4671H15.6307C15.5239 18.4671 15.4172 18.6806 15.3105 18.7873ZM15.6307 18.4671H15.7374C15.8441 18.4671 15.8441 18.4671 15.9509 18.4671C16.0576 18.5738 16.1643 18.6806 16.1643 18.7873C15.9509 18.894 15.6307 18.894 15.4172 18.7873C15.5239 18.6806 15.5239 18.5738 15.6307 18.4671Z" fill="black"/>
<path id="Vector_9" d="M16.4846 18.5738C16.6981 18.3604 16.8048 18.0402 16.6981 17.8267C16.5914 17.8267 16.3779 17.9335 16.2712 17.9335C16.2712 18.0402 16.2712 18.1469 16.1644 18.2536C16.2712 18.3604 16.3779 18.4671 16.4846 18.5738Z" fill="white"/>
<path id="Vector_10" fill-rule="evenodd" clip-rule="evenodd" d="M16.4846 18.6806C16.698 18.4671 16.8048 18.1469 16.8048 17.9335C16.698 17.9335 16.4846 18.0402 16.3779 18.0402C16.3779 18.1469 16.3779 18.1469 16.3779 18.2536C16.3779 18.2536 16.3779 18.3604 16.2711 18.3604C16.2711 18.3604 16.3779 18.4671 16.4846 18.6806ZM16.2711 18.2536C16.2711 18.2536 16.2711 18.1469 16.3779 18.1469C16.3779 18.0402 16.3779 18.0402 16.3779 17.9335C16.4846 17.9335 16.5913 17.8267 16.698 17.8267C16.698 18.0402 16.5913 18.3604 16.4846 18.5738C16.3779 18.4671 16.2711 18.3604 16.2711 18.2536Z" fill="black"/>
<path id="Vector_11" d="M15.524 17.9334C15.524 18.0402 15.6307 18.1469 15.7375 18.1469C15.8442 18.1469 15.9509 18.0402 15.9509 17.9334C15.9509 17.8267 15.8442 17.72 15.7375 17.72C15.6307 17.72 15.524 17.8267 15.524 17.9334Z" fill="#272B2C"/>
<path id="Vector_12" d="M3.99695 17.8267C3.99695 19.0008 4.95754 19.8546 6.02485 19.8546C7.09217 19.8546 8.05276 18.8941 8.05276 17.8267C8.05276 16.7594 7.09217 15.7988 6.02485 15.7988C4.95754 15.7988 3.99695 16.7594 3.99695 17.8267Z" fill="black"/>
<path id="Vector_13" fill-rule="evenodd" clip-rule="evenodd" d="M6.13154 19.6412C5.17096 19.6412 4.3171 18.7873 4.3171 17.8267C4.3171 16.8661 5.06422 16.119 6.13154 16.119C7.19886 16.119 7.94599 16.9729 7.94599 17.9335C7.83925 18.8941 7.09213 19.6412 6.13154 19.6412ZM6.13154 19.8546C4.95749 19.8546 4.10364 18.8941 4.10364 17.8267C4.10364 16.7594 5.06422 15.7988 6.13154 15.7988C7.19886 15.7988 8.15945 16.7594 8.15945 17.8267C8.15945 19.0008 7.19886 19.8546 6.13154 19.8546Z" fill="black"/>
<path id="Vector_14" d="M4.85077 17.8267C4.85077 18.5739 5.38443 19.1075 6.13155 19.1075C6.87867 19.1075 7.41233 18.5739 7.41233 17.8267C7.41233 17.0796 6.87867 16.546 6.13155 16.546C5.38443 16.546 4.85077 17.1864 4.85077 17.8267Z" fill="#AAACAB"/>
<path id="Vector_15" fill-rule="evenodd" clip-rule="evenodd" d="M6.13155 19.0008C5.49116 19.0008 4.9575 18.4671 4.9575 17.8267C4.9575 17.1864 5.49116 16.6527 6.13155 16.6527C6.77194 16.6527 7.3056 17.1864 7.3056 17.8267C7.3056 18.4671 6.77194 19.0008 6.13155 19.0008ZM6.13155 19.1075C5.38443 19.1075 4.85077 18.5739 4.85077 17.8267C4.85077 17.0796 5.38443 16.546 6.13155 16.546C6.87867 16.546 7.41233 17.0796 7.41233 17.8267C7.3056 18.5739 6.77194 19.1075 6.13155 19.1075Z" fill="black"/>
<path id="Vector_16" d="M5.27774 17.5066C5.17101 17.7201 5.17101 18.0403 5.27774 18.3604C5.38447 18.3604 5.49121 18.2537 5.59794 18.147C5.59794 18.0403 5.59794 17.9335 5.59794 17.8268C5.49121 17.7201 5.38447 17.6133 5.27774 17.5066Z" fill="white"/>
<path id="Vector_17" fill-rule="evenodd" clip-rule="evenodd" d="M5.27774 17.5066C5.17101 17.8268 5.17101 18.0403 5.27774 18.3604C5.38447 18.3604 5.49121 18.2537 5.59794 18.147C5.59794 18.0403 5.59794 18.0403 5.59794 17.9335V17.8268C5.49121 17.6133 5.38447 17.6133 5.27774 17.5066ZM5.49121 17.7201V17.8268C5.49121 17.9335 5.49121 17.9335 5.49121 18.0403C5.49121 18.147 5.27774 18.2537 5.27774 18.2537C5.17101 18.0403 5.17101 17.7201 5.27774 17.5066C5.38447 17.6133 5.49121 17.7201 5.49121 17.7201Z" fill="black"/>
<path id="Vector_18" d="M6.45177 17.2931C6.23831 17.1864 6.02485 17.0796 5.70465 17.1864C5.70465 17.2931 5.81138 17.3998 5.91811 17.5066C6.02485 17.5066 6.13158 17.5066 6.23831 17.5066C6.23831 17.5066 6.34504 17.3998 6.45177 17.2931Z" fill="white"/>
<path id="Vector_19" fill-rule="evenodd" clip-rule="evenodd" d="M6.55851 17.2931C6.23831 17.1864 6.02485 17.0796 5.70465 17.1864C5.70465 17.2931 5.81138 17.3998 5.91811 17.5066C6.02485 17.5066 6.02485 17.5066 6.13158 17.5066H6.23831C6.23831 17.5066 6.34504 17.3998 6.55851 17.2931ZM6.23831 17.5066H6.13158C6.02485 17.5066 6.02485 17.5066 5.91811 17.5066C5.91811 17.3998 5.81138 17.2931 5.81138 17.1864C6.02485 17.1864 6.34504 17.1864 6.55851 17.2931C6.34504 17.3998 6.23831 17.5066 6.23831 17.5066Z" fill="black"/>
<path id="Vector_20" d="M5.5979 18.5739C5.81136 18.6806 6.13156 18.7873 6.34502 18.6806C6.34502 18.5739 6.23829 18.4671 6.13156 18.3604C6.02483 18.3604 5.9181 18.3604 5.81136 18.3604C5.81136 18.3604 5.70463 18.4671 5.5979 18.5739Z" fill="white"/>
<path id="Vector_21" fill-rule="evenodd" clip-rule="evenodd" d="M5.59794 18.5739C5.81141 18.7873 6.1316 18.7873 6.4518 18.7873C6.4518 18.6806 6.34507 18.5739 6.23833 18.4671C6.1316 18.4671 6.1316 18.4671 6.02487 18.4671H5.91814C5.81141 18.3604 5.70467 18.4671 5.59794 18.5739ZM5.81141 18.3604H5.91814C6.02487 18.3604 6.02487 18.3604 6.1316 18.3604C6.1316 18.4671 6.23833 18.5739 6.23833 18.6806C6.02487 18.6806 5.70467 18.6806 5.49121 18.5739C5.70467 18.4671 5.81141 18.4671 5.81141 18.3604Z" fill="black"/>
<path id="Vector_22" d="M6.77198 18.4671C6.98544 18.2536 7.09217 17.9334 6.98544 17.72C6.87871 17.72 6.66525 17.8267 6.55851 17.8267C6.55851 17.9334 6.55851 18.0402 6.45178 18.1469C6.55851 18.2536 6.66525 18.3604 6.77198 18.4671Z" fill="white"/>
<path id="Vector_23" fill-rule="evenodd" clip-rule="evenodd" d="M6.772 18.4671C6.98546 18.2536 7.09219 17.9334 7.09219 17.72C6.98546 17.72 6.772 17.8267 6.66526 17.8267C6.66526 17.9334 6.66526 17.9334 6.66526 18.0402C6.66526 18.0402 6.66526 18.1469 6.55853 18.1469C6.55853 18.2536 6.66526 18.3604 6.772 18.4671ZM6.55853 18.1469C6.55853 18.1469 6.55853 18.0402 6.66526 18.0402C6.66526 17.9334 6.66526 17.9334 6.66526 17.8267C6.772 17.8267 6.87873 17.72 6.98546 17.72C6.98546 17.9334 6.87873 18.2536 6.772 18.4671C6.66526 18.3604 6.55853 18.2536 6.55853 18.1469Z" fill="black"/>
<path id="Vector_24" d="M5.8114 17.9334C5.8114 18.0402 5.91813 18.1469 6.02487 18.1469C6.1316 18.1469 6.23833 18.0402 6.23833 17.9334C6.23833 17.8267 6.1316 17.72 6.02487 17.72C5.91813 17.72 5.8114 17.8267 5.8114 17.9334Z" fill="#272B2C"/>
<path id="Vector_25" fill-rule="evenodd" clip-rule="evenodd" d="M10.1874 7.68718L10.2941 8.00737L10.5076 7.90064L10.2941 7.58044L10.1874 7.68718Z" fill="black"/>
<path id="Vector_26" d="M6.87875 15.9055C5.91816 15.5854 4.85084 15.9055 4.21045 16.7594C4.63738 17.1863 5.0643 17.1863 5.7047 17.1863C6.23836 17.1863 6.77202 17.3998 7.19894 17.8267C7.51914 18.0402 7.83933 18.1469 8.26626 18.1469C8.26626 18.0402 8.26626 17.72 8.26626 17.5065C8.26626 17.2931 7.94607 16.9729 7.62587 16.7594C7.41241 16.5459 7.19894 16.0123 6.87875 15.9055Z" fill="black"/>
<path id="Vector_27" fill-rule="evenodd" clip-rule="evenodd" d="M6.87867 15.7988C5.81135 15.4786 4.74403 15.7988 4.10364 16.7594V16.8662L4.21037 16.9729C4.53057 17.0796 5.06422 17.2931 5.59788 17.1864H5.70462C6.23828 17.1864 6.77194 17.3998 7.19886 17.8268C7.41233 17.9335 7.62579 18.0402 7.83925 18.1469C8.05272 18.1469 8.15945 18.2537 8.37291 18.2537H8.47965V18.1469C8.47965 18.0402 8.47965 17.72 8.47965 17.5066C8.47965 17.3998 8.47965 17.2931 8.37291 17.2931C8.37291 17.1864 8.26618 17.1864 8.15945 17.0796C8.05272 16.9729 8.05272 16.9729 7.94599 16.8662C7.83925 16.7594 7.83925 16.7594 7.73252 16.6527C7.62579 16.546 7.51906 16.4392 7.41233 16.3325L7.30559 16.2258C7.30559 16.0123 7.09213 15.9056 6.87867 15.7988ZM6.87867 15.9056C6.9854 16.0123 7.19886 16.119 7.19886 16.2258L7.30559 16.3325C7.41233 16.4392 7.51906 16.546 7.62579 16.7594C7.73252 16.8662 7.73252 16.8662 7.83925 16.9729C7.94599 17.0796 7.94599 17.0796 8.05272 17.1864C8.05272 17.1864 8.15945 17.2931 8.15945 17.3998V17.5066C8.15945 17.6133 8.15945 17.8268 8.15945 18.0402C8.05272 18.0402 7.94599 18.0402 7.73252 17.9335C7.51906 17.9335 7.30559 17.8268 7.19886 17.72C6.77194 17.2931 6.23828 17.0796 5.59788 17.0796H5.49115C5.06423 17.0796 4.6373 16.9729 4.21037 16.7594C4.95749 15.9056 5.91808 15.5854 6.87867 15.9056Z" fill="black"/>
<path id="Vector_28" d="M9.22687 6.72658V5.4458C9.3336 5.55253 9.54706 5.766 9.76053 5.766C9.97399 5.766 10.0807 5.766 10.1875 5.87273C10.2942 6.19292 10.2942 6.51312 10.1875 6.72658C10.1875 7.15351 10.7211 7.26024 10.5077 7.36698C9.44033 7.58044 9.22687 7.04678 9.22687 6.72658Z" fill="#FFEFD8"/>
<path id="Vector_29" fill-rule="evenodd" clip-rule="evenodd" d="M9.1201 5.23242C9.01337 5.33915 9.01337 5.33915 9.01337 5.44589V6.72667C9.01337 6.94013 9.1201 7.26033 9.33356 7.36706C9.65376 7.58052 10.1874 7.68726 10.6143 7.58052C10.7211 7.58052 10.7211 7.47379 10.8278 7.47379C10.8278 7.36706 10.8278 7.26033 10.8278 7.26033L10.7211 7.1536C10.6143 7.04686 10.5076 6.94013 10.6143 6.94013C10.6143 6.72667 10.6143 6.61994 10.6143 6.40647C10.6143 6.29974 10.6143 6.29974 10.6143 6.19301C10.6143 6.08628 10.6143 6.08628 10.5076 5.97954C10.4009 5.87281 10.4009 5.76608 10.1874 5.76608C10.0807 5.76608 9.97395 5.76608 9.86722 5.76608C9.76049 5.76608 9.76049 5.76608 9.65376 5.65935C9.54703 5.44589 9.44029 5.33915 9.33356 5.33915C9.33356 5.23242 9.22683 5.23242 9.1201 5.23242ZM9.22683 5.44589C9.33356 5.55262 9.33356 5.55262 9.44029 5.65935C9.54703 5.76608 9.65376 5.76608 9.76049 5.76608C9.97395 5.76608 10.0807 5.76608 10.1874 5.87281C10.2941 6.19301 10.2941 6.5132 10.1874 6.72667C10.1874 6.94013 10.2941 7.04686 10.4009 7.1536C10.5076 7.26033 10.5076 7.26033 10.4009 7.26033H10.2941C9.44029 7.58052 9.22683 6.94013 9.22683 6.72667V5.44589Z" fill="black"/>
<path id="Vector_30" d="M9.76047 12.17C9.8672 12.0632 9.76047 11.8498 9.65374 11.8498L9.12008 11.5296C9.01335 11.4228 8.79989 11.5296 8.79989 11.6363C8.69315 11.743 8.79989 11.9565 8.90662 11.9565L9.44028 12.2767C9.54701 12.2767 9.65374 12.2767 9.76047 12.17Z" fill="#272B2C"/>
<path id="Vector_31" fill-rule="evenodd" clip-rule="evenodd" d="M9.22681 11.4228L9.76047 11.743C9.8672 11.8497 9.86721 11.9565 9.86721 12.0632C9.86721 12.1699 9.65374 12.1699 9.54701 12.1699L8.90662 11.8497C8.79989 11.8497 8.79989 11.6363 8.79989 11.5295C8.79989 11.4228 9.01335 11.4228 9.22681 11.4228ZM9.65374 11.743C9.76047 11.8497 9.8672 11.9565 9.76047 12.0632C9.65374 12.1699 9.54701 12.2767 9.44028 12.1699L8.90662 11.8497C8.79989 11.8497 8.69315 11.6363 8.79989 11.5295C8.90662 11.4228 9.01335 11.3161 9.12008 11.4228L9.65374 11.743Z" fill="#272B2C"/>
<path id="Vector_32" d="M9.44025 6.72659C9.44025 6.61985 9.54698 6.51312 9.54698 6.51312C9.54698 6.51312 9.54698 6.51312 9.44025 6.72659L9.54698 6.83332C9.54698 6.83332 9.44025 6.83332 9.44025 6.72659Z" fill="#202932"/>
<path id="Vector_33" d="M9.86723 6.08624C9.97396 6.08624 9.97396 6.08624 10.0807 6.19297C9.97396 6.19297 9.97396 6.19297 9.86723 6.08624C9.86723 6.19297 9.7605 6.19297 9.7605 6.19297C9.7605 6.08624 9.7605 6.08624 9.86723 6.08624Z" fill="#202932"/>
<path id="Vector_34" d="M9.33352 6.08624C9.22679 6.08624 9.22679 6.08624 9.12006 6.08624C9.22679 6.08624 9.22679 6.08624 9.33352 6.08624C9.33352 6.19297 9.33352 6.19297 9.44025 6.29971C9.54698 6.19297 9.44025 6.08624 9.33352 6.08624Z" fill="#202932"/>
<path id="Vector_35" d="M9.76044 7.04681H9.44025C9.54698 7.15355 9.65371 7.15355 9.76044 7.04681Z" fill="#202932"/>
<path id="Vector_36" fill-rule="evenodd" clip-rule="evenodd" d="M9.76044 7.04681H9.44025C9.44025 7.04681 9.54698 7.04681 9.54698 7.15355H9.65371C9.76044 7.15355 9.76044 7.15355 9.76044 7.04681ZM9.76044 7.04681C9.76044 7.04681 9.76044 7.15355 9.76044 7.04681C9.65371 7.15355 9.65371 7.15355 9.54698 7.15355C9.54698 7.15355 9.44025 7.15355 9.44025 7.04681H9.76044Z" fill="#202932"/>
<path id="Vector_37" d="M11.7884 11.8498C11.2547 10.569 10.8278 9.2882 10.4009 8.00741C10.7211 7.90068 10.6143 7.68722 10.9345 7.58049C11.148 7.47375 11.2547 7.47375 11.4682 7.47375C12.3221 7.79395 12.8557 8.43434 13.1759 9.18147C13.3894 9.71512 14.4567 11.6363 14.5634 11.9565C14.2432 12.2767 13.8163 12.4902 13.2826 12.4902C12.9624 12.4902 12.1086 12.3834 11.7884 11.8498Z" fill="#020202"/>
<path id="Vector_38" fill-rule="evenodd" clip-rule="evenodd" d="M11.4682 7.367C11.3615 7.367 11.2547 7.367 11.148 7.367H11.0413C11.0413 7.367 10.9345 7.367 10.9345 7.47374C10.8278 7.47374 10.7211 7.58047 10.7211 7.6872C10.6143 7.79393 10.6143 7.79393 10.5076 7.90066H10.4009V8.0074C10.6143 8.54105 10.8278 9.39491 11.148 10.142C11.2547 10.569 11.3615 10.8892 11.5749 11.2094C11.6817 11.4228 11.7884 11.6363 11.8951 11.8497C12.1086 12.1699 12.4288 12.2767 12.749 12.3834C12.9624 12.4901 13.2826 12.4901 13.4961 12.4901C14.0298 12.4901 14.4567 12.2767 14.8836 11.9565V11.8497C14.7769 11.6363 14.7769 11.5295 14.6702 11.3161C14.5634 11.1026 14.35 10.7824 14.2432 10.4622L14.1365 10.2488C13.8163 9.71511 13.6028 9.18145 13.4961 8.96798C12.9624 8.32759 12.2153 7.6872 11.4682 7.367ZM11.3615 7.58047C12.1086 7.79393 12.749 8.43432 12.9624 9.18145C13.0692 9.39491 13.3894 9.92857 13.6028 10.4622L13.7096 10.6757C13.8163 10.9959 14.0298 11.2094 14.1365 11.5295C14.2432 11.743 14.35 11.8497 14.35 11.9565C14.0298 12.2767 13.6028 12.3834 13.1759 12.3834C12.9624 12.3834 12.6422 12.3834 12.4288 12.2767C12.1086 12.1699 11.8951 12.0632 11.6817 11.8497C11.5749 11.6363 11.4682 11.4228 11.3615 11.2094C11.2547 10.8892 11.148 10.569 10.9345 10.142C10.9345 9.39491 10.6143 8.64779 10.5076 8.11413C10.6143 8.11413 10.7211 8.0074 10.7211 7.90066C10.7211 7.79393 10.8278 7.79393 10.9345 7.79393C11.0413 7.79393 11.0413 7.79393 11.0413 7.6872H11.148C11.2547 7.58047 11.2547 7.58047 11.3615 7.58047Z" fill="black"/>
<path id="Vector_39" d="M19.7933 10.3555C19.7933 10.0353 19.5798 9.82184 19.2596 9.82184H15.4173C15.0971 9.82184 14.8836 10.0353 14.8836 10.3555V13.344C14.8836 13.6642 15.0971 13.8776 15.4173 13.8776H19.2596C19.5798 13.8776 19.7933 13.6642 19.7933 13.344V10.3555Z" fill="black"/>
<path id="Vector_40" fill-rule="evenodd" clip-rule="evenodd" d="M19.1529 9.6084H15.3105C14.8836 9.6084 14.5634 9.92859 14.5634 10.3555V13.344C14.5634 13.7709 14.8836 14.0911 15.3105 14.0911H19.1529C19.5798 14.0911 19.9 13.7709 19.9 13.344V10.3555C19.9 9.92859 19.5798 9.6084 19.1529 9.6084ZM19.1529 9.71513C19.4731 9.71513 19.6865 9.92859 19.6865 10.2488V13.2373C19.6865 13.5575 19.4731 13.7709 19.1529 13.7709H15.3105C14.9903 13.7709 14.7769 13.5575 14.7769 13.2373V10.2488C14.7769 9.92859 14.9903 9.71513 15.3105 9.71513H19.1529Z" fill="black"/>
<path id="Vector_41" fill-rule="evenodd" clip-rule="evenodd" d="M19.9 10.8891C19.9 10.7824 19.7933 10.7824 19.9 10.8891L14.7769 10.7824C14.6702 10.7824 14.6702 10.8891 14.6702 10.8891C14.6702 10.8891 14.6702 10.9959 14.7769 10.9959L19.9 10.8891C19.9 10.9959 19.7933 10.9959 19.9 10.8891Z" fill="black"/>
<path id="Vector_42" d="M8.69315 13.344C8.79988 12.4901 8.37296 12.2766 8.05276 12.2766C8.05276 12.0632 6.55852 14.7315 6.66525 15.3719C6.77198 16.0123 8.15949 17.293 8.69315 17.5065C8.90662 17.6132 9.12008 17.72 9.33354 17.72H18.6192C18.4058 16.9729 18.0856 16.2257 17.5519 15.6921C16.8048 14.8382 15.8442 14.3046 14.7769 14.0911C13.8163 13.9844 14.1365 13.9844 11.5749 14.0911C11.3615 14.518 11.5749 14.8382 11.8951 15.0517C12.322 15.2651 12.5355 15.7988 12.4288 16.3325C12.322 16.8661 12.0018 17.1863 11.4682 17.3998C10.6143 17.3998 9.8672 17.3998 9.01335 17.293C8.05276 17.0796 8.05276 16.3325 8.15949 15.3719C8.37296 14.518 8.58642 14.3046 8.69315 13.344Z" fill="black"/>
<path id="Vector_43" fill-rule="evenodd" clip-rule="evenodd" d="M6.66522 14.945C6.66522 15.0517 6.66522 15.1585 6.66522 15.2652C6.66522 15.4787 6.77195 15.6921 6.98542 15.9056C7.19888 16.1191 7.30561 16.3325 7.51908 16.546C7.73254 16.8662 7.946 17.0797 8.15947 17.1864C8.2662 17.2931 8.47966 17.3998 8.69313 17.5066C8.90659 17.6133 9.12006 17.72 9.44025 17.8268H18.7259C18.8327 17.8268 18.8327 17.8268 18.8327 17.72C18.6192 16.9729 18.299 16.2258 17.7653 15.5854C17.0182 14.7315 16.0576 14.1979 14.8836 13.9844H14.6701C14.3499 13.9844 14.1365 13.8777 13.8163 13.8777C13.4961 13.8777 13.1759 13.8777 12.4287 13.9844H11.5749C11.5749 13.9844 11.4682 13.9844 11.4682 14.0912C11.3614 14.3046 11.3614 14.5181 11.4682 14.7315C11.5749 14.945 11.6816 15.0517 11.8951 15.1585C12.322 15.3719 12.5355 15.9056 12.4287 16.3325C12.322 16.546 12.2153 16.8662 12.0018 17.0796C11.8951 17.1864 11.7884 17.2931 11.7884 17.2931C11.6816 17.2931 11.6816 17.3998 11.5749 17.3998C10.721 17.3998 9.97391 17.3998 9.12006 17.2931C9.01332 17.1864 8.79986 17.1864 8.69313 16.9729C8.5864 16.8662 8.47966 16.7595 8.47966 16.546C8.37293 16.1191 8.37293 15.7989 8.47966 15.3719C8.47966 15.0517 8.5864 14.7315 8.69313 14.5181V14.4114C8.69313 14.0912 8.79986 13.6642 8.79986 13.344C8.90659 13.0238 8.79986 12.7036 8.5864 12.3834C8.47966 12.2767 8.2662 12.17 8.15947 12.17C8.15947 12.17 8.15947 12.17 8.05274 12.17C8.05274 12.17 8.05274 12.17 7.946 12.2767C7.946 12.3834 7.83927 12.3834 7.73254 12.5969C7.62581 12.8104 7.41235 13.1306 7.19888 13.5575C6.98542 13.8777 6.87869 14.3046 6.66522 14.6248C6.77195 14.6248 6.77195 14.8383 6.66522 14.945ZM8.15947 12.3834C8.15947 12.4902 8.05274 12.4902 7.946 12.5969C7.83927 12.8104 7.62581 13.1306 7.41235 13.4508C7.19888 13.771 7.09215 14.1979 6.98542 14.5181C6.87869 14.6248 6.87869 14.8383 6.87869 14.945C6.87869 15.0517 6.87869 15.1585 6.87869 15.2652C6.87869 15.4787 6.98542 15.6921 7.09215 15.7989C7.30561 16.0123 7.41235 16.2258 7.62581 16.4393C7.83927 16.6527 8.05274 16.8662 8.2662 16.9729C8.47966 17.1864 8.5864 17.2931 8.79986 17.3998C9.01332 17.5066 9.22679 17.6133 9.44025 17.6133H18.6192C18.4057 16.9729 18.0855 16.3325 17.6586 15.6921C16.9115 14.8383 15.9509 14.3046 14.8836 14.1979H14.6701C14.4567 14.1979 14.1365 14.0912 13.8163 14.0912C13.4961 14.0912 13.1759 14.0912 12.4287 14.1979H11.6816C11.5749 14.3046 11.5749 14.5181 11.6816 14.6248C11.7884 14.7315 11.8951 14.945 12.0018 15.0517C12.4287 15.3719 12.7489 15.9056 12.6422 16.4393C12.5355 16.7595 12.4287 16.9729 12.2153 17.1864C12.1085 17.2931 12.0018 17.3998 11.8951 17.3998C11.7884 17.5066 11.6816 17.5066 11.6816 17.5066C10.8278 17.5066 10.0806 17.5066 9.22679 17.3998C9.01332 17.3998 8.79986 17.2931 8.5864 17.1864C8.47966 17.0797 8.37293 16.8662 8.2662 16.6527C8.15947 16.2258 8.15947 15.7989 8.2662 15.3719C8.2662 15.0517 8.37293 14.7315 8.47966 14.4114V14.3046C8.5864 13.9844 8.69313 13.5575 8.69313 13.2373C8.79986 13.0238 8.69313 12.7036 8.5864 12.4902C8.37293 12.3834 8.2662 12.3834 8.15947 12.3834Z" fill="black"/>
<path id="Vector_44" d="M8.79985 12.17C9.01332 12.17 9.01332 12.0632 9.01332 12.0632C8.58639 11.743 8.79985 11.5296 8.69312 11.4229C8.26619 11.3161 7.946 11.2094 7.51907 11.3161C7.30561 11.6363 7.30561 11.9565 7.6258 12.2767H8.79985V12.17Z" fill="#070707"/>
<path id="Vector_45" fill-rule="evenodd" clip-rule="evenodd" d="M7.62585 11.1027C7.51911 11.1027 7.51911 11.1027 7.41238 11.1027C7.19892 11.4229 7.19892 11.8498 7.51911 12.17H8.7999C8.90663 12.17 9.01336 12.17 9.01336 12.0632C9.12009 12.0632 9.12009 11.9565 9.12009 11.8498C9.01336 11.8498 9.01336 11.7431 8.90663 11.7431V11.6363C8.90663 11.6363 8.90663 11.6363 8.90663 11.5296C8.90663 11.5296 8.90663 11.5296 8.90663 11.4229C8.90663 11.3161 8.90663 11.3161 8.7999 11.2094C8.37297 11.1027 8.05277 11.1027 7.62585 11.1027ZM8.58643 11.4229C8.69317 11.4229 8.69317 11.4229 8.58643 11.4229C8.69317 11.5296 8.69317 11.5296 8.58643 11.4229C8.69317 11.5296 8.69317 11.5296 8.58643 11.4229C8.58643 11.5296 8.58643 11.6363 8.58643 11.6363C8.58643 11.7431 8.58643 11.7431 8.69316 11.8498L8.7999 11.9565H7.62585C7.41238 11.7431 7.41238 11.5296 7.51911 11.3161H7.62585C7.94604 11.3161 8.37297 11.3161 8.58643 11.4229Z" fill="black"/>
<path id="Vector_46" fill-rule="evenodd" clip-rule="evenodd" d="M7.83928 12.1699V11.316H7.73254V12.1699H7.83928Z" fill="black"/>
<path id="Vector_47" d="M7.73254 11.9565V11.2094H7.51907C7.41234 11.4228 7.41234 11.6363 7.51907 11.8497C7.62581 12.0632 7.73254 11.9565 7.73254 11.9565Z" fill="white"/>
<path id="Vector_48" d="M9.65369 13.8776L10.4008 16.6526H11.4681L10.9345 14.0911C11.8951 13.7709 12.8556 13.4507 13.8162 13.0238C14.0297 12.8103 14.2432 12.5968 14.1364 12.2766C13.3893 12.4901 12.5354 12.4901 11.7883 12.0632C11.3614 12.2766 10.4008 12.917 9.86715 13.1305C9.65369 13.2372 9.54696 13.5574 9.65369 13.8776Z" fill="black"/>
<path id="Vector_49" fill-rule="evenodd" clip-rule="evenodd" d="M11.8951 11.9565C11.8951 11.8497 11.7884 11.8497 11.8951 11.9565C11.3614 12.1699 10.4009 12.8103 9.97393 13.0238C9.76046 13.1305 9.547 13.344 9.547 13.5574C9.547 13.7709 9.547 13.8776 9.547 14.0911L10.1874 16.8661C10.1874 16.8661 10.1874 16.9729 10.2941 16.9729H11.3614H11.4682V16.8661L11.0412 14.1978C11.4682 14.0911 12.1086 13.8776 12.6422 13.6642C12.9624 13.5574 13.1759 13.4507 13.3893 13.344C13.4961 13.2372 13.7095 13.2372 13.8163 13.1305C13.923 13.0238 14.1365 12.917 14.1365 12.7036C14.1365 12.5968 14.1365 12.4901 14.1365 12.2766V12.1699H14.0297C13.3893 12.3834 12.5355 12.2766 11.8951 11.9565ZM11.8951 12.0632C12.5355 12.3834 13.3893 12.4901 14.1365 12.2766C14.1365 12.3834 14.1365 12.3834 14.1365 12.4901C14.1365 12.5968 14.0297 12.7036 13.923 12.8103C13.8163 12.917 13.6028 12.917 13.4961 13.0238C13.2826 13.1305 12.9624 13.2372 12.749 13.344C12.0018 13.5574 11.3614 13.7709 10.9345 13.9844L10.8278 14.0911L11.2547 16.6527H10.4009L9.76046 13.8776C9.76046 13.7709 9.65373 13.6642 9.76046 13.4507C9.76046 13.2372 9.86719 13.1305 10.0807 13.1305C10.5076 12.917 11.3614 12.3834 11.8951 12.0632Z" fill="black"/>
<path id="Vector_50" d="M11.2548 17.3998C11.3615 17.2931 11.4682 16.9729 11.3615 16.8661C10.7211 16.8661 10.0807 16.8661 9.54704 16.9729C9.22685 17.0796 9.44031 17.3998 9.54704 17.3998H11.2548Z" fill="black"/>
<path id="Vector_51" d="M18.0856 15.0517H17.0182C17.6586 15.3719 18.299 16.5459 18.5125 17.0796C18.5125 16.3325 18.4058 15.6921 18.0856 15.0517Z" fill="white"/>
<path id="Vector_52" fill-rule="evenodd" clip-rule="evenodd" d="M18.1923 14.9449C18.0855 14.9449 18.0855 14.9449 18.1923 14.9449H17.0182C16.9115 14.9449 16.9115 14.9449 16.9115 15.0517C16.9115 15.0517 16.9115 15.1584 17.0182 15.1584C17.3384 15.3719 17.6586 15.6921 17.8721 16.119C18.0855 16.4392 18.299 16.8661 18.5125 17.1863C18.5125 17.1863 18.6192 17.293 18.6192 17.1863C18.6192 17.1863 18.7259 17.1863 18.7259 17.0796C18.6192 16.3325 18.5125 15.5853 18.1923 14.9449ZM17.9788 15.1584C18.1923 15.5853 18.299 16.119 18.4057 16.6527C18.299 16.4392 18.1923 16.2257 17.9788 16.0123C17.7654 15.6921 17.5519 15.4786 17.3384 15.2651H17.9788V15.1584Z" fill="black"/>
<path id="Vector_53" d="M18.6192 15.2651C18.8327 15.6921 18.8327 16.3325 18.5125 16.7594C18.4058 16.3325 18.299 15.7988 18.0856 15.2651C18.299 15.2651 18.5125 15.2651 18.6192 15.2651Z" fill="black"/>
<path id="Vector_54" fill-rule="evenodd" clip-rule="evenodd" d="M18.5125 15.3719C18.6192 15.5854 18.726 15.9056 18.6192 16.119C18.6192 16.2258 18.5125 16.3325 18.5125 16.4392C18.4058 16.2258 18.4058 15.9056 18.299 15.6921L18.1923 15.2652H18.299C18.4058 15.3719 18.5125 15.3719 18.5125 15.3719ZM18.0856 15.1584C18.0856 15.2652 17.9789 15.2652 18.0856 15.1584C18.0856 15.3719 18.1923 15.5854 18.1923 15.6921C18.299 16.119 18.4058 16.4392 18.4058 16.7594C18.4058 16.7594 18.4058 16.8662 18.5125 16.8662H18.6192C18.726 16.6527 18.8327 16.4392 18.8327 16.2258C18.9394 15.9056 18.8327 15.5854 18.6192 15.2652C18.6192 15.2652 18.6192 15.2652 18.5125 15.2652C18.5125 15.2652 18.4058 15.2652 18.299 15.2652H18.1923H18.0856C18.1923 15.1584 18.1923 15.1584 18.0856 15.1584Z" fill="black"/>
<path id="Vector_55" d="M13.0691 16.0123C13.8162 14.5181 15.4172 14.945 16.1644 15.3719C14.5634 14.3046 13.2826 15.1585 12.8557 15.9056C12.5355 16.4393 12.5355 17.0796 12.7489 17.72H13.0691C12.7489 17.0796 12.8557 16.546 13.0691 16.0123Z" fill="#272B2C"/>
<path id="Vector_56" fill-rule="evenodd" clip-rule="evenodd" d="M17.5519 16.8661L13.7095 16.7594C13.7095 16.7594 13.6028 16.7594 13.7095 16.8661V16.9729L17.5519 16.8661C17.5519 16.8661 17.5519 16.9729 17.5519 16.8661Z" fill="white"/>
<path id="Vector_57" fill-rule="evenodd" clip-rule="evenodd" d="M17.5519 17.1863C17.5519 17.0796 17.5519 17.0796 17.5519 17.1863L13.7095 17.0796C13.7095 17.0796 13.6028 17.0796 13.7095 17.1863V17.2931L17.5519 17.1863Z" fill="white"/>
<path id="Vector_58" fill-rule="evenodd" clip-rule="evenodd" d="M17.5519 17.3998C17.5519 17.2931 17.5519 17.2931 17.5519 17.3998L13.7095 17.2931C13.7095 17.2931 13.6028 17.2931 13.7095 17.3998V17.5066L17.5519 17.3998Z" fill="white"/>
<path id="Vector_59" fill-rule="evenodd" clip-rule="evenodd" d="M18.6192 14.0911C18.6192 13.9844 18.6192 13.9844 18.5124 13.9844H15.097C14.9903 13.9844 14.9903 14.0911 14.9903 14.0911C14.9903 14.1978 14.9903 14.1978 15.097 14.1978H18.5124C18.6192 14.3046 18.6192 14.1978 18.6192 14.0911C18.6192 14.1978 18.6192 14.1978 18.6192 14.0911Z" fill="black"/>
<path id="Vector_60" fill-rule="evenodd" clip-rule="evenodd" d="M17.7653 14.1978C17.7653 14.1978 17.6586 14.0911 17.6586 14.1978L16.698 14.7315C16.698 14.7315 16.5913 14.8382 16.698 14.8382C16.698 14.8382 16.8047 14.945 16.8047 14.8382L17.7653 14.3046C17.7653 14.3046 17.7653 14.1978 17.7653 14.1978Z" fill="black"/>
<path id="Vector_61" d="M12.1086 10.2488L12.0018 8.54108C12.1086 8.968 12.322 9.92859 12.322 10.1421C12.322 10.3555 12.322 10.3555 12.0018 10.4623C11.6816 10.569 11.3614 10.569 11.0412 10.4623C10.8278 10.4623 10.8278 10.1421 10.8278 10.0353L10.6143 8.75454C10.7211 9.07474 11.0412 9.82186 11.0412 10.3555C11.8951 10.4623 12.1086 10.2488 12.1086 10.2488Z" fill="black"/>
<path id="Vector_62" d="M9.65373 10.9959C10.0807 10.7824 10.7211 10.569 10.9345 10.4622C11.2547 10.569 11.6816 10.569 12.0018 10.4622C12.0018 10.569 11.8951 10.7824 11.7884 10.8891C11.6816 11.1026 11.3614 11.1026 11.0412 11.2093C10.6143 11.3161 10.0807 11.4228 9.65373 11.5295C9.44027 11.6363 9.44027 11.8497 9.22681 11.9565C9.12007 12.0632 8.90661 11.9565 8.79988 11.743C8.69315 11.5295 8.79988 11.4228 8.79988 11.2093C8.90661 11.1026 9.01334 10.9959 9.12007 10.9959C9.33354 11.1026 9.44027 10.9959 9.65373 10.9959Z" fill="#F7DCAF"/>
<path id="Vector_63" fill-rule="evenodd" clip-rule="evenodd" d="M10.9345 10.3555C10.6144 10.4623 10.0807 10.7825 9.65376 10.8892C9.54703 10.9959 9.33357 10.9959 9.22684 11.1027C9.1201 11.1027 9.1201 11.1027 9.01337 11.2094C8.90664 11.2094 8.90664 11.3161 8.79991 11.4228C8.79991 11.5296 8.69318 11.6363 8.69318 11.6363C8.69318 11.743 8.69318 11.8498 8.69318 11.9565C8.69318 12.0632 8.79991 12.17 8.90664 12.17C9.01337 12.17 9.1201 12.17 9.22684 12.17C9.33357 12.17 9.4403 12.0632 9.54703 11.9565C9.54703 11.8498 9.65376 11.8498 9.65376 11.743C9.7605 11.743 9.7605 11.6363 9.86723 11.6363C9.97396 11.6363 10.0807 11.6363 10.1874 11.5296H10.4009C10.6144 11.5296 10.8278 11.4228 11.0413 11.4228H11.148C11.2547 11.4228 11.4682 11.3161 11.5749 11.3161C11.6817 11.3161 11.7884 11.2094 11.8951 11.1027C12.0019 10.9959 12.0019 10.8892 12.0019 10.7825V10.6757V10.569C12.0019 10.569 12.0019 10.4623 11.8951 10.569C11.7884 10.569 11.6817 10.569 11.6817 10.569C11.4682 10.4623 11.148 10.4623 10.9345 10.3555ZM11.8951 10.569C11.7884 10.7825 11.7884 10.7825 11.6817 10.8892C11.5749 10.9959 11.5749 10.9959 11.4682 11.1027C11.3615 11.1027 11.2547 11.2094 11.0413 11.2094H10.9345C10.7211 11.2094 10.5076 11.3161 10.2942 11.3161H10.0807C9.97396 11.3161 9.86723 11.3161 9.7605 11.4228C9.65376 11.4228 9.54703 11.5296 9.54703 11.5296C9.4403 11.6363 9.4403 11.6363 9.33357 11.743C9.33357 11.8498 9.22684 11.8498 9.1201 11.9565C9.01337 11.9565 9.01337 11.9565 8.90664 11.9565C8.79991 11.9565 8.79991 11.8498 8.79991 11.8498C8.79991 11.743 8.79991 11.6363 8.79991 11.6363C8.79991 11.5296 8.79991 11.5296 8.90664 11.4228L9.01337 11.3161H9.1201C9.22684 11.3161 9.4403 11.2094 9.54703 11.1027C9.97396 10.8892 10.5076 10.6757 10.8278 10.569C11.148 10.6757 11.4682 10.6757 11.6817 10.569H11.8951Z" fill="black"/>
<path id="Vector_64" d="M9.12007 5.33911C9.01334 5.55258 9.12007 6.08623 10.0807 6.08623C10.2941 5.76604 9.2268 5.33911 9.12007 5.33911Z" fill="#272B2C"/>
<path id="Vector_65" d="M10.2942 5.97954C10.1875 5.55261 9.54706 5.23242 9.22687 5.23242C9.3336 4.4853 9.86726 4.1651 10.5077 4.1651C11.2548 4.1651 11.8952 4.59203 12.1086 5.23242C12.2154 5.76608 12.1086 6.29974 11.7884 6.72667C11.575 7.15359 11.0413 7.36706 10.5077 7.36706C10.0807 7.36706 10.0807 7.04686 10.1875 6.72667C10.4009 6.5132 10.4009 6.19301 10.2942 5.97954Z" fill="black"/>
<path id="Vector_66" fill-rule="evenodd" clip-rule="evenodd" d="M9.01337 5.23237C9.01337 5.3391 9.1201 5.44583 9.22683 5.44583C9.44029 5.44583 9.54703 5.55256 9.76049 5.6593C9.97395 5.76603 10.0807 5.87276 10.0807 6.08622C10.1874 6.29969 10.1874 6.51315 10.1874 6.83335C10.1874 6.94008 10.1874 7.15354 10.1874 7.36701C10.1874 7.47374 10.2941 7.58047 10.4009 7.58047C10.4009 7.58047 10.5076 7.58047 10.6143 7.58047C10.8278 7.58047 11.148 7.58047 11.3615 7.47374C11.6817 7.36701 11.8951 7.15354 12.1086 6.94008C12.3221 6.72662 12.4288 6.51315 12.4288 6.19296C12.5355 5.87276 12.5355 5.55256 12.4288 5.23237C12.3221 4.91217 12.0019 4.59198 11.6817 4.37851C11.0413 3.95159 10.1874 3.84485 9.44029 4.27178C9.22683 4.48525 9.01337 4.80544 9.01337 5.23237ZM11.8951 6.72662C12.2153 6.29969 12.3221 5.76603 12.2153 5.23237C11.8951 4.59198 11.2547 4.16505 10.6143 4.16505C9.86722 4.16505 9.33356 4.48525 9.22683 5.23237C9.54703 5.23237 10.1874 5.55256 10.2941 5.97949C10.4009 6.19296 10.4009 6.51315 10.4009 6.83335C10.2941 7.04681 10.2941 7.36701 10.7211 7.47374C11.148 7.47374 11.6817 7.15354 11.8951 6.72662Z" fill="black"/>
<path id="Vector_67" d="M9.7605 6.40641C9.7605 6.40641 9.7605 6.51315 9.86723 6.51315C9.97396 6.51315 9.97396 6.40641 9.97396 6.40641C9.97396 6.29968 9.86723 6.29968 9.86723 6.29968C9.86723 6.29968 9.7605 6.29968 9.7605 6.40641Z" fill="white"/>
<path id="Vector_68" d="M9.22687 6.40641C9.22687 6.51315 9.22687 6.51315 9.3336 6.51315C9.44033 6.51315 9.44033 6.51315 9.44033 6.40641C9.44033 6.29968 9.44033 6.29968 9.3336 6.29968C9.3336 6.29968 9.22687 6.29968 9.22687 6.40641Z" fill="white"/>
<path id="Vector_69" d="M9.7605 6.4064C9.86723 6.51314 9.86723 6.4064 9.86723 6.4064C9.86723 6.29967 9.86723 6.29967 9.7605 6.4064C9.7605 6.29967 9.7605 6.29967 9.7605 6.4064Z" fill="#232C35"/>
<path id="Vector_70" d="M9.7605 6.29968C9.7605 6.29968 9.7605 6.40641 9.7605 6.29968C9.86723 6.29968 9.86723 6.29968 9.86723 6.29968C9.86723 6.29968 9.86723 6.29968 9.7605 6.29968Z" fill="#FEFEFE"/>
<path id="Vector_71" d="M9.33356 6.29968C9.33356 6.40641 9.33356 6.40641 9.33356 6.29968C9.44029 6.40641 9.44029 6.40641 9.44029 6.29968H9.33356Z" fill="#232C35"/>
<path id="Vector_72" d="M13.923 13.7709V13.1305L11.4682 13.9843C12.1086 13.9843 13.4961 13.9843 13.7096 13.9843C13.923 13.9843 13.923 13.8776 13.923 13.7709Z" fill="white"/>
<path id="Vector_73" fill-rule="evenodd" clip-rule="evenodd" d="M14.0298 12.9171L11.4682 13.8776V14.0911C11.7884 14.0911 12.3221 14.0911 12.749 14.0911C12.9624 14.0911 13.1759 14.0911 13.3894 14.0911C13.4961 14.0911 13.6028 14.0911 13.7096 14.0911C13.8163 14.0911 13.923 13.9844 14.0298 13.9844C14.0298 13.8776 14.1365 13.8776 14.0298 13.7709V12.9171ZM13.8163 13.2372V13.7709L13.7096 13.8776C13.7096 13.8776 13.4961 13.8776 13.3894 13.8776C13.2826 13.8776 12.9624 13.8776 12.749 13.8776C12.5355 13.8776 12.2153 13.8776 12.0019 13.8776L13.8163 13.2372Z" fill="black"/>
<path id="Vector_74" d="M10.6143 6.51317C10.6143 6.72663 10.7211 6.83337 10.9345 6.83337C11.148 6.83337 11.2547 6.72663 11.2547 6.51317C11.2547 6.29971 11.148 6.08624 10.9345 6.08624C10.7211 6.08624 10.6143 6.29971 10.6143 6.51317Z" fill="#262A2F"/>
</g>
</g>
</g>
</svg>
