<svg width="24" height="24" viewBox="0 0 24 24" fill="none" xmlns="http://www.w3.org/2000/svg">
<g id="Group 76">
<g id="home-1">
<path id="Ellipse 2" d="M24 12C24 18.6274 18.6274 24 12 24C5.37258 24 0 18.6274 0 12C0 5.37258 5.37258 0 12 0C18.6274 0 24 5.37258 24 12Z" fill="#E3E4EE"/>
<path id="Vector" d="M12.4652 15.4774H10.3897L9.59443 19.9675H7.66203L8.45726 15.4692H6V13.6146H8.75149L9.28429 10.4992H6.80318V8.56329H9.59443L10.3897 4H12.338L11.5427 8.56329H13.6501L14.4453 4H16.4095L15.6143 8.56329H18V10.4748H15.2803L14.7475 13.6146H17.1332V15.5018H14.4215L13.6262 20H11.6938L12.4652 15.4774ZM10.7157 13.6146H12.7753L13.3082 10.4992H11.2406L10.7157 13.6146Z" fill="#231F20"/>
</g>
</g>
</svg>
