<svg width="21" height="21" viewBox="0 0 21 21" fill="none" xmlns="http://www.w3.org/2000/svg">
<path d="M14.4016 0H5.03781C4.49022 0 3.97686 0.210953 3.5867 0.585224L0.629726 3.44329C0.232725 3.83117 0 4.37557 0 4.92677V18.8496C0 19.9929 0.937744 20.9183 2.08083 20.9183H7.68546C8.02771 20.9183 8.3015 20.6461 8.3015 20.3059C8.3015 19.9657 8.02771 19.6935 7.68546 19.6935H2.08083C1.60854 19.6935 1.23207 19.3124 1.23207 18.8496V4.92677C1.23207 4.7022 1.3279 4.47764 1.49218 4.32113L4.37386 1.53791V4.15781C4.37386 4.45042 4.13429 4.6954 3.83312 4.6954H1.88918C1.54694 4.6954 1.27314 4.9676 1.27314 5.30784C1.27314 5.64809 1.54694 5.92028 1.88918 5.92028H3.83312C4.81193 5.92028 5.60593 5.13091 5.60593 4.15781V1.22489H14.4084C14.8807 1.22489 15.2572 1.60596 15.2572 2.0687V7.83312C15.2572 8.17336 15.531 8.44556 15.8732 8.44556C16.2155 8.44556 16.4892 8.17336 16.4892 7.83312V2.0687C16.4892 0.932275 15.5515 0 14.4016 0Z" fill="black"/>
<path d="M18.3306 20.9997H13.067C11.5953 20.9997 10.3975 19.8088 10.3975 18.3457V13.0787C10.3975 11.6157 11.5953 10.4248 13.067 10.4248H18.3306C19.8023 10.4248 21.0001 11.6157 21.0001 13.0787V18.3457C21.0001 19.8088 19.8023 20.9997 18.3306 20.9997ZM13.067 11.6497C12.2729 11.6497 11.6295 12.2894 11.6295 13.0787V18.3457C11.6295 19.1351 12.2729 19.7748 13.067 19.7748H18.3306C19.1246 19.7748 19.7681 19.1351 19.7681 18.3457V13.0787C19.7681 12.2894 19.1246 11.6497 18.3306 11.6497H13.067V11.6497Z" fill="black"/>
<path d="M17.5163 15.6716C17.2767 15.4266 16.8866 15.4266 16.647 15.6648L16.2911 16.0119V13.9772C16.2911 13.6369 16.0173 13.3647 15.675 13.3647C15.3328 13.3647 15.059 13.6369 15.059 13.9772V15.9642L14.751 15.6376C14.5183 15.3926 14.1281 15.379 13.8817 15.6104C13.6353 15.8417 13.6216 16.2296 13.8543 16.4746L15.2027 17.8968C15.3191 18.0193 15.4765 18.0874 15.6408 18.0874C15.6477 18.0874 15.6477 18.0874 15.6545 18.0874C15.6613 18.0874 15.6613 18.0874 15.6682 18.0874H15.675C15.8872 18.0874 16.0789 17.9785 16.1884 17.8084L17.5026 16.5222C17.749 16.2977 17.749 15.9098 17.5163 15.6716Z" fill="black"/>
</svg>
