<svg width="24" height="24" viewBox="0 0 24 24" fill="none" xmlns="http://www.w3.org/2000/svg">
<g clip-path="url(#clip0_517_738)">
<path d="M7.06102 5.04033C7.19294 4.69836 7.29229 4.63266 7.66831 4.63216H9.51154C9.35612 4.05575 9.50193 3.58337 10.004 3.2434C10.4414 2.94722 10.9286 2.91985 11.397 3.16873C12 3.48929 12.1746 3.99851 12.024 4.63216C12.658 4.63216 13.2765 4.62968 13.8934 4.63515C14.0035 4.63515 14.1349 4.64361 14.2166 4.69886C14.3261 4.77303 14.3971 4.89797 14.52 5.04033C15.045 5.04033 15.6368 5.04033 16.2291 5.04033C16.3556 5.03855 16.4819 5.04705 16.6067 5.06572C16.8583 5.10675 17.0869 5.22761 17.2537 5.40778C17.4206 5.58796 17.5154 5.81637 17.5222 6.05428C17.526 6.14089 17.5249 6.228 17.5249 6.31511V16.6502C17.6365 16.6711 17.7385 16.6881 17.8411 16.71C19.1839 16.9982 20.1207 18.1988 19.9866 19.4581C19.8451 20.7817 18.7122 21.7921 17.3038 21.8121C15.9113 21.832 14.5189 21.8185 13.1264 21.8185C10.4876 21.8185 7.84884 21.8185 5.2103 21.8185C4.57684 21.8185 4.12925 21.491 4.01869 20.9504C4.00389 20.8645 3.99764 20.7776 4 20.6906C4 15.8523 4 11.014 4 6.17573C4 5.48683 4.47162 5.04431 5.20924 5.04133C5.8224 5.03834 6.43503 5.04033 7.06102 5.04033ZM16.9112 16.6512V6.24791C16.9112 6.21058 16.9112 6.17374 16.9112 6.13641C16.8994 5.81436 16.7034 5.63018 16.3578 5.6267C15.9647 5.62272 15.5716 5.6267 15.1785 5.6267H14.442C14.442 5.75711 14.4446 5.86712 14.442 5.97514C14.4428 6.1512 14.3692 6.32049 14.237 6.44628C14.1048 6.57208 13.9248 6.64424 13.7359 6.64712C13.6093 6.65309 13.4827 6.65011 13.3561 6.65011C11.5369 6.65011 9.71754 6.65011 7.89798 6.65011C7.37187 6.65011 7.08559 6.37683 7.08345 5.88604C7.08345 5.80191 7.08345 5.71779 7.08345 5.6252C6.44572 5.6252 5.84003 5.6252 5.23381 5.6252C4.80651 5.6252 4.62385 5.79196 4.62385 6.19067C4.62385 11.0177 4.62385 15.8445 4.62385 20.6712C4.62385 21.0729 4.81452 21.2451 5.25036 21.2451H15.2469C15.3003 21.2451 15.3574 21.2381 15.4317 21.2327C13.6093 19.7359 14.4302 17.0081 16.9112 16.6512V16.6512ZM16.8129 19.4711C16.744 19.3964 16.6981 19.3436 16.6479 19.2939C16.5941 19.2386 16.5371 19.1863 16.477 19.1371C16.3343 19.0246 16.1666 19.0281 16.0454 19.141C16.0164 19.1671 15.9934 19.1984 15.9777 19.2329C15.962 19.2675 15.9539 19.3046 15.9539 19.3421C15.9539 19.3797 15.962 19.4168 15.9777 19.4514C15.9934 19.4859 16.0164 19.5172 16.0454 19.5432C16.227 19.7251 16.4155 19.9006 16.611 20.0699C16.7408 20.1819 16.9021 20.1874 17.0271 20.0739C17.49 19.6537 17.947 19.2278 18.3982 18.7961C18.4278 18.7683 18.4507 18.735 18.4656 18.6983C18.4804 18.6617 18.4867 18.6225 18.4842 18.5835C18.4817 18.5444 18.4704 18.5062 18.4509 18.4715C18.4315 18.4368 18.4044 18.4063 18.3715 18.3819C18.2305 18.2729 18.0734 18.2894 17.9116 18.4397C17.5527 18.7732 17.198 19.1092 16.8129 19.4711V19.4711ZM10.7673 4.63415C10.8934 4.62867 11.0199 4.62967 11.1459 4.63714C11.2944 4.65207 11.3633 4.58736 11.413 4.4689C11.4658 4.34085 11.4735 4.20049 11.4351 4.06808C11.3967 3.93566 11.3141 3.81804 11.1994 3.7322C11.0845 3.64575 10.9428 3.59615 10.7953 3.59077C10.6477 3.58539 10.5023 3.62452 10.3806 3.70234C10.2586 3.77941 10.1661 3.89064 10.1164 4.01995C10.0668 4.14925 10.0626 4.28992 10.1044 4.42161C10.1514 4.56695 10.2235 4.66203 10.4126 4.63714C10.5306 4.6286 10.6491 4.62761 10.7673 4.63415V4.63415Z" fill="white"/>
<path d="M12.4379 11.7174C13.3637 11.7174 14.2895 11.7174 15.2153 11.7174C15.288 11.7174 15.382 11.7035 15.429 11.7393C15.5192 11.807 15.6202 11.8971 15.6474 11.9941C15.6827 12.1236 15.5908 12.2341 15.4461 12.2764C15.3755 12.2935 15.3026 12.3008 15.2298 12.2983C13.3571 12.2983 11.4847 12.2983 9.61245 12.2983C9.57242 12.3003 9.5323 12.3003 9.49227 12.2983C9.30907 12.2799 9.19103 12.1654 9.1953 12.0061C9.19958 11.8354 9.30693 11.7478 9.47892 11.7219C9.53854 11.7163 9.59854 11.715 9.65838 11.7179L12.4379 11.7174Z" fill="white"/>
<path d="M12.4246 15.1246C11.5055 15.1246 10.586 15.1246 9.66586 15.1246C9.58623 15.1272 9.50653 15.1217 9.42818 15.1082C9.36143 15.0977 9.30104 15.065 9.25829 15.0161C9.21554 14.9672 9.19334 14.9054 9.19584 14.8424C9.18952 14.7763 9.20973 14.7104 9.25256 14.6575C9.29538 14.6045 9.35777 14.5682 9.42764 14.5557C9.49958 14.5427 9.57301 14.5386 9.6461 14.5432H15.2009C15.2608 14.54 15.3208 14.5415 15.3804 14.5477C15.5449 14.5746 15.6474 14.6682 15.6522 14.8245C15.6594 14.894 15.6369 14.9633 15.5896 15.0174C15.5424 15.0716 15.4741 15.1061 15.3996 15.1137C15.3271 15.1237 15.2538 15.1276 15.1806 15.1251C14.263 15.1255 13.3443 15.1253 12.4246 15.1246Z" fill="white"/>
<path d="M12.3974 9.47251H9.6392C9.57934 9.47611 9.51925 9.47444 9.45973 9.46753C9.29629 9.43816 9.19695 9.34608 9.19641 9.18629C9.19588 9.02651 9.28668 8.93094 9.45493 8.90456C9.52098 8.89675 9.58761 8.89392 9.65415 8.89609H15.1908C15.5113 8.89609 15.6566 8.98619 15.6576 9.18181C15.6587 9.37744 15.5097 9.47251 15.1956 9.47251H12.3974Z" fill="white"/>
<path d="M6.58142 12.0907C6.85809 11.8288 7.08456 11.6113 7.31476 11.3968C7.48942 11.2345 7.66194 11.2186 7.80188 11.347C7.94182 11.4754 7.92312 11.6457 7.75594 11.8029C7.46645 12.0764 7.17554 12.348 6.8832 12.6178C6.68077 12.8044 6.53549 12.8054 6.33573 12.6248C6.21235 12.5123 6.08736 12.4008 5.97093 12.2818C5.839 12.1479 5.8406 11.9831 5.96398 11.8667C6.08736 11.7502 6.26255 11.7512 6.40676 11.8781C6.47089 11.9446 6.52929 12.0156 6.58142 12.0907V12.0907Z" fill="white"/>
<path d="M6.59476 9.2495C6.85434 9.0046 7.08188 8.78758 7.31261 8.57354C7.49154 8.40828 7.65979 8.39235 7.80186 8.52376C7.94394 8.65517 7.92364 8.82242 7.75433 8.98071C7.46412 9.25448 7.17232 9.52676 6.87891 9.79754C6.68022 9.98072 6.53013 9.97922 6.33037 9.79754C6.21127 9.68853 6.09109 9.58101 5.97732 9.46752C5.84379 9.33512 5.83845 9.16588 5.95649 9.05039C6.08521 8.92446 6.25987 8.92695 6.41637 9.06234C6.47405 9.10913 6.52105 9.17036 6.59476 9.2495Z" fill="white"/>
<path d="M6.5915 14.9031C6.85855 14.6512 7.08662 14.4337 7.31789 14.2192C7.48667 14.0624 7.67415 14.0479 7.80714 14.1749C7.94014 14.3018 7.92038 14.4735 7.75053 14.6333C7.45943 14.9066 7.16834 15.1809 6.87404 15.4501C6.68123 15.6268 6.53381 15.6259 6.33992 15.4501C6.21548 15.3376 6.09103 15.2247 5.97352 15.1062C5.83892 14.9708 5.83839 14.8075 5.96177 14.691C6.08515 14.5746 6.26515 14.5756 6.40829 14.699C6.47372 14.7635 6.5349 14.8317 6.5915 14.9031V14.9031Z" fill="white"/>
</g>
<defs>
<clipPath id="clip0_517_738">
<rect width="16" height="18.8235" fill="white" transform="translate(4 3)"/>
</clipPath>
</defs>
</svg>
