<svg width="24" height="24" viewBox="0 0 24 24" fill="none" xmlns="http://www.w3.org/2000/svg">
<path d="M15.0707 4.41821H13.2695V5.39305C13.2695 5.96244 12.7881 6.42581 12.1962 6.42581H6.01359C5.42156 6.42581 4.9401 5.96244 4.9401 5.39305V4.41821H3.13899C2.51112 4.41821 2 4.90976 2 5.51384V20.9042C2 21.5083 2.51112 22 3.13899 22H15.0705C15.6983 22 16.2095 21.5083 16.2095 20.9042V5.51384C16.2095 4.9098 15.6983 4.41821 15.0705 4.41821H15.0707ZM4.40269 17.1629H6.78669C6.85733 17.1629 6.9148 17.2182 6.9148 17.2862V19.5799C6.9148 19.6479 6.85733 19.7031 6.78669 19.7031H4.40269C4.33169 19.7031 4.27459 19.6479 4.27459 19.5799V17.2862C4.27459 17.2182 4.33169 17.1629 4.40269 17.1629ZM4.27459 15.2434V12.9497C4.27459 12.8817 4.33169 12.8264 4.40269 12.8264H6.78669C6.85733 12.8264 6.9148 12.8817 6.9148 12.9497V15.2434C6.9148 15.3113 6.85733 15.3666 6.78669 15.3666H4.40269C4.33169 15.3666 4.27459 15.3115 4.27459 15.2434ZM8.73385 9.26695H13.9786V10.2529H8.73385V9.26695ZM8.73385 13.6036H13.9786V14.5896H8.73385V13.6036ZM8.73385 17.9403H13.9786V18.9263H8.73385V17.9403ZM6.78672 8.48984C6.85736 8.48984 6.91482 8.54512 6.91482 8.61308V10.9068C6.91482 10.9748 6.85736 11.03 6.78672 11.03H4.40272C4.33172 11.03 4.27462 10.9748 4.27462 10.9068V8.61308C4.27462 8.54512 4.33172 8.48984 4.40272 8.48984H6.78672Z" fill="white"/>
<path d="M12.1964 3.3963H10.5565C10.5565 2.62536 9.9065 2 9.10514 2C8.30379 2 7.65377 2.62536 7.65377 3.3963H6.01387C5.84532 3.3963 5.70898 3.52799 5.70898 3.68979V5.39298C5.70898 5.42854 5.71539 5.46252 5.72747 5.49386C5.73113 5.50266 5.73497 5.51164 5.739 5.52027C5.74339 5.52872 5.74796 5.537 5.75309 5.54509C5.75565 5.54897 5.75821 5.55302 5.76096 5.55689C5.76919 5.56851 5.77834 5.57978 5.78804 5.59017C5.79134 5.59369 5.795 5.59703 5.79829 5.6002C5.85337 5.65337 5.92969 5.6863 6.01369 5.6863H12.1963C12.3647 5.6863 12.501 5.55495 12.501 5.39298V3.68979C12.501 3.52782 12.3647 3.3963 12.1963 3.3963L12.1964 3.3963ZM9.10514 2.93978C9.36666 2.93978 9.57986 3.14453 9.57986 3.39648C9.57986 3.64842 9.36666 3.85319 9.10514 3.85319C8.84327 3.85319 8.63043 3.64843 8.63043 3.39648C8.63043 3.14454 8.84326 2.93978 9.10514 2.93978Z" fill="white"/>
<path d="M21.9999 5.85776V7.82664H19.2854V5.85776C19.2854 5.51585 19.5747 5.23767 19.9299 5.23767H21.3552C21.7106 5.23767 21.9999 5.51584 21.9999 5.85776H21.9999Z" fill="white"/>
<path d="M21.9999 8.56604V19.9257L20.6426 21.2314L19.2854 19.9257V8.56604H21.9999Z" fill="white"/>
</svg>
