<svg width="24" height="24" viewBox="0 0 24 24" fill="none" xmlns="http://www.w3.org/2000/svg">
<g id="Group 46">
<g id="home-1">
<rect width="24" height="24" fill="white"/>
<path id="Ellipse 2" d="M24 12C24 18.6274 18.6274 24 12 24C5.37258 24 0 18.6274 0 12C0 5.37258 5.37258 0 12 0C18.6274 0 24 5.37258 24 12Z" fill="#E3E4EE"/>
<path id="Vector" d="M16.6809 7.00218L16.8275 7.23874H16.8909C17.2804 7.93739 17.4884 8.70817 17.4995 9.49112C17.5119 10.362 17.2803 11.2234 16.8239 11.9925C16.8238 11.9927 16.8237 11.9928 16.8236 11.993L12.4846 19.2565C12.4406 19.3242 12.3754 19.3851 12.2916 19.4294C12.2058 19.4748 12.1059 19.5 12.0021 19.5C11.8984 19.5 11.7984 19.4748 11.7126 19.4294C11.6288 19.3851 11.5636 19.3242 11.5196 19.2565L7.18025 11.9924C7.18019 11.9923 7.18013 11.9922 7.18007 11.9921C6.72236 11.2235 6.48938 10.3623 6.50037 9.49138C6.51136 8.62029 6.76608 7.76393 7.24343 7.00493L7.24344 7.00493L7.24515 7.00216C7.70379 6.26227 8.36576 5.63988 9.17027 5.19955C9.97365 4.75984 10.8896 4.51799 11.8287 4.5H12.089C13.0296 4.51667 13.9473 4.75793 14.7523 5.19777C15.5584 5.63817 16.2216 6.26124 16.6809 7.00218ZM11.963 11.7553L11.9646 11.7552C12.7309 11.7527 13.4723 11.4714 14.0255 10.9615C14.58 10.4503 14.9013 9.74871 14.9041 9.00692V9.005C14.9041 8.45154 14.7259 7.91431 14.3976 7.46138C14.0697 7.00905 13.6081 6.66227 13.0755 6.45893C12.5432 6.25566 11.9594 6.20299 11.3966 6.30619C10.8337 6.4094 10.3115 6.66499 9.898 7.0462C9.48403 7.4278 9.19689 7.9191 9.08006 8.46053C8.96313 9.0024 9.0236 9.56355 9.25165 10.0711C9.47941 10.5779 9.86202 11.0045 10.3446 11.3017C10.8268 11.5988 11.39 11.7552 11.963 11.7553Z" stroke="#303030"/>
</g>
</g>
</svg>
