<svg width="24" height="24" viewBox="0 0 24 24" fill="none" xmlns="http://www.w3.org/2000/svg">
<g id="Group 73">
<g id="home-1">
<circle id="Ellipse 2" cx="12" cy="12" r="12" fill="#E3E4EE"/>
<path id="Path 400" d="M12.8731 4H11.0841V12.9049H12.8731V4ZM17.2929 5.88575L16.0301 7.14291C17.5034 8.29532 18.3452 10.0763 18.3452 11.962C18.3452 15.4193 15.6091 18.1431 12.1364 18.1431C8.66369 18.1431 5.92759 15.4193 5.92759 11.962C5.92759 10.0763 6.76947 8.29532 8.24275 7.14291L6.76947 5.88575C3.40197 8.81913 3.08627 13.8478 5.92759 17.2002C8.76892 20.5527 13.8202 20.9717 17.1877 18.0383C20.5552 15.105 20.9761 10.1811 18.0295 6.82862C17.9243 6.40957 17.6086 6.09528 17.2929 5.88575Z" fill="#303030"/>
</g>
</g>
</svg>
