<svg id="Layer_26" data-name="Layer 26" xmlns="http://www.w3.org/2000/svg" viewBox="0 0 24 24"><defs><style>.cls-1{fill:#fff;}</style></defs><title>W-merchant</title><path class="cls-1" d="M20.61,20.08h-.41v-10h0a2.39,2.39,0,0,1-1.36-.44,2.37,2.37,0,0,1-1.37.44l-.3,0v7.44a.77.77,0,0,1-.77.77H13.64V16.15l1,1.62a.61.61,0,1,0,1.05-.63l-2-3.27a.61.61,0,0,0-.56-.29H10.86a.61.61,0,0,0-.57.29l-2,3.27a.61.61,0,1,0,1.05.63l1-1.64v2.12H7.6a.77.77,0,0,1-.77-.77V10.06l-.3,0a2.41,2.41,0,0,1-.47,0,2.37,2.37,0,0,1-.9-.39,2.38,2.38,0,0,1-1.36.44h0v10H3.39a1,1,0,0,0,0,1.92H20.61a1,1,0,1,0,0-1.92Z"/><path class="cls-1" d="M12,10.14a1.38,1.38,0,0,0-1.28,1.46A1.38,1.38,0,0,0,12,13.07a1.38,1.38,0,0,0,1.28-1.46A1.38,1.38,0,0,0,12,10.14Z"/><path class="cls-1" d="M3.4,9a1.37,1.37,0,0,0,1.7-.92l.07-.24A1.36,1.36,0,0,0,6.26,9l.27,0A1.37,1.37,0,0,0,7.87,8l0-.17A1.37,1.37,0,0,0,9.13,9h.14a1.37,1.37,0,0,0,1.36-1.23v-.1a1.37,1.37,0,0,0,2.73,0v.1a1.37,1.37,0,0,0,1.36,1.23h.14A1.37,1.37,0,0,0,16.1,7.79l0,.17a1.37,1.37,0,0,0,1.34,1.1l.27,0a1.36,1.36,0,0,0,1.09-1.19l.07.24a1.37,1.37,0,0,0,1.31,1A1.38,1.38,0,0,0,20.6,9a1.37,1.37,0,0,0,.92-1.7L20.28,3.16A1.63,1.63,0,0,0,18.72,2H5.28A1.63,1.63,0,0,0,3.72,3.16L2.48,7.29A1.37,1.37,0,0,0,3.4,9Z"/></svg>