<svg width="24" height="24" viewBox="0 0 24 24" fill="none" xmlns="http://www.w3.org/2000/svg">
<path d="M24 12C24 18.6274 18.6274 24 12 24C5.37258 24 0 18.6274 0 12C0 5.37258 5.37258 0 12 0C18.6274 0 24 5.37258 24 12Z" fill="#E3E4EE"/>
<path d="M15 4.5H9C8.17157 4.5 7.5 5.17157 7.5 6V18C7.5 18.8284 8.17157 19.5 9 19.5H15C15.8284 19.5 16.5 18.8284 16.5 18V6C16.5 5.17157 15.8284 4.5 15 4.5Z" stroke="#303030"/>
<path d="M9 17C9 16.4477 9.44772 16 10 16H14C14.5523 16 15 16.4477 15 17C15 17.5523 14.5523 18 14 18H10C9.44772 18 9 17.5523 9 17Z" fill="#303030"/>
</svg>
