<svg width="24" height="24" viewBox="0 0 24 24" fill="none" xmlns="http://www.w3.org/2000/svg">
<path d="M24 12C24 18.6274 18.6274 24 12 24C5.37258 24 0 18.6274 0 12C0 5.37258 5.37258 0 12 0C18.6274 0 24 5.37258 24 12Z" fill="#E3E4EE"/>
<g clip-path="url(#clip0)">
<path d="M17.5645 18.097H16.6926V7.03262C16.6926 6.91288 16.6467 6.79803 16.565 6.71336C16.4833 6.62869 16.3726 6.58112 16.2571 6.58112H12.9898V5.4515C12.9898 5.33176 12.9439 5.21691 12.8622 5.13224C12.7805 5.04757 12.6697 5 12.5542 5H9.53224C9.41673 5 9.30595 5.04757 9.22427 5.13224C9.14259 5.21691 9.09671 5.33176 9.09671 5.4515V6.58025H8.74295C8.62744 6.58025 8.51666 6.62782 8.43498 6.7125C8.3533 6.79717 8.30742 6.91201 8.30742 7.03176V18.097H7.43553C7.32002 18.097 7.20924 18.1446 7.12756 18.2292C7.04588 18.3139 7 18.4288 7 18.5485C7 18.6682 7.04588 18.7831 7.12756 18.8678C7.20924 18.9524 7.32002 19 7.43553 19H17.5645C17.68 19 17.7908 18.9524 17.8724 18.8678C17.9541 18.7831 18 18.6682 18 18.5485C18 18.4288 17.9541 18.3139 17.8724 18.2292C17.7908 18.1446 17.68 18.097 17.5645 18.097ZM9.97194 5.90127H12.1229V6.57852H9.96776L9.97194 5.90127ZM11.6331 18.097V16.1777H13.3761V18.097H11.6331ZM14.2471 18.097V16.1777H14.4373C14.5529 16.1777 14.6636 16.1301 14.7453 16.0454C14.827 15.9608 14.8729 15.8459 14.8729 15.7262C14.8729 15.6064 14.827 15.4916 14.7453 15.4069C14.6636 15.3223 14.5529 15.2747 14.4373 15.2747H10.5668C10.4513 15.2747 10.3405 15.3223 10.2589 15.4069C10.1772 15.4916 10.1313 15.6064 10.1313 15.7262C10.1313 15.8459 10.1772 15.9608 10.2589 16.0454C10.3405 16.1301 10.4513 16.1777 10.5668 16.1777H10.7546V18.097H9.17847V7.48412H15.8215V18.097H14.2471ZM11.8734 8.81008C11.8734 8.92983 11.8275 9.04467 11.7458 9.12934C11.6642 9.21402 11.5534 9.26158 11.4379 9.26158H10.9481C10.8326 9.26158 10.7218 9.21402 10.6402 9.12934C10.5585 9.04467 10.5126 8.92983 10.5126 8.81008C10.5126 8.69034 10.5585 8.5755 10.6402 8.49082C10.7218 8.40615 10.8326 8.35858 10.9481 8.35858H11.4379C11.5534 8.35858 11.6642 8.40615 11.7458 8.49082C11.8275 8.5755 11.8734 8.69034 11.8734 8.81008ZM14.4599 8.81008C14.4599 8.92983 14.414 9.04467 14.3323 9.12934C14.2506 9.21402 14.1399 9.26158 14.0243 9.26158H13.5346C13.4191 9.26158 13.3083 9.21402 13.2266 9.12934C13.1449 9.04467 13.0991 8.92983 13.0991 8.81008C13.0991 8.69034 13.1449 8.5755 13.2266 8.49082C13.3083 8.40615 13.4191 8.35858 13.5346 8.35858H14.0243C14.1399 8.35858 14.2506 8.40615 14.3323 8.49082C14.414 8.5755 14.4599 8.69034 14.4599 8.81008ZM11.8734 10.5036C11.8734 10.6234 11.8275 10.7382 11.7458 10.8229C11.6642 10.9076 11.5534 10.9551 11.4379 10.9551H10.9481C10.8326 10.9551 10.7218 10.9076 10.6402 10.8229C10.5585 10.7382 10.5126 10.6234 10.5126 10.5036C10.5126 10.3839 10.5585 10.2691 10.6402 10.1844C10.7218 10.0997 10.8326 10.0521 10.9481 10.0521H11.4379C11.5534 10.0521 11.6642 10.0997 11.7458 10.1844C11.8275 10.2691 11.8734 10.3839 11.8734 10.5036ZM14.4599 10.5036C14.4599 10.6234 14.414 10.7382 14.3323 10.8229C14.2506 10.9076 14.1399 10.9551 14.0243 10.9551H13.5346C13.4774 10.9551 13.4208 10.9435 13.3679 10.9208C13.3151 10.8981 13.2671 10.8648 13.2266 10.8229C13.1862 10.781 13.1541 10.7312 13.1322 10.6764C13.1103 10.6216 13.0991 10.5629 13.0991 10.5036C13.0991 10.4444 13.1103 10.3856 13.1322 10.3309C13.1541 10.2761 13.1862 10.2263 13.2266 10.1844C13.2671 10.1425 13.3151 10.1092 13.3679 10.0865C13.4208 10.0638 13.4774 10.0521 13.5346 10.0521H14.0243C14.1399 10.0521 14.2506 10.0997 14.3323 10.1844C14.414 10.2691 14.4599 10.3839 14.4599 10.5036ZM11.8734 12.1972C11.8734 12.317 11.8275 12.4318 11.7458 12.5165C11.6642 12.6011 11.5534 12.6487 11.4379 12.6487H10.9481C10.8326 12.6487 10.7218 12.6011 10.6402 12.5165C10.5585 12.4318 10.5126 12.317 10.5126 12.1972C10.5126 12.0775 10.5585 11.9626 10.6402 11.8779C10.7218 11.7933 10.8326 11.7457 10.9481 11.7457H11.4379C11.4951 11.7457 11.5517 11.7574 11.6045 11.7801C11.6574 11.8028 11.7054 11.836 11.7458 11.8779C11.7863 11.9199 11.8184 11.9696 11.8403 12.0244C11.8621 12.0792 11.8734 12.1379 11.8734 12.1972ZM14.4599 12.1972C14.4599 12.317 14.414 12.4318 14.3323 12.5165C14.2506 12.6011 14.1399 12.6487 14.0243 12.6487H13.5346C13.4774 12.6487 13.4208 12.637 13.3679 12.6143C13.3151 12.5917 13.2671 12.5584 13.2266 12.5165C13.1862 12.4745 13.1541 12.4248 13.1322 12.37C13.1103 12.3152 13.0991 12.2565 13.0991 12.1972C13.0991 12.1379 13.1103 12.0792 13.1322 12.0244C13.1541 11.9696 13.1862 11.9199 13.2266 11.8779C13.2671 11.836 13.3151 11.8028 13.3679 11.7801C13.4208 11.7574 13.4774 11.7457 13.5346 11.7457H14.0243C14.0815 11.7457 14.1382 11.7574 14.191 11.7801C14.2439 11.8028 14.2919 11.836 14.3323 11.8779C14.3728 11.9199 14.4048 11.9696 14.4267 12.0244C14.4486 12.0792 14.4599 12.1379 14.4599 12.1972ZM11.8734 13.8908C11.8734 14.0105 11.8275 14.1254 11.7458 14.21C11.6642 14.2947 11.5534 14.3423 11.4379 14.3423H10.9481C10.8326 14.3423 10.7218 14.2947 10.6402 14.21C10.5585 14.1254 10.5126 14.0105 10.5126 13.8908C10.5126 13.771 10.5585 13.6562 10.6402 13.5715C10.7218 13.4868 10.8326 13.4393 10.9481 13.4393H11.4379C11.5534 13.4393 11.6642 13.4868 11.7458 13.5715C11.8275 13.6562 11.8734 13.771 11.8734 13.8908ZM14.4599 13.8908C14.4599 14.0105 14.414 14.1254 14.3323 14.21C14.2506 14.2947 14.1399 14.3423 14.0243 14.3423H13.5346C13.4191 14.3423 13.3083 14.2947 13.2266 14.21C13.1449 14.1254 13.0991 14.0105 13.0991 13.8908C13.0991 13.771 13.1449 13.6562 13.2266 13.5715C13.3083 13.4868 13.4191 13.4393 13.5346 13.4393H14.0243C14.1399 13.4393 14.2506 13.4868 14.3323 13.5715C14.414 13.6562 14.4599 13.771 14.4599 13.8908Z" fill="#303030"/>
</g>
<defs>
<clipPath id="clip0">
<rect width="11" height="14" fill="white" transform="translate(7 5)"/>
</clipPath>
</defs>
</svg>
