<svg width="24" height="24" viewBox="0 0 24 24" fill="none" xmlns="http://www.w3.org/2000/svg">
<rect width="24" height="24" fill="white"/>
<path d="M24 12C24 18.6274 18.6274 24 12 24C5.37258 24 0 18.6274 0 12C0 5.37258 5.37258 0 12 0C18.6274 0 24 5.37258 24 12Z" fill="#E3E4EE"/>
<path d="M11 12.784V18L16 16.3519V11L11 12.784Z" stroke="#303030" stroke-linecap="round" stroke-linejoin="round"/>
<path d="M11 12.784V18L7 16.3519V11L11 12.784Z" stroke="#303030" stroke-linecap="round" stroke-linejoin="round"/>
<path d="M11 9.21333L12.7099 7L18 8.85333L16.2901 11L11 9.21333Z" stroke="#303030" stroke-linecap="round" stroke-linejoin="round"/>
<path d="M11 9.21333L9.53275 7L5 8.85333L6.4607 11L11 9.21333Z" stroke="#303030" stroke-linecap="round" stroke-linejoin="round"/>
<path d="M11 12.9527L9.54313 15L5 12.7095L6.63578 11L11 12.9527Z" fill="#E3E4EE" stroke="#303030" stroke-linecap="round" stroke-linejoin="round"/>
<path d="M11 12.9527L12.7106 15L18 12.8041L16.1994 11L11 12.9527Z" fill="#E3E4EE" stroke="#303030" stroke-linecap="round" stroke-linejoin="round"/>
</svg>
