<svg width="27" height="32" viewBox="0 0 27 32" fill="none" xmlns="http://www.w3.org/2000/svg">
<path d="M26.0922 26.1532L24.6375 8.52465C24.5912 7.97435 24.332 7.46083 23.9111 7.08571C23.4902 6.7106 22.9383 6.50121 22.3647 6.49899H19.4948V6.37503C19.521 5.56444 19.3776 4.75705 19.0734 4.00078C18.7692 3.24451 18.3102 2.55477 17.7237 1.97249C17.1371 1.39021 16.4351 0.927253 15.6591 0.611099C14.8832 0.294945 14.0491 0.132034 13.2065 0.132034C12.3639 0.132034 11.5299 0.294945 10.7539 0.611099C9.97796 0.927253 9.2759 1.39021 8.6894 1.97249C8.10289 2.55477 7.6439 3.24451 7.33965 4.00078C7.0354 4.75705 6.8921 5.56444 6.91825 6.37503V6.49899H4.04079C3.46754 6.50081 2.91588 6.70968 2.49499 7.08426C2.07409 7.45883 1.81462 7.97183 1.76792 8.52173L0.313289 26.1547C0.258024 26.8552 0.353593 27.5591 0.59401 28.2224C0.834427 28.8857 1.21451 29.4941 1.71049 30.0095C2.20646 30.5249 2.80763 30.9362 3.47638 31.2177C4.14513 31.4992 4.86705 31.6448 5.59695 31.6454H20.807C21.5372 31.6448 22.2594 31.4991 22.9283 31.2175C23.5973 30.9358 24.1986 30.5242 24.6947 30.0085C25.1907 29.4928 25.5707 28.884 25.8109 28.2204C26.0511 27.5567 26.1464 26.8525 26.0907 26.1518L26.0922 26.1532ZM8.81837 6.37503C8.81837 5.25569 9.28037 4.1822 10.1027 3.39071C10.9251 2.59922 12.0405 2.15456 13.2035 2.15456C14.3665 2.15456 15.4819 2.59922 16.3042 3.39071C17.1266 4.1822 17.5886 5.25569 17.5886 6.37503V6.49899H8.81837V6.37503ZM23.3011 28.7578C22.9848 29.0897 22.6 29.3542 22.1713 29.5345C21.7425 29.7149 21.2794 29.807 20.8115 29.8049H5.59999C5.1327 29.805 4.67042 29.7122 4.24214 29.5323C3.81387 29.3524 3.42883 29.0893 3.11116 28.7594C2.79349 28.4296 2.55004 28.0401 2.39608 27.6155C2.24212 27.1909 2.18096 26.7402 2.21644 26.2918L3.66956 8.65881C3.67715 8.56892 3.71949 8.48504 3.78823 8.42375C3.85696 8.36245 3.94709 8.3282 4.04079 8.32777H6.91219V10.5882C6.91219 10.8315 7.0126 11.0648 7.19134 11.2368C7.37008 11.4089 7.6125 11.5055 7.86528 11.5055C8.11805 11.5055 8.36048 11.4089 8.53922 11.2368C8.71796 11.0648 8.81837 10.8315 8.81837 10.5882V8.34089H17.5886V10.6013C17.5886 10.7218 17.6133 10.8411 17.6612 10.9524C17.7091 11.0637 17.7793 11.1648 17.8678 11.25C17.9563 11.3352 18.0613 11.4027 18.177 11.4488C18.2926 11.4949 18.4165 11.5186 18.5417 11.5186C18.6669 11.5186 18.7908 11.4949 18.9064 11.4488C19.0221 11.4027 19.1271 11.3352 19.2156 11.25C19.3041 11.1648 19.3743 11.0637 19.4222 10.9524C19.4701 10.8411 19.4948 10.7218 19.4948 10.6013V8.34089H22.3662C22.4601 8.34136 22.5505 8.37581 22.6192 8.43741C22.688 8.49901 22.7302 8.58325 22.7374 8.6734L24.1905 26.302C24.2271 26.7483 24.1669 27.1971 24.0138 27.6198C23.8607 28.0426 23.618 28.4301 23.3011 28.7578Z" fill="#1D4BF0"/>
</svg>
