<svg width="16" height="12" viewBox="0 0 16 12" fill="none" xmlns="http://www.w3.org/2000/svg">
<rect x="0.5" y="0.5" width="13.3175" height="10.7143" rx="0.5" fill="white" stroke="#FF0861"/>
<rect x="10.9126" y="3.10315" width="4.20635" height="5.50794" rx="0.5" fill="white" stroke="#FF0861"/>
<path d="M6.92439 5.53823C6.77701 5.51586 6.6391 5.45177 6.52697 5.35353C6.41484 5.2553 6.33317 5.12702 6.2916 4.98386C6.25004 4.84069 6.25032 4.68862 6.29241 4.54561C6.3345 4.4026 6.41665 4.27463 6.52914 4.17681C6.64164 4.07899 6.77978 4.01541 6.92725 3.99358C7.07472 3.97176 7.22535 3.99259 7.36136 4.05364C7.49736 4.11468 7.61306 4.21337 7.69477 4.33806C7.77648 4.46274 7.8208 4.60821 7.82249 4.75728C7.82249 4.86601 7.86569 4.9703 7.94258 5.04719C8.01947 5.12408 8.12375 5.16728 8.23249 5.16728C8.34123 5.16728 8.44551 5.12408 8.5224 5.04719C8.59929 4.9703 8.64249 4.86601 8.64249 4.75728C8.63168 4.39167 8.49699 4.04057 8.26052 3.76153C8.02404 3.48248 7.69979 3.29204 7.3409 3.2214V3.01315C7.3409 2.90441 7.29771 2.80013 7.22082 2.72324C7.14393 2.64635 7.03964 2.60315 6.9309 2.60315C6.82216 2.60315 6.71788 2.64635 6.64099 2.72324C6.5641 2.80013 6.5209 2.90441 6.5209 3.01315V3.2214C6.16202 3.29204 5.83777 3.48248 5.60129 3.76153C5.36481 4.04057 5.23013 4.39167 5.21931 4.75728C5.23627 5.19346 5.42507 5.60523 5.74452 5.90273C6.06396 6.20023 6.4881 6.35929 6.92439 6.34521C7.07178 6.36758 7.20969 6.43167 7.32182 6.52991C7.43395 6.62814 7.51562 6.75642 7.55719 6.89958C7.59875 7.04275 7.59847 7.19482 7.55638 7.33783C7.51428 7.48084 7.43214 7.60881 7.31965 7.70663C7.20715 7.80445 7.06901 7.86803 6.92154 7.88986C6.77407 7.91169 6.62344 7.89085 6.48743 7.8298C6.35143 7.76876 6.23573 7.67007 6.15402 7.54539C6.07231 7.4207 6.02799 7.27523 6.0263 7.12616C6.0263 7.01743 5.9831 6.91314 5.90621 6.83625C5.82932 6.75936 5.72504 6.71617 5.6163 6.71617C5.50756 6.71617 5.40327 6.75936 5.32638 6.83625C5.2495 6.91314 5.2063 7.01743 5.2063 7.12616C5.21711 7.49178 5.35179 7.84287 5.58827 8.12192C5.82475 8.40096 6.149 8.5914 6.50789 8.66204V8.84426C6.50789 8.953 6.55108 9.05729 6.62797 9.13418C6.70486 9.21107 6.80915 9.25426 6.91789 9.25426C7.02663 9.25426 7.13091 9.21107 7.2078 9.13418C7.28469 9.05729 7.32789 8.953 7.32789 8.84426V8.66204C7.68677 8.5914 8.01102 8.40096 8.2475 8.12192C8.48398 7.84287 8.61866 7.49178 8.62947 7.12616C8.61252 6.68998 8.42371 6.27821 8.10427 5.98071C7.78483 5.68322 7.36068 5.52415 6.92439 5.53823V5.53823Z" fill="#FF0861"/>
</svg>
