<svg width="24" height="24" viewBox="0 0 24 24" fill="none" xmlns="http://www.w3.org/2000/svg">
<g id="Group 405">
<g id="Group 382">
<g id="home-1">
<g id="person-plus-fill 1">
<path id="Vector" d="M5.00451 17.5C5.00252 17.4999 4.99848 17.4997 4.99265 17.4993C4.9786 17.4983 4.95527 17.4961 4.92595 17.4912C4.86495 17.481 4.79125 17.4616 4.72361 17.4278C4.65792 17.3949 4.60745 17.3535 4.57228 17.3008C4.53919 17.2511 4.5 17.1625 4.5 17C4.5 16.6284 4.70027 15.7568 5.47855 14.9786C6.24218 14.2149 7.60545 13.5 10 13.5C12.3946 13.5 13.7578 14.2149 14.5214 14.9786C15.2997 15.7568 15.5 16.6284 15.5 17C15.5 17.1625 15.4608 17.2511 15.4277 17.3008C15.3926 17.3535 15.3421 17.3949 15.2764 17.4278C15.2088 17.4616 15.1351 17.481 15.0741 17.4912C15.0447 17.4961 15.0214 17.4983 15.0073 17.4993C15.0015 17.4997 14.9975 17.4999 14.9955 17.5H5.00451ZM11.7678 10.7678C11.2989 11.2366 10.663 11.5 10 11.5C9.33696 11.5 8.70107 11.2366 8.23223 10.7678C7.76339 10.2989 7.5 9.66304 7.5 9C7.5 8.33696 7.76339 7.70107 8.23223 7.23223C8.70107 6.76339 9.33696 6.5 10 6.5C10.663 6.5 11.2989 6.76339 11.7678 7.23223C12.2366 7.70107 12.5 8.33696 12.5 9C12.5 9.66304 12.2366 10.2989 11.7678 10.7678Z" stroke="#303030"/>
<path id="Vector_2" fill-rule="evenodd" clip-rule="evenodd" d="M17.5 9C17.6326 9 17.7598 9.05268 17.8536 9.14645C17.9473 9.24021 18 9.36739 18 9.5V11H19.5C19.6326 11 19.7598 11.0527 19.8536 11.1464C19.9473 11.2402 20 11.3674 20 11.5C20 11.6326 19.9473 11.7598 19.8536 11.8536C19.7598 11.9473 19.6326 12 19.5 12H18V13.5C18 13.6326 17.9473 13.7598 17.8536 13.8536C17.7598 13.9473 17.6326 14 17.5 14C17.3674 14 17.2402 13.9473 17.1464 13.8536C17.0527 13.7598 17 13.6326 17 13.5V12H15.5C15.3674 12 15.2402 11.9473 15.1464 11.8536C15.0527 11.7598 15 11.6326 15 11.5C15 11.3674 15.0527 11.2402 15.1464 11.1464C15.2402 11.0527 15.3674 11 15.5 11H17V9.5C17 9.36739 17.0527 9.24021 17.1464 9.14645C17.2402 9.05268 17.3674 9 17.5 9Z" fill="#303030"/>
</g>
</g>
</g>
</g>
</svg>
