<svg width="24" height="24" viewBox="0 0 24 24" fill="none" xmlns="http://www.w3.org/2000/svg">
<g clip-path="url(#clip0_517_791)">
<path d="M8.9385 19C8.70721 18.9347 8.4858 18.8511 8.31502 18.6708C8.09532 18.4391 8.00006 18.1611 8.00049 17.8453C8.00049 17.2445 8.00049 16.6438 8.00049 16.043C8.00049 12.4255 8.00049 8.80787 8.00049 5.19028C8.00049 4.71012 8.17728 4.32994 8.62182 4.11753C8.78078 4.04416 8.95352 4.0054 9.12859 4.00382C11.2089 3.99667 13.289 3.99553 15.369 4.00039C16.0435 4.00039 16.4975 4.47926 16.4975 5.17355C16.4975 8.34201 16.4975 11.5103 16.4975 14.6785C16.4975 15.6745 16.4821 16.6708 16.5031 17.6663C16.516 18.2671 16.319 18.8052 15.5591 18.9965L8.9385 19ZM15.6681 16.152V5.85624H8.83337V16.152H15.6681ZM10.9235 17.8255H13.5668V17.0244H10.9235V17.8255ZM10.7883 5.1006H13.7062V4.80023H10.7883V5.1006ZM14.6786 4.68866C14.6422 4.68972 14.6065 4.69795 14.5734 4.71289C14.5403 4.72783 14.5104 4.74918 14.4856 4.77571C14.4608 4.80224 14.4415 4.83343 14.4288 4.86746C14.4161 4.9015 14.4103 4.93771 14.4117 4.97401C14.4125 5.01031 14.4207 5.04606 14.4357 5.07912C14.4507 5.11218 14.4722 5.14187 14.499 5.16639C14.5258 5.19092 14.5572 5.20979 14.5915 5.22185C14.6257 5.23392 14.6621 5.23894 14.6983 5.23662C14.7691 5.23363 14.8361 5.20331 14.885 5.15202C14.934 5.10074 14.9612 5.03248 14.9609 4.96157C14.9593 4.88805 14.9288 4.81812 14.8759 4.76701C14.823 4.7159 14.7521 4.68774 14.6786 4.68866V4.68866Z" fill="white"/>
</g>
<defs>
<clipPath id="clip0_517_791">
<rect width="8.50345" height="15" fill="white" transform="translate(8 4)"/>
</clipPath>
</defs>
</svg>
