<svg width="18" height="16" viewBox="0 0 18 16" fill="none" xmlns="http://www.w3.org/2000/svg">
<defs><style>.cls-1{fill:#fff;stroke:#ff0861;stroke-linecap:round;stroke-linejoin:round;}</style></defs>
<path class="cls-1" d="M15.6064 7.27072H12.824C12.6265 7.27072 12.4371 7.19403 12.2975 7.05751C12.1578 6.921 12.0794 6.73584 12.0794 6.54278C12.0794 6.34972 12.1578 6.16456 12.2975 6.02804C12.4371 5.89153 12.6265 5.81483 12.824 5.81483H15.6064C15.8027 5.81483 15.991 5.7386 16.1298 5.6029C16.2686 5.4672 16.3466 5.28316 16.3466 5.09125V2.17947C16.3466 1.98757 16.2686 1.80352 16.1298 1.66782C15.991 1.53212 15.8027 1.45589 15.6064 1.45589H2.22949C2.13229 1.45589 2.03604 1.4746 1.94623 1.51097C1.85643 1.54733 1.77483 1.60063 1.7061 1.66782C1.63736 1.73501 1.58284 1.81478 1.54564 1.90257C1.50845 1.99036 1.4893 2.08445 1.4893 2.17947V5.09125C1.4893 5.18627 1.50845 5.28036 1.54564 5.36815C1.58284 5.45594 1.63736 5.53571 1.7061 5.6029C1.77483 5.67009 1.85643 5.72339 1.94623 5.75976C2.03604 5.79612 2.13229 5.81483 2.22949 5.81483H3.56718C3.76468 5.81483 3.95408 5.89153 4.09373 6.02804C4.23338 6.16456 4.31183 6.34972 4.31183 6.54278C4.31183 6.73584 4.23338 6.921 4.09373 7.05751C3.95408 7.19403 3.76468 7.27072 3.56718 7.27072H2.22949C1.63819 7.27072 1.07111 7.0411 0.653003 6.63237C0.234892 6.22364 0 5.66928 0 5.09125V2.17947C0 1.60144 0.234892 1.04708 0.653003 0.638353C1.07111 0.229622 1.63819 0 2.22949 0H15.6064C16.1977 0 16.7648 0.229622 17.1829 0.638353C17.601 1.04708 17.8359 1.60144 17.8359 2.17947V5.09125C17.8359 5.66928 17.601 6.22364 17.1829 6.63237C16.7648 7.0411 16.1977 7.27072 15.6064 7.27072Z" fill="#303030"/>
<path class="cls-1" d="M14.1171 4.3589H3.71877C3.52128 4.3589 3.33187 4.28221 3.19222 4.14569C3.05258 4.00918 2.97412 3.82402 2.97412 3.63096C2.97412 3.4379 3.05258 3.25274 3.19222 3.11623C3.33187 2.97971 3.52128 2.90302 3.71877 2.90302H14.1171C14.3146 2.90302 14.504 2.97971 14.6437 3.11623C14.7833 3.25274 14.8618 3.4379 14.8618 3.63096C14.8618 3.82402 14.7833 4.00918 14.6437 4.14569C14.504 4.28221 14.3146 4.3589 14.1171 4.3589Z" fill="#303030"/>
<path class="cls-1" d="M10.3411 14.3484L10.0316 14.1059L9.72295 14.3496L8.33993 15.4416C8.29904 15.4702 8.24861 15.4865 8.19569 15.4865C8.14204 15.4865 8.09095 15.4697 8.04975 15.4404L6.61933 14.3373L6.30914 14.0981L6.00265 14.342L4.61387 15.4473C4.61359 15.4475 4.6133 15.4477 4.61302 15.448C4.57797 15.4752 4.53462 15.4932 4.48769 15.4985C4.44035 15.5038 4.39281 15.4958 4.35089 15.476C4.30906 15.4563 4.27545 15.4263 4.25271 15.3907C4.23005 15.3554 4.21872 15.3155 4.21888 15.2757V15.2738V5.81567C4.22101 5.18247 4.47916 4.57345 4.9408 4.12217C5.40282 3.67051 6.03118 3.41391 6.68932 3.4118H14.1172C14.1857 3.4118 14.2492 3.43851 14.2942 3.48256C14.3389 3.52622 14.3619 3.583 14.3619 3.63975C14.3619 3.69649 14.3389 3.75327 14.2942 3.79694C14.2492 3.84098 14.1857 3.86769 14.1172 3.86768L14.1143 3.8677C13.5944 3.87074 13.0945 4.07389 12.7235 4.43654C12.3521 4.79957 12.14 5.29346 12.1368 5.81181L12.1368 5.81181V5.81486V15.2563C12.1368 15.3119 12.1144 15.3676 12.0705 15.4105C12.0263 15.4537 11.964 15.4799 11.8966 15.4799H11.8199C11.787 15.4713 11.7565 15.4564 11.7302 15.4364L10.3411 14.3484Z" stroke="#303030"/>
</svg>
