<svg width="21" height="21" viewBox="0 0 21 21" fill="none" xmlns="http://www.w3.org/2000/svg">
<path d="M15.3121 18.3751C15.1441 18.3751 14.9761 18.3112 14.8483 18.1826L12.415 15.7501L13.3434 14.8218L15.3121 16.7905L17.2808 14.8218L18.2091 15.7501L15.7767 18.1826C15.6481 18.3112 15.4801 18.3751 15.3121 18.3751Z" fill="black"/>
<path d="M14.6558 12.9067H15.9682V17.2816H14.6558V12.9067Z" fill="black"/>
<path d="M15.3119 20.9997C12.1759 20.9997 9.62451 18.4483 9.62451 15.3123C9.62451 12.1764 12.1759 9.625 15.3119 9.625C18.4478 9.625 20.9992 12.1764 20.9992 15.3123C20.9992 18.4483 18.4478 20.9997 15.3119 20.9997ZM15.3119 10.9375C12.8995 10.9375 10.937 12.9 10.937 15.3123C10.937 17.7246 12.8995 19.6872 15.3119 19.6872C17.7242 19.6872 19.6867 17.7246 19.6867 15.3123C19.6867 12.9 17.7242 10.9375 15.3119 10.9375Z" fill="black"/>
<path d="M8.74975 7.00046C8.67626 7.00046 8.60276 6.98821 8.53189 6.96371L0.438363 4.12004C0.17587 4.02817 0 3.7788 0 3.50056C0 3.22232 0.17587 2.97295 0.438363 2.88107L8.53189 0.0374052C8.67363 -0.0124684 8.82588 -0.0124684 8.96762 0.0374052L17.0611 2.88107C17.3236 2.97295 17.4995 3.22232 17.4995 3.50056C17.4995 3.7788 17.3236 4.02817 17.0611 4.12004L8.96762 6.96371C8.89675 6.98821 8.82325 7.00046 8.74975 7.00046V7.00046ZM2.6363 3.50056L8.74975 5.64862L14.8632 3.50056L8.74975 1.35249L2.6363 3.50056Z" fill="black"/>
<path d="M16.187 3.50098H17.4995V7.21962H16.187V3.50098Z" fill="black"/>
<path d="M7.29904 17.0263L0.439237 14.6202C0.17587 14.5283 0 14.2789 0 14.0007V3.50098H1.31246V13.5361L7.73303 15.7874L7.29904 17.0263Z" fill="black"/>
<path d="M8.09326 6.34424H9.40572V10.7191H8.09326V6.34424Z" fill="black"/>
</svg>
