<svg width="15" height="16" viewBox="0 0 15 16" fill="none" xmlns="http://www.w3.org/2000/svg">
<path d="M12.8951 3.42728C11.7404 2.23977 10.218 1.46886 8.57 1.23724L9.03977 0.771955C9.11439 0.68108 9.15234 0.566025 9.14627 0.449042C9.14021 0.332058 9.09057 0.221457 9.00694 0.138629C8.92332 0.0557999 8.81165 0.00662811 8.69354 0.000622844C8.57543 -0.00538242 8.45927 0.0322056 8.36752 0.106117L7.16882 1.30142C7.08028 1.39003 7.03062 1.50967 7.03062 1.63433C7.03062 1.759 7.08028 1.87864 7.16882 1.96725L8.36752 3.1786C8.40972 3.22999 8.46234 3.27203 8.52198 3.30201C8.58162 3.33199 8.64695 3.34924 8.71374 3.35263C8.78054 3.35603 8.84731 3.3455 8.90973 3.32173C8.97216 3.29795 9.02885 3.26147 9.07614 3.21463C9.12343 3.16779 9.16027 3.11163 9.18427 3.0498C9.20827 2.98797 9.2189 2.92184 9.21548 2.85568C9.21205 2.78953 9.19464 2.72482 9.16437 2.66575C9.1341 2.60668 9.09165 2.55456 9.03977 2.51276L8.77249 2.24803C10.3259 2.55191 11.7153 3.40331 12.6833 4.64439C13.6513 5.88548 14.1322 7.43208 14.0368 8.99752C13.9414 10.563 13.2763 12.0411 12.1646 13.1578C11.0529 14.2746 9.5702 14.9543 7.99121 15.071C6.41221 15.1877 4.84407 14.7333 3.57744 13.7923C2.31081 12.8512 1.4316 11.4872 1.1028 9.9531C0.773994 8.419 1.01789 6.81885 1.78927 5.44926C2.56065 4.07966 3.80721 3.03352 5.29787 2.50474C5.35956 2.48419 5.41656 2.45182 5.46562 2.40946C5.51467 2.36709 5.55483 2.31558 5.58378 2.25784C5.61274 2.20011 5.62993 2.1373 5.63438 2.07299C5.63882 2.00867 5.63043 1.94412 5.60969 1.88302C5.58895 1.82192 5.55626 1.76546 5.51349 1.71687C5.47073 1.66828 5.41871 1.62851 5.36042 1.59983C5.30214 1.57115 5.23872 1.55413 5.17379 1.54972C5.10886 1.54532 5.04368 1.55363 4.98199 1.57417C3.45645 2.11272 2.1479 3.12592 1.25201 4.46225C0.356116 5.79858 -0.0789756 7.38624 0.0117928 8.98783C0.102561 10.5894 0.714312 12.1189 1.75557 13.3475C2.79683 14.5761 4.21164 15.4379 5.78845 15.804C7.36527 16.17 9.01935 16.0207 10.5034 15.3784C11.9874 14.736 13.2216 13.6351 14.0215 12.2403C14.8213 10.8454 15.1439 9.23165 14.9408 7.6402C14.7378 6.04874 14.0201 4.56514 12.8951 3.41124V3.42728Z" fill="#FF0861"/>
<path d="M8.05368 8.52632C7.73608 8.42435 7.43355 8.2772 7.15468 8.08907C7.14376 8.06216 7.13814 8.03325 7.13814 8.00405C7.13814 7.97484 7.14376 7.94594 7.15468 7.91903C7.16187 7.86478 7.18302 7.81356 7.21591 7.77079C7.24879 7.72803 7.29218 7.69532 7.34149 7.67611C7.42273 7.62586 7.5155 7.59933 7.61002 7.59933C7.70454 7.59933 7.79731 7.62586 7.87855 7.67611C7.97815 7.76837 8.10775 7.81778 8.24107 7.81431C8.3744 7.81084 8.50146 7.75475 8.5965 7.65743C8.69154 7.5601 8.74745 7.42881 8.75288 7.29019C8.75832 7.15157 8.71288 7.01599 8.62577 6.91093C8.45666 6.73749 8.24763 6.61205 8.01865 6.54656C8.01865 6.4016 7.9633 6.26258 7.86477 6.16008C7.76624 6.05758 7.63261 6 7.49326 6C7.35392 6 7.22029 6.05758 7.12176 6.16008C7.02323 6.26258 6.96788 6.4016 6.96788 6.54656V6.63158C6.75802 6.71322 6.57161 6.84912 6.42621 7.02645C6.28082 7.20379 6.18123 7.41672 6.13684 7.64518C6.09245 7.87364 6.10473 8.11009 6.1725 8.33225C6.24027 8.55441 6.36131 8.75496 6.52421 8.91498C6.88176 9.17744 7.27538 9.38218 7.69174 9.52227C7.73713 9.53233 7.78015 9.55167 7.81829 9.57917C7.85643 9.60667 7.88893 9.64178 7.91392 9.68247C7.9389 9.72315 7.95587 9.76859 7.96382 9.81615C7.97178 9.86371 7.97058 9.91244 7.96028 9.95951C7.94073 10.0828 7.87932 10.1948 7.7872 10.275C7.69509 10.3552 7.57837 10.3984 7.45824 10.3968C7.21452 10.4328 6.96696 10.3674 6.7694 10.2146C6.65369 10.1515 6.51953 10.1354 6.39309 10.1697C6.26666 10.2039 6.15701 10.2859 6.08555 10.3997C6.01409 10.5135 5.98595 10.6509 6.00661 10.7851C6.02728 10.9193 6.09526 11.0406 6.19731 11.1255C6.42084 11.2894 6.6757 11.4013 6.94452 11.4534C6.94452 11.5984 6.99988 11.7374 7.09841 11.8399C7.19694 11.9424 7.33057 12 7.46991 12C7.60926 12 7.74289 11.9424 7.84142 11.8399C7.93995 11.7374 7.9953 11.5984 7.9953 11.4534V11.3441C8.28793 11.2424 8.54239 11.0475 8.72269 10.787C8.90299 10.5265 9 10.2137 9 9.89271C9 9.57174 8.90299 9.25889 8.72269 8.99842C8.54239 8.73796 8.28793 8.54306 7.9953 8.4413L8.05368 8.52632Z" fill="#FF0861"/>
</svg>
