<svg width="20" height="30" viewBox="0 0 20 30" fill="none" xmlns="http://www.w3.org/2000/svg">
<path d="M19.5728 7.28414C19.4409 7.16094 19.272 7.09945 19.0667 7.09945H15.302C15.0523 5.96362 14.5826 4.97766 13.8928 4.14267H19.0225C19.2283 4.14267 19.3967 4.08111 19.5291 3.9582C19.6605 3.83507 19.7265 3.67749 19.7265 3.4859V1.39101C19.7265 1.19927 19.6606 1.04198 19.5291 0.91871C19.3965 0.795727 19.2281 0.733948 19.0223 0.733948H0.704444C0.498856 0.733948 0.330206 0.795727 0.198031 0.918639C0.0662417 1.04191 0 1.1992 0 1.39094V4.12189C0 4.29982 0.0697117 4.4538 0.209135 4.58383C0.348559 4.71386 0.513662 4.77888 0.704444 4.77888H3.89692C6.99378 4.77888 8.96067 5.55209 9.79721 7.09909H0.704444C0.498856 7.09909 0.329974 7.16058 0.198031 7.28378C0.0662417 7.40712 0 7.56434 0 7.75608V9.85068C0 10.0423 0.0659332 10.1998 0.198031 10.3227C0.330206 10.446 0.499164 10.5074 0.704444 10.5074H10.1059C9.78294 11.6302 9.03061 12.4856 7.8489 13.0743C6.66712 13.663 5.10793 13.9574 3.17035 13.9574H0.704444C0.513662 13.9574 0.348559 14.0225 0.209135 14.1524C0.0696345 14.2825 0 14.4366 0 14.6144V17.2224C0 17.4006 0.0659332 17.5512 0.198031 17.6742C3.01604 20.4667 6.67097 24.3747 11.1624 29.399C11.2946 29.5634 11.478 29.6454 11.7129 29.6454H16.006C16.3146 29.6454 16.5276 29.5225 16.6446 29.2756C16.7914 29.0292 16.7626 28.7965 16.5565 28.5774C12.2711 23.6766 8.90221 20.008 6.45096 17.5714C8.94625 17.2976 10.9718 16.5446 12.5278 15.3128C14.0835 14.0809 15.0301 12.4789 15.3679 10.5077H19.0667C19.272 10.5077 19.441 10.4463 19.5728 10.3231C19.7051 10.2001 19.7712 10.0426 19.7712 9.85104V7.75666C19.7712 7.5647 19.7051 7.40741 19.5728 7.28414Z" fill="#D2DFEA"/>
</svg>
