<svg width="24" height="24" viewBox="0 0 24 24" fill="none" xmlns="http://www.w3.org/2000/svg">
<g id="Group 104">
<g id="home-1">
<path id="Ellipse 2" d="M24 12C24 18.6274 18.6274 24 12 24C5.37258 24 0 18.6274 0 12C0 5.37258 5.37258 0 12 0C18.6274 0 24 5.37258 24 12Z" fill="#E3E4EE"/>
<path id="Vector" d="M16 6H8V7.33606H11.1189C12.0234 7.50766 12.9695 7.99183 13.2398 8.8621H8.04159V10.1675H13.1878C13.1141 10.3481 13.0118 10.5104 12.8863 10.6456C12.013 11.5158 10.308 11.5526 8.93047 11.5158V12.4106L13.6452 18H15.2047L10.8122 12.7845C11.8196 12.7535 12.7929 12.3481 13.5932 11.6261C13.9582 11.2396 14.214 10.7306 14.3262 10.1675H16V8.8621H14.3678C14.2767 8.28138 14.0351 7.74823 13.6764 7.33606H16V6Z" fill="#303030"/>
</g>
</g>
</svg>
