<svg id="Layer_16" data-name="Layer 16" xmlns="http://www.w3.org/2000/svg" viewBox="0 0 24 24"><defs><style>.cls-1{fill:#010101;}</style></defs><title>scan</title><path class="cls-1" d="M6.17,2H4.5A2.5,2.5,0,0,0,2,4.5V6.17a.83.83,0,1,0,1.67,0V4.5a.83.83,0,0,1,.83-.83H6.17A.83.83,0,0,0,6.17,2Z"/><path class="cls-1" d="M6.17,20.33H4.5a.83.83,0,0,1-.83-.83V17.83a.83.83,0,1,0-1.67,0V19.5A2.5,2.5,0,0,0,4.5,22H6.17a.83.83,0,0,0,0-1.67Z"/><path class="cls-1" d="M19.5,2H17.83a.83.83,0,1,0,0,1.67H19.5a.83.83,0,0,1,.83.83V6.17a.83.83,0,0,0,1.67,0V4.5A2.5,2.5,0,0,0,19.5,2Z"/><path class="cls-1" d="M21.17,17a.83.83,0,0,0-.83.83V19.5a.83.83,0,0,1-.83.83H17.83a.83.83,0,0,0,0,1.67H19.5A2.5,2.5,0,0,0,22,19.5V17.83A.83.83,0,0,0,21.17,17Z"/><rect class="cls-1" x="6.41" y="6.43" width="10.9" height="11.5" rx="1.73" ry="1.73"/></svg>