<svg width="161" height="32" viewBox="0 0 161 32" fill="none" xmlns="http://www.w3.org/2000/svg">
<path d="M12.0996 20.7773C12.0996 20.0026 11.8262 19.4102 11.2793 19C10.7324 18.5807 9.74805 18.1432 8.32617 17.6875C6.9043 17.2227 5.77865 16.7669 4.94922 16.3203C2.6888 15.099 1.55859 13.4538 1.55859 11.3848C1.55859 10.3092 1.85938 9.35221 2.46094 8.51367C3.07161 7.66602 3.94206 7.00521 5.07227 6.53125C6.21159 6.05729 7.48763 5.82031 8.90039 5.82031C10.3223 5.82031 11.5892 6.08008 12.7012 6.59961C13.8132 7.11003 14.6745 7.83464 15.2852 8.77344C15.9049 9.71224 16.2148 10.7786 16.2148 11.9727H12.1133C12.1133 11.0612 11.8262 10.3548 11.252 9.85352C10.6777 9.3431 9.87109 9.08789 8.83203 9.08789C7.82943 9.08789 7.05013 9.30208 6.49414 9.73047C5.93815 10.1497 5.66016 10.7057 5.66016 11.3984C5.66016 12.0456 5.98372 12.5879 6.63086 13.0254C7.28711 13.4629 8.2487 13.873 9.51562 14.2559C11.849 14.9577 13.5488 15.8281 14.6152 16.8672C15.6816 17.9062 16.2148 19.2005 16.2148 20.75C16.2148 22.4727 15.5632 23.8262 14.2598 24.8105C12.9564 25.7858 11.2018 26.2734 8.99609 26.2734C7.46484 26.2734 6.07031 25.9954 4.8125 25.4395C3.55469 24.8743 2.5931 24.1042 1.92773 23.1289C1.27148 22.1536 0.943359 21.0234 0.943359 19.7383H5.05859C5.05859 21.9349 6.37109 23.0332 8.99609 23.0332C9.97135 23.0332 10.7324 22.8372 11.2793 22.4453C11.8262 22.0443 12.0996 21.4883 12.0996 20.7773ZM33.9023 6.09375V19.2051C33.9023 21.3835 33.2187 23.1061 31.8515 24.373C30.4935 25.64 28.6341 26.2734 26.2734 26.2734C23.9492 26.2734 22.1035 25.6582 20.7363 24.4277C19.3691 23.1973 18.6718 21.5065 18.6445 19.3555V6.09375H22.7461V19.2324C22.7461 20.5358 23.056 21.4883 23.6758 22.0898C24.3047 22.6823 25.1705 22.9785 26.2734 22.9785C28.5794 22.9785 29.7506 21.7663 29.7871 19.3418V6.09375H33.9023ZM52.7245 19.3691C52.5696 21.5111 51.7766 23.1973 50.3456 24.4277C48.9238 25.6582 47.0462 26.2734 44.7128 26.2734C42.1607 26.2734 40.151 25.4167 38.6835 23.7031C37.2252 21.9805 36.496 19.6198 36.496 16.6211V15.4043C36.496 13.4902 36.8333 11.804 37.5078 10.3457C38.1822 8.88737 39.1438 7.77083 40.3925 6.99609C41.6503 6.21224 43.1087 5.82031 44.7675 5.82031C47.0644 5.82031 48.9147 6.43555 50.3183 7.66602C51.7219 8.89648 52.5331 10.6237 52.7519 12.8477H48.6503C48.5501 11.5625 48.19 10.6328 47.5703 10.0586C46.9596 9.47526 46.0253 9.18359 44.7675 9.18359C43.4003 9.18359 42.3749 9.67578 41.6913 10.6602C41.0169 11.6354 40.6705 13.153 40.6523 15.2129V16.7168C40.6523 18.8678 40.9759 20.4401 41.623 21.4336C42.2792 22.4271 43.3092 22.9238 44.7128 22.9238C45.9798 22.9238 46.9231 22.6367 47.5429 22.0625C48.1718 21.4792 48.5318 20.5814 48.623 19.3691H52.7245ZM70.8769 19.3691C70.7219 21.5111 69.9289 23.1973 68.498 24.4277C67.0761 25.6582 65.1985 26.2734 62.8651 26.2734C60.3131 26.2734 58.3033 25.4167 56.8358 23.7031C55.3775 21.9805 54.6483 19.6198 54.6483 16.6211V15.4043C54.6483 13.4902 54.9856 11.804 55.6601 10.3457C56.3345 8.88737 57.2961 7.77083 58.5448 6.99609C59.8026 6.21224 61.261 5.82031 62.9198 5.82031C65.2167 5.82031 67.067 6.43555 68.4706 7.66602C69.8743 8.89648 70.6855 10.6237 70.9042 12.8477H66.8026C66.7024 11.5625 66.3424 10.6328 65.7226 10.0586C65.1119 9.47526 64.1776 9.18359 62.9198 9.18359C61.5526 9.18359 60.5272 9.67578 59.8437 10.6602C59.1692 11.6354 58.8228 13.153 58.8046 15.2129V16.7168C58.8046 18.8678 59.1282 20.4401 59.7753 21.4336C60.4315 22.4271 61.4615 22.9238 62.8651 22.9238C64.1321 22.9238 65.0754 22.6367 65.6952 22.0625C66.3241 21.4792 66.6841 20.5814 66.7753 19.3691H70.8769ZM85.3788 17.373H77.5038V22.7051H86.746V26H73.4022V6.09375H86.7186V9.41602H77.5038V14.1602H85.3788V17.373ZM99.3065 20.7773C99.3065 20.0026 99.0331 19.4102 98.4862 19C97.9393 18.5807 96.9549 18.1432 95.5331 17.6875C94.1112 17.2227 92.9855 16.7669 92.1561 16.3203C89.8957 15.099 88.7655 13.4538 88.7655 11.3848C88.7655 10.3092 89.0663 9.35221 89.6678 8.51367C90.2785 7.66602 91.1489 7.00521 92.2791 6.53125C93.4185 6.05729 94.6945 5.82031 96.1073 5.82031C97.5291 5.82031 98.7961 6.08008 99.9081 6.59961C101.02 7.11003 101.881 7.83464 102.492 8.77344C103.112 9.71224 103.422 10.7786 103.422 11.9727H99.3202C99.3202 11.0612 99.0331 10.3548 98.4588 9.85352C97.8846 9.3431 97.078 9.08789 96.0389 9.08789C95.0363 9.08789 94.257 9.30208 93.701 9.73047C93.145 10.1497 92.867 10.7057 92.867 11.3984C92.867 12.0456 93.1906 12.5879 93.8377 13.0254C94.494 13.4629 95.4556 13.873 96.7225 14.2559C99.0558 14.9577 100.756 15.8281 101.822 16.8672C102.889 17.9062 103.422 19.2005 103.422 20.75C103.422 22.4727 102.77 23.8262 101.467 24.8105C100.163 25.7858 98.4087 26.2734 96.203 26.2734C94.6717 26.2734 93.2772 25.9954 92.0194 25.4395C90.7616 24.8743 89.8 24.1042 89.1346 23.1289C88.4784 22.1536 88.1502 21.0234 88.1502 19.7383H92.2655C92.2655 21.9349 93.578 23.0332 96.203 23.0332C97.1782 23.0332 97.9393 22.8372 98.4862 22.4453C99.0331 22.0443 99.3065 21.4883 99.3065 20.7773ZM116.365 20.7773C116.365 20.0026 116.092 19.4102 115.545 19C114.998 18.5807 114.013 18.1432 112.592 17.6875C111.17 17.2227 110.044 16.7669 109.215 16.3203C106.954 15.099 105.824 13.4538 105.824 11.3848C105.824 10.3092 106.125 9.35221 106.726 8.51367C107.337 7.66602 108.207 7.00521 109.338 6.53125C110.477 6.05729 111.753 5.82031 113.166 5.82031C114.588 5.82031 115.855 6.08008 116.967 6.59961C118.079 7.11003 118.94 7.83464 119.551 8.77344C120.17 9.71224 120.48 10.7786 120.48 11.9727H116.379C116.379 11.0612 116.092 10.3548 115.517 9.85352C114.943 9.3431 114.137 9.08789 113.097 9.08789C112.095 9.08789 111.316 9.30208 110.76 9.73047C110.204 10.1497 109.926 10.7057 109.926 11.3984C109.926 12.0456 110.249 12.5879 110.896 13.0254C111.553 13.4629 112.514 13.873 113.781 14.2559C116.114 14.9577 117.814 15.8281 118.881 16.8672C119.947 17.9062 120.48 19.2005 120.48 20.75C120.48 22.4727 119.829 23.8262 118.525 24.8105C117.222 25.7858 115.467 26.2734 113.262 26.2734C111.73 26.2734 110.336 25.9954 109.078 25.4395C107.82 24.8743 106.859 24.1042 106.193 23.1289C105.537 22.1536 105.209 21.0234 105.209 19.7383H109.324C109.324 21.9349 110.637 23.0332 113.262 23.0332C114.237 23.0332 114.998 22.8372 115.545 22.4453C116.092 22.0443 116.365 21.4883 116.365 20.7773Z" fill="#3BC545"/>
<path d="M146.124 1.05866C146.294 0.681078 146.591 0.373659 146.964 0.188737C147.338 0.00381434 147.764 -0.0471812 148.171 0.0444317C148.578 0.136045 148.94 0.364603 149.196 0.691199C149.452 1.01779 149.586 1.42224 149.575 1.83568C149.572 2.17508 149.666 2.50844 149.846 2.7968C150.027 3.08517 150.287 3.31664 150.595 3.46418C150.904 3.61171 151.248 3.66922 151.588 3.62998C151.928 3.59075 152.25 3.45639 152.516 3.2426C152.834 2.96864 153.237 2.81322 153.658 2.80321C154.079 2.7932 154.49 2.92924 154.82 3.1878C155.15 3.44635 155.379 3.81116 155.467 4.21913C155.554 4.6271 155.495 5.05256 155.3 5.42194C155.147 5.72652 155.086 6.06778 155.122 6.40576C155.159 6.74373 155.292 7.06442 155.505 7.33025C155.719 7.59609 156.005 7.79607 156.329 7.90677C156.653 8.01747 157.003 8.03431 157.336 7.9553C157.736 7.865 158.154 7.91217 158.523 8.08906C158.892 8.26595 159.189 8.56202 159.366 8.92856C159.542 9.29511 159.588 9.71029 159.495 10.1058C159.401 10.5013 159.175 10.8536 158.853 11.1048C158.582 11.3139 158.378 11.5951 158.263 11.9155C158.147 12.2359 158.127 12.5822 158.203 12.9137C158.28 13.2453 158.45 13.5483 158.694 13.7874C158.938 14.0265 159.246 14.1916 159.581 14.2634C159.983 14.3507 160.343 14.5715 160.601 14.8893C160.859 15.207 161 15.6027 161 16.0106C161 16.4185 160.859 16.8141 160.601 17.1319C160.343 17.4497 159.983 17.6705 159.581 17.7577C159.246 17.8296 158.938 17.9947 158.694 18.2338C158.45 18.4728 158.28 18.7759 158.203 19.1074C158.127 19.439 158.147 19.7853 158.263 20.1057C158.378 20.426 158.582 20.7073 158.853 20.9164C159.178 21.1676 159.407 21.5216 159.5 21.9194C159.594 22.3172 159.548 22.7349 159.369 23.1029C159.19 23.471 158.889 23.7673 158.517 23.9425C158.145 24.1176 157.723 24.1612 157.322 24.0659C156.989 23.9843 156.639 23.9986 156.314 24.107C155.989 24.2154 155.702 24.4134 155.486 24.6778C155.27 24.9423 155.135 25.2622 155.096 25.6C155.058 25.9379 155.117 26.2797 155.267 26.5854C155.463 26.9548 155.522 27.3803 155.434 27.7882C155.347 28.1962 155.118 28.561 154.788 28.8196C154.457 29.0781 154.046 29.2142 153.626 29.2042C153.205 29.1942 152.801 29.0387 152.484 28.7648C152.216 28.5599 151.896 28.4335 151.56 28.3999C151.224 28.3664 150.885 28.4271 150.582 28.5752C150.279 28.7233 150.024 28.9527 149.846 29.2374C149.668 29.5221 149.574 29.8506 149.575 30.1855C149.581 30.5952 149.445 30.9946 149.189 31.3167C148.934 31.6389 148.575 31.8643 148.171 31.9553C147.768 32.0463 147.346 31.9974 146.975 31.8167C146.604 31.6359 146.307 31.3344 146.133 30.9625C145.986 30.6589 145.756 30.4026 145.469 30.2232C145.182 30.0437 144.849 29.9485 144.509 29.9485C144.17 29.9485 143.837 30.0437 143.55 30.2232C143.262 30.4026 143.032 30.6589 142.886 30.9625C142.712 31.3344 142.415 31.6359 142.044 31.8167C141.673 31.9974 141.25 32.0463 140.847 31.9553C140.444 31.8643 140.085 31.6389 139.829 31.3167C139.574 30.9946 139.437 30.5952 139.443 30.1855C139.447 29.8461 139.353 29.5127 139.172 29.2244C138.992 28.936 138.732 28.7045 138.423 28.557C138.115 28.4095 137.771 28.352 137.43 28.3912C137.09 28.4304 136.768 28.5648 136.502 28.7786C136.185 29.0619 135.777 29.2247 135.351 29.238C134.924 29.2513 134.506 29.1143 134.172 28.8512C133.838 28.5882 133.608 28.2163 133.524 27.8014C133.441 27.3866 133.508 26.9558 133.714 26.5854C133.867 26.2809 133.928 25.9396 133.892 25.6016C133.855 25.2636 133.722 24.943 133.509 24.6771C133.295 24.4113 133.009 24.2113 132.685 24.1006C132.361 23.9899 132.011 23.9731 131.678 24.0521C131.277 24.1474 130.855 24.1038 130.483 23.9287C130.111 23.7535 129.81 23.4572 129.631 23.0892C129.452 22.7211 129.406 22.3034 129.5 21.9056C129.593 21.5078 129.822 21.1539 130.147 20.9026C130.418 20.6935 130.622 20.4123 130.737 20.0919C130.853 19.7715 130.873 19.4252 130.797 19.0936C130.72 18.7621 130.55 18.459 130.306 18.22C130.062 17.9809 129.754 17.8158 129.419 17.7439C129.017 17.6567 128.657 17.4359 128.399 17.1181C128.141 16.8003 128 16.4047 128 15.9968C128 15.5889 128.141 15.1932 128.399 14.8755C128.657 14.5577 129.017 14.3369 129.419 14.2496C129.754 14.1778 130.062 14.0127 130.306 13.7736C130.55 13.5346 130.72 13.2315 130.797 12.8999C130.873 12.5684 130.853 12.2221 130.737 11.9017C130.622 11.5813 130.418 11.3001 130.147 11.091C129.822 10.8397 129.593 10.4858 129.5 10.088C129.406 9.69015 129.452 9.27248 129.631 8.90443C129.81 8.53637 130.111 8.24011 130.483 8.06493C130.855 7.88974 131.277 7.84619 131.678 7.94151C132.008 8.0167 132.353 7.99833 132.673 7.88849C132.993 7.77865 133.275 7.58178 133.487 7.32039C133.7 7.059 133.834 6.74364 133.874 6.41035C133.914 6.07707 133.859 5.73933 133.714 5.43573C133.53 5.06931 133.479 4.65146 133.568 4.25192C133.658 3.85239 133.883 3.49532 134.206 3.24033C134.529 2.98533 134.93 2.84782 135.343 2.85074C135.756 2.85366 136.155 2.99684 136.475 3.25639C136.741 3.47018 137.062 3.60454 137.403 3.64378C137.743 3.68301 138.087 3.62551 138.396 3.47797C138.704 3.33043 138.964 3.09896 139.144 2.8106C139.325 2.52223 139.419 2.18888 139.416 1.84948C139.41 1.43974 139.546 1.04039 139.801 0.718229C140.057 0.396065 140.416 0.170627 140.819 0.0796256C141.222 -0.0113753 141.645 0.0375809 142.016 0.218304C142.387 0.399028 142.684 0.700558 142.858 1.07245C143.004 1.38052 143.235 1.64085 143.525 1.82275C143.815 2.00465 144.152 2.10052 144.495 2.09908C144.838 2.09763 145.174 1.99891 145.463 1.81456C145.751 1.63022 145.981 1.36794 146.124 1.05866Z" fill="#3BC545"/>
<path d="M138.135 15.6817C138.526 15.2912 139.159 15.2912 139.55 15.6817L144.477 20.6089L141.634 23.4513L136.707 18.5241C136.317 18.1336 136.317 17.5005 136.707 17.1099L138.135 15.6817Z" fill="white"/>
<rect x="153.236" y="11.8423" width="13.8894" height="4.01981" rx="1" transform="rotate(135 153.236 11.8423)" fill="white"/>
</svg>
