<svg width="24" height="24" viewBox="0 0 24 24" fill="none" xmlns="http://www.w3.org/2000/svg">
<g clip-path="url(#clip0_517_768)">
<path d="M4 14.9572C4.0719 14.7154 4.11388 14.4585 4.22027 14.2337C4.62963 13.3634 5.31952 12.8622 6.28412 12.7945C6.76663 12.76 7.25329 12.7882 7.75201 12.7882C7.74079 12.8348 7.72791 12.8755 7.72167 12.9175C7.66598 13.2874 7.5679 13.6568 7.56375 14.0276C7.54629 15.6247 7.55419 17.2223 7.55876 18.8194C7.55876 19.0102 7.59658 19.2009 7.61819 19.4066H7.04508C6.55883 19.4066 6.07217 19.3938 5.58633 19.4096C4.7834 19.4353 4.12551 18.8988 4.01829 18.1362C4.01829 18.1266 4.00623 18.1183 4 18.1096V14.9572Z" fill="white"/>
<path d="M12.4861 19.4067H9.13593C8.71784 19.4067 8.54329 19.2317 8.54329 18.8128C8.54329 17.204 8.53955 15.5952 8.54329 13.9869C8.54703 12.7891 9.30051 11.8387 10.46 11.5644C10.6373 11.5245 10.8186 11.5046 11.0003 11.5049C11.9952 11.4995 12.9906 11.4958 13.9855 11.5049C15.1687 11.5149 16.1205 12.2796 16.3844 13.4304C16.4253 13.6248 16.4445 13.8231 16.4417 14.0218C16.4461 15.6246 16.447 17.2277 16.4442 18.8311C16.4442 19.2267 16.2634 19.4071 15.8669 19.4071C14.741 19.4068 13.614 19.4067 12.4861 19.4067Z" fill="white"/>
<path d="M12.4964 5C14.1114 5 15.4385 6.31828 15.4447 7.92664C15.4513 9.55121 14.1347 10.8795 12.5018 10.8965C10.8897 10.9131 9.53529 9.55163 9.54485 7.92373C9.55441 6.31537 10.8814 4.99917 12.4964 5Z" fill="white"/>
<path d="M17.2476 12.77C18.0493 12.8149 18.8684 12.6387 19.6265 13.0373C20.4726 13.4832 20.9485 14.1897 20.9809 15.146C21.0121 16.074 20.9996 17.0037 20.9859 17.9305C20.9742 18.7617 20.3625 19.3805 19.5409 19.3996C18.8343 19.4163 18.1253 19.4038 17.4176 19.4038C17.4018 19.4038 17.386 19.3971 17.398 19.3996C17.4741 17.7256 17.4142 16.0582 17.4342 14.3917C17.4404 13.8705 17.4242 13.3527 17.2484 12.854C17.2446 12.8262 17.2444 12.798 17.2476 12.77V12.77Z" fill="white"/>
<path d="M5.11004 9.95726C5.10131 8.74995 6.09293 7.75459 7.3098 7.75002C7.89106 7.74758 8.44965 7.97538 8.86342 8.38363C9.27719 8.79187 9.51249 9.34734 9.51787 9.92858C9.52163 10.5154 9.29237 11.0798 8.8804 11.4978C8.46844 11.9157 7.90745 12.1531 7.32061 12.1578C6.11288 12.1645 5.11794 11.1779 5.11004 9.95726Z" fill="white"/>
<path d="M19.8796 9.94646C19.8858 11.1558 18.8979 12.1491 17.6798 12.1578C16.4787 12.167 15.4838 11.175 15.4722 9.95519C15.4601 8.74663 16.4509 7.75253 17.6694 7.74878C18.2538 7.74746 18.8149 7.97818 19.2293 8.39025C19.6437 8.80232 19.8776 9.36205 19.8796 9.94646V9.94646Z" fill="white"/>
</g>
<defs>
<clipPath id="clip0_517_768">
<rect width="17" height="14.4104" fill="white" transform="translate(4 5)"/>
</clipPath>
</defs>
</svg>
