<svg width="19" height="20" viewBox="0 0 19 20" fill="none" xmlns="http://www.w3.org/2000/svg">
<path d="M18.7111 17.3972L14.0273 12.6709C15.2316 11.2819 15.8914 9.53428 15.8914 7.71495C15.8914 3.46426 12.3269 0.00592041 7.94571 0.00592041C3.56452 0.00592041 0 3.46426 0 7.71495C0 11.9656 3.56452 15.424 7.94571 15.424C9.59048 15.424 11.1579 14.9427 12.4979 14.029L17.2173 18.7912C17.4146 18.9899 17.6799 19.0995 17.9642 19.0995C18.2333 19.0995 18.4886 19 18.6824 18.819C19.0942 18.4345 19.1074 17.797 18.7111 17.3972ZM7.94571 2.01697C11.1841 2.01697 13.8186 4.57302 13.8186 7.71495C13.8186 10.8569 11.1841 13.4129 7.94571 13.4129C4.70732 13.4129 2.07279 10.8569 2.07279 7.71495C2.07279 4.57302 4.70732 2.01697 7.94571 2.01697Z" fill="#876E72"/>
</svg>
