<svg width="24" height="24" viewBox="0 0 24 24" fill="none" xmlns="http://www.w3.org/2000/svg">
<g id="Group 58">
<g id="home-1">
<path id="Ellipse 2" d="M24 12C24 18.6274 18.6274 24 12 24C5.37258 24 0 18.6274 0 12C0 5.37258 5.37258 0 12 0C18.6274 0 24 5.37258 24 12Z" fill="#E3E4EE"/>
<path id="Vector" d="M4.53231 11.9011L4.53277 11.9005C6.5101 9.15456 9.15104 7.5 12 7.5C14.8484 7.5 17.4889 9.15394 19.466 11.9238L19.466 11.9238L19.4677 11.9261C19.4876 11.9537 19.5 11.9899 19.5 12.0292C19.5 12.0685 19.4876 12.1046 19.4677 12.1322L19.4672 12.1328C17.4922 14.8756 14.852 16.5 12 16.5C9.15085 16.5 6.50976 14.8452 4.53236 12.1073L4.53231 12.1072C4.51239 12.0796 4.5 12.0435 4.5 12.0042C4.5 11.9649 4.51239 11.9287 4.53231 11.9011ZM9.99814 15.4014C10.5215 15.7275 11.1104 15.9195 11.716 15.9643V16.0363L12.251 15.9988C13.1976 15.9323 14.0842 15.5083 14.7458 14.8122C15.4064 14.1172 15.7978 13.1985 15.8515 12.2297C15.9029 11.4213 15.7168 10.6144 15.3159 9.91635C14.9145 9.21739 14.316 8.65912 13.5973 8.31939C12.8783 7.97953 12.0754 7.87567 11.2966 8.02299C10.518 8.17028 9.8041 8.56091 9.24899 9.13908C8.69411 9.71701 8.32395 10.4549 8.18473 11.2533C8.04552 12.0516 8.14321 12.8755 8.46582 13.6158C8.7885 14.3563 9.32193 14.9802 9.99814 15.4014ZM12.9304 12.978C12.7724 13.1465 12.5785 13.2668 12.3687 13.3317L12.0787 13.3511C11.8165 13.3686 11.5539 13.3028 11.3256 13.1599C11.097 13.0168 10.9123 12.8024 10.7995 12.5426C10.6866 12.2826 10.652 11.9915 10.7015 11.7091C10.7509 11.4268 10.8813 11.1697 11.0721 10.9709C11.2627 10.7724 11.5042 10.6416 11.7633 10.5924C12.0221 10.5433 12.2896 10.5772 12.5311 10.691C12.7729 10.8048 12.9791 10.9945 13.1195 11.2379C13.26 11.4815 13.3268 11.7658 13.3092 12.0526L13.3091 12.0526L13.3086 12.0631C13.2946 12.4097 13.1581 12.7352 12.9304 12.978Z" stroke="#303030"/>
</g>
</g>
</svg>
