<svg id="Layer_22" data-name="Layer 22" xmlns="http://www.w3.org/2000/svg" viewBox="0 0 24 24"><defs><style>.cls-1{fill:#fff;}</style></defs><title>W-Admin</title><path class="cls-1" d="M11.63,11.66A4.48,4.48,0,0,0,15.87,7a4.48,4.48,0,0,0-4.24-4.69A4.48,4.48,0,0,0,7.39,7,4.48,4.48,0,0,0,11.63,11.66Z"/><path class="cls-1" d="M21,17.91l-.65-.14A3.14,3.14,0,0,0,20,16.52l.5-.4a.28.28,0,0,0,0-.39L19.94,15a.28.28,0,0,0-.39,0l-.49.39h0a3.13,3.13,0,0,0-1.15-.56v-.62a.28.28,0,0,0-.28-.28h-1a.28.28,0,0,0-.28.28v.62a3.13,3.13,0,0,0-1.17.57l-.49-.39a.28.28,0,0,0-.39,0l-.62.78a.28.28,0,0,0,0,.39l.5.4h0A3.14,3.14,0,0,0,14,17.79l-.65.15a.28.28,0,0,0-.21.33l.22,1a.28.28,0,0,0,.33.21l.67-.15h0a3.16,3.16,0,0,0,.79,1l-.3.63a.28.28,0,0,0,.13.37l.9.43.12,0,.09,0a.28.28,0,0,0,.16-.14l.3-.64a3.19,3.19,0,0,0,1.23,0l.31.63a.28.28,0,0,0,.37.13l.89-.44a.28.28,0,0,0,.13-.37l-.31-.63a3.15,3.15,0,0,0,.78-1l.67.15a.28.28,0,0,0,.33-.21l.22-1a.28.28,0,0,0-.21-.33Zm-2.58-.1a1.22,1.22,0,1,1-1.22-1.22A1.22,1.22,0,0,1,18.37,17.82Z"/><path class="cls-1" d="M12.41,18.44A5.53,5.53,0,0,1,19.06,13a4,4,0,0,0-2.55-2,.6.6,0,0,0-.63.27,5.17,5.17,0,0,1-4.23,2.53,5.16,5.16,0,0,1-4.23-2.53A.6.6,0,0,0,6.78,11c-3.29.72-4.16,5.69-3.9,9.73a.6.6,0,0,0,.59.56h9.76A5.5,5.5,0,0,1,12.41,18.44Z"/></svg>