<svg id="Layer_5" data-name="Layer 5" xmlns="http://www.w3.org/2000/svg" viewBox="0 0 19.72 18.34">
<defs><style>.cls-1{fill:#fff;stroke:#fff;stroke-linecap:round;stroke-linejoin:round;}</style></defs>
<polygon class="cls-1" points="9.89 9.39 9.89 17.84 16.82 15.17 16.82 6.5 9.89 9.39"/><polygon class="cls-1" points="9.89 9.39 9.89 17.84 2.96 15.17 2.96 6.5 9.89 9.39"/><polygon class="cls-1" points="9.89 3.82 12.13 0.5 19.06 3.28 16.82 6.5 9.89 3.82"/><polygon class="cls-1" points="9.89 3.82 7.65 0.5 0.73 3.28 2.96 6.5 9.89 3.82"/><polygon class="cls-1" points="9.89 9.39 7.61 12.42 0.5 9.03 3.06 6.5 9.89 9.39"/><polygon class="cls-1" points="9.89 9.39 12.17 12.42 19.22 9.17 16.82 6.5 9.89 9.39"/></svg>