<svg width="20" height="20" viewBox="0 0 20 20" fill="none" xmlns="http://www.w3.org/2000/svg">
<path d="M17.98 9.32H12.4V1.59C12.4 1.16831 12.2325 0.763883 11.9343 0.4657C11.6361 0.167517 11.2317 0 10.81 0H1.59C1.16831 0 0.763883 0.167517 0.4657 0.4657C0.167517 0.763883 0 1.16831 0 1.59V17.44C0 17.8617 0.167517 18.2661 0.4657 18.5643C0.763883 18.8625 1.16831 19.03 1.59 19.03H10.81C11.1545 19.0339 11.4909 18.9258 11.7686 18.722C12.0463 18.5182 12.2504 18.2298 12.35 17.9H18.01C18.4741 17.9 18.9192 17.7156 19.2474 17.3874C19.5756 17.0592 19.76 16.6141 19.76 16.15V11.02C19.7443 10.5602 19.5493 10.1248 19.2166 9.80709C18.8839 9.48935 18.44 9.31451 17.98 9.32V9.32ZM3.75 17.4H3.7C3.62512 17.4161 3.5478 17.4172 3.47249 17.4033C3.39718 17.3893 3.32538 17.3606 3.26123 17.3188C3.19708 17.2769 3.14185 17.2228 3.09873 17.1595C3.05561 17.0962 3.02545 17.025 3.01 16.95C2.99687 16.807 3.03635 16.6641 3.12103 16.5481C3.20571 16.4322 3.32979 16.351 3.47 16.32C3.54486 16.3055 3.62185 16.3059 3.69656 16.3211C3.77126 16.3364 3.84223 16.3663 3.90539 16.409C3.96855 16.4517 4.02266 16.5065 4.06464 16.5701C4.10661 16.6338 4.13562 16.7051 4.15 16.78C4.16373 16.9134 4.13159 17.0475 4.05887 17.1602C3.98616 17.2729 3.87722 17.3575 3.75 17.4V17.4ZM3.75 14.92H3.7C3.62512 14.9361 3.5478 14.9372 3.47249 14.9233C3.39718 14.9093 3.32538 14.8806 3.26123 14.8388C3.19708 14.7969 3.14185 14.7428 3.09873 14.6795C3.05561 14.6162 3.02545 14.545 3.01 14.47C2.98049 14.3176 3.01222 14.1597 3.09833 14.0306C3.18443 13.9014 3.31797 13.8114 3.47 13.78C3.54486 13.7655 3.62185 13.7659 3.69656 13.7811C3.77126 13.7964 3.84223 13.8263 3.90539 13.869C3.96855 13.9117 4.02266 13.9665 4.06464 14.0301C4.10661 14.0938 4.13562 14.1651 4.15 14.24C4.17902 14.3827 4.15422 14.5311 4.08037 14.6567C4.00652 14.7822 3.88885 14.876 3.75 14.92V14.92ZM3.75 12.43H3.7C3.62512 12.4461 3.5478 12.4472 3.47249 12.4333C3.39718 12.4193 3.32538 12.3906 3.26123 12.3488C3.19708 12.3069 3.14185 12.2528 3.09873 12.1895C3.05561 12.1262 3.02545 12.055 3.01 11.98C2.98895 11.8322 3.02471 11.6819 3.11007 11.5594C3.19543 11.437 3.32405 11.3514 3.47 11.32C3.54486 11.3055 3.62185 11.3059 3.69656 11.3211C3.77126 11.3364 3.84223 11.3663 3.90539 11.409C3.96855 11.4517 4.02266 11.5065 4.06464 11.5701C4.10661 11.6338 4.13562 11.7051 4.15 11.78C4.17113 11.9182 4.14251 12.0593 4.06926 12.1784C3.996 12.2974 3.88286 12.3866 3.75 12.43V12.43ZM5.58 14.04C5.66622 13.9233 5.79241 13.8425 5.93445 13.813C6.0765 13.7835 6.22443 13.8073 6.35 13.88V13.88C6.41172 13.9246 6.46404 13.981 6.50398 14.0459C6.54392 14.1108 6.57068 14.1829 6.58276 14.2581C6.59483 14.3333 6.59197 14.4101 6.57434 14.4843C6.5567 14.5584 6.52465 14.6283 6.48 14.69C6.43535 14.7517 6.37898 14.804 6.31411 14.844C6.24924 14.8839 6.17714 14.9107 6.10192 14.9228C6.02671 14.9348 5.94985 14.932 5.87574 14.9143C5.80163 14.8967 5.73172 14.8646 5.67 14.82C5.56191 14.7237 5.49301 14.591 5.47641 14.4471C5.45982 14.3033 5.49668 14.1584 5.58 14.04V14.04ZM5.58 11.55C5.66622 11.4333 5.79241 11.3525 5.93445 11.323C6.0765 11.2935 6.22443 11.3173 6.35 11.39V11.39C6.42894 11.4849 6.47553 11.6026 6.48298 11.7258C6.49042 11.8491 6.45834 11.9715 6.3914 12.0753C6.32447 12.179 6.22616 12.2587 6.1108 12.3027C5.99544 12.3467 5.86904 12.3528 5.75 12.32C5.63167 12.2352 5.54885 12.1097 5.51747 11.9676C5.48609 11.8254 5.50836 11.6767 5.58 11.55ZM6.18 17.42C6.03291 17.4325 5.8857 17.3974 5.76 17.32C5.68007 17.2672 5.61447 17.1954 5.56907 17.111C5.52366 17.0266 5.49986 16.9323 5.49979 16.8365C5.49973 16.7407 5.52339 16.6464 5.56868 16.562C5.61397 16.4775 5.67947 16.4056 5.75932 16.3527C5.83918 16.2998 5.9309 16.2674 6.0263 16.2586C6.1217 16.2498 6.2178 16.2647 6.30602 16.3021C6.39424 16.3394 6.47183 16.3981 6.53185 16.4728C6.59188 16.5474 6.63247 16.6358 6.65 16.73C6.66449 16.8062 6.66383 16.8844 6.64804 16.9604C6.63226 17.0363 6.60167 17.1083 6.55802 17.1724C6.51437 17.2365 6.45852 17.2914 6.39365 17.3338C6.32879 17.3763 6.25619 17.4056 6.18 17.42V17.42ZM8.73 17.42H8.68C8.60512 17.4361 8.5278 17.4372 8.45249 17.4233C8.37719 17.4093 8.30538 17.3806 8.24123 17.3388C8.17708 17.2969 8.12185 17.2428 8.07873 17.1795C8.03561 17.1162 8.00545 17.045 7.99 16.97C7.97165 16.8238 8.00868 16.676 8.09381 16.5557C8.17893 16.4354 8.306 16.3513 8.45 16.32C8.52486 16.3055 8.60185 16.3059 8.67656 16.3211C8.75126 16.3364 8.82223 16.3663 8.88539 16.409C8.94855 16.4517 9.00266 16.5065 9.04464 16.5701C9.08661 16.6338 9.11562 16.7051 9.13 16.78C9.14373 16.9134 9.11159 17.0475 9.03887 17.1602C8.96616 17.2729 8.85722 17.3575 8.73 17.4V17.42ZM8.73 14.94H8.68C8.60512 14.9561 8.5278 14.9572 8.45249 14.9433C8.37719 14.9293 8.30538 14.9006 8.24123 14.8588C8.17708 14.8169 8.12185 14.7628 8.07873 14.6995C8.03561 14.6362 8.00545 14.565 7.99 14.49C7.96049 14.3376 7.99222 14.1797 8.07833 14.0506C8.16444 13.9214 8.29797 13.8314 8.45 13.8C8.52486 13.7855 8.60185 13.7859 8.67656 13.8011C8.75126 13.8164 8.82223 13.8463 8.88539 13.889C8.94855 13.9317 9.00266 13.9865 9.04464 14.0501C9.08661 14.1138 9.11562 14.1851 9.13 14.26C9.1537 14.3997 9.12632 14.5433 9.05288 14.6645C8.97943 14.7857 8.86482 14.8764 8.73 14.92V14.94ZM8.73 12.45H8.68C8.60512 12.4661 8.5278 12.4672 8.45249 12.4533C8.37719 12.4393 8.30538 12.4106 8.24123 12.3688C8.17708 12.3269 8.12185 12.2728 8.07873 12.2095C8.03561 12.1462 8.00545 12.075 7.99 12C7.96337 11.8491 7.99648 11.6938 8.08233 11.5669C8.16818 11.44 8.30004 11.3514 8.45 11.32C8.52486 11.3055 8.60185 11.3059 8.67656 11.3211C8.75126 11.3364 8.82223 11.3663 8.88539 11.409C8.94855 11.4517 9.00266 11.5065 9.04464 11.5701C9.08661 11.6338 9.11562 11.7051 9.13 11.78C9.15112 11.9182 9.12251 12.0593 9.04926 12.1784C8.976 12.2974 8.86286 12.3866 8.73 12.43V12.45ZM10.73 8.52C10.73 8.78522 10.6246 9.03957 10.4371 9.22711C10.2496 9.41464 9.99522 9.52 9.73 9.52H2.35C2.08478 9.52 1.83043 9.41464 1.64289 9.22711C1.45536 9.03957 1.35 8.78522 1.35 8.52V2.57C1.35 2.30478 1.45536 2.05043 1.64289 1.86289C1.83043 1.67536 2.08478 1.57 2.35 1.57H9.77C10.0352 1.57 10.2896 1.67536 10.4771 1.86289C10.6646 2.05043 10.77 2.30478 10.77 2.57L10.73 8.52ZM18.54 16.18C18.54 16.3338 18.4789 16.4814 18.3701 16.5901C18.2614 16.6989 18.1138 16.76 17.96 16.76H12.4V12.93H18.56L18.54 16.18ZM18.54 11.79H12.4V10.48H17.98C18.1338 10.48 18.2814 10.5411 18.3901 10.6499C18.4989 10.7586 18.56 10.9062 18.56 11.06L18.54 11.79Z" fill="white"/>
</svg>
