<svg id="Layer_21" data-name="Layer 21" xmlns="http://www.w3.org/2000/svg" viewBox="0 0 24 24"><defs><style>.cls-1{fill:#fff;}</style></defs><title>W-procurement</title><path class="cls-1" d="M13.92,10.22a12.41,12.41,0,0,1-3.1-1.43.71.71,0,0,1-.07-.56,1,1,0,0,1,.64-.79,1.82,1.82,0,0,1,1.86.2,1.81,1.81,0,0,0,2.57-2.53,4.77,4.77,0,0,0-2.1-1.21v-.1a1.81,1.81,0,1,0-3.61,0v.26c-3.25,1.18-4,5.62-1.52,7.57a14.94,14.94,0,0,0,4.13,2,1.2,1.2,0,0,1,.9,1.44,1.71,1.71,0,0,1-1.71,1.46,3.2,3.2,0,0,1-2.37-.61,1.81,1.81,0,1,0-2,3A6.55,6.55,0,0,0,10.11,20v.17a1.81,1.81,0,1,0,3.61,0v-.38c4.37-1.58,5-7.91.2-9.59Z"/></svg>