<svg id="Layer_1" data-name="Layer 1" xmlns="http://www.w3.org/2000/svg" viewBox="0 0 212.59 261.78"><defs><style>.cls-1{fill:#160c0d;}.cls-2{fill:#0d0f17;}.cls-3{fill:#0c0e14;}.cls-4{fill:#c50311;}.cls-5{fill:#c60311;}.cls-6{fill:#d00110;}.cls-7{fill:#ac0712;}.cls-8{fill:#a30716;}.cls-9{fill:#7e0a12;}.cls-10{fill:#023b86;}.cls-11{fill:#013b85;}.cls-12{fill:#023a85;}</style></defs><path class="cls-1" d="M142.82,192.71c-4,.6-5.17-.4-5.16-4.48q0-19.56,0-39.12c0-3,1.32-4.28,3.93-4a2.89,2.89,0,0,1,2.68,2.29c.14.5-.16,1.62.79,1.35s2.39-.37,2.43-1.83c.08-2.76,0-5.53,0-8.29,0-1.45-1.24-1.6-2.13-1.78-1.12-.22-.76.93-.88,1.51-.53,2.45-1.66,3.47-3.8,3.33s-3-1.41-3.06-4c0-3.55,0-7.11,0-10.67,0-4,.43-4.6,4.63-5.26a23.15,23.15,0,0,1-5-11.17c-1.1-8.33-.36-16.34,5.26-23.09,8.67-10.43,24.25-9.08,31.9,2.67,4.95,7.6,5.59,15.76,3,24.31-.41,1.36-.86,2.42.59,3.71,1.26,1.12,1.2,3,.53,4.68s-2,1.81-3.53,1.8c-3.4,0-6.8,0-10.19,0-2,0-3.38-.69-3.72-2.8-.41-2.54.39-4.05,2.66-4.81a9.45,9.45,0,0,0,6.85-8,9.25,9.25,0,0,0-6.95-10.87,21,21,0,0,0-13.27.57c-5,1.84-6.94,8.31-4.24,13.89a18.93,18.93,0,0,0,4.05,5.51,3.36,3.36,0,0,1,.94,3.88c-.6,1.54-1.92,2-3.48,1.9a4.24,4.24,0,0,0-1.18,0c-.7.16-1.75-.6-2.05.43a2.34,2.34,0,0,0,1.09,2.47,23.14,23.14,0,0,0,2.82,1.73q13.88,7.21,27.77,14.37c1.62.83,2.68,1.88,2.71,3.78s-1.2,2.89-2.8,3.69c-9.86,5-19.69,10-29.53,15.07-1.17.59-2.13,1.27-2.19,2.8-.13,3.1.05,3.36,3.16,3.35,7.11,0,14.22-.08,21.33,0,1.68,0,2.58-.17,2.56-2.24,0-2.26,1.37-3.31,3.51-3.25a3,3,0,0,1,3.22,3.3c-.12,8.61.49,17.23-.26,25.83-.32,3.66-1.19,7.17-3.76,10-5.11,5.64-13.22,5.2-17.43-1.1-1-1.57-1.63-1.61-2.94-.44-2.48,2.2-5.09,4.26-7.62,6.4a5.72,5.72,0,0,0-1.46,1.53c-1.05,1.95-.11,3.61,2,3.61,7.58,0,15.16-.07,22.75,0,1.38,0,1.88-.29,2-1.79.15-2.85,1.36-3.9,3.78-3.76,2,.11,3,1.39,3,4q0,15.77,0,31.54c0,3.29-.92,4.15-4.27,4.17-2.61,0-5.21-.05-7.82,0-2.06,0-3.61-.54-3.94-2.82-.41-2.76.4-4,2.95-4.77.43-.12.85-.32,2-.75-1.2-.14-1.74-.25-2.28-.25q-7.11,0-14.22,0a7.38,7.38,0,0,1-3-.42c-1.29-1.34-1.34-3.05-1.39-4.76a4.58,4.58,0,0,1,3.71-2.47,3.92,3.92,0,0,0,3.41-1.88c-1.72,0-3.21,0-4.7,0-3.5.1-4,.92-2.65,4.39,0,1.81-.4,3.72,1.12,5.21a7.8,7.8,0,0,0,4.4,3.7c3.42,1.45,4.11,3.94,1.93,7.09a1.5,1.5,0,0,0-.15.58h-5.69c-1.24-1.59-3.14-1-4.72-1.34-5-1-5.15-1-5.15-6,0-14,.13-28.09-.09-42.12-.05-3.58.93-6.08,3.9-7.9a10.9,10.9,0,0,0,1.41-1.23l7.43-5.81a6.21,6.21,0,0,0-2.66-.53c-2-.13-3.67,0-3.35,2.79C144.46,191.27,143.53,192,142.82,192.71Zm1.86-40-.48.13-.89,0-.52-.09-.41-.13c-.18-1-.38-2-.54-3-.08-.46,0-1-.66-1.07s-.72.51-.72,1q0,8.4,0,16.81a1,1,0,0,0,.36.78c.42.29.7-.12,1-.39a2,2,0,0,0,.52-1.75,1.35,1.35,0,0,0,.14-.35c.78-.29,1.63-.49,1.82-1.5,1-.54,1.9-1.11,2.88-1.61l27-13.61c.54-.28,1.29-.44,1.41-1.14.16-.87-.75-.93-1.23-1.18-7.16-3.74-14.36-7.4-21.51-11.16-2.92-1.54-6-2.8-8.7-4.73-1.46-1-1.63-3-3.51-4.21,0,4.45-.26,8.51.31,12.56,1.74-5.63,2.12-5.79,7.79-3.38l.23.07a4.88,4.88,0,0,1,1.12,3.62c-.07,3.84,0,7.68,0,11.52l0,.05a7.18,7.18,0,0,0-3.73,1.88l-.54.23c-.26-.16-.37,0-.41.22l-.06.06-.52.34Zm-2.39-36.94h0c.35,1.83,1.74,3,2.74,4.46a1.86,1.86,0,0,0,1.89.66c.83-.07,1.47-.29.69-1.28-1.42-1.8-2.83-3.61-4.25-5.42l-.15-.82a3.18,3.18,0,0,0-.83-2.46l-.07-.87c-.31-3.08.48-6,1-9,2.43-4,6.28-5.59,10.67-6.44,9.42-1.82,16.15,1.47,19.66,9.76-.13,2.5.41,5-.44,7.49a13.09,13.09,0,0,1-7.87,8.15c-.47.18-1.23.29-1,1.05s.93.46,1.44.46c2.92,0,5.83,0,8.75,0,.6,0,1.27.08,1.59-.66-2.85-2.26-2.72-2.23-1.67-6,.46-1.69,1.51-3.33,1.1-5.23l.05-1.31c.53-1.66,1.19-3.31,0-5a15.27,15.27,0,0,0-2.07-8.75C170.63,88.93,166.28,85,160,84c-10.82-1.72-18.89,6.63-19.56,17-1.5,2.89-1.11,5.78,0,8.67a.64.64,0,0,0,0,.41c.08,1.34-.38,2.8.94,3.84a.74.74,0,0,0,.08.41C141.41,115,141.45,115.58,142.29,115.76Zm-1.72,105.66c0,8.17-.08,16.35-.1,24.52,0,.66-.2,1.52.95,1.48l2.65.27a3.65,3.65,0,0,0,2,.48,17.69,17.69,0,0,0,5.8.62,5.57,5.57,0,0,0-2.52-1.63,11.24,11.24,0,0,1-5.4-5.54c-1.74-3.74-1.55-7.59-1.57-11.48l1.83-2,12.75,0,.4.46c.13,5.48-3.91,7.1-8.24,8.61,5.84.38,11.46.38,17.09.37.43,0,.79-.19.68-.7s-.68-.56-1.12-.64c-3.13-.56-5.6-1.94-6.48-5.27l.09-2.86,13.78,0c.06.47.15.94.18,1.41a23.58,23.58,0,0,1-1.64,11.31c-1.07,2.43-3.41,3.34-5.79,4.06-.37.11-.77.33-.66.83s.59.48,1,.48c2.45,0,4.9,0,7.35,0,1.41,0,1.93-.5,1.92-2-.06-9.8,0-19.6,0-29.4,0-.57.23-1.3-.82-1.58.14,1.85-.71,3.34-1.53,4.84a.64.64,0,0,0-.42.12c-.66,0-1.35-.17-1.91.37l-3.32,0H151.34l-4.75,0c-1.73-.24-3.51-.36-4.76-1.85-.24-1.2-.49-2.4-.73-3.59a6.8,6.8,0,0,0-.54,4.08C140.57,218.67,140.57,220,140.57,221.42Zm0-9.76.56.18a10.18,10.18,0,0,1,2.52-3.64q5.91-4.83,11.81-9.69c1.31-1.08,1.73-.63,2.2.87a8.86,8.86,0,0,0,4.1,5.5c5.59,2.93,11.48-.15,12.82-7.23,1.57-8.29.73-16.69.88-25,0-.68.28-1.53-.62-2.05-.66,3.35-1.59,4.31-5.15,4.35-8.13.11-16.27.06-24.4,0-2.29,0-3.57-1.39-3.86-3.67-.06-.42.16-1-.62-1.19v19c1.51-4.52,1.74-4.72,6.6-4.85,2.29-.07,4.58,0,6.87,0,.82,0,1.89-.19,2.19.9a2.42,2.42,0,0,1-1.13,2.8c-4.65,3.6-9.2,7.35-13.79,11-.49.39-1,.7-1,1.47C140.54,204.14,140.53,207.9,140.53,211.66ZM163,231.53c1.93,2.46,5.42,1,7.21,3.38-.14-1.3,1.25-3.16-.79-3.52A16,16,0,0,0,163,231.53Z"/><path class="cls-2" d="M7.67,224.82c1.73-3.89,2.5-8,3.49-12.14a529,529,0,0,1,16.26-53C36.3,134.78,46.29,110.29,56.84,86a3.13,3.13,0,0,0,.37-2.82C55.05,85.81,53,88.27,51,90.7c-4.24,5-8.54,10-13.87,13.87a15.44,15.44,0,0,1-3.28,1.87c-4.35,1.79-8.54.78-11.1-2.57a9.68,9.68,0,0,1-.08-12.29c2.13-2.77,5-4.8,7.44-7.28C42.45,71.67,53,57.58,63.52,43.43Q73.39,30.1,83.07,16.64A25,25,0,0,1,91.6,9.45h5.69c1.74,1,3.75,1.4,5.27,2.85,3.76,3.58,4.7,9.19,2.29,14.94-1.8,4.29-3.78,8.51-5.54,12.82C85.36,74.29,72.7,109,60.81,144c-10.32,30.35-20.06,60.89-29,91.68A22.2,22.2,0,0,1,30.47,239c-3.38,7-10.19,8.56-16.29,3.79a17.49,17.49,0,0,1-5.5-7c-.23-.54-.17-1.32-1-1.45Zm81.09-166,.38-.45.07-.55a3.31,3.31,0,0,0,1-2.79h0c.88-.11.91-.72.83-1.4a13,13,0,0,1,.78-2.44C93,48.61,93.91,45.94,95,43.33c1.64-4,3.29-8,5-12.06a74.72,74.72,0,0,0,3.18-7.53,8.54,8.54,0,0,0-2.11-9,8.41,8.41,0,0,0-8-2.23c-4.48.85-6.75,4.48-9.17,7.68-5.05,6.68-9.74,13.65-14.72,20.39-4.49,6.07-8.94,12.16-13.69,18.06-3.13,3.88-6.33,7.73-9.33,11.71a189.75,189.75,0,0,1-12.9,14.83c-2.28,2.46-4.94,4.58-7.36,6.92a7.27,7.27,0,0,0-.9,10.07c1.66,2.33,5.65,3,8.85,1.14,3.84-2.21,6.92-5.36,9.93-8.61A264.56,264.56,0,0,0,61.25,73.06c1.77-2.38,3.62-4.7,5.45-7,.32-.41.68-1.08,1.29-.81s.3,1.12.28,1.7c0,.28-.26.55-.39.83-1.67,3.71-3.41,7.38-5,11.11C58.82,88.35,55,97.92,50.77,107.35c-3.45,7.77-6.33,15.77-9.71,23.57-2.41,5.55-4.21,11.37-6.48,17-1.4,3.47-2.87,7-3.93,10.52s-2.51,7-3.6,10.6c-1.28,4.18-2.88,8.25-4.19,12.42C21,187.29,19.31,193.13,17.61,199c-1.16,4-2.45,7.92-3.23,12-.93,4.77-2.09,9.5-3.23,14.21-1.18,4.9-.86,9.16,2.29,13,2.34,2.89,5.41,4.77,9.27,4.13,3.3-.55,4.76-3.25,6-6.13,1.88-4.5,2.67-9.31,4.21-13.91,1.75-5.25,3.52-10.51,4.95-15.86,1.23-4.59,2.72-9.09,4.13-13.62,1.62-5.23,3.37-10.43,4.91-15.69,1.82-6.19,4.19-12.23,6.23-18.36,2.15-6.44,4.07-12.95,6.34-19.35,2-5.63,3.83-11.32,6-16.91,2-5.29,3.63-10.74,5.65-16s3.88-10.54,5.83-15.82c2.37-6.42,4.78-12.83,7.14-19.26,1.42-3.88,3.21-7.61,4.27-11.61l.47-1Z"/><path class="cls-3" d="M204.92,28a4.94,4.94,0,0,1-4,1.49c-2.76-.11-5.54.1-8.29-.08-2-.13-2.68.44-2.66,2.58.12,10.51.06,21,.06,31.54,0,4.42-.43,4.86-4.88,4.86-3.8,0-7.59,0-11.38,0-2.71,0-3.49-.81-3.5-3.58,0-10.75,0-21.5,0-32.25,0-3.59.41-3-3.2-3.09-2.45,0-4.9,0-7.35,0a4.73,4.73,0,0,1-1.41,0c-1.89-.58-3.76-1.5-4.82,1.3-.25.64-1.42.52-2.21.58l-5.62.37c.29,1,1,1,1.51,1.32,6.71,3.9,9.67,9.79,9.05,17.43-.64,7.83-4.45,13.75-11.75,16.7-8.24,3.33-16.74,3-25-.14-7.91-3-11.25-12.76-11.23-18.65,0-1.85,1.3-2.56,3-2.67,3.37-.21,6.74-.45,10.39-.69a3.56,3.56,0,0,0-1.91-1.45q-11-5.9-9.58-17.9c.85-7,6.06-12.67,13.59-14.37,7.38-1.67,14.79-1.8,21.77,1.65,5.21,2.58,7.9,7.08,8.72,12.76.05.36-.06.8.5.95.89-.24.53-1,.54-1.54,0-3.48,0-7,0-10.44,0-2.71.84-3.5,3.58-3.5,14,0,28,0,41.95,0a6.89,6.89,0,0,1,4.13,1.24Zm-18,.45,0,0c0-1.69,1.19-1.83,2.44-1.83,3.4,0,6.8-.09,10.19,0,1.9.07,2.78-.44,2.58-2.49-.15-1.65,0-3.32,0-5,0-5.31,0-5.32-5.38-5.32h-36c-1.89,0-2.94.68-2.82,2.83.15,2.6.08,5.22,0,7.83,0,1.5.57,2.13,2.1,2.11,3.4-.07,6.8.08,10.19-.06,2-.08,2.55.54,2.54,2.53-.09,11.38,0,22.76-.08,34.14,0,1.73.42,2.4,2.24,2.32,3.08-.13,6.16,0,9.24,0,3.39,0,3.79-.56,2.81-3.94l0-28.71A5,5,0,0,0,186.93,28.4ZM132.41,13.23a24.26,24.26,0,0,0-9.29,1c-5.47,1.87-9.36,5.5-10.12,11.29-1.1,8.35,1.59,12.55,9.52,16.08,4.2,1.87,8.8,2.86,13.17,4.38a5.16,5.16,0,0,1,3.84,4.56c.43,4.08-4.06,6.44-7.93,5.72-3.37-.62-5.83-2.44-6.51-6.15-.21-1.16-.2-2.83-2.32-2.6-3.36.35-6.74.6-10.12.78-1.2.07-1.63.45-1.67,1.69a11.51,11.51,0,0,0,1,4.09c1.42,4.4,3.82,8,8.2,10,4.74,2.2,9.75,2.53,14.81,2.19,7.85-.51,14.2-3.44,17.49-11.27a15.67,15.67,0,0,0-4.17-17.8c-3.22-2.7-7.11-3.93-11.05-5-2.8-.79-5.65-1.43-8.42-2.29A3.44,3.44,0,0,1,126.14,26c.18-2.08,1.63-2.79,3.27-3.22a6.69,6.69,0,0,1,8.29,3.95A3.2,3.2,0,0,0,141.47,29a68.91,68.91,0,0,1,8.25-.47c1.9,0,2.46-.8,2.06-2.41-.85-3.46-2.19-6.69-5.05-9C142.56,13.71,137.65,13,132.41,13.23Zm-5.08,33.26c-.13,5.16,2.92,8,7.19,6.88,1.19-.32,2.33-.88,2.41-2.27s-.87-1.94-2-2.4A37.9,37.9,0,0,0,127.33,46.49Zm8.08-17.78c-.6-2.81-4-4.4-6.15-3-.92.61-.65,1.16.22,1.5A28.48,28.48,0,0,0,135.41,28.71Z"/><path class="cls-4" d="M140.53,211.66c0-3.76,0-7.52,0-11.29,0-.77.51-1.08,1-1.47,4.59-3.69,9.14-7.44,13.79-11a2.42,2.42,0,0,0,1.13-2.8c-.3-1.09-1.37-.89-2.19-.9-2.29,0-4.58-.07-6.87,0-4.86.13-5.09.33-6.6,4.85V170c.78.21.56.77.62,1.19.29,2.28,1.57,3.65,3.86,3.67,8.13.07,16.27.12,24.4,0,3.56,0,4.49-1,5.15-4.35.9.52.63,1.37.62,2.05-.15,8.35.69,16.75-.88,25-1.34,7.08-7.23,10.16-12.82,7.23a8.86,8.86,0,0,1-4.1-5.5c-.47-1.5-.89-1.95-2.2-.87q-5.89,4.86-11.81,9.69a10.18,10.18,0,0,0-2.52,3.64Zm33-23.7c.07-4.68,0-3.76-3.78-3.8-1.9,0-3.8-.08-5.69,0s-4.59-.89-5.66.49c-.9,1.16-.11,3.67,0,5.58a5.86,5.86,0,0,0,3.79,5.47C166.9,197.54,173.76,196.17,173.56,188Z"/><path class="cls-5" d="M148.89,134.77l-.23-.07c-5.67-2.41-6-2.25-7.79,3.38-.57-4.05-.31-8.11-.31-12.56,1.88,1.25,2.05,3.18,3.51,4.21,2.73,1.93,5.78,3.19,8.7,4.73,7.15,3.76,14.35,7.42,21.51,11.16.48.25,1.39.31,1.23,1.18-.12.7-.87.86-1.41,1.14l-27,13.61c-1,.5-1.92,1.07-2.88,1.61-.85.2-1.85.23-1.82,1.5a1.35,1.35,0,0,1-.14.35c-1.32-.23-.88-1.28-.93-2-.2-3.19.35-6.4-.31-9.58-.31-1.53.92-.43,1.34-.73l.41.13a.29.29,0,0,0,.52.09l.89,0c.23.19.38.14.48-.13h0l.52-.34.06-.06a.91.91,0,0,0,.41-.22l.54-.23c1.5-.13,2.9-.45,3.73-1.88l0-.05c.84-.13.87-.75.87-1.41,0-3.91,0-7.83,0-11.74C150.91,135.32,150.17,134.81,148.89,134.77ZM156.55,147c1.52-1.29,3.47-1.8,5.12-2.84.62-.38,1.79-.27,1.68-1.32-.09-.83-1-1.12-1.72-1.47l-6.92-3.44c-.08-.39-.18-.76-.72-.64l-1.13-.15c-1.19.25-1,1.2-1,2,0,1.8-.1,3.61,0,5.4.09,1.35-.75,3.22.61,3.94S155.27,147.82,156.55,147Z"/><path class="cls-5" d="M140.42,110a.67.67,0,0,1,0-.42c0-2.88,0-5.77,0-8.66.67-10.33,8.74-18.68,19.56-17,6.33,1,10.68,5,13.57,10.53a15.27,15.27,0,0,1,2.07,8.75c0,1.66,0,3.31,0,5l-.05,1.31c-1.56-.35-.73-1.62-1-2.48s.68-2.28-.95-2.74C170.11,96,163.38,92.74,154,94.56c-4.39.85-8.24,2.42-10.67,6.44a2.06,2.06,0,0,0-1,1.22c-1.11,2.52-1,5.16-.93,7.79h-1Z"/><path class="cls-6" d="M172.69,218.27a.64.64,0,0,1,.42-.12c.92,0,1.67.27,1.42,1.34-.44,1.81.12,3.58.08,5.38,0,1.48-.57,1.94-2,1.87-1.72-.08-3.44,0-5.16,0a26.4,26.4,0,0,0,5.86.47c.4,0,1.09-.14.88.63-.05.18-.68.21-1,.3l-13.78,0c-.82-.84-1.61.34-2.42,0l-12.75,0c-1.17-.77-1.59,0-1.92.94h-.9c0-3.48,0-7,0-10.43,1.73.35,3.47,1,5.2,0l4.75,0c.16.26.32.26.47,0H167c.15.26.31.26.47,0l3.32,0C171.57,219.31,172.26,219.46,172.69,218.27Z"/><path class="cls-7" d="M173.18,228.12c.36-.09,1-.12,1-.3.21-.77-.48-.62-.88-.63a26.4,26.4,0,0,1-5.86-.47c1.72,0,3.44-.06,5.16,0,1.4.07,1.94-.39,2-1.87,0-1.8-.52-3.57-.08-5.38.25-1.07-.5-1.36-1.42-1.34.82-1.5,1.67-3,1.53-4.84,1.05.28.81,1,.82,1.58,0,9.8,0,19.6,0,29.4,0,1.46-.51,2-1.92,2-2.45-.06-4.9,0-7.35,0-.37,0-.84,0-1-.48s.29-.72.66-.83c2.38-.72,4.72-1.63,5.79-4.06a23.58,23.58,0,0,0,1.64-11.31C173.33,229.06,173.24,228.59,173.18,228.12Z"/><path class="cls-4" d="M159.31,231c.88,3.33,3.35,4.71,6.48,5.27.44.08,1,0,1.12.64s-.25.7-.68.7c-5.63,0-11.25,0-17.09-.37,4.33-1.51,8.37-3.13,8.25-8.61.82,0,1.07.47,1.06,1.19S158.62,230.9,159.31,231Z"/><path class="cls-7" d="M173.62,104.32c1.63.46.7,1.81.95,2.74s-.6,2.13,1,2.48c.41,1.9-.64,3.54-1.1,5.23-1.05,3.8-1.18,3.77,1.67,6-.32.74-1,.66-1.59.66-2.92,0-5.83,0-8.75,0-.51,0-1.22.22-1.44-.46s.52-.87,1-1.05a13.09,13.09,0,0,0,7.87-8.15C174,109.36,173.49,106.82,173.62,104.32Z"/><path class="cls-4" d="M141.41,229.08h.9l.09,1.06c0,3.89-.17,7.74,1.57,11.48a11.24,11.24,0,0,0,5.4,5.54,5.57,5.57,0,0,1,2.52,1.63,17.69,17.69,0,0,1-5.8-.62c-.51-.87-1.3-.51-2-.48l-2.65-.27Q141.42,238.26,141.41,229.08Z"/><path class="cls-8" d="M141.41,229.08q0,9.16,0,18.34c-1.15,0-.95-.82-.95-1.48,0-8.17.07-16.35.1-24.52a5.56,5.56,0,0,0,0-4.13,6.8,6.8,0,0,1,.54-4.08c.24,1.19.49,2.39.73,3.59a3,3,0,0,0-.44,1.85C141.39,222.13,141.4,225.6,141.41,229.08Z"/><path class="cls-9" d="M142.38,152.65c-.42.3-1.65-.8-1.34.73.66,3.18.11,6.39.31,9.58.05.77-.39,1.82.93,2a2,2,0,0,1-.52,1.75c-.27.27-.55.68-1,.39a1,1,0,0,1-.36-.78q0-8.42,0-16.81c0-.47.06-1,.72-1s.58.61.66,1.07C142,150.66,142.2,151.65,142.38,152.65Z"/><path class="cls-8" d="M143.35,114.18c1.42,1.81,2.83,3.62,4.25,5.42.78,1,.14,1.21-.69,1.28a1.86,1.86,0,0,1-1.89-.66c-1-1.43-2.39-2.63-2.74-4.46C143.32,115.69,143.26,114.89,143.35,114.18Z"/><path class="cls-9" d="M148.89,134.77c1.28,0,2,.55,2,2-.05,3.91,0,7.83,0,11.74,0,.66,0,1.28-.87,1.41,0-3.84-.07-7.68,0-11.52A4.88,4.88,0,0,0,148.89,134.77Z"/><path class="cls-8" d="M141.39,110c0-2.63-.18-5.27.93-7.79a2.06,2.06,0,0,1,1-1.22c-.51,3-1.3,6-1,9Z"/><path class="cls-8" d="M140.39,100.94c0,2.89,0,5.78,0,8.66C139.28,106.72,138.89,103.83,140.39,100.94Z"/><path class="cls-5" d="M141.39,110l.91,0c0,.29,0,.58.07.87.1.88-.59,2,.83,2.46l.15.82c-.09.71,0,1.51-1.07,1.58h0c.07-.69.1-1.36-.85-1.48a.74.74,0,0,1-.08-.41c0-1.28,0-2.56,0-3.84Z"/><path class="cls-7" d="M141.39,218.65a3,3,0,0,1,.44-1.85c1.25,1.49,3,1.61,4.76,1.85C144.86,219.65,143.12,219,141.39,218.65Z"/><path class="cls-8" d="M159.31,231c-.69-.1-.86-.57-.86-1.18s-.24-1.21-1.06-1.19l-.41-.46c.81.31,1.6-.87,2.42,0Z"/><path class="cls-8" d="M141.38,110c0,1.28,0,2.56,0,3.84-1.32-1-.86-2.5-.94-3.84Z"/><path class="cls-9" d="M150,150c-.83,1.43-2.23,1.75-3.73,1.88A7.18,7.18,0,0,1,150,150Z"/><path class="cls-7" d="M175.58,108.23c0-1.66,0-3.31,0-5C176.77,104.92,176.11,106.57,175.58,108.23Z"/><path class="cls-8" d="M142.4,230.14l-.09-1.06c.33-1,.75-1.71,1.92-.94Z"/><path class="cls-7" d="M140.56,217.29a5.56,5.56,0,0,1,0,4.13C140.57,220,140.57,218.67,140.56,217.29Z"/><path class="cls-7" d="M172.69,218.27c-.43,1.19-1.12,1-1.91.37C171.34,218.1,172,218.24,172.69,218.27Z"/><path class="cls-8" d="M143.2,113.36c-1.42-.44-.73-1.58-.83-2.46A3.18,3.18,0,0,1,143.2,113.36Z"/><path class="cls-9" d="M142.42,164.66c0-1.27,1-1.3,1.82-1.5C144.05,164.17,143.2,164.37,142.42,164.66Z"/><path class="cls-8" d="M141.44,114.27c.95.12.92.79.85,1.48C141.45,115.58,141.41,115,141.44,114.27Z"/><path class="cls-8" d="M144.07,247.69c.72,0,1.51-.39,2,.48A3.65,3.65,0,0,1,144.07,247.69Z"/><path class="cls-9" d="M145.69,152.07a.91.91,0,0,1-.41.22C145.32,152,145.43,151.91,145.69,152.07Z"/><path class="cls-9" d="M145.22,152.35l-.52.34Z"/><path class="cls-9" d="M143.31,152.87a.29.29,0,0,1-.52-.09Z"/><path class="cls-7" d="M151.81,218.67c-.15.27-.31.27-.47,0Z"/><path class="cls-7" d="M167.46,218.67c-.16.26-.32.26-.47,0Z"/><path class="cls-9" d="M144.68,152.7c-.1.27-.25.32-.48.13Z"/><path class="cls-10" d="M88.29,59.77c-1.06,4-2.85,7.73-4.27,11.61-2.36,6.43-4.77,12.84-7.14,19.26-1.95,5.28-3.83,10.57-5.83,15.82s-3.64,10.75-5.65,16c-2.13,5.59-4,11.28-6,16.91-2.27,6.4-4.19,12.91-6.34,19.35-2,6.13-4.41,12.17-6.23,18.36-1.54,5.26-3.29,10.46-4.91,15.69-1.41,4.53-2.9,9-4.13,13.62-1.43,5.35-3.2,10.61-4.95,15.86-1.54,4.6-2.33,9.41-4.21,13.91-1.2,2.88-2.66,5.58-6,6.13-3.86.64-6.93-1.24-9.27-4.13-3.15-3.87-3.47-8.13-2.29-13,1.14-4.71,2.3-9.44,3.23-14.21.78-4.05,2.07-8,3.23-12,1.7-5.86,3.42-11.7,5.25-17.52,1.31-4.17,2.91-8.24,4.19-12.42,1.09-3.57,2.53-7,3.6-10.6s2.53-7,3.93-10.52c2.27-5.64,4.07-11.46,6.48-17,3.38-7.8,6.26-15.8,9.71-23.57,4.18-9.43,8-19,12.11-28.49,1.59-3.73,3.33-7.4,5-11.11.13-.28.38-.55.39-.83,0-.58.46-1.36-.28-1.7s-1,.4-1.29.81c-1.83,2.33-3.68,4.65-5.45,7A264.56,264.56,0,0,1,43.67,94.74c-3,3.25-6.09,6.4-9.93,8.61-3.2,1.84-7.19,1.19-8.85-1.14a7.27,7.27,0,0,1,.9-10.07c2.42-2.34,5.08-4.46,7.36-6.92a189.75,189.75,0,0,0,12.9-14.83c3-4,6.2-7.83,9.33-11.71,4.75-5.9,9.2-12,13.69-18.06,5-6.74,9.67-13.71,14.72-20.39C86.21,17,88.48,13.4,93,12.55a8.41,8.41,0,0,1,8,2.23,8.54,8.54,0,0,1,2.11,9,74.72,74.72,0,0,1-3.18,7.53c-1.67,4-3.32,8-5,12.06-1.06,2.61-2,5.28-3.18,7.83A13,13,0,0,0,91,53.6a1.42,1.42,0,0,0-.83,1.4h0c-1.73.44-.64,1.86-1,2.79,0,.18,0,.36-.07.54l-.38.46h0A1,1,0,0,0,88.29,59.77Z"/><path class="cls-11" d="M89.21,57.79c.34-.93-.75-2.35,1-2.79A3.31,3.31,0,0,1,89.21,57.79Z"/><path class="cls-11" d="M90.18,55A1.42,1.42,0,0,1,91,53.6C91.09,54.28,91.06,54.89,90.18,55Z"/><path class="cls-11" d="M88.29,59.77a1,1,0,0,1,.47-1C88.61,59.12,88.45,59.44,88.29,59.77Z"/><path class="cls-11" d="M88.76,58.79l.38-.46Z"/><path class="cls-12" d="M132.41,13.23c5.24-.28,10.15.48,14.32,3.86,2.86,2.32,4.2,5.55,5.05,9,.4,1.61-.16,2.43-2.06,2.41a68.91,68.91,0,0,0-8.25.47,3.2,3.2,0,0,1-3.77-2.21,6.69,6.69,0,0,0-8.29-3.95c-1.64.43-3.09,1.14-3.27,3.22a3.44,3.44,0,0,0,2.72,3.88c2.77.86,5.62,1.5,8.42,2.29,3.94,1.11,7.83,2.34,11.05,5a15.67,15.67,0,0,1,4.17,17.8c-3.29,7.83-9.64,10.76-17.49,11.27-5.06.34-10.07,0-14.81-2.19-4.38-2-6.78-5.64-8.2-10A11.51,11.51,0,0,1,111,50c0-1.24.47-1.62,1.67-1.69,3.38-.18,6.76-.43,10.12-.78,2.12-.23,2.11,1.44,2.32,2.6.68,3.71,3.14,5.53,6.51,6.15,3.87.72,8.36-1.64,7.93-5.72A5.16,5.16,0,0,0,135.69,46c-4.37-1.52-9-2.51-13.17-4.38-7.93-3.53-10.62-7.73-9.52-16.08.76-5.79,4.65-9.42,10.12-11.29A24.26,24.26,0,0,1,132.41,13.23Z"/><path class="cls-11" d="M187,61.51c1,3.38.58,3.94-2.81,3.94-3.08,0-6.16-.09-9.24,0-1.82.08-2.25-.59-2.24-2.32.07-11.38,0-22.76.08-34.14,0-2-.58-2.61-2.54-2.53-3.39.14-6.79,0-10.19.06-1.53,0-2.13-.61-2.1-2.11.06-2.61.13-5.23,0-7.83-.12-2.15.93-2.83,2.82-2.83h36c5.38,0,5.38,0,5.38,5.32,0,1.66-.12,3.33,0,5,.2,2.05-.68,2.56-2.58,2.49-3.39-.13-6.79,0-10.19,0-1.25,0-2.44.14-2.44,1.83-1.53.38-1,1.63-1,2.54,0,9.72,0,19.43,0,29.14a13.22,13.22,0,0,0,.09,1.89C186.1,62.33,186.18,62.32,187,61.51Z"/><path class="cls-10" d="M187,61.51c-.79.81-.87.82-.93.43a13.22,13.22,0,0,1-.09-1.89c0-9.71,0-19.42,0-29.14,0-.91-.55-2.16,1-2.54l0,0c0,1.47,0,2.94,0,4.4Z"/><path class="cls-11" d="M186.94,32.8c0-1.46,0-2.93,0-4.4A5,5,0,0,1,186.94,32.8Z"/><path class="cls-1" d="M173.56,188c.2,8.21-6.66,9.58-11.31,7.74a5.86,5.86,0,0,1-3.79-5.47c-.14-1.91-.93-4.42,0-5.58,1.07-1.38,3.71-.41,5.66-.49s3.79,0,5.69,0C173.56,184.2,173.63,183.28,173.56,188Zm-7.66-.55v0a11.78,11.78,0,0,0-1.88,0c-.93.16-2.39-.66-2.68.62a4.5,4.5,0,0,0,1.08,4.17c1.48,1.5,5.55,1.34,7-.25a4.11,4.11,0,0,0,.88-4c-.37-1.19-1.78-.42-2.72-.55A13,13,0,0,0,165.9,187.41Z"/><path class="cls-1" d="M152.86,137.15l1.13.15.72.64,6.92,3.44c.7.35,1.63.64,1.72,1.47.11,1.05-1.06.94-1.68,1.32-1.65,1-3.6,1.55-5.12,2.84a2.61,2.61,0,0,0-1.8.31c-1.81,1.28-2.07.31-2-1.31C152.8,143.06,152.82,140.11,152.86,137.15Z"/><path class="cls-9" d="M152.86,137.15c0,3-.06,5.91-.14,8.86,0,1.62.22,2.59,2,1.31a2.61,2.61,0,0,1,1.8-.31c-1.28.81-2.61,2.32-4.1,1.53s-.52-2.59-.61-3.94c-.12-1.79,0-3.6,0-5.4C151.83,138.35,151.67,137.4,152.86,137.15Z"/><path class="cls-9" d="M154.71,137.94l-.72-.64C154.53,137.18,154.63,137.55,154.71,137.94Z"/></svg>