<svg width="30" height="30" viewBox="0 0 30 30" fill="none" xmlns="http://www.w3.org/2000/svg">
<path d="M14.7802 20.0475C14.717 19.7951 14.5909 19.5426 14.4331 19.3534L11.8458 15.8826L10.3943 16.987L10.3628 20.931L10.836 21.5619L12.666 28.3456C12.9499 29.3553 13.8965 30.1124 14.9377 29.9863C16.2629 29.8602 17.0831 28.5665 16.7677 27.336L14.7802 20.0475Z" fill="black"/>
<path d="M27.4324 12.1911H20.5541C20.1124 12.1911 19.7653 12.5067 19.7021 12.9167L21.69 14.3365C23.0466 15.3145 23.3622 17.2707 22.3841 18.6275C21.8163 19.4163 20.8697 19.9212 19.8916 19.9212H19.7024V19.9526C19.7024 20.4258 20.0809 20.8361 20.5858 20.8361H27.4641C27.9373 20.8361 28.3475 20.4259 28.3475 19.9526L28.3473 13.0744C28.3158 12.6012 27.9373 12.1909 27.4324 12.1909L27.4324 12.1911Z" fill="black"/>
<path d="M21.3114 17.9019C21.8792 17.1131 21.69 16.0087 20.9012 15.4408L18.2824 13.5476C18.3455 10.361 18.1877 9.79291 18.1246 9.60366C18.0299 9.25658 17.6197 8.02607 16.8626 6.98486L16.0107 5.849C15.5689 5.24946 14.8748 4.83923 14.1174 4.74458C13.3601 4.64994 12.603 4.90238 12.035 5.40728L5.69362 10.8342C5.22044 11.2444 4.96799 11.8122 4.93633 12.4118L4.84169 20.4575L2.15968 27.0833C1.71818 28.156 2.22284 29.3866 3.29576 29.8283C4.36847 30.27 5.59899 29.7336 6.04071 28.6609L8.88026 21.6564C8.97489 21.404 9.03806 21.1515 9.03806 20.8991L9.10123 16.2925L14.8121 11.9383C14.8121 12.6639 14.8121 13.5473 14.7806 14.3361C14.7491 14.904 15.0331 15.472 15.5063 15.8191L18.8824 18.2486C19.0085 18.3433 19.1348 18.4064 19.261 18.4379C19.9551 18.7852 20.8385 18.5644 21.3117 17.9018L21.3114 17.9019Z" fill="black"/>
<path d="M21.4477 0.0992633C23.4844 0.572889 24.7515 2.6078 24.2778 4.64452C23.8041 6.68124 21.7693 7.94849 19.7326 7.47482C17.6959 7.0012 16.4288 4.96606 16.9025 2.92934C17.3759 0.892677 19.411 -0.374407 21.4477 0.0992633Z" fill="black"/>
<path d="M25.5078 26.6733H24.6244V22.6662C24.6244 22.3191 24.3405 22.0667 24.0248 22.0667C23.6778 22.0667 23.4253 22.3506 23.4253 22.6662V26.6733H22.5419C22.3209 26.6733 22.1001 26.7994 22.0055 27.0204C21.9109 27.2414 21.9109 27.4621 22.0687 27.6514L23.5831 29.7021C23.7092 29.8599 23.867 29.9546 24.088 29.9546C24.3089 29.9546 24.4665 29.8599 24.5929 29.7021L26.1073 27.6514C26.2334 27.4621 26.2651 27.2097 26.1704 27.0204C25.9495 26.7997 25.7287 26.6733 25.5077 26.6733H25.5078Z" fill="black"/>
</svg>
