<svg width="30" height="30" viewBox="0 0 30 30" fill="none" xmlns="http://www.w3.org/2000/svg">
<path d="M14.7884 20.0575C14.7252 19.8049 14.599 19.5523 14.4411 19.3629L11.8838 15.8899L10.4314 16.995L10.3999 20.9416L10.8419 21.5415L12.7046 28.3295C12.9887 29.3399 13.9359 30.0975 14.9778 29.9713C16.3038 29.8451 17.1246 28.5506 16.809 27.3193L14.7884 20.0575Z" fill="black"/>
<path d="M27.4489 12.1961H20.5661C20.1241 12.1961 19.7768 12.5119 19.7136 12.9222L21.7027 14.3429C23.092 15.3215 23.3761 17.279 22.3973 18.6367C21.8291 19.426 20.8819 19.9312 19.9032 19.9312H19.6821V19.9627C19.6821 20.4362 20.0926 20.8467 20.5661 20.8467H27.4489C27.9224 20.8467 28.3329 20.4362 28.3329 19.9627V13.0799C28.3329 12.6065 27.9541 12.1959 27.4489 12.1959L27.4489 12.1961Z" fill="black"/>
<path d="M21.3239 17.9107C21.8921 17.1213 21.7027 16.0162 20.9134 15.448L18.2929 13.5536C18.3561 10.3648 18.1982 9.79644 18.135 9.60706C18.0403 9.25975 17.6298 8.02845 16.8722 6.98657L16.0197 5.84997C15.5777 5.25004 14.8831 4.83955 14.1253 4.74483C13.3675 4.65013 12.6099 4.90274 12.0415 5.40796L5.69601 10.8384C5.22252 11.2489 4.93823 11.8171 4.93823 12.417L4.84353 20.4679L2.15978 27.098C1.718 28.1714 2.22299 29.4027 3.2966 29.8448C4.37 30.2868 5.60132 29.7501 6.04333 28.6766L8.88471 21.6676C8.97941 21.415 9.04261 21.1624 9.04261 20.9098L9.10582 16.3002L14.8204 11.9432C14.8204 12.6693 14.8204 13.5533 14.7889 14.3426C14.7574 14.9108 15.0415 15.4792 15.515 15.8265L18.8933 18.2576C19.0195 18.3523 19.1459 18.4155 19.2721 18.447C19.9667 18.7945 20.8507 18.5736 21.3242 17.9105L21.3239 17.9107Z" fill="black"/>
<path d="M21.4625 0.0993304C23.5005 0.573262 24.7686 2.60949 24.2946 4.64753C23.8207 6.68551 21.7842 7.95364 19.7462 7.47966C17.7081 7.00568 16.4403 4.96928 16.9143 2.93124C17.3882 0.893201 19.4244 -0.374647 21.4625 0.0993304Z" fill="black"/>
<path d="M24.5127 22.3307C24.2916 22.0149 23.7549 22.0149 23.534 22.3307L22.0186 24.3828C21.8924 24.5722 21.8607 24.8248 21.9554 25.0142C22.0501 25.2036 22.2712 25.3615 22.4921 25.3615H23.3761V29.3712C23.3761 29.7185 23.6602 29.9711 23.9761 29.9711C24.3234 29.9711 24.576 29.6871 24.576 29.3712L24.5758 25.33H25.4912C25.7124 25.33 25.9332 25.2038 26.0279 24.9827C26.1226 24.7616 26.1226 24.5407 25.9647 24.3513L24.5127 22.3307Z" fill="black"/>
</svg>
