<svg width="30" height="30" viewBox="0 0 30 30" fill="none" xmlns="http://www.w3.org/2000/svg">
<path d="M7.85695 15.3975H13.6468C13.8919 15.3972 14.1241 15.2829 14.2796 15.0859C14.4351 14.889 14.4976 14.63 14.4503 14.38L14.2349 13.2643H7.26939C7.2742 13.2708 7.01534 14.5083 7.0494 14.4639C7.02395 14.7023 7.09788 14.9407 7.25216 15.1191C7.40644 15.2974 7.62663 15.3987 7.85726 15.3975H7.85695Z" fill="black"/>
<path d="M20.8498 11.6634V10.7299C20.8492 10.4825 20.7543 10.2454 20.5862 10.0706C20.4181 9.89577 20.19 9.79698 19.9522 9.79636H19.0546V12.5969H19.9522C20.1901 12.5963 20.4181 12.4975 20.5862 12.3227C20.7542 12.1479 20.8492 11.9107 20.8498 11.6634Z" fill="black"/>
<path d="M18.6058 9.79633H14.8716L14.6877 13.2364C14.7959 13.8802 15.1371 14.8325 14.6248 15.3835C14.3854 15.6894 14.0257 15.8661 13.6465 15.8642H7.85657C7.51375 15.8629 7.18618 15.7173 6.94854 15.4604C6.71091 15.2034 6.58348 14.8575 6.5955 14.5012C6.63578 14.1222 6.70029 13.7465 6.78845 13.3764C6.80909 12.2969 6.7035 11.3031 6.63137 9.79635H3.79485C3.55702 9.79697 3.32901 9.89574 3.16092 10.0706C2.99284 10.2454 2.89785 10.4825 2.89725 10.7298V20.9986H18.6055L18.6058 9.79633Z" fill="black"/>
<path d="M6.51053 21.4653H2.8976C2.65977 21.466 2.43176 21.5647 2.26367 21.7396C2.09559 21.9144 2.0006 22.1515 2 22.3988V23.3324C2.0006 23.5797 2.09557 23.8168 2.26367 23.9916C2.43177 24.1665 2.65979 24.2652 2.8976 24.2659H4.74674C4.85433 23.0869 5.51433 22.039 6.51053 21.4653Z" fill="black"/>
<path d="M22.1963 17.7313V13.5304H21.2986C21.0608 13.5311 20.8328 13.6298 20.6647 13.8046C20.4966 13.9795 20.4016 14.2166 20.401 14.4639V21.4653H10.0113C11.0193 22.0381 11.7007 23.0804 11.8423 24.2659H19.1084C19.5899 19.9348 25.6405 19.9563 26.2042 24.2659H27.1333C27.3711 24.2653 27.5991 24.1665 27.7672 23.9917C27.9353 23.8169 28.0303 23.5797 28.0309 23.3324V19.1316H23.5428C23.1859 19.1305 22.8441 18.9826 22.5919 18.7202C22.3396 18.4579 22.1974 18.1024 22.1964 17.7313L22.1963 17.7313Z" fill="black"/>
<path d="M24.705 13.8057C24.5361 13.6294 24.3069 13.5304 24.0676 13.5302H22.6449V17.7311C22.6455 17.9784 22.7404 18.2155 22.9085 18.3903C23.0766 18.5651 23.3046 18.6639 23.5425 18.6646H28.0305C28.0003 18.2015 28.1618 17.3322 27.7657 16.9888L24.705 13.8057Z" fill="black"/>
<path d="M8.28319 21.4653C4.12769 21.611 4.12231 27.8448 8.28319 28C12.4619 27.8437 12.4204 21.6051 8.28319 21.4653Z" fill="black"/>
<path d="M22.6451 21.4653C18.4896 21.611 18.4842 27.8448 22.6451 28C26.8238 27.8437 26.7823 21.6051 22.6451 21.4653Z" fill="black"/>
<path d="M14.2598 12.7975L14.5982 6.49647C14.6038 6.22225 14.489 5.96052 14.2862 5.78508C14.0837 5.60962 13.8152 5.54002 13.5569 5.59566V6.52918C13.5569 6.82091 13.4072 7.09074 13.1642 7.23663C12.9212 7.38253 12.6218 7.3825 12.3788 7.23663C12.1358 7.09077 11.9861 6.82092 11.9861 6.52918V5.59566H9.51766V6.52918C9.51766 6.82091 9.36799 7.09074 9.12496 7.23663C8.88193 7.38253 8.58259 7.3825 8.33957 7.23663C8.09655 7.09077 7.94686 6.82092 7.94686 6.52918V5.59566C7.6886 5.54002 7.42009 5.60962 7.21733 5.78508C7.01477 5.96032 6.89996 6.22225 6.90557 6.49647C6.92861 7.00553 7.17025 11.327 7.24639 12.7975H14.2598Z" fill="black"/>
<path d="M8.732 6.87894C8.91794 6.87894 9.06861 6.72224 9.06861 6.52887V4.42845C9.07542 3.8079 9.3976 3.23738 9.91555 2.929C10.4335 2.62082 11.0698 2.62082 11.5878 2.929C12.1057 3.23739 12.4279 3.80795 12.4347 4.42845V6.52887C12.4383 6.71953 12.588 6.87207 12.7713 6.87207C12.9547 6.87207 13.1043 6.71953 13.1079 6.52887V4.42845C13.009 1.19052 8.49424 1.19052 8.39545 4.42845V6.52887C8.39545 6.72224 8.54612 6.87894 8.73205 6.87894H8.732Z" fill="black"/>
</svg>
