<svg width="63" height="70" viewBox="0 0 63 70" fill="none" xmlns="http://www.w3.org/2000/svg">
<g clip-path="url(#clip0)">
<path d="M8.6183 8.66623C8.6183 8.07837 8.77227 7.61648 9.08019 7.28056C9.41611 6.91665 9.878 6.73469 10.4659 6.73469H38.3472C40.8106 6.73469 43.1341 7.21058 45.3176 8.16235C47.501 9.08613 49.4046 10.3738 51.0282 12.0254C52.6798 13.649 53.9815 15.5666 54.9333 17.7781C55.885 19.9615 56.3609 22.313 56.3609 24.8324C56.3609 26.9319 56.025 28.8914 55.3532 30.711C54.7093 32.5026 53.7855 34.1122 52.5818 35.5398C54.5974 37.3874 56.193 39.5849 57.3687 42.1323C58.5444 44.6797 59.1323 47.381 59.1323 50.2363C59.1323 52.7837 58.6424 55.2051 57.6626 57.5006C56.6829 59.7681 55.3532 61.7696 53.6736 63.5052C52.022 65.2128 50.0764 66.5704 47.837 67.5782C45.6255 68.586 43.2881 69.0898 40.8246 69.0898H10.4659C9.906 69.0898 9.4581 68.9499 9.12218 68.6699C8.78626 68.362 8.6183 67.9001 8.6183 67.2843V8.66623ZM42.4622 49.6065C42.4622 48.7667 42.2943 47.9269 41.9584 47.0871C41.6504 46.2473 41.2025 45.5055 40.6147 44.8616C40.0548 44.1898 39.369 43.6439 38.5572 43.224C37.7734 42.8041 36.9196 42.5942 35.9958 42.5942H24.9104V56.6188H35.9958C36.9196 56.6188 37.7734 56.4229 38.5572 56.031C39.341 55.639 40.0268 55.1212 40.6147 54.4773C41.2025 53.8055 41.6504 53.0497 41.9584 52.2099C42.2943 51.3701 42.4622 50.5023 42.4622 49.6065ZM40.2368 25.2103C40.2368 24.3705 40.0828 23.5867 39.7749 22.8588C39.467 22.131 39.0331 21.4872 38.4732 20.9273C37.9133 20.3674 37.2415 19.9335 36.4577 19.6256C35.6739 19.2897 34.8201 19.1217 33.8963 19.1217H24.9104V31.2988H33.7703C34.7221 31.2988 35.5899 31.1589 36.3737 30.8789C37.1855 30.571 37.8713 30.1511 38.4312 29.6192C38.9911 29.0594 39.425 28.4155 39.7329 27.6877C40.0688 26.9319 40.2368 26.1061 40.2368 25.2103Z" fill="white"/>
<path d="M52.5799 35.4697H23.4199C19.4921 35.4697 15.7251 37.0301 12.9477 39.8075C10.1703 42.5849 8.60992 46.3519 8.60992 50.2797V67.2197C8.58849 67.4701 8.62314 67.722 8.71136 67.9573C8.79959 68.1926 8.93916 68.4052 9.11992 68.5797C9.49459 68.8911 9.97361 69.0484 10.4599 69.0197H40.8199C43.2344 69.0228 45.6214 68.5079 47.8199 67.5097C50.0069 66.5318 51.986 65.1434 53.6499 63.4197C55.3429 61.6843 56.6991 59.6499 57.6499 57.4197C58.6316 55.1329 59.132 52.6684 59.1199 50.1797C59.1323 47.3835 58.5315 44.6187 57.3599 42.0797C56.225 39.5787 54.5996 37.331 52.5799 35.4697V35.4697ZM41.9999 52.1397C41.6817 52.9657 41.2177 53.7278 40.6299 54.3897C40.0416 55.054 39.3323 55.6004 38.5399 55.9997C37.7438 56.391 36.8669 56.5897 35.9799 56.5797H24.8599V42.5797H35.9999C36.8988 42.5734 37.7852 42.7898 38.5799 43.2097C39.3615 43.617 40.0628 44.1625 40.6499 44.8197C41.2178 45.4664 41.6741 46.2031 41.9999 46.9997C42.3138 47.803 42.4765 48.6573 42.4799 49.5197C42.4838 50.4153 42.321 51.3037 41.9999 52.1397V52.1397Z" fill="#63BF8B"/>
</g>
<defs>
<clipPath id="clip0">
<rect width="63" height="70" fill="white"/>
</clipPath>
</defs>
</svg>
