<svg id="Layer_1" data-name="Layer 1" xmlns="http://www.w3.org/2000/svg" viewBox="0 0 229 82"><defs><style>.cls-1{fill:#fff;}.cls-1,.cls-2{stroke:#231f20;stroke-miterlimit:10;}.cls-2,.cls-3{fill:#63bf8b;}.cls-4{fill:#979797;}</style></defs><path class="cls-1" d="M60.64,45.07a17.76,17.76,0,0,0-1.12-1.94c.36.57.7,1.16,1,1.76a16.37,16.37,0,0,1,1.83,7.64,15.52,15.52,0,0,1-1.53,6.93,18,18,0,0,1-4.17,5.68,19.68,19.68,0,0,1-6.06,3.78,18.93,18.93,0,0,1-7.28,1.43H11.62a2.22,2.22,0,0,1-1.39-.42,1.56,1.56,0,0,1-.42-.59,1.18,1.18,0,0,1-.07-.2.38.38,0,0,0,.08.28,1.65,1.65,0,0,0,.41.6,2.36,2.36,0,0,0,1.41.4H43.29A18.65,18.65,0,0,0,50.59,69a19.92,19.92,0,0,0,6.1-3.84,18.79,18.79,0,0,0,4.22-5.55,16,16,0,0,0,1.56-6.89A16.4,16.4,0,0,0,60.64,45.07ZM44.47,49.69A6,6,0,0,1,45,52.08a6.05,6.05,0,0,1-.1,1.41,6.65,6.65,0,0,0-.33-3.89,8.82,8.82,0,0,0-1.42-2.1A7.63,7.63,0,0,0,41,46a5.87,5.87,0,0,0-1.28-.44A6.52,6.52,0,0,1,41,46,7.34,7.34,0,0,1,44.47,49.69Zm.23,4.45a2.35,2.35,0,0,1-.14.37h0A2.35,2.35,0,0,0,44.7,54.14Zm-18-8.7h-.09V58.63h.09Z"/><path class="cls-2" d="M55.67,38.72h0a19.54,19.54,0,0,1,3.44,3.71A19.54,19.54,0,0,0,55.67,38.72ZM43.09,56.58a6.88,6.88,0,0,1-2.18,1.51,5.93,5.93,0,0,1-2.66.54H26.73v.07h11.6A6.45,6.45,0,0,0,41,58.15a7,7,0,0,0,2.14-1.47,6.52,6.52,0,0,0,1.41-2.1v-.07h0A7.53,7.53,0,0,1,43.09,56.58ZM9.72,52V68.71a1.21,1.21,0,0,0,0,.42,2.81,2.81,0,0,1,0-.41Z"/><path class="cls-1" d="M60.52,44.89c-.3-.6-.64-1.19-1-1.76-.14-.23-.29-.45-.44-.66a19.54,19.54,0,0,0-3.44-3.71h0a13.71,13.71,0,0,0,2.87-4.51,14.63,14.63,0,0,0,1-5.55A15.1,15.1,0,0,0,58,22a17.15,17.15,0,0,0-4.06-5.42,18.85,18.85,0,0,0-6-3.65,20,20,0,0,0-7.22-1.35h-29a2.33,2.33,0,0,0-.79.12,1.92,1.92,0,0,0-.67.41,1.78,1.78,0,0,0-.46,1.3V68.72a2.81,2.81,0,0,0,0,.41h0a1.18,1.18,0,0,0,.07.2,1.56,1.56,0,0,0,.42.59,2.22,2.22,0,0,0,1.39.42H43.31a18.93,18.93,0,0,0,7.28-1.43,19.68,19.68,0,0,0,6.06-3.78,18,18,0,0,0,4.17-5.68,15.52,15.52,0,0,0,1.53-6.93A16.35,16.35,0,0,0,60.52,44.89Z"/><path class="cls-1" d="M26.73,23.3H36a7.61,7.61,0,0,1,2.67.49,5.45,5.45,0,0,1,3.52,3A5.51,5.51,0,0,1,42.66,29a5.56,5.56,0,0,1-1.89,4.22,5.84,5.84,0,0,1-2.09,1.17,8.62,8.62,0,0,1-2.67.38H26.73Z"/><path class="cls-1" d="M44.2,53.34a4.05,4.05,0,0,1-.12.5L44,54a2.06,2.06,0,0,1-.12.35h0v.07a6.19,6.19,0,0,1-1.31,2,6.85,6.85,0,0,1-2,1.37,6.05,6.05,0,0,1-2.48.51H27.27v-.06h-.08V45.83H38a5.74,5.74,0,0,1,1.37.14,6.2,6.2,0,0,1,1.19.41,7.18,7.18,0,0,1,2,1.41,8.07,8.07,0,0,1,1.32,2A5.81,5.81,0,0,1,44.36,52,5.52,5.52,0,0,1,44.2,53.34Z"/><path class="cls-3" d="M10.47,69.64a2.18,2.18,0,0,0,1.37.42H43.11a19,19,0,0,0,7.18-1.41,19.26,19.26,0,0,0,6-3.73,17.62,17.62,0,0,0,4.11-5.61,15.25,15.25,0,0,0,1.51-6.84,16.17,16.17,0,0,0-1.8-7.53,18.18,18.18,0,0,0-1-1.71,18.75,18.75,0,0,0-3.85-4.34h0l-.15-.14v.13h-30a16.15,16.15,0,0,0-10.77,4A13.19,13.19,0,0,0,10,52.16V68.45a1.62,1.62,0,0,0,0,.44.49.49,0,0,0,0,.17A1.47,1.47,0,0,0,10.47,69.64ZM26.66,45.48H38.22a6,6,0,0,1,2.6.58A7.74,7.74,0,0,1,43,47.55a9.09,9.09,0,0,1,1.4,2.07A6.07,6.07,0,0,1,44.82,52a6.43,6.43,0,0,1-.47,2.45h0v.07A6.19,6.19,0,0,1,43,56.59,7.11,7.11,0,0,1,40.82,58a6.43,6.43,0,0,1-2.63.55H26.75v-.08h-.09Z"/><path d="M71.49,43.86V14.61H81.75a13.35,13.35,0,0,1,8.07,2,7,7,0,0,1,2.76,6,6.65,6.65,0,0,1-1.11,3.8,6.29,6.29,0,0,1-3,2.36A6.13,6.13,0,0,1,92,31.05a6.79,6.79,0,0,1,1.22,4.21,7.73,7.73,0,0,1-2.7,6.33,12.06,12.06,0,0,1-7.67,2.2Zm6-12.67v7.92h5.16a5.05,5.05,0,0,0,3.33-1,3.53,3.53,0,0,0,1.2-2.82q0-4-4.16-4.08Zm0-4.25H82c3,0,4.56-1.27,4.56-3.64a3.33,3.33,0,0,0-1.16-2.85,6,6,0,0,0-3.64-.89H77.53Zm32.89,14.8a7.26,7.26,0,0,1-5.93,2.61,7,7,0,0,1-5.35-2,8.65,8.65,0,0,1-1.87-5.89V22.2H103v14c0,2.27,1,3.4,3.09,3.41a4.23,4.23,0,0,0,4.06-2.06V22.12H116V43.86h-5.41Zm16.15,2.2H120.7V22.12h5.83Zm-6.17-27.37a2.84,2.84,0,0,1,.87-2.15,3.27,3.27,0,0,1,2.39-.84,3.33,3.33,0,0,1,2.37.84,2.84,2.84,0,0,1,.87,2.15,2.83,2.83,0,0,1-.9,2.17,3.17,3.17,0,0,1-2.34.85,3.36,3.36,0,0,1-2.38-.85,2.89,2.89,0,0,1-.88-2.25Zm17.15,27.29h-5.82V12.94h5.82Zm3.91-11.08a13.22,13.22,0,0,1,2.27-8.09,7.44,7.44,0,0,1,6.25-3A6.65,6.65,0,0,1,155.21,24V12.94h5.84V43.81h-5.26l-.28-2.31a6.85,6.85,0,0,1-5.59,2.72,7.44,7.44,0,0,1-6.16-3,13.58,13.58,0,0,1-2.37-8.38Zm5.81.42a8.65,8.65,0,0,0,1.09,4.8,3.51,3.51,0,0,0,3.09,1.59,3.87,3.87,0,0,0,3.8-2.28V28.77a3.81,3.81,0,0,0-3.75-2.26c-2.85,0-4.27,2.2-4.26,6.74Zm28.29,11.08a10.62,10.62,0,0,1-7.79-2.94,10.41,10.41,0,0,1-3-7.82V33A13.16,13.16,0,0,1,166,27.11a9.24,9.24,0,0,1,3.58-4,10.08,10.08,0,0,1,5.3-1.41,9,9,0,0,1,7,2.8,11.41,11.41,0,0,1,2.57,7.91v2.38H170.58a5.49,5.49,0,0,0,1.69,3.45,5.14,5.14,0,0,0,3.59,1.28,6.34,6.34,0,0,0,5.26-2.44l2.88,3.2a8.88,8.88,0,0,1-3.55,2.9,11.79,11.79,0,0,1-4.89,1.09Zm-.67-17.85A3.65,3.65,0,0,0,172,27.6a6.23,6.23,0,0,0-1.37,3.34h8v-.47a4.23,4.23,0,0,0-1.06-3,3.72,3.72,0,0,0-2.82-1.1ZM200,27.58a16.21,16.21,0,0,0-2.09-.17,4.27,4.27,0,0,0-4.32,2.23V43.89H187.8V22.12h5.47l.16,2.58a5.4,5.4,0,0,1,4.84-3,6.2,6.2,0,0,1,1.81.27Zm14.59,10.29a1.83,1.83,0,0,0-1.06-1.67,11.81,11.81,0,0,0-3.37-1.11q-7.75-1.59-7.77-6.59a6,6,0,0,1,2.4-4.82,9.64,9.64,0,0,1,6.34-1.95,10.42,10.42,0,0,1,6.61,1.95,6.11,6.11,0,0,1,2.49,5.06h-5.81a2.77,2.77,0,0,0-.81-2,3.27,3.27,0,0,0-2.5-.82,3.46,3.46,0,0,0-2.28.66,2.07,2.07,0,0,0-.81,1.68,1.83,1.83,0,0,0,1,1.54,9.91,9.91,0,0,0,3.09,1,24.34,24.34,0,0,1,3.65,1c3.08,1.11,4.61,3.06,4.61,5.84a5.71,5.71,0,0,1-2.55,4.82,11,11,0,0,1-6.6,1.84,12,12,0,0,1-4.86-1A8.46,8.46,0,0,1,203,40.66,6.22,6.22,0,0,1,201.8,37h5.41a3,3,0,0,0,1.15,2.36,4.46,4.46,0,0,0,2.85.82,4.23,4.23,0,0,0,2.5-.62,2,2,0,0,0,.86-1.69Z"/><path class="cls-4" d="M74.6,50.72l5.88,14.69,5.89-14.69h3.07v18H87.07v-7l.22-7.57-5.9,14.58H79.53l-5.9-14.55.24,7.54v7H71.49v-18Zm26.9,18a4.88,4.88,0,0,1-.31-1.41,5.05,5.05,0,0,1-3.82,1.58,4.85,4.85,0,0,1-3.16-1.1,3.66,3.66,0,0,1-1.27-2.85,3.85,3.85,0,0,1,1.58-3.17A7.44,7.44,0,0,1,99,60.62h2.23V59.56a2.48,2.48,0,0,0-.72-1.9,2.91,2.91,0,0,0-2.11-.72,3.36,3.36,0,0,0-2.06.62,1.83,1.83,0,0,0-.82,1.49H93.21a3.12,3.12,0,0,1,.71-1.93,5,5,0,0,1,1.93-1.47,6.35,6.35,0,0,1,2.68-.56,5.28,5.28,0,0,1,3.62,1.17,4.06,4.06,0,0,1,1.36,3.17v6.16a7.44,7.44,0,0,0,.48,2.92v.19ZM97.72,67a3.94,3.94,0,0,0,2-.55A3.65,3.65,0,0,0,101.16,65V62.23H99.35c-2.8,0-4.19.82-4.19,2.47a2.1,2.1,0,0,0,.71,1.68,2.83,2.83,0,0,0,1.88.6Zm15.83-9.5a5.33,5.33,0,0,0-1.13-.09,3,3,0,0,0-3,1.91v9.5h-2.28V55.35h2.22v1.58a3.53,3.53,0,0,1,3.16-1.81,2.46,2.46,0,0,1,1,.18Zm5.86,5.13L118,64.1v4.75h-2.27v-19H118V61.34l1.24-1.47,4.16-4.4h2.79L121,61.06l5.81,7.79H124.1Zm14.4,6.44a5.87,5.87,0,0,1-4.43-1.79,6.72,6.72,0,0,1-1.7-4.74v-.43a8.07,8.07,0,0,1,.75-3.55,6,6,0,0,1,2.13-2.43,5.25,5.25,0,0,1,3-.91,5,5,0,0,1,4,1.6,7.36,7.36,0,0,1,1.44,4.9v1h-9.07a4.79,4.79,0,0,0,1.16,3.17,3.66,3.66,0,0,0,2.81,1.22,4.1,4.1,0,0,0,2.06-.49,5.15,5.15,0,0,0,1.47-1.32l1.4,1.1a5.66,5.66,0,0,1-5.05,2.6Zm-.29-12a3,3,0,0,0-2.32,1,4.94,4.94,0,0,0-1.2,2.82h6.7v-.18a4.35,4.35,0,0,0-.9-2.71,2.81,2.81,0,0,0-2.31-1Zm11.24-5v3.17h2.5v1.9h-2.5v8.29a1.93,1.93,0,0,0,.33,1.21,1.41,1.41,0,0,0,1.14.39,5.81,5.81,0,0,0,1.1-.14v1.85a6.14,6.14,0,0,1-1.76.25,2.81,2.81,0,0,1-2.31-.93,3.94,3.94,0,0,1-.79-2.63V57.12H140V55.35h2.44v-3.3ZM159,61.55v7h-2.38V50.72h6.64a6.7,6.7,0,0,1,4.62,1.59,5.66,5.66,0,0,1,0,8h0a7,7,0,0,1-4.75,1.41Zm0-1.95h4.26a4.26,4.26,0,0,0,2.92-.88,3.37,3.37,0,0,0,1-2.6,3.45,3.45,0,0,0-1-2.58,4.15,4.15,0,0,0-2.78-1H159Zm15.72,9h-2.28v-19h2.28Zm11.93,0a4.83,4.83,0,0,1-.32-1.4,5.1,5.1,0,0,1-3.81,1.58,4.81,4.81,0,0,1-3.17-1.11,3.7,3.7,0,0,1-1.26-2.85,3.77,3.77,0,0,1,1.58-3.16,7.45,7.45,0,0,1,4.48-1.16h2.23V59.43a2.49,2.49,0,0,0-.73-1.9,2.83,2.83,0,0,0-2.1-.71,3.3,3.3,0,0,0-2.06.62,1.75,1.75,0,0,0-.82,1.48h-2.31a3.08,3.08,0,0,1,.71-1.93A4.91,4.91,0,0,1,181,55.52a6.45,6.45,0,0,1,2.67-.55,5.26,5.26,0,0,1,3.63,1.17,4.05,4.05,0,0,1,1.36,3.16v6.16a7.51,7.51,0,0,0,.47,2.93v.19Zm-3.78-1.74a3.94,3.94,0,0,0,2-.55,3.49,3.49,0,0,0,1.41-1.44V62.23h-1.8q-4.2,0-4.2,2.47a2.11,2.11,0,0,0,.71,1.68,2.9,2.9,0,0,0,1.81.6Zm14.67.13a3.39,3.39,0,0,0,2.14-.74,2.63,2.63,0,0,0,1-1.86h2.17a4.22,4.22,0,0,1-.79,2.19,5.23,5.23,0,0,1-2,1.58A5.92,5.92,0,0,1,193.2,67a7.29,7.29,0,0,1-1.59-5v-.38a8,8,0,0,1,.73-3.47,5.55,5.55,0,0,1,2-2.37,6,6,0,0,1,3.17-.84,5.36,5.36,0,0,1,3.74,1.34,4.88,4.88,0,0,1,1.58,3.52H200.7a3.13,3.13,0,0,0-1-2.14,3.07,3.07,0,0,0-2.19-.84,3.14,3.14,0,0,0-2.7,1.27,5.76,5.76,0,0,0-1,3.62v.43a5.71,5.71,0,0,0,1,3.56,3.17,3.17,0,0,0,2.67,1.46Zm13.36,2a5.9,5.9,0,0,1-4.43-1.78,6.74,6.74,0,0,1-1.7-4.75V62a8.07,8.07,0,0,1,.75-3.55A6.1,6.1,0,0,1,207.74,56a5.34,5.34,0,0,1,3-.9,5,5,0,0,1,4,1.71,7.43,7.43,0,0,1,1.45,4.92v1h-9.07a4.79,4.79,0,0,0,1.16,3.17,3.7,3.7,0,0,0,2.82,1.22,4.09,4.09,0,0,0,2.05-.49,5.49,5.49,0,0,0,1.48-1.32l1.39,1.1A5.64,5.64,0,0,1,210.91,69Zm-.29-12a3,3,0,0,0-2.32,1,4.89,4.89,0,0,0-1.16,2.82h6.7v-.18a4.32,4.32,0,0,0-.94-2.69,2.79,2.79,0,0,0-2.24-1Z"/></svg>