<svg id="Layer_1" data-name="Layer 1" xmlns="http://www.w3.org/2000/svg" viewBox="0 0 53.77 59.84"><defs><style>.cls-1{fill:#fff;}.cls-1,.cls-2{stroke:#231f20;stroke-miterlimit:10;}.cls-2,.cls-3{fill:#63bf8b;}</style></defs><path class="cls-1" d="M51.44,34a17.76,17.76,0,0,0-1.12-1.94c.36.57.7,1.16,1,1.76a16.37,16.37,0,0,1,1.83,7.64,15.52,15.52,0,0,1-1.53,6.93,18,18,0,0,1-4.17,5.68,19.68,19.68,0,0,1-6.06,3.78,18.93,18.93,0,0,1-7.28,1.43H2.42A2.22,2.22,0,0,1,1,58.85a1.46,1.46,0,0,1-.42-.59,1.18,1.18,0,0,1-.07-.2.4.4,0,0,0,.08.28,1.65,1.65,0,0,0,.41.6,2.35,2.35,0,0,0,1.41.4H34.09a18.65,18.65,0,0,0,7.3-1.42,19.92,19.92,0,0,0,6.1-3.84,18.79,18.79,0,0,0,4.22-5.55,16,16,0,0,0,1.56-6.89A16.4,16.4,0,0,0,51.44,34ZM35.27,38.61A6,6,0,0,1,35.8,41a6.05,6.05,0,0,1-.1,1.41,6.63,6.63,0,0,0-.33-3.89A9,9,0,0,0,34,36.42a7.63,7.63,0,0,0-2.15-1.5,6.46,6.46,0,0,0-1.28-.44,6.46,6.46,0,0,1,1.28.44A7.34,7.34,0,0,1,35.27,38.61Zm.23,4.45a2.35,2.35,0,0,1-.14.37h0A2.35,2.35,0,0,0,35.5,43.06Zm-18-8.7h-.09V47.55h.09Z"/><path class="cls-2" d="M46.47,27.64h0a19.54,19.54,0,0,1,3.44,3.71A19.54,19.54,0,0,0,46.47,27.64ZM33.89,45.5A6.88,6.88,0,0,1,31.71,47a6,6,0,0,1-2.66.54H17.53v.07h11.6a6.45,6.45,0,0,0,2.67-.55,7,7,0,0,0,2.14-1.47,6.52,6.52,0,0,0,1.41-2.1v-.07h0A7.53,7.53,0,0,1,33.89,45.5ZM.52,40.92V57.63a1,1,0,0,0,0,.42,2.81,2.81,0,0,1,0-.41Z"/><path class="cls-1" d="M51.32,33.81c-.3-.6-.64-1.19-1-1.76-.14-.23-.29-.45-.44-.66a19.54,19.54,0,0,0-3.44-3.71h0a13.71,13.71,0,0,0,2.87-4.51,14.63,14.63,0,0,0,1-5.55,15.1,15.1,0,0,0-1.51-6.7A17.15,17.15,0,0,0,44.74,5.5a19,19,0,0,0-6-3.65A20,20,0,0,0,31.52.5h-29a2.33,2.33,0,0,0-.79.12A1.92,1.92,0,0,0,1.06,1,1.77,1.77,0,0,0,.6,2.33V57.64a2.81,2.81,0,0,0,0,.41h0a1.18,1.18,0,0,0,.07.2,1.46,1.46,0,0,0,.42.59,2.22,2.22,0,0,0,1.39.42H34.11a18.93,18.93,0,0,0,7.28-1.43,19.68,19.68,0,0,0,6.06-3.78,18,18,0,0,0,4.17-5.68,15.52,15.52,0,0,0,1.53-6.93A16.35,16.35,0,0,0,51.32,33.81Z"/><path class="cls-1" d="M17.53,12.22H26.8a7.65,7.65,0,0,1,2.67.49,5.38,5.38,0,0,1,4,5.21,5.59,5.59,0,0,1-1.89,4.22,5.84,5.84,0,0,1-2.09,1.17,8.67,8.67,0,0,1-2.67.38H17.53Z"/><path class="cls-1" d="M35,42.26a4.05,4.05,0,0,1-.12.5l-.08.16a2.06,2.06,0,0,1-.12.35h0v.07a6.09,6.09,0,0,1-1.31,2,6.85,6.85,0,0,1-2,1.37,6.05,6.05,0,0,1-2.48.51H18.07v-.06H18V34.75H28.8a5.74,5.74,0,0,1,1.37.14,6.2,6.2,0,0,1,1.19.41,7.18,7.18,0,0,1,2,1.41,8.07,8.07,0,0,1,1.32,2,6,6,0,0,1,.48,2.21A5.52,5.52,0,0,1,35,42.26Z"/><path class="cls-3" d="M1.27,58.56A2.16,2.16,0,0,0,2.64,59H33.91a19,19,0,0,0,7.18-1.41,19.26,19.26,0,0,0,6-3.73,17.66,17.66,0,0,0,4.11-5.61,15.25,15.25,0,0,0,1.51-6.84,16.17,16.17,0,0,0-1.8-7.53,18.18,18.18,0,0,0-1-1.71,18.75,18.75,0,0,0-3.85-4.34h0l-.15-.14v.13h-30a16.15,16.15,0,0,0-10.77,4A13.19,13.19,0,0,0,.8,41.08V57.37a1.62,1.62,0,0,0,0,.44A.49.49,0,0,0,.8,58,1.39,1.39,0,0,0,1.27,58.56ZM17.46,34.4H29a6,6,0,0,1,2.6.58,7.74,7.74,0,0,1,2.18,1.49,9.09,9.09,0,0,1,1.4,2.07,6.07,6.07,0,0,1,.42,2.38,6.63,6.63,0,0,1-.47,2.45h0v.07a6.33,6.33,0,0,1-1.35,2.07,7.1,7.1,0,0,1-2.18,1.41,6.46,6.46,0,0,1-2.63.55H17.55v-.08h-.09Z"/></svg>